<svg width="1920" height="228" viewBox="0 0 1920 228" fill="none" xmlns="http://www.w3.org/2000/svg">
<path d="M1841.67 52.5116C1093.14 306.627 355.554 158.393 80.3282 52.5116C32.4843 101.013 -70.7006 197.523 -100.689 195.55C-138.175 193.084 -189.205 226.357 -202.789 239.941C-222.025 259.177 -206.777 309.692 -215.613 314.913C-226.465 321.325 -260.436 340.561 -267.896 351.413C-273.322 359.304 -287.627 422.305 -267.897 433.783C396.985 762.771 1921.08 628.118 2182.01 433.783C2201.74 412.573 2193.84 375.581 2188.42 356.345C2184.08 340.956 2141.89 317.708 2121.34 308.008C2123.64 299.458 2126.86 275.355 2121.34 247.34C2091.34 207.51 2004.48 184.348 1959.97 172.477L1959.56 172.368C1915.16 160.53 1940.81 29.3294 1841.67 52.5116Z" fill="url(#paint0_linear_129_1772)" stroke="#2C0060" stroke-width="12" stroke-linejoin="round"/>
<path d="M70.4641 87.5311C38.5024 62.672 69.3132 54.1554 88.7138 53.0045C370.845 150.665 597.733 178.78 934.613 191.111C1204.12 200.975 1579.6 126.168 1733.66 87.5311L1885.08 36.7279C1898.72 48.7299 1913.09 78.2583 1861.4 100.355C817.716 388.898 110.416 118.605 70.4641 87.5311Z" fill="#FF86DD"/>
<path d="M1819.48 265.589C1138.32 447.593 396.986 339.081 104.497 265.589C41.1985 243.722 -90.0352 199.2 -108.581 196.043C-131.763 192.097 -209.201 237.968 -215.613 246.353C-220.743 253.061 -217.75 293.539 -215.613 312.94C-199.172 346.644 -17.8254 424.608 576.031 466.829C1169.89 509.05 1661.64 448.251 1833.29 412.573C1933.09 390.213 2126.86 339.969 2121.34 308.007C2125.28 293.868 2130.81 261.742 2121.34 246.353C2111.87 230.964 2060.51 207.387 2036.01 197.523L1819.48 265.589Z" fill="#DDB8A9" stroke="#EBABAB" stroke-linejoin="round"/>
<path d="M543.503 159.354C543.809 159.832 544.234 160.457 544.589 160.912C544.692 161.048 544.668 160.947 544.743 161.038C544.89 161.216 545.003 161.409 545.156 161.581C545.207 161.637 545.201 161.502 545.255 161.562C545.55 161.885 545.797 162.233 546.097 162.575C547.559 164.224 549.033 165.798 550.61 167.39C551.133 167.923 551.874 168.385 552.335 169.017C552.388 169.091 552.198 169.228 552.197 169.255C552.182 169.675 552.434 169.253 552.596 169.331C553.241 169.646 553.793 170.157 554.182 170.703C554.348 170.936 553.804 171.137 554.195 171.115C554.222 171.113 554.36 170.846 554.434 170.878C554.601 170.95 554.801 171.223 554.911 171.302C555.126 171.452 555.155 171.484 555.333 171.657C555.576 171.89 555.972 172.063 556.176 172.363C556.22 172.429 555.936 172.603 555.986 172.732C556.035 172.86 556.28 173.07 556.408 173.088C556.536 173.106 556.675 172.874 556.728 172.842C557.175 172.566 556.982 173.363 557.003 173.413C557.427 174.265 558.258 174.494 558.847 175.056C559.296 175.49 559.682 176.071 560.129 176.471C560.662 176.946 561.248 177.198 561.725 177.695C561.775 177.748 561.4 178.058 561.461 178.124C562.108 178.82 562.825 179.435 563.747 179.813C563.839 179.85 564.041 179.422 564.15 179.438C564.812 179.545 566.099 179.43 565.045 181.222C565.386 181.426 565.792 181.685 566.323 181.598C566.666 181.542 566.834 180.996 566.901 181.35C566.917 181.43 566.562 181.727 566.607 181.82C566.796 182.213 567.213 182.382 567.352 182.827C567.38 182.918 567.096 183.225 567.065 183.297C566.815 183.894 567.696 183.329 567.795 183.316C568.539 183.24 568.691 183.657 569.067 183.968C569.155 184.04 568.687 184.395 568.758 184.481C569.132 184.92 569.601 185.268 570.185 185.43C570.316 185.465 570.548 185.006 570.627 185.002C570.971 184.991 570.413 185.759 570.732 185.764C570.798 185.766 571.049 185.414 571.086 185.384C571.672 184.908 571.103 185.805 571.117 185.848C571.284 186.412 572.223 185.759 572.484 186.183C572.515 186.234 572.068 186.579 572.175 186.699C572.883 187.499 573.832 188.101 574.92 188.415C575.089 188.465 575.266 188.063 575.307 188.029C575.949 187.501 575.344 188.417 575.359 188.483C575.494 188.979 576.374 188.511 575.772 189.707C577.101 190.326 577.941 191.523 579.321 192.065C579.659 192.197 580.029 192.289 580.446 192.322C580.472 192.325 580.779 191.874 580.829 191.882C581.438 191.974 580.831 192.573 580.468 193.602C580.377 193.861 581.364 193.049 581.439 192.993C581.717 192.782 582.147 192.092 582.21 192.059C582.717 191.806 581.029 193.879 581.287 194.081C581.297 194.084 581.568 193.671 581.62 193.65C581.782 193.582 581.729 193.788 581.899 193.707C582.293 193.518 583.148 192.541 582.912 193.314C582.88 193.414 581.901 194.568 582.177 194.691C582.288 194.739 582.681 195.075 582.856 195.087C583.03 195.098 583.251 194.655 583.272 194.645C583.974 194.378 584.022 194.078 584.759 193.45C585.493 192.825 584.064 194.567 583.972 194.814C583.88 195.06 584.43 194.817 584.597 194.715C584.765 194.613 584.885 194.318 584.998 194.274C585.737 193.992 584.455 195.263 584.344 195.627C584.079 196.484 585.3 195.327 585.632 195.378C585.722 195.392 585.439 195.651 585.474 195.722C585.615 195.999 586.064 195.694 586.03 196.261C586.024 196.354 585.626 197.291 586.202 196.818C586.284 196.75 586.481 196.385 586.632 196.385C586.857 196.384 587.166 196.507 587.235 196.73C587.286 196.895 586.749 197.329 587.017 197.271C587.137 197.245 587.259 196.846 587.463 196.823C587.666 196.8 587.955 197.04 588.06 197.137C588.165 197.234 587.796 197.587 587.785 197.621C587.722 197.818 587.799 198.177 587.819 198.191C588.782 198.977 590.186 198.981 590.985 199.906C591.049 199.978 590.692 200.349 590.699 200.364C590.834 200.725 591.44 199.491 591.892 199.264C591.247 200.07 591.467 199.999 591.583 200.224C591.639 200.333 591.353 200.616 591.337 200.654C591.108 201.232 591.666 200.674 591.784 200.564C592.22 200.16 591.903 200.781 592.194 200.512C592.484 200.245 592.691 199.686 592.86 199.822C592.692 200.15 591.994 200.818 592.036 201.037C592.2 201.867 593.571 201.929 594.034 202.17C594.489 202.402 594.583 202.546 594.895 202.614C595.457 202.735 594.906 203.163 594.998 203.592C595.091 204.02 595.911 202.619 596.154 202.364C596.395 202.109 596.225 202.428 596.383 202.307C596.541 202.186 596.581 201.922 596.729 201.944C596.877 201.966 596.809 202.679 596.638 202.996C596.276 203.67 595.673 204.222 596.13 204.194C596.157 204.192 596.345 203.815 596.435 203.827C597.144 203.928 597.69 204.284 598.356 204.416C598.448 204.434 598.643 204.028 598.699 204.034C599.281 204.103 598.699 204.606 598.459 205.434C599.037 204.506 599.549 204.051 599.863 204.274C600.052 204.407 599.751 204.768 599.69 205.126C599.671 205.234 599.994 205.07 599.894 205.266C599.569 205.907 598.98 206.472 599.507 206.436C599.53 206.434 599.704 206.085 599.769 206.101C600.191 206.198 599.813 206.826 600.13 207.127C600.379 207.363 601.13 207.324 601.485 207.472C602.105 206.55 602.254 206.965 601.961 207.669C602.193 207.78 602.401 207.961 602.663 208.007C602.753 208.023 602.878 207.739 602.905 207.717C603.33 207.374 603.025 208.022 603.056 208.073C603.403 208.606 604.084 208.429 604.274 209.129C604.28 209.154 603.932 209.742 604.338 209.404C604.365 209.38 604.375 209.021 604.617 209.143C604.86 209.262 605.475 209.232 605.621 209.676C605.656 209.785 605.568 210.334 605.939 210.084C605.989 210.051 606.065 209.884 606.148 209.817C606.415 209.604 606.124 210.171 606.523 209.785C606.923 209.399 607.346 209.218 607.455 209.72C607.459 209.736 607.277 210.191 607.382 210.246C607.549 210.335 607.826 210.392 607.988 210.497C608.066 210.547 607.865 210.759 607.876 210.772C608.327 211.226 608.837 211.232 609.438 211.477C609.547 211.523 609.688 212.001 610.031 211.887C610.404 211.769 610.792 210.589 611.134 211.169C611.264 211.411 610.812 212.8 611.537 212.374C612.159 212.931 613.025 213.049 613.623 213.622C613.65 213.648 613.608 213.975 613.687 214.008C613.807 214.059 613.942 213.971 614.032 214.007C614.411 214.156 614.686 214.416 615.032 214.56C615.162 214.615 615.172 214.483 615.324 214.551C615.476 214.619 615.51 214.804 615.742 214.831C615.934 214.857 616.218 214.672 616.44 214.753C616.335 215.007 616.485 215.073 616.717 215.248C616.762 215.281 616.674 215.339 616.693 215.359C616.772 215.439 616.889 215.41 616.962 215.49C616.979 215.509 616.949 215.584 616.962 215.604C617.073 215.769 617.392 215.695 617.444 215.687C617.654 215.651 617.711 215.773 617.861 215.785C618.011 215.8 617.827 215.676 617.992 215.716C618.334 215.801 618.73 215.966 619.037 216.071C619.159 216.113 619.056 216.144 619.073 216.152C619.334 216.25 619.651 216.292 619.775 216.423C620.028 216.244 619.939 216.495 620.334 216.534C620.365 216.536 620.421 216.467 620.312 216.421C620.203 216.374 620.022 216.352 619.866 216.275C619.828 216.259 619.64 216.067 619.613 216.045C619.397 215.887 619.298 216.074 619.281 216.083C619.092 216.156 618.901 215.922 618.838 215.877C618.554 215.699 618.278 215.618 618.03 215.451C617.868 215.341 617.933 215.124 617.797 215.056C617.391 214.84 617.099 215.118 616.836 214.59C616.78 214.475 616.994 214.235 616.591 214.278C616.568 214.279 616.237 214.366 616.168 214.143C616.16 214.114 616.204 214.022 616.185 214C616.068 213.859 615.951 213.879 615.821 213.746C615.693 213.612 615.547 213.432 615.361 213.352C615.249 213.302 615.015 213.416 614.938 213.435C614.721 213.491 614.689 213.148 614.506 213.272C614.318 213.402 614.36 213.787 614.046 213.77C614.194 213.46 614.335 213.133 614.481 212.815C613.99 212.482 613.467 212.261 612.97 211.89C612.91 211.843 613.08 211.695 613.018 211.639C612.759 211.401 612.429 211.361 612.195 211.101C612.009 210.895 611.908 210.486 611.722 210.247C611.312 210.611 611.065 210.196 610.79 210.048C610.693 209.997 610.619 210.135 610.53 210.132C610.193 210.118 610.574 209.752 610.555 209.633C610.484 209.119 609.837 210.138 609.529 209.886C609.512 209.874 609.656 209.148 609.652 209.088C609.619 208.713 609.499 209.266 609.361 209.223C609.107 209.143 608.872 209.179 608.736 208.816C608.696 208.711 608.766 208.195 608.441 208.382C608.398 208.407 608.28 208.619 608.258 208.62C607.861 208.617 608.273 207.97 608.271 207.628C608.272 207.286 607.76 207.56 607.626 207.659C607.284 207.91 607.624 207.879 607.609 207.918C607.43 208.379 607.307 208.183 607.156 208.121C606.712 208.77 606.551 208.601 607 208.054C607.05 207.994 607.11 208.132 607.156 208.121C607.459 207.387 607.33 207.135 606.705 207.591C606.412 207.805 606.289 208.222 606.048 207.864C605.939 207.7 606.308 207.263 606.267 207.035C606.171 206.504 605.516 206.678 605.274 206.383C605.188 206.274 605.472 206.079 605.42 205.995C605.283 205.768 604.976 205.844 604.858 205.583C604.848 205.559 605.087 205.298 605.031 205.246C604.614 204.845 604.079 204.708 603.614 204.337C603.392 204.159 603.116 203.657 602.861 203.5C602.423 203.225 601.587 203.295 601.315 202.894C601.137 202.632 601.425 202.339 601.492 202.03C601.627 201.43 600.741 201.96 600.606 202.052C600.601 202.055 600.737 202.292 600.51 202.384C600.192 202.701 600.607 202.055 600.606 202.052C600.52 202.109 600.079 201.873 600.049 201.744C600.033 201.674 600.29 201.364 600.278 201.333C599.977 200.613 599.518 200.077 598.892 199.804C598.878 199.803 598.615 200.197 598.586 200.191C598.163 200.114 598.311 199.485 598.272 198.993C598.233 198.502 597.972 198.426 597.331 198.98C597.205 198.738 596.714 198.812 596.421 198.868C596.127 198.923 596.678 198.127 596.675 198.1C596.609 197.245 596.049 197.493 595.555 197.198C595.321 197.059 594.992 196.597 594.83 196.318C594.704 196.096 594.454 196.195 594.379 195.935C594.368 195.9 594.661 195.558 594.665 195.538C594.805 194.95 594.231 195.908 594.074 196.034C593.506 196.492 593.182 196.727 593.151 196.263C593.142 196.157 593.95 194.744 593.911 194.585C593.856 194.381 593.556 194.883 593.506 194.659C593.502 194.64 593.72 194.357 593.628 194.3C593.205 194.03 592.659 193.844 592.278 193.477C592.225 193.428 592.645 193.029 592.575 192.95C592.246 192.581 591.824 192.251 591.301 192.168C591.171 192.149 590.976 192.521 590.883 192.601C590.316 193.087 590.8 192.098 590.785 192.058C590.441 191.096 589.332 191.447 588.934 190.514C588.912 190.461 589.349 189.302 588.605 189.991C588.556 190.037 587.797 190.746 588.119 190.1C588.139 190.059 588.543 189.705 588.374 189.636C588.204 189.566 588.204 189.106 587.656 189.412C587.483 189.508 586.704 190.207 587.033 189.413C587.057 189.358 587.933 187.666 587.04 188.599C586.893 188.752 586.068 189.838 586.285 189.115C586.328 188.975 586.591 188.796 586.6 188.559C586.617 188.195 586.171 188.305 586.345 187.662C586.376 187.548 586.803 186.699 586.246 187.155C586.159 187.226 585.911 187.614 585.816 187.603C585.362 187.551 585.235 187.056 584.73 187.057C584.552 187.057 584.148 187.681 583.91 187.745C583.673 187.809 583.323 187.774 583.414 187.414C583.505 187.054 584.37 186.235 584.25 186.018C584.235 185.99 584.218 185.963 584.202 185.937C583.654 185.071 582.497 184.992 581.675 184.473C581.55 184.394 581.91 184.141 581.743 184.001C581.132 183.482 580.28 182.336 579.171 182.599C578.283 182.807 578.5 183.655 577.981 183.616C577.732 183.595 578.406 182.414 578.393 182.352C578.279 181.724 577.635 181.98 577.403 181.574C577.355 181.49 577.767 181.125 577.723 181.058C577.573 180.828 577.2 180.849 577.027 180.664C576.95 180.58 577.227 180.275 577.124 180.238C576.88 180.145 576.595 180.147 576.16 180.297C576.12 180.311 575.917 180.792 575.759 180.696C575.503 180.54 574.972 180.606 574.945 180.102C574.937 179.952 575.52 179.239 574.941 179.6C574.82 179.675 574.165 180.56 574.568 179.673C574.636 179.524 575.107 178.286 574.414 178.798C574.232 178.932 573.55 179.536 573.542 179.354C573.543 179.327 573.907 178.991 573.856 178.894C573.67 178.559 573.336 178.377 573.137 178.045C573.084 177.956 573.52 177.658 573.431 177.538C573.186 177.207 572.698 177.014 572.282 176.904C572.128 176.865 571.95 177.233 571.913 177.261C571.319 177.712 571.856 176.911 571.846 176.836C571.778 176.376 571.275 176.569 571.087 176.289C571.035 176.213 571.376 175.903 571.388 175.861C571.49 175.454 571.081 176.155 570.929 176.156C570.501 176.161 570.229 175.921 569.997 175.687C569.912 175.6 570.354 175.284 570.273 175.212C569.803 174.777 569.22 174.44 568.531 174.295C568.4 174.268 568.215 174.602 568.139 174.655C567.609 175.023 567.938 174.243 567.941 174.151C567.957 173.729 567.658 173.926 567.509 173.747C566.774 172.871 565.499 172.282 564.526 171.77C563.262 171.114 562.2 170.761 561.138 169.949C561.071 169.898 561.407 169.636 561.352 169.589C560.623 169.002 559.762 168.628 559.035 168.038C558.974 167.99 559.296 167.788 559.206 167.703C559.021 167.529 558.73 167.375 558.439 167.32C558.299 167.293 558.255 167.598 558.118 167.565C557.799 167.488 557.52 167.334 557.3 167.134C557.206 167.049 557.584 166.906 557.444 166.816C556.513 166.207 555.539 165.589 554.335 165.256C554.252 165.233 553.839 165.602 553.769 165.432C553.856 165.314 553.971 165.184 554.07 165.062C552.7 164.132 551.198 163.422 549.741 162.544C549.68 162.508 549.906 162.434 549.787 162.366C549.093 161.96 548.465 161.582 547.666 161.26C547.587 161.228 547.474 161.417 547.295 161.262C547.263 161.235 546.979 161.021 546.928 160.942C546.921 160.931 547.038 160.896 546.94 160.835C546.365 160.481 545.764 160.169 545.161 159.843C545.063 159.789 545.128 159.89 545.059 159.852C544.575 159.571 544.089 159.237 543.645 158.978C543.351 158.801 543.442 158.887 543.288 158.792C543.266 158.778 543.103 158.651 543.093 158.646C543.068 158.633 543.132 158.711 543.096 158.689C543.091 158.685 542.984 158.557 542.984 158.557C542.984 158.557 542.984 158.557 542.984 158.557C542.984 158.557 542.993 158.568 543.016 158.598C543.024 158.606 543.148 158.766 543.176 158.809C543.196 158.839 543.154 158.793 543.193 158.854C543.232 158.916 543.284 158.974 543.349 159.076C543.414 159.18 543.372 159.149 543.503 159.354ZM595.102 199.122C594.677 199.386 595.68 197.983 595.59 198.441C595.585 198.464 595.123 199.11 595.102 199.122ZM613.213 212.717C612.859 212.86 612.936 212.365 613.197 212.249C613.452 212.138 613.319 212.677 613.213 212.717ZM615.303 214.178C614.972 214.213 615.275 213.495 615.462 213.795C615.472 213.812 615.321 214.177 615.303 214.178ZM543.938 159.312C543.935 159.312 543.816 159.218 543.814 159.215C543.767 159.146 544.011 159.328 543.938 159.312ZM617.481 215.429C617.377 215.458 617.18 215.283 617.312 215.246C617.416 215.22 617.608 215.396 617.481 215.429ZM586.208 194.649C586.188 194.669 586.086 194.622 586.186 194.497C586.509 194.093 586.54 194.302 586.208 194.649ZM621.575 216.721C620.967 216.615 620.529 216.659 621.247 216.728C621.374 216.741 620.977 216.675 621.14 216.688C621.434 216.724 621.62 216.758 621.897 216.759C621.947 216.766 621.611 216.733 621.574 216.721C621.574 216.721 621.574 216.721 621.575 216.721ZM593.79 200.719C593.773 200.735 593.64 200.663 593.65 200.643C593.911 200.154 594.178 200.3 593.79 200.719ZM580.459 191.654C580.418 191.691 580.111 191.513 580.134 191.466C580.619 190.563 581.24 190.921 580.459 191.654ZM601.507 207.451C601.396 207.898 601.544 208.043 601.96 207.669C601.802 207.602 601.658 207.515 601.507 207.451Z" fill="white"/>
<path d="M946.682 228.875C947.118 228.452 947.668 227.898 948.055 227.452C948.176 227.314 948.078 227.361 948.158 227.264C948.313 227.072 948.49 226.91 948.64 226.712C948.688 226.646 948.553 226.684 948.604 226.614C948.882 226.236 949.181 225.919 949.471 225.537C950.872 223.673 952.178 221.801 953.454 219.826C953.877 219.178 954.208 218.283 954.74 217.663C954.803 217.591 954.977 217.749 955.004 217.743C955.424 217.653 954.954 217.504 954.999 217.321C955.177 216.596 955.575 215.9 956.038 215.357C956.235 215.126 956.547 215.625 956.444 215.234C956.437 215.207 956.143 215.138 956.159 215.055C956.196 214.866 956.425 214.592 956.479 214.459C956.581 214.202 956.607 214.165 956.739 213.94C956.918 213.631 956.997 213.196 957.253 212.899C957.309 212.836 957.543 213.076 957.66 212.99C957.776 212.904 957.932 212.594 957.921 212.458C957.911 212.322 957.651 212.247 957.608 212.202C957.236 211.826 958.067 211.797 958.111 211.762C958.857 211.092 958.883 210.201 959.301 209.427C959.625 208.835 960.097 208.276 960.379 207.695C960.709 207.013 960.804 206.339 961.162 205.692C961.2 205.624 961.604 205.898 961.651 205.815C962.161 204.919 962.561 203.973 962.648 202.912C962.656 202.807 962.182 202.762 962.164 202.647C962.078 201.922 961.539 200.733 963.602 201.038C963.689 200.601 963.791 200.102 963.526 199.592C963.351 199.273 962.776 199.346 963.085 199.125C963.154 199.074 963.562 199.294 963.634 199.208C963.932 198.854 963.94 198.333 964.296 197.976C964.369 197.903 964.766 198.032 964.846 198.027C965.499 197.977 964.623 197.361 964.569 197.27C964.186 196.558 964.492 196.178 964.584 195.6C964.604 195.468 965.145 195.712 965.185 195.585C965.388 194.902 965.433 194.101 965.162 193.319C965.099 193.152 964.603 193.325 964.547 193.25C964.302 192.902 965.238 192.726 964.986 192.36C964.933 192.286 964.514 192.4 964.466 192.393C963.707 192.325 964.69 191.9 964.695 191.82C964.751 191.369 964.434 191.059 964.065 190.807C963.696 190.562 963.307 190.396 963.031 190.01C962.957 189.911 963.551 189.713 963.294 189.442C963.26 189.408 963.225 189.374 963.189 189.341C963.044 189.197 962.996 189.138 962.861 189.016C962.829 188.989 962.821 188.98 962.749 188.924C962.723 188.906 962.708 188.892 962.602 188.823C962.519 188.783 962.538 188.743 962.058 188.571C961.915 188.531 961.733 188.461 961.303 188.463C960.93 188.453 959.913 188.657 959.356 189.591C958.842 190.506 959.042 191.149 959.108 191.436C959.199 191.745 959.282 191.877 959.341 191.982C959.567 192.342 959.604 192.337 959.653 192.4C959.684 192.433 959.703 192.453 959.719 192.468C959.749 192.498 959.764 192.513 959.777 192.525C959.858 192.6 959.868 192.609 959.917 192.654C960.006 192.733 960.013 192.741 960.074 192.793C960.348 193.026 960.482 193.117 960.771 193.313C960.991 193.452 961.228 193.581 961.511 193.724C961.765 193.843 962.014 193.933 962.301 194.031C962.481 194.093 962.654 193.686 962.696 193.653C963.359 193.145 962.755 194.064 962.764 194.126C962.887 194.619 963.797 194.182 963.206 195.393C964.549 196.049 965.464 197.339 966.864 197.936C967.226 198.097 967.596 198.198 968.022 198.248C968.048 198.252 968.364 197.807 968.415 197.817C969.041 197.938 968.419 198.521 968.049 199.557C967.957 199.817 968.98 199.044 969.059 198.99C969.345 198.79 969.789 198.107 969.854 198.077C970.371 197.84 968.632 199.871 968.893 200.086C968.904 200.089 969.184 199.683 969.237 199.663C969.403 199.601 969.346 199.807 969.521 199.732C969.925 199.558 970.807 198.606 970.564 199.383C970.532 199.484 969.519 200.609 969.806 200.751C969.925 200.81 970.326 201.171 970.502 201.189C970.68 201.208 970.911 200.77 970.932 200.76C971.653 200.522 971.705 200.221 972.467 199.621C973.227 199.024 971.746 200.722 971.65 200.968C971.554 201.214 972.124 200.999 972.299 200.905C972.473 200.812 972.597 200.516 972.715 200.479C973.486 200.239 972.152 201.459 972.037 201.826C971.767 202.692 973.019 201.569 973.36 201.641C973.451 201.659 973.159 201.907 973.193 201.981C973.334 202.269 973.799 201.985 973.759 202.562C973.752 202.657 973.333 203.59 973.935 203.144C974.021 203.08 974.227 202.719 974.384 202.73C974.618 202.744 974.928 202.884 974.997 203.116C975.047 203.287 974.488 203.696 974.765 203.653C974.888 203.633 975.02 203.235 975.23 203.224C975.44 203.213 975.736 203.479 975.845 203.586C975.954 203.693 975.567 204.028 975.555 204.062C975.488 204.259 975.561 204.63 975.582 204.646C976.54 205.493 978.017 205.62 978.802 206.609C978.866 206.687 978.489 207.038 978.496 207.054C978.622 207.429 979.28 206.22 979.751 206.021C979.066 206.794 979.293 206.738 979.406 206.975C979.46 207.09 979.158 207.356 979.14 207.394C978.889 207.964 979.479 207.44 979.604 207.337C980.065 206.959 979.721 207.567 980.029 207.316C980.335 207.068 980.564 206.514 980.736 206.667C980.554 206.988 979.814 207.612 979.852 207.84C979.987 208.689 981.414 208.878 981.872 209.156C982.331 209.429 982.418 209.581 982.736 209.676C983.308 209.848 982.725 210.235 982.802 210.679C982.88 211.123 983.783 209.773 984.044 209.536C984.303 209.299 984.115 209.608 984.284 209.5C984.451 209.392 984.503 209.126 984.656 209.163C984.809 209.201 984.714 209.924 984.525 210.231C984.123 210.883 983.479 211.389 983.951 211.403C983.978 211.404 984.19 211.039 984.281 211.058C984.994 211.219 985.535 211.631 986.217 211.836C986.311 211.863 986.533 211.47 986.591 211.483C987.19 211.616 986.563 212.066 986.273 212.883C986.918 212.001 987.471 211.592 987.787 211.857C987.979 212.016 987.647 212.349 987.561 212.705C987.535 212.811 987.874 212.678 987.759 212.866C987.386 213.481 986.748 213.991 987.287 214.009C987.312 214.009 987.511 213.674 987.577 213.696C988.002 213.839 987.574 214.434 987.879 214.774C988.118 215.04 988.895 215.09 989.255 215.287C989.957 214.427 990.085 214.869 989.728 215.542C989.953 215.68 990.149 215.886 990.413 215.964C990.503 215.991 990.655 215.719 990.684 215.7C991.147 215.406 990.783 216.024 990.81 216.08C991.123 216.662 991.842 216.577 991.985 217.318C991.989 217.345 991.579 217.893 992.022 217.603C992.051 217.583 992.098 217.224 992.329 217.376C992.561 217.523 993.193 217.578 993.299 218.049C993.324 218.163 993.179 218.705 993.585 218.508C993.639 218.482 993.734 218.325 993.827 218.269C994.122 218.095 993.767 218.624 994.216 218.296C994.666 217.967 995.128 217.855 995.188 218.382C995.191 218.398 994.953 218.827 995.052 218.898C995.211 219.012 995.486 219.112 995.639 219.243C995.713 219.306 995.482 219.487 995.492 219.502C995.899 220.031 996.419 220.125 997.016 220.488C997.125 220.558 997.194 221.054 997.558 221.002C997.953 220.951 998.514 219.838 998.784 220.489C998.886 220.759 998.219 222.062 999.029 221.786C999.592 222.483 1000.42 222.763 1000.94 223.493C1000.97 223.526 1000.86 223.841 1000.94 223.897C1001.06 223.978 1001.2 223.919 1001.29 223.976C1001.63 224.21 1001.85 224.536 1002.17 224.771C1002.29 224.861 1002.33 224.733 1002.47 224.843C1002.61 224.954 1002.61 225.147 1002.84 225.243C1003.02 225.317 1003.35 225.217 1003.55 225.361C1003.38 225.578 1003.51 225.685 1003.7 225.928C1003.73 225.974 1003.63 226.003 1003.64 226.028C1003.7 226.132 1003.83 226.141 1003.88 226.242C1003.89 226.267 1003.84 226.33 1003.85 226.353C1003.92 226.55 1004.26 226.588 1004.31 226.599C1004.53 226.635 1004.54 226.761 1004.68 226.822C1004.82 226.887 1004.68 226.706 1004.83 226.8C1005.14 226.999 1005.48 227.311 1005.75 227.545C1005.86 227.638 1005.75 227.623 1005.76 227.638C1005.98 227.837 1006.24 227.989 1006.31 228.164C1006.61 228.107 1006.43 228.297 1006.8 228.531C1006.83 228.549 1006.92 228.515 1006.83 228.416C1006.74 228.318 1006.57 228.204 1006.45 228.067C1006.42 228.036 1006.33 227.782 1006.31 227.75C1006.17 227.518 1006.01 227.656 1005.99 227.657C1005.79 227.656 1005.66 227.343 1005.62 227.276C1005.39 226.988 1005.14 226.807 1004.95 226.56C1004.82 226.399 1004.96 226.216 1004.85 226.11C1004.49 225.75 1004.12 225.922 1003.99 225.322C1003.96 225.192 1004.23 225.022 1003.82 224.941C1003.79 224.934 1003.44 224.923 1003.43 224.687C1003.43 224.656 1003.49 224.578 1003.48 224.552C1003.39 224.379 1003.26 224.359 1003.16 224.188C1003.05 224.016 1002.94 223.795 1002.76 223.663C1002.66 223.583 1002.4 223.633 1002.31 223.632C1002.08 223.632 1002.12 223.284 1001.91 223.363C1001.7 223.446 1001.66 223.835 1001.35 223.746C1001.56 223.474 1001.77 223.185 1001.98 222.904C1001.52 222.438 1001.02 222.085 1000.57 221.606C1000.52 221.547 1000.72 221.436 1000.66 221.366C1000.44 221.072 1000.11 220.962 999.894 220.643C999.728 220.393 999.679 219.958 999.518 219.678C999.044 219.961 998.847 219.495 998.585 219.296C998.493 219.226 998.399 219.352 998.309 219.333C997.968 219.259 998.405 218.96 998.399 218.834C998.38 218.295 997.587 219.205 997.296 218.891C997.279 218.877 997.511 218.166 997.513 218.105C997.521 217.718 997.335 218.258 997.196 218.189C996.943 218.063 996.697 218.06 996.598 217.671C996.569 217.558 996.697 217.048 996.343 217.186C996.297 217.204 996.152 217.399 996.129 217.396C995.727 217.335 996.21 216.739 996.24 216.39C996.271 216.039 995.709 216.233 995.562 216.312C995.182 216.512 995.54 216.536 995.52 216.573C995.292 217.013 995.181 216.794 995.03 216.706C994.509 217.295 994.358 217.099 994.875 216.613C994.931 216.56 994.982 216.71 995.03 216.706C995.412 216.008 995.298 215.73 994.612 216.098C994.29 216.272 994.124 216.675 993.911 216.278C993.814 216.098 994.232 215.708 994.212 215.471C994.169 214.927 993.466 215.001 993.236 214.664C993.153 214.541 993.464 214.383 993.416 214.289C993.289 214.037 992.964 214.071 992.86 213.789C992.851 213.763 993.119 213.53 993.065 213.469C992.657 213 992.129 212.805 991.665 212.363C991.441 212.149 991.181 211.598 990.925 211.406C990.484 211.07 989.617 211.046 989.362 210.612C989.196 210.329 989.507 210.059 989.591 209.751C989.758 209.151 988.808 209.589 988.664 209.668C988.659 209.671 988.79 209.929 988.55 209.997C988.204 210.285 988.665 209.672 988.664 209.668C988.572 209.717 988.122 209.425 988.097 209.29C988.083 209.217 988.364 208.928 988.352 208.896C988.068 208.124 987.631 207.542 986.985 207.195C986.97 207.193 986.683 207.569 986.652 207.559C986.211 207.434 986.386 206.805 986.36 206.296C986.334 205.789 986.066 205.687 985.384 206.193C985.262 205.934 984.756 205.97 984.449 205.999C984.143 206.029 984.738 205.265 984.736 205.237C984.696 204.361 984.095 204.554 983.592 204.211C983.353 204.049 983.021 203.548 982.858 203.248C982.731 203.01 982.47 203.09 982.398 202.819C982.388 202.782 982.699 202.457 982.703 202.437C982.861 201.847 982.246 202.78 982.082 202.897C981.483 203.32 981.149 203.539 981.124 203.061C981.117 202.952 981.981 201.57 981.942 201.405C981.888 201.191 981.568 201.681 981.518 201.445C981.513 201.426 981.744 201.153 981.648 201.086C981.206 200.771 980.64 200.538 980.256 200.14C980.202 200.086 980.642 199.707 980.571 199.623C980.243 199.229 979.796 198.849 979.251 198.726C979.115 198.697 978.911 199.064 978.814 199.14C978.221 199.597 978.731 198.619 978.716 198.577C978.381 197.581 977.195 197.84 976.806 196.876C976.785 196.822 977.245 195.666 976.465 196.319C976.413 196.363 975.622 197.039 975.955 196.396C975.976 196.356 976.397 196.019 976.219 195.936C976.041 195.852 976.039 195.379 975.471 195.661C975.292 195.749 974.487 196.419 974.832 195.63C974.858 195.577 975.763 193.895 974.835 194.794C974.683 194.943 973.829 196.006 974.05 195.276C974.094 195.135 974.366 194.968 974.374 194.725C974.389 194.352 973.928 194.44 974.109 193.795C974.142 193.681 974.581 192.835 974.009 193.274C973.92 193.343 973.664 193.725 973.567 193.71C973.091 193.628 972.944 193.104 972.424 193.081C972.24 193.072 971.825 193.69 971.581 193.744C971.335 193.797 970.99 193.758 971.072 193.386C971.159 193.018 972.053 192.228 971.921 191.995C971.904 191.965 971.887 191.936 971.869 191.908C971.295 190.995 970.073 190.84 969.239 190.29C969.102 190.199 969.475 189.96 969.295 189.804C968.642 189.234 967.789 188.062 966.605 188.253C965.713 188.449 965.917 189.297 965.403 189.256C965.148 189.226 965.803 188.027 965.794 187.966C965.732 187.644 965.556 187.56 965.322 187.467C965.214 187.428 965.109 187.402 965.024 187.365C964.947 187.336 964.812 187.23 964.773 187.143C964.738 187.069 965.142 186.698 965.113 186.643C965.128 186.634 964.969 186.492 965.117 186.63C965.146 186.658 965.174 186.683 965.286 186.793C965.316 186.822 965.352 186.859 965.405 186.914C965.447 186.961 965.55 187.058 965.768 187.333C965.884 187.488 966.035 187.659 966.318 188.181C966.456 188.456 966.649 188.811 966.826 189.552C966.966 190.257 967.239 191.642 966.283 193.483C965.315 195.371 963.173 196.27 962.139 196.354C961.022 196.492 960.471 196.341 960.069 196.259C959.303 196.064 959.08 195.922 958.868 195.826C958.495 195.636 958.399 195.563 958.3 195.501C958.21 195.442 958.161 195.407 958.122 195.379C958.047 195.325 958.014 195.3 957.988 195.279C957.94 195.24 957.926 195.227 957.916 195.217C957.884 195.184 957.949 195.225 957.955 195.218C958.028 195.23 958.149 195.265 958.277 195.345C958.207 195.277 958.138 195.213 958.068 195.154C957.889 195 957.617 195.31 957.492 195.109C957.198 194.623 957.216 194.209 957.497 193.852C957.527 193.829 958.029 193.741 958.012 193.62C957.987 193.416 958.386 193.348 958.022 193.467C957.913 193.505 956.994 193.541 957.641 193.569C957.776 193.577 958.877 193.54 957.936 193.651C957.778 193.681 956.52 193.784 957.343 193.954C957.559 193.998 958.447 194.176 958.303 194.251C958.28 194.26 957.797 194.159 957.748 194.221C957.58 194.444 957.612 194.703 957.427 194.975C957.378 195.043 956.902 194.836 956.846 194.933C956.695 195.19 956.754 195.649 956.847 196.003C956.881 196.139 957.286 196.16 957.327 196.18C957.991 196.513 957.041 196.349 956.978 196.381C956.595 196.602 956.981 196.952 956.803 197.207C956.755 197.277 956.336 197.086 956.294 197.09C955.883 197.135 956.684 197.256 956.746 197.389C956.917 197.768 956.802 198.081 956.672 198.367C956.624 198.471 956.169 198.178 956.131 198.273C955.898 198.85 955.795 199.463 955.88 200.167C955.898 200.296 956.273 200.365 956.348 200.42C956.869 200.8 956.025 200.733 955.938 200.758C955.534 200.872 955.815 201.093 955.691 201.292C955.097 202.236 954.883 203.668 954.658 204.744C954.365 206.16 954.276 207.327 953.746 208.581C953.713 208.662 953.376 208.399 953.344 208.466C952.949 209.336 952.771 210.309 952.358 211.18C952.325 211.252 952.053 210.984 951.991 211.095C951.862 211.322 951.776 211.65 951.787 211.951C951.791 212.099 952.101 212.065 952.098 212.21C952.093 212.547 952.001 212.865 951.851 213.137C951.787 213.253 951.565 212.911 951.506 213.074C951.094 214.179 950.702 215.276 950.609 216.575C950.603 216.665 951.05 216.993 950.895 217.106C950.761 217.047 950.609 216.963 950.469 216.892C949.824 218.486 949.387 220.199 948.794 221.847C948.77 221.917 948.655 221.706 948.608 221.842C948.34 222.62 948.051 223.385 947.885 224.24C947.867 224.326 948.074 224.4 947.952 224.615C947.93 224.653 947.767 224.987 947.697 225.055C947.688 225.064 947.632 224.954 947.589 225.066C947.347 225.706 947.107 226.434 946.896 227.092C946.859 227.203 946.949 227.116 946.922 227.194C946.719 227.749 946.484 228.283 946.28 228.814C946.146 229.156 946.219 229.043 946.147 229.222C946.136 229.247 946.034 229.442 946.03 229.453C946.02 229.481 946.089 229.399 946.073 229.44C946.07 229.447 945.957 229.583 945.958 229.583C945.958 229.583 945.958 229.583 945.958 229.583C945.958 229.583 945.967 229.571 945.993 229.541C946.001 229.532 946.142 229.371 946.181 229.333C946.208 229.306 946.169 229.36 946.224 229.306C946.28 229.253 946.331 229.187 946.424 229.097C946.519 229.007 946.494 229.058 946.682 228.875ZM983.074 206.141C982.625 206.372 983.703 205.026 983.599 205.487C983.592 205.511 983.096 206.13 983.074 206.141ZM1000.68 222.488C1000.29 222.55 1000.46 222.074 1000.74 222.016C1001.02 221.964 1000.8 222.473 1000.68 222.488ZM1002.53 224.468C1002.19 224.411 1002.65 223.782 1002.77 224.132C1002.78 224.153 1002.55 224.471 1002.53 224.468ZM946.574 228.435C946.574 228.437 946.497 228.583 946.494 228.586C946.432 228.65 946.579 228.354 946.574 228.435ZM1004.42 226.361C1004.31 226.352 1004.16 226.113 1004.3 226.122C1004.41 226.133 1004.56 226.375 1004.42 226.361ZM973.96 200.93C973.939 200.95 973.835 200.897 973.94 200.775C974.276 200.382 974.304 200.596 973.96 200.93ZM1007.83 229.346C1007.35 228.899 1006.95 228.743 1007.54 229.165C1007.64 229.244 1007.33 228.977 1007.47 229.074C1007.71 229.261 1007.85 229.398 1008.1 229.58C1008.14 229.617 1007.86 229.374 1007.83 229.345C1007.83 229.345 1007.83 229.345 1007.83 229.346ZM981.668 207.657C981.651 207.671 981.515 207.587 981.526 207.567C981.81 207.09 982.083 207.262 981.668 207.657ZM968.04 197.573C968 197.611 967.686 197.417 967.705 197.367C968.202 196.468 968.844 196.862 968.04 197.573ZM989.279 215.268C989.137 215.711 989.273 215.872 989.727 215.542C989.572 215.458 989.433 215.354 989.279 215.268Z" fill="white"/>
<path d="M1507.86 179.195C1509.43 178.848 1511.41 178.395 1512.93 178.007C1513.41 177.885 1513.15 177.905 1513.48 177.817C1514.12 177.644 1514.75 177.508 1515.37 177.332C1515.58 177.274 1515.3 177.264 1515.51 177.203C1516.68 176.864 1517.83 176.587 1519.05 176.24C1525.01 174.542 1530.88 172.779 1536.88 170.888C1538.84 170.273 1541.17 169.32 1543.27 168.776C1543.51 168.715 1543.44 168.979 1543.5 168.983C1544.3 169.048 1543.91 168.672 1544.35 168.468C1546.1 167.662 1548.16 166.965 1549.96 166.5C1550.72 166.302 1550.15 167.043 1550.81 166.522C1550.85 166.486 1550.57 166.277 1550.76 166.182C1551.21 165.967 1552.11 165.728 1552.47 165.589C1553.15 165.317 1553.27 165.282 1553.93 165.062C1554.84 164.759 1555.85 164.261 1556.84 164.007C1557.05 163.954 1556.89 164.35 1557.24 164.295C1557.59 164.24 1558.45 163.929 1558.72 163.758C1558.99 163.588 1558.77 163.382 1558.81 163.308C1559.06 162.684 1560.31 163.011 1560.45 162.987C1562.92 162.49 1564.8 161.417 1567.02 160.655C1568.7 160.081 1570.55 159.604 1572.14 159.032C1574.04 158.349 1575.58 157.575 1577.43 156.956C1577.63 156.89 1577.57 157.424 1577.81 157.346C1580.35 156.514 1582.87 155.567 1585.24 154.335C1585.48 154.21 1584.99 153.906 1585.22 153.756C1586.64 152.846 1588.72 151.058 1590.37 152.618C1591.37 152.162 1592.61 151.608 1593.39 150.865C1593.89 150.386 1593.12 150.123 1593.94 150.048C1594.12 150.031 1594.07 150.539 1594.33 150.481C1595.45 150.237 1596.52 149.666 1597.64 149.488C1597.87 149.453 1597.97 149.863 1598.06 149.91C1598.79 150.283 1599.26 149.022 1599.41 148.882C1600.59 147.831 1601.67 147.637 1602.94 147.12C1603.24 146.997 1603.1 147.671 1603.4 147.572C1604.94 147.053 1606.47 146.392 1607.8 145.568C1608.1 145.384 1607.62 145.042 1607.75 144.93C1608.33 144.443 1608.85 145.25 1609.43 144.792C1609.56 144.696 1609.31 144.331 1609.32 144.277C1609.43 143.43 1610.18 144.258 1610.29 144.238C1611.69 144.002 1612.07 142.647 1613.34 142.279C1613.5 142.236 1613.39 142.881 1613.8 142.73C1616.67 141.686 1619.47 140.312 1622.01 138.681C1622.4 138.431 1621.92 138.179 1621.93 138.12C1622.02 137.186 1622.74 138.057 1622.89 138.033C1624.07 137.83 1624.74 136.506 1626.01 137.357C1629.45 135.369 1633.38 133.909 1636.65 131.69C1637.51 131.115 1638.32 130.5 1639.06 129.828C1639.1 129.786 1638.74 129.363 1638.84 129.281C1639.97 128.302 1640.17 129.16 1641.58 129.544C1641.94 129.636 1641.99 128.163 1642 128.051C1642.04 127.635 1641.41 127.069 1641.45 126.971C1641.76 126.186 1643.03 128.544 1643.82 128.066C1643.84 128.046 1643.48 127.694 1643.52 127.609C1643.66 127.343 1643.98 127.375 1644.1 127.1C1644.38 126.467 1643.85 125.27 1644.95 125.46C1645.08 125.486 1645.78 126.84 1646.42 126.326C1646.66 126.142 1648.01 125.235 1648.26 124.918C1648.54 124.593 1648.02 124.371 1648.04 124.336C1648.54 123.163 1648.01 123.228 1647.9 122.115C1647.76 121.021 1649.04 122.883 1649.38 122.927C1649.73 122.968 1650.03 122.027 1650.04 121.766C1650.06 121.501 1649.68 121.43 1649.74 121.241C1650.14 119.953 1650.89 121.696 1651.44 121.663C1652.78 121.518 1652.04 119.853 1652.43 119.01C1652.53 118.786 1652.73 119.161 1652.88 118.996C1653.39 118.416 1653.33 117.623 1653.79 116.783C1653.82 116.737 1653.86 116.689 1653.89 116.642C1653.99 116.498 1655.07 116.056 1654.46 115.482C1654.38 115.397 1653.93 115.478 1653.92 115.144C1653.9 114.648 1654.07 113.774 1654.38 113.343C1654.61 113.021 1655.08 113.666 1655.06 113.156C1655.05 112.927 1654.54 113.142 1654.56 112.717C1654.58 112.292 1655.05 111.362 1655.26 111.03C1655.46 110.694 1655.79 111.133 1655.84 111.122C1656.1 111.052 1656.68 110.573 1656.71 110.523C1658.46 107.931 1660.27 105.233 1663.21 103.708C1663.44 103.59 1663.56 104.115 1663.6 104.102C1664.45 103.834 1663.16 103.027 1663.48 102.318C1663.92 103.257 1664.14 102.906 1664.74 102.707C1665.03 102.612 1665.07 103.041 1665.11 103.064C1665.78 103.389 1665.69 102.561 1665.69 102.382C1665.7 101.726 1666.29 102.203 1666.3 101.765C1666.32 101.329 1665.65 101.013 1666.21 100.759C1666.52 101.018 1666.51 102.068 1666.98 102.018C1668.73 101.809 1671.44 100.051 1672.78 99.6249C1674.09 99.1803 1674.54 99.1506 1675.3 98.8505C1676.68 98.3316 1676.28 99.0981 1677.21 99.2329C1678.12 99.384 1677.46 97.8533 1677.54 97.4878C1677.62 97.1243 1677.81 97.4586 1677.95 97.2483C1678.08 97.0385 1677.7 96.849 1678.07 96.73C1678.24 96.6774 1678.55 96.7414 1678.85 96.8643L1679.1 96.8967C1679.37 97.2138 1679.61 97.6077 1679.61 97.8235C1679.61 98.6338 1678.88 99.214 1679.93 99.3026C1679.99 99.3074 1679.96 98.8519 1680.18 98.8903C1681.95 99.2092 1683.66 99.8364 1685.41 100.204C1685.65 100.255 1685.6 99.7627 1685.74 99.7877C1687.21 100.049 1686.46 100.56 1686.92 101.607C1687.14 100.524 1687.79 100.058 1688.83 100.458C1689.46 100.697 1689.18 101.093 1689.47 101.555C1689.55 101.693 1690.11 101.564 1690.11 101.798C1690.12 102.564 1689.42 103.152 1690.61 103.253C1690.66 103.256 1690.65 102.839 1690.82 102.878C1691.93 103.129 1691.79 103.86 1692.9 104.356C1693.78 104.745 1695.52 104.923 1696.56 105.237C1696.94 104.191 1697.8 104.799 1697.92 105.644C1698.59 105.86 1699.29 106.163 1699.97 106.304C1700.2 106.354 1700.16 106.013 1700.2 105.992C1700.81 105.666 1700.85 106.437 1700.98 106.515C1702.43 107.335 1703.87 107.324 1705.16 108.334C1705.21 108.37 1705.05 109.04 1705.62 108.718C1705.66 108.696 1705.29 108.225 1705.99 108.46C1706.69 108.692 1708.12 108.852 1708.97 109.494C1709.18 109.65 1709.59 110.35 1710.2 110.147C1710.29 110.119 1710.28 109.923 1710.41 109.863C1710.82 109.674 1710.75 110.327 1711.29 109.954C1711.82 109.581 1712.68 109.499 1713.51 110.211C1713.54 110.233 1713.59 110.771 1713.9 110.879C1714.39 111.052 1715.12 111.223 1715.62 111.42C1715.86 111.514 1715.61 111.722 1715.65 111.743C1717.23 112.505 1718.48 112.706 1720.26 113.28C1720.59 113.387 1721.39 114.055 1722.11 114.037C1722.89 114.026 1722.63 112.623 1724.07 113.528C1724.66 113.904 1724.94 115.544 1726.34 115.296C1728.48 116.303 1730.62 116.788 1732.75 117.845C1732.85 117.893 1733.05 118.301 1733.29 118.383C1733.63 118.507 1733.88 118.448 1734.13 118.534C1735.18 118.892 1736.09 119.357 1737.09 119.718C1737.48 119.856 1737.39 119.691 1737.84 119.859C1738.29 120.028 1738.54 120.285 1739.18 120.45C1739.66 120.574 1740.23 120.483 1740.85 120.702C1740.77 120.967 1741.2 121.126 1741.92 121.476C1742.06 121.543 1741.88 121.567 1741.94 121.602C1742.2 121.748 1742.49 121.778 1742.73 121.921C1742.79 121.956 1742.77 122.033 1742.82 122.065C1743.22 122.337 1744.02 122.441 1744.16 122.464C1744.68 122.544 1744.88 122.717 1745.26 122.818C1745.65 122.922 1745.11 122.665 1745.55 122.809C1746.46 123.111 1747.61 123.572 1748.51 123.924C1748.88 124.065 1748.61 124.028 1748.66 124.049C1749.4 124.348 1750.18 124.592 1750.56 124.839C1751.17 124.814 1751.01 125.033 1752.1 125.391C1752.19 125.419 1752.32 125.385 1752.01 125.243C1751.69 125.1 1751.19 124.934 1750.75 124.731C1750.64 124.685 1750.08 124.327 1750 124.283C1749.38 123.95 1749.21 124.111 1749.18 124.109C1748.74 124.077 1748.05 123.641 1747.86 123.546C1746.99 123.131 1746.22 122.857 1745.49 122.507C1745.01 122.278 1745.05 122.048 1744.66 121.889C1743.4 121.353 1742.82 121.527 1741.74 120.711C1741.51 120.535 1741.88 120.347 1740.88 120.182C1740.82 120.169 1740.05 120.107 1739.71 119.793C1739.67 119.753 1739.71 119.658 1739.65 119.622C1739.23 119.379 1738.91 119.33 1738.45 119.085C1737.99 118.84 1737.45 118.527 1736.89 118.326C1736.56 118.204 1736.06 118.234 1735.88 118.221C1735.38 118.187 1735.01 117.731 1734.66 117.807C1734.31 117.888 1734.74 118.399 1733.96 118.238C1734.05 117.907 1734.12 117.551 1734.2 117.208C1732.61 116.527 1731.01 115.97 1729.43 115.274C1729.23 115.186 1729.51 115.067 1729.3 114.967C1728.43 114.543 1727.59 114.36 1726.69 113.897C1725.99 113.539 1725.31 112.95 1724.59 112.554C1723.94 112.862 1722.89 112.214 1722.07 111.913C1721.78 111.808 1721.74 111.962 1721.52 111.924C1720.69 111.78 1721.24 111.442 1721.06 111.275C1720.3 110.552 1719.79 111.649 1718.74 111.189C1718.68 111.167 1718.24 110.253 1718.16 110.171C1717.66 109.657 1717.98 110.349 1717.59 110.238C1716.87 110.034 1716.34 109.995 1715.61 109.464C1715.4 109.31 1715 108.65 1714.42 108.784C1714.34 108.802 1714.29 109.041 1714.24 109.034C1713.28 108.893 1713.53 108.167 1713.13 107.706C1712.73 107.243 1711.77 107.42 1711.56 107.504C1711 107.716 1711.81 107.8 1711.82 107.847C1711.91 108.4 1711.38 108.091 1710.93 107.953C1710.59 108.663 1710 108.38 1710.47 107.807C1710.53 107.745 1710.83 107.951 1710.93 107.953C1710.83 107.078 1710.22 106.691 1709.22 107.084C1708.76 107.269 1708.93 107.783 1707.95 107.225C1707.5 106.971 1707.89 106.511 1707.53 106.193C1706.71 105.461 1705.29 105.458 1704.34 104.977C1704 104.8 1704.46 104.635 1704.23 104.503C1703.62 104.149 1702.97 104.148 1702.37 103.758C1702.31 103.722 1702.58 103.45 1702.38 103.361C1700.88 102.679 1699.48 102.342 1697.89 101.686C1697.12 101.37 1695.83 100.599 1695.02 100.306C1693.62 99.7949 1691.71 99.6402 1690.58 99.0252C1689.85 98.6237 1690.16 98.3098 1689.93 97.911C1689.49 97.1349 1688.02 97.5823 1687.81 97.6666C1687.81 97.6697 1688.43 98.0329 1688 98.0886C1687.64 98.4227 1687.82 97.6717 1687.81 97.6666C1687.68 97.7178 1686.32 97.2667 1686.09 97.0836C1685.96 96.9837 1686.19 96.6396 1686.12 96.5944C1684.48 95.5272 1682.76 94.6866 1680.89 94.1311C1680.86 94.126 1680.74 94.586 1680.66 94.5689C1680.44 94.5232 1680.24 94.4545 1680.06 94.3681L1678.57 94.172C1677.71 94.1939 1676.97 93.8531 1676.12 93.6906C1675.05 93.493 1674.26 93.7549 1673.86 94.6915C1673.1 94.735 1672.13 95.3471 1671.6 95.7241C1671.07 96.1006 1670.71 95.2024 1670.65 95.1977C1668.81 95.0791 1668.01 95.9171 1666.37 96.6388C1665.59 96.9794 1663.96 97.5281 1663.07 97.8545C1662.35 98.1076 1662.07 98.5239 1661.39 98.728C1661.29 98.7562 1661.15 98.3198 1661.12 98.3188C1660.15 98.2394 1661.05 99.0044 1661.01 99.2527C1660.88 100.161 1660.8 100.651 1659.79 100.905C1659.57 100.96 1658.09 100.028 1657.66 100.216C1657.13 100.457 1657.65 100.787 1657.09 101.035C1657.05 101.058 1656.83 100.77 1656.55 101.013C1655.23 102.139 1653.97 103.607 1652.75 105.02C1652.59 105.215 1652.35 104.597 1652.1 104.879C1650.92 106.207 1649.83 107.935 1649.32 109.655C1649.2 110.078 1649.69 109.999 1649.76 110.134C1650.2 110.929 1648.92 111.266 1648.85 111.397C1647.99 112.887 1647.76 114.393 1647.65 115.88C1647.76 115.547 1647.88 115.5 1647.82 115.607C1647.78 115.694 1647.59 115.912 1647.27 116.104C1647.2 116.149 1645.94 115.771 1646.35 116.754C1646.38 116.818 1646.8 117.831 1646.09 117.504C1646.05 117.483 1645.87 116.942 1645.61 117.231C1645.36 117.517 1644.56 117.694 1644.44 118.507C1644.41 118.759 1644.66 119.858 1643.69 119.533C1643.63 119.51 1641.78 118.509 1642.23 119.754C1642.3 119.958 1643.11 121.061 1642.13 120.863C1641.94 120.823 1641.99 120.435 1641.58 120.469C1640.96 120.518 1640.51 121.23 1639.56 121.091C1639.4 121.065 1638.5 120.517 1638.51 121.33C1638.51 121.457 1638.85 121.788 1638.69 121.942C1637.94 122.666 1636.7 123.015 1635.98 123.776C1635.7 124.055 1636.23 124.609 1635.97 124.975C1635.72 125.34 1635.08 125.9 1634.54 125.807C1633.99 125.714 1633.86 124.449 1633.24 124.671C1633.16 124.7 1633.08 124.729 1633 124.76C1630.55 125.668 1628.42 127.473 1626.02 128.746C1625.65 128.944 1625.79 128.412 1625.22 128.677C1623.24 129.608 1619.5 130.936 1618.11 132.545C1616.96 133.849 1619 133.511 1618.01 134.277C1617.53 134.645 1616.4 133.679 1616.26 133.7C1614.84 133.874 1614.23 134.798 1613.03 135.14C1612.78 135.21 1612.79 134.611 1612.58 134.677C1611.87 134.895 1611.24 135.442 1610.57 135.69C1610.28 135.798 1610.17 135.397 1609.92 135.544C1609.32 135.89 1608.82 136.299 1608.35 136.926C1608.31 136.983 1608.89 137.281 1608.42 137.507C1607.66 137.871 1606.85 138.636 1605.8 138.671C1605.49 138.677 1605.13 137.831 1604.82 138.662C1604.75 138.836 1605.32 139.789 1604.3 139.193C1604.13 139.093 1602.55 138.391 1602.31 139.389C1602.25 139.652 1602.23 140.637 1601.85 140.644C1601.8 140.642 1601.79 140.116 1601.51 140.186C1600.51 140.443 1599.57 140.905 1598.57 141.171C1598.3 141.242 1598.49 140.618 1598.09 140.738C1597.01 141.07 1595.76 141.749 1594.79 142.332C1594.43 142.548 1594.84 142.811 1594.83 142.864C1594.65 143.718 1594.04 142.928 1593.87 142.939C1592.85 143.013 1592.32 143.725 1591.44 143.971C1591.2 144.04 1591.2 143.549 1591.14 143.531C1590.52 143.369 1591.17 143.973 1590.9 144.185C1590.15 144.779 1589.17 145.151 1588.3 145.456C1587.98 145.569 1588.15 144.94 1587.86 145.047C1586.17 145.672 1584.45 146.461 1582.9 147.41C1582.62 147.588 1582.94 147.863 1582.91 147.971C1582.69 148.724 1581.75 148.218 1581.57 148.208C1580.77 148.158 1580.62 148.581 1580 148.774C1576.96 149.721 1573.44 151.44 1570.7 152.709C1567.15 154.363 1564.45 155.802 1560.97 157.14C1560.75 157.226 1560.83 156.752 1560.64 156.821C1558.18 157.742 1555.81 158.886 1553.35 159.794C1553.15 159.87 1553.32 159.422 1552.99 159.535C1552.31 159.764 1551.48 160.137 1550.85 160.518C1550.54 160.703 1551.07 160.79 1550.76 160.969C1550.03 161.386 1549.22 161.743 1548.42 162.017C1548.08 162.134 1548.47 161.618 1548.04 161.795C1545.06 163.003 1542.2 164.184 1539.29 165.762C1539.1 165.87 1539.09 166.453 1538.62 166.529C1538.54 166.403 1538.49 166.238 1538.42 166.095C1534.11 167.793 1529.86 169.726 1525.56 171.495C1525.38 171.57 1525.64 171.268 1525.29 171.414C1523.23 172.27 1521.25 173.074 1519.21 174.056C1519 174.154 1519.18 174.323 1518.55 174.536C1518.43 174.574 1517.49 174.916 1517.24 174.973C1517.21 174.98 1517.35 174.824 1517.05 174.943C1515.34 175.632 1513.52 176.406 1511.8 177.134C1511.53 177.25 1511.84 177.183 1511.64 177.265C1510.27 177.831 1508.69 178.425 1507.35 178.969C1506.45 179.325 1506.79 179.219 1506.32 179.406C1506.25 179.431 1505.69 179.626 1505.67 179.638C1505.59 179.667 1505.87 179.595 1505.76 179.639C1505.74 179.645 1505.29 179.766 1505.29 179.766C1505.29 179.766 1505.29 179.766 1505.29 179.766C1505.29 179.766 1505.33 179.756 1505.43 179.73C1505.46 179.722 1506.01 179.581 1506.15 179.551C1506.25 179.53 1506.08 179.578 1506.27 179.535C1506.47 179.493 1506.68 179.433 1507.01 179.36C1507.34 179.29 1507.2 179.341 1507.86 179.195ZM1669.27 97.4869C1668.9 98.1093 1668.24 96.5153 1668.96 96.707C1669 96.7182 1669.29 97.456 1669.27 97.4869ZM1730.83 116.464C1730.08 116.49 1729.8 115.88 1730.34 115.843C1730.88 115.814 1731.06 116.46 1730.83 116.464ZM1737.46 119.366C1736.64 119.239 1736.8 118.467 1737.55 118.954C1737.59 118.982 1737.51 119.374 1737.46 119.366ZM1508.57 178.628C1508.56 178.632 1508.15 178.776 1508.14 178.778C1507.91 178.83 1508.73 178.535 1508.57 178.628ZM1744.08 122.16C1743.81 122.131 1743.16 121.79 1743.49 121.823C1743.75 121.854 1744.4 122.201 1744.08 122.16ZM1651.68 118.465C1651.7 118.487 1651.54 118.752 1651.42 118.651C1651.02 118.325 1651.36 118.091 1651.68 118.465ZM1755.42 126.627C1753.75 125.952 1752.68 125.69 1754.53 126.34C1754.87 126.461 1753.82 126.056 1754.25 126.206C1755.03 126.492 1755.53 126.7 1756.33 126.985C1756.47 127.042 1755.52 126.669 1755.42 126.626C1755.42 126.626 1755.42 126.626 1755.42 126.627ZM1669.66 99.5388C1669.65 99.5632 1669.26 99.7282 1669.24 99.7111C1668.83 99.2758 1669.64 98.941 1669.66 99.5388ZM1637.8 129.911C1637.8 129.97 1636.93 130.495 1636.88 130.467C1635.94 129.825 1637.69 128.767 1637.8 129.911ZM1696.59 105.215C1696.87 105.785 1697.38 106.019 1697.92 105.644C1697.48 105.51 1697.04 105.352 1696.59 105.215Z" fill="white"/>
<path d="M229.632 185.594C229.906 186.586 230.632 187.716 231.284 188.528C231.488 188.782 231.733 188.492 231.887 188.661C232.189 188.992 232.204 189.425 232.527 189.741C232.636 189.845 233.057 189.457 233.16 189.571C233.718 190.199 233.914 190.949 234.363 191.639C236.578 195.041 238.43 198.535 240.372 202.118C241.012 203.299 242.149 204.568 242.537 205.916C242.582 206.073 242.107 206.188 242.084 206.233C241.74 206.925 242.549 206.371 242.799 206.603C243.786 207.523 244.413 208.765 244.753 209.934C244.897 210.432 243.817 210.368 244.519 210.61C244.567 210.627 244.973 210.295 245.082 210.399C245.327 210.636 245.499 211.222 245.64 211.429C245.914 211.826 245.942 211.9 246.137 212.305C246.408 212.858 246.946 213.414 247.12 214.061C247.156 214.2 246.604 214.251 246.618 214.492C246.633 214.733 246.924 215.253 247.12 215.383C247.316 215.513 247.652 215.263 247.752 215.255C248.594 215.186 247.889 216.273 247.901 216.364C248.163 218.023 249.314 219.014 249.952 220.388C250.435 221.432 250.766 222.634 251.254 223.614C251.837 224.781 252.559 225.663 253.049 226.832C253.102 226.955 252.48 227.072 252.543 227.223C253.21 228.825 253.997 230.359 255.101 231.75C255.212 231.889 255.606 231.459 255.747 231.585C256.595 232.359 258.266 233.43 256.406 234.99C256.792 235.602 257.245 236.352 257.945 236.734C258.395 236.981 258.757 236.369 258.745 236.936C258.743 237.063 258.214 237.145 258.246 237.32C258.381 238.056 258.866 238.702 258.928 239.464C258.94 239.619 258.506 239.777 258.448 239.85C257.986 240.447 259.235 240.503 259.362 240.583C260.311 241.199 260.392 241.933 260.783 242.737C260.873 242.923 260.209 242.962 260.277 243.151C260.633 244.126 261.133 245.075 261.809 245.878C261.961 246.055 262.351 245.645 262.448 245.719C262.87 246.046 262.012 246.562 262.399 246.884C262.48 246.952 262.866 246.713 262.918 246.708C263.738 246.628 262.84 247.309 262.848 247.383C262.923 248.331 264.206 248.363 264.422 249.213C264.446 249.315 263.831 249.345 263.933 249.617C264.604 251.433 265.607 253.217 266.827 254.756C267.016 254.996 267.315 254.623 267.371 254.618C268.247 254.545 267.328 255.191 267.331 255.296C267.382 256.115 268.524 256.371 267.549 257.397C269.328 260.137 270.017 263.369 272.441 265.78C272.47 265.811 272.933 265.515 272.99 265.579C273.681 266.338 272.834 266.525 272.169 267.549C272.002 267.807 273.345 267.73 273.447 267.731C273.82 267.734 274.485 267.242 274.567 267.263C275.219 267.448 272.76 268.514 273.012 269.057C273.024 269.072 273.438 268.793 273.503 268.817C273.709 268.894 273.596 269.117 273.815 269.184C274.318 269.335 275.551 268.899 275.09 269.703C275.029 269.805 273.608 270.353 273.898 270.808C274.015 270.988 274.39 271.854 274.591 272.053C274.791 272.25 275.159 271.879 275.186 271.887C276.073 272.259 276.203 271.901 277.223 271.82C278.239 271.74 276.132 272.612 275.963 272.851C275.794 273.09 276.499 273.337 276.721 273.375C276.944 273.413 277.159 273.137 277.302 273.196C278.244 273.591 276.417 273.973 276.194 274.352C275.665 275.245 277.39 274.947 277.767 275.364C277.869 275.477 277.47 275.532 277.492 275.664C277.584 276.187 278.192 276.244 278 276.977C277.968 277.096 277.246 277.953 278.051 277.915C278.167 277.909 278.497 277.62 278.674 277.778C278.94 278.014 279.272 278.508 279.293 278.886C279.307 279.165 278.553 279.188 278.886 279.393C279.035 279.484 279.289 279.069 279.537 279.254C279.785 279.437 280.061 280.073 280.159 280.317C280.257 280.562 279.719 280.653 279.696 280.688C279.566 280.89 279.549 281.455 279.569 281.495C280.46 283.562 282.14 285.068 282.798 287.178C282.85 287.343 282.299 287.474 282.301 287.501C282.339 288.133 283.481 287.09 284.102 287.254C283.056 287.675 283.343 287.809 283.406 288.237C283.436 288.444 282.995 288.529 282.962 288.565C282.486 289.113 283.349 288.939 283.53 288.913C284.196 288.819 283.597 289.334 284.043 289.273C284.487 289.214 284.931 288.668 285.092 289.032C284.773 289.303 283.694 289.48 283.666 289.826C283.561 291.131 285.208 292.71 285.672 293.504C286.136 294.296 286.193 294.595 286.549 295.016C287.194 295.777 286.337 295.787 286.264 296.48C286.193 297.174 287.814 296.098 288.225 296.002C288.635 295.904 288.288 296.167 288.539 296.167C288.789 296.166 288.948 295.842 289.129 296.029C289.311 296.217 288.929 297.138 288.574 297.4C287.821 297.954 286.822 298.084 287.403 298.533C287.437 298.559 287.844 298.235 287.951 298.344C288.786 299.214 289.308 300.279 290.101 301.167C290.211 301.289 290.662 300.925 290.732 300.993C291.459 301.703 290.456 301.795 289.72 302.712C290.942 302.014 291.841 301.913 292.153 302.563C292.341 302.954 291.754 303.145 291.481 303.581C291.399 303.712 291.91 303.813 291.672 303.985C290.896 304.548 289.818 304.731 290.512 305.228C290.544 305.249 290.968 304.938 291.044 305.027C291.536 305.601 290.68 306.096 290.904 306.86C291.08 307.459 292.088 308.201 292.473 308.797C293.896 308.118 293.849 308.873 292.977 309.576C293.21 309.97 293.362 310.443 293.684 310.779C293.795 310.895 294.167 310.612 294.219 310.609C295.045 310.548 294.17 311.174 294.174 311.281C294.259 312.419 295.352 312.869 295.072 314.123C295.061 314.167 294.093 314.683 294.933 314.592C294.991 314.585 295.3 314.07 295.537 314.488C295.775 314.906 296.688 315.477 296.509 316.294C296.466 316.492 295.832 317.236 296.599 317.239C296.703 317.239 296.968 317.063 297.153 317.046C297.744 316.996 296.787 317.563 297.74 317.383C298.693 317.203 299.542 317.356 299.236 318.238C299.228 318.265 298.5 318.779 298.602 318.965C298.764 319.26 299.132 319.617 299.275 319.938C299.343 320.092 298.804 320.224 298.807 320.255C299.008 321.41 299.789 321.936 300.492 322.946C300.621 323.131 300.218 324.024 300.932 324.166C301.714 324.323 303.934 322.754 303.815 324.008C303.768 324.513 300.926 326.448 302.852 326.42C303.102 327.988 304.513 328.889 304.596 330.539C304.6 330.614 303.833 331.211 303.913 331.352C304.034 331.561 304.491 331.494 304.589 331.637C305.014 332.233 304.948 332.989 305.294 333.593C305.425 333.823 305.801 333.546 305.956 333.82C306.112 334.094 305.654 334.538 306.097 334.8C306.433 334.998 307.686 334.769 307.996 335.095C306.901 335.622 307.047 335.877 306.976 336.484C306.962 336.601 306.533 336.683 306.507 336.747C306.39 337.014 306.783 337.027 306.645 337.293C306.612 337.357 306.237 337.534 306.189 337.597C305.766 338.135 306.827 338.203 307.011 338.214C307.712 338.257 307.289 338.627 307.618 338.758C307.946 338.888 308.06 338.412 308.32 338.621C308.859 339.056 309.135 339.809 309.419 340.373C309.53 340.599 308.955 340.677 308.959 340.715C309.052 341.247 309.808 341.476 308.93 342.203C311.669 341.327 308.812 342.605 309.644 343.039C309.71 343.072 310.965 342.571 311.049 342.283C311.134 341.995 310.607 341.864 310.755 341.45C310.79 341.353 311.757 340.435 311.802 340.35C312.153 339.687 310.299 340.48 310.188 340.505C308.99 340.762 310.006 339.718 310.034 339.555C310.162 338.807 309.681 338.446 309.74 337.843C309.776 337.45 310.959 336.862 310.809 336.636C310.312 335.885 308.511 336.38 309.605 334.945C309.838 334.638 311.221 334.191 309.92 334.086C309.838 334.079 308.695 334.083 309.174 333.555C309.234 333.488 309.616 333.312 309.629 333.256C309.706 332.881 309.316 332.836 309.32 332.465C309.325 332.094 309.372 331.628 309.081 331.342C308.907 331.17 308.072 331.233 307.851 331.214C307.219 331.165 307.899 330.48 307.211 330.587C306.519 330.695 305.754 331.471 305.145 331.192C306.127 330.714 307.126 330.201 308.109 329.71C307.603 328.713 306.819 327.866 306.39 326.829C306.337 326.7 306.93 326.581 306.888 326.436C306.707 325.827 306.096 325.506 305.972 324.845C305.878 324.332 306.209 323.568 306.128 323.023C304.858 323.259 304.913 322.37 304.569 321.903C304.449 321.739 304.152 321.892 303.994 321.809C303.403 321.495 304.51 321.256 304.606 321.049C305.014 320.166 302.723 321.173 302.467 320.475C302.452 320.438 303.458 319.44 303.506 319.345C303.819 318.736 303.056 319.478 302.855 319.281C302.49 318.922 302.06 318.754 302.177 318.079C302.212 317.881 302.799 317.173 302.082 317.156C301.988 317.153 301.598 317.36 301.561 317.34C300.913 316.968 302.161 316.369 302.439 315.854C302.717 315.34 301.623 315.254 301.326 315.271C300.559 315.311 301.143 315.599 301.086 315.642C300.409 316.159 300.373 315.742 300.182 315.499C298.933 316.033 298.829 315.617 299.989 315.245C300.116 315.205 300.1 315.471 300.182 315.499C301.278 314.698 301.238 314.207 299.894 314.269C299.264 314.299 298.743 314.791 298.662 314.028C298.625 313.682 299.526 313.403 299.635 313.032C299.882 312.184 298.727 311.77 298.563 311.091C298.503 310.845 299.069 310.849 299.044 310.673C298.98 310.206 298.464 310.007 298.452 309.514C298.451 309.469 298.979 309.334 298.926 309.203C298.532 308.21 297.829 307.512 297.35 306.506C297.119 306.02 296.981 305.023 296.692 304.543C296.193 303.709 294.986 302.96 294.809 302.131C294.691 301.592 295.227 301.473 295.461 301.11C295.914 300.408 294.433 300.228 294.21 300.215C294.203 300.215 294.284 300.688 293.93 300.58C293.35 300.691 294.21 300.221 294.21 300.215C294.066 300.205 293.565 299.417 293.58 299.207C293.589 299.093 294.072 298.93 294.068 298.874C293.958 297.561 293.552 296.382 292.807 295.344C292.788 295.329 292.287 295.598 292.25 295.558C291.714 295.006 292.148 294.291 292.269 293.574C292.39 292.857 292.064 292.484 291.03 292.574C290.951 292.112 290.286 291.706 289.892 291.478C289.497 291.25 290.477 290.736 290.483 290.697C290.685 289.473 289.862 289.203 289.324 288.281C289.066 287.844 288.789 286.867 288.668 286.32C288.573 285.887 288.229 285.76 288.211 285.329C288.208 285.271 288.677 285.113 288.687 285.09C289.034 284.438 288.033 285.14 287.799 285.147C286.951 285.175 286.487 285.164 286.58 284.493C286.6 284.338 288.009 283.261 288 283.001C287.985 282.664 287.472 283.033 287.471 282.674C287.47 282.643 287.82 282.487 287.72 282.312C287.259 281.496 286.628 280.667 286.253 279.772C286.201 279.65 286.823 279.548 286.756 279.367C286.442 278.522 286.006 277.639 285.379 276.965C285.223 276.8 284.894 277.102 284.76 277.113C283.946 277.175 284.781 276.338 284.772 276.268C284.579 274.589 283.15 273.901 282.895 272.218C282.883 272.126 283.673 271.003 282.619 271.157C282.548 271.167 281.474 271.334 282.008 270.79C282.042 270.756 282.609 270.7 282.421 270.425C282.232 270.15 282.335 269.519 281.609 269.359C281.38 269.308 280.292 269.441 280.865 268.704C280.906 268.655 282.331 267.265 281.057 267.599C280.848 267.654 279.621 268.269 280.044 267.511C280.126 267.365 280.478 267.396 280.543 267.083C280.644 266.603 280.092 266.287 280.442 265.591C280.505 265.469 281.197 264.752 280.435 264.789C280.316 264.795 279.937 265.066 279.827 264.95C279.299 264.399 279.258 263.585 278.662 263.055C278.451 262.866 277.836 263.299 277.542 263.137C277.248 262.976 276.845 262.562 277.033 262.162C277.22 261.763 278.42 261.546 278.326 261.121C277.92 259.276 276.521 257.912 275.652 256.285C275.523 256.044 276.002 256.071 275.839 255.702C275.241 254.344 274.519 251.854 273.162 251.065C272.076 250.433 272.128 251.841 271.53 251.249C271.243 250.963 272.313 250.011 272.313 249.91C272.332 248.911 271.518 248.602 271.346 247.791C271.311 247.624 271.884 247.538 271.848 247.398C271.731 246.918 271.291 246.56 271.137 246.121C271.069 245.924 271.47 245.779 271.359 245.62C271.1 245.236 270.767 244.944 270.218 244.708C270.168 244.686 269.805 245.158 269.644 244.859C269.386 244.375 268.743 243.924 268.844 243.182C268.876 242.961 269.753 242.544 268.975 242.463C268.813 242.445 267.802 243.034 268.517 242.185C268.636 242.043 269.535 240.757 268.578 240.776C268.326 240.781 267.352 240.948 267.393 240.681C267.402 240.643 267.926 240.534 267.893 240.343C267.77 239.676 267.43 239.075 267.293 238.395C267.257 238.212 267.859 238.228 267.791 237.964C267.603 237.237 267.089 236.459 266.631 235.875C266.461 235.66 266.134 236.016 266.082 236.019C265.234 236.07 266.123 235.453 266.136 235.333C266.203 234.592 265.541 234.36 265.412 233.766C265.375 233.603 265.885 233.494 265.912 233.445C266.172 232.952 265.449 233.565 265.268 233.414C264.756 232.992 264.512 232.369 264.315 231.792C264.244 231.58 264.884 231.558 264.814 231.371C264.407 230.256 263.838 229.166 263.056 228.258C262.908 228.088 262.554 228.403 262.44 228.406C261.651 228.43 262.355 227.597 262.397 227.462C262.585 226.847 262.143 226.848 262.032 226.433C261.5 224.405 260.184 222.208 259.213 220.511C257.95 218.3 256.727 216.697 255.808 214.455C255.749 214.313 256.362 214.198 256.318 214.073C255.728 212.459 254.803 211.031 254.237 209.402C254.19 209.269 254.795 209.211 254.736 208.989C254.62 208.532 254.344 208.013 253.98 207.665C253.804 207.495 253.487 207.981 253.319 207.805C252.926 207.397 252.646 206.894 252.497 206.357C252.435 206.127 253.116 206.2 252.993 205.921C252.171 204.017 251.404 202.129 249.831 200.55C249.724 200.442 248.591 200.83 248.669 200.457C248.959 200.297 249.312 200.134 249.628 199.975C248.527 197.159 246.892 194.625 245.557 191.908C245.501 191.794 246.166 191.727 246.06 191.504C245.449 190.212 245.021 188.879 243.835 187.818C243.718 187.713 242.743 188.249 242.715 187.79C242.711 187.709 242.573 187.062 242.722 186.81C242.745 186.774 243.264 186.662 243.191 186.467C242.753 185.341 242.112 184.245 241.317 183.287C241.188 183.133 240.775 183.553 240.679 183.445C239.999 182.679 239.928 181.534 239.078 180.895C238.507 180.468 237.741 181.081 236.749 181.175C236.609 181.188 236.425 180.844 235.922 181.057C234.654 181.59 233.37 182.395 232.01 182.943C231.717 183.061 231.805 182.446 231.244 183.047C231.207 183.088 231.137 183.537 230.942 183.731C230.807 183.865 230.254 183.993 230.102 184.21C229.951 184.426 230.434 184.361 230.283 184.673C230.129 184.986 229.515 185.166 229.632 185.594ZM288.123 290.447C287.496 290.358 289.237 289.491 288.973 290.026C288.958 290.053 288.154 290.452 288.123 290.447ZM305.492 328.49C304.524 328.442 305.537 327.63 306.271 327.639C307.006 327.649 305.786 328.505 305.492 328.49ZM306.902 333.002C306.066 332.809 308.53 331.57 308.264 332.318C308.249 332.361 306.95 333.014 306.902 333.002ZM237.159 182.691C237.134 182.697 236.993 182.454 237.013 182.437C237.51 182.042 237.791 182.528 237.159 182.691ZM308.246 337.505C307.838 337.513 308.028 336.901 308.535 336.891C308.943 336.883 308.753 337.496 308.246 337.505ZM278.633 274.976C278.605 274.984 278.497 274.813 278.647 274.748C279.131 274.537 279.113 274.853 278.633 274.976ZM311.552 344.684C310.965 343.669 308.602 343.988 309.372 345.032C309.511 345.221 309.821 344.276 310.13 344.455C310.696 344.783 309.55 345.71 310.475 345.882C310.644 345.913 311.59 344.739 311.554 344.68C311.554 344.681 311.553 344.682 311.552 344.684ZM285.922 291.252C285.896 291.257 285.757 291.015 285.777 290.999C286.273 290.602 286.554 291.088 285.922 291.252ZM272.609 264.883C272.553 264.892 272.235 264.33 272.272 264.29C273.045 263.56 273.691 264.694 272.609 264.883ZM292.516 308.789C292.081 309.326 292.167 309.685 292.976 309.575C292.811 309.319 292.678 309.047 292.516 308.789Z" fill="white"/>
<path d="M312.453 150.309C311.946 150.819 311.949 151.735 312.137 152.499C312.194 152.738 312.802 152.852 312.867 153.026C312.994 153.367 312.625 153.505 312.795 153.858C312.855 153.976 313.8 154.205 313.841 154.321C314.062 154.956 313.661 155.332 313.672 155.896C313.727 158.677 313.187 161.192 312.693 163.805C312.529 164.666 312.988 165.956 312.32 166.661C312.241 166.743 311.467 166.392 311.395 166.387C310.284 166.309 311.925 166.803 312.068 167.072C312.631 168.139 312.395 169.008 311.82 169.623C311.573 169.883 310.107 168.991 310.879 169.629C310.931 169.673 311.805 169.906 311.863 170.024C311.995 170.291 311.709 170.601 311.721 170.775C311.748 171.112 311.722 171.156 311.632 171.432C311.515 171.812 311.772 172.409 311.433 172.738C311.359 172.807 310.535 172.375 310.337 172.457C310.14 172.538 310.081 172.925 310.24 173.122C310.4 173.318 311.099 173.517 311.247 173.596C312.499 174.258 310.522 174.003 310.457 174.039C309.329 174.733 310.059 175.953 309.719 176.868C309.458 177.563 308.841 178.18 308.644 178.86C308.413 179.67 308.636 180.512 308.273 181.248C308.235 181.326 307.252 180.856 307.205 180.951C306.7 181.957 306.427 183.04 306.729 184.338C306.76 184.468 307.704 184.663 307.788 184.813C308.286 185.724 309.677 187.388 305.646 186.336C305.638 186.826 305.601 187.411 306.242 188.088C306.654 188.524 307.718 188.64 307.189 188.795C307.071 188.83 306.251 188.425 306.139 188.502C305.665 188.825 305.766 189.406 305.166 189.677C305.042 189.731 304.286 189.426 304.14 189.4C302.948 189.2 304.661 190.228 304.767 190.353C305.551 191.301 305.003 191.58 304.828 192.129C304.788 192.257 303.816 191.731 303.741 191.84C303.363 192.411 303.212 193.092 303.442 193.873C303.495 194.047 304.416 194.244 304.486 194.344C304.785 194.781 303.111 194.236 303.366 194.643C303.418 194.728 304.178 194.971 304.257 195.012C305.486 195.653 303.604 195.123 303.548 195.151C302.798 195.487 304.58 196.535 304.117 196.957C304.06 197.006 303.165 196.517 303.062 196.678C302.686 197.26 302.457 197.919 302.38 198.629L302.891 197.661C302.673 198.217 302.508 198.912 302.496 199.589C302.491 199.818 303.197 200.127 303.268 200.19C304.371 201.165 302.675 200.183 302.577 200.196C301.857 200.32 302.947 201.651 300.823 200.643C300.319 202.904 298.122 203.97 298.809 206.859C298.816 206.893 299.664 207.354 299.675 207.421C299.81 208.241 298.592 207.361 296.804 206.779C296.354 206.634 298.078 208.058 298.202 208.166C298.659 208.565 299.944 209.21 300.025 209.3C300.653 210.019 296.618 207.529 296.418 207.86C296.418 207.874 297.192 208.28 297.25 208.352C297.432 208.578 297.084 208.485 297.291 208.724C297.771 209.275 299.708 210.525 298.379 210.135C298.207 210.084 295.933 208.647 295.862 209.014C295.836 209.161 295.477 209.674 295.544 209.904C295.607 210.138 296.412 210.48 296.438 210.51C297.191 211.486 297.687 211.58 299.031 212.641C300.369 213.698 296.932 211.591 296.497 211.443C296.063 211.296 296.704 212.068 296.945 212.307C297.186 212.546 297.713 212.736 297.835 212.895C298.633 213.936 296.002 212.065 295.368 211.881C293.864 211.449 296.297 213.209 296.374 213.656C296.395 213.776 295.847 213.366 295.75 213.406C295.373 213.567 296.077 214.21 295.148 214.105C294.996 214.088 293.29 213.446 294.328 214.285C294.477 214.405 295.161 214.711 295.233 214.919C295.34 215.233 295.294 215.634 294.965 215.705C294.722 215.756 293.758 214.973 293.981 215.346C294.082 215.512 294.789 215.724 294.926 216.007C295.063 216.288 294.811 216.658 294.703 216.794C294.596 216.928 293.837 216.38 293.776 216.36C293.424 216.252 292.87 216.311 292.857 216.337C292.031 217.533 292.713 219.491 291.562 220.449C291.472 220.525 290.658 219.971 290.636 219.978C290.09 220.102 292.502 221.145 293.126 221.811C291.419 220.784 291.653 221.099 291.33 221.223C291.173 221.282 290.539 220.836 290.465 220.807C289.353 220.389 290.599 221.26 290.85 221.444C291.774 222.122 290.538 221.572 291.155 222.025C291.768 222.476 292.838 222.863 292.698 223.077C292.044 222.784 290.522 221.691 290.163 221.709C288.808 221.775 289.391 223.697 289.23 224.285C289.069 224.872 288.86 224.972 288.913 225.398C289.009 226.168 287.922 225.284 287.181 225.304C286.439 225.326 289.486 226.852 290.094 227.263C290.701 227.673 290.018 227.351 290.334 227.61C290.649 227.868 291.153 227.988 291.205 228.201C291.257 228.414 289.912 228.146 289.22 227.815C287.754 227.115 286.375 226.1 286.685 226.763C286.704 226.801 287.519 227.177 287.552 227.303C287.784 228.285 287.444 228.965 287.606 229.91C287.63 230.04 288.539 230.455 288.562 230.536C288.811 231.385 287.462 230.362 285.677 229.729C287.869 230.894 289.094 231.809 288.877 232.219C288.747 232.466 287.83 231.887 287.077 231.664C286.85 231.597 287.399 232.137 286.939 231.916C285.434 231.192 283.908 230.104 284.313 230.891C284.333 230.926 285.158 231.32 285.17 231.411C285.25 232 283.709 231.185 283.274 231.521C282.932 231.785 283.508 232.919 283.43 233.402C285.856 234.779 285.088 234.836 283.332 234.032C283.254 234.327 283.002 234.548 283.092 234.926C283.122 235.056 283.854 235.401 283.924 235.455C285.018 236.3 283.331 235.48 283.236 235.498C282.281 235.73 283.223 236.939 281.697 236.814C281.642 236.809 279.943 235.877 281.083 236.733C281.162 236.791 282.033 237.043 281.939 237.343C281.846 237.644 282.46 238.66 281.463 238.591C281.224 238.574 279.729 238.017 280.689 238.813C280.819 238.921 281.316 239.171 281.564 239.361C282.352 239.967 280.62 239.05 281.984 240.014C283.349 240.978 284.268 241.879 283.061 241.674C283.025 241.668 281.63 240.98 281.582 241.112C281.507 241.324 281.63 241.755 281.507 241.947C281.448 242.039 280.649 241.495 280.624 241.503C279.788 241.87 280.287 242.721 280.203 243.605C280.191 243.766 278.847 243.461 279.606 244.223C280.435 245.057 284.676 247.18 283.352 247.209C282.823 247.22 277.455 244.506 279.879 246.52C278.723 246.964 279.611 248.587 278.167 248.857C278.103 248.87 276.595 248.126 276.563 248.224C276.52 248.367 277.141 248.855 277.127 248.977C277.084 249.508 276.29 249.524 276.154 249.949C276.1 250.11 276.822 250.482 276.758 250.672C276.688 250.873 275.704 250.438 275.998 250.944C276.222 251.328 277.967 252.65 278.038 253.018C276.205 251.895 276.148 252.072 275.492 252.051C275.362 252.05 274.766 251.592 274.673 251.571C274.277 251.476 274.74 251.906 274.32 251.784C274.219 251.755 273.597 251.366 273.48 251.32C272.458 250.913 273.683 252.065 273.896 252.266C274.704 253.03 273.848 252.597 274.126 252.96C274.397 253.333 274.988 253.407 275.097 253.721C275.318 254.374 274.932 254.748 274.746 255.085C274.655 255.236 273.909 254.59 273.877 254.599C273.471 254.758 274.134 255.633 272.433 254.658C276.439 257.736 271.928 254.53 272.466 255.508C272.512 255.585 274.401 257.045 274.78 257.12C275.158 257.196 274.709 256.541 275.261 256.704C275.391 256.743 277.394 257.78 277.531 257.819C278.591 258.146 275.668 256.1 275.514 255.978C273.874 254.63 276.055 255.702 276.244 255.718C277.104 255.801 276.883 255.221 277.541 255.205C277.954 255.213 279.933 256.454 279.969 256.265C280.088 255.637 277.448 253.713 280.141 254.735C280.714 254.956 282.821 256.404 281.338 254.985C281.245 254.895 279.848 253.662 280.934 254.113C281.071 254.17 281.705 254.561 281.774 254.567C282.228 254.602 281.796 254.172 282.158 254.123C282.521 254.074 283.012 254.083 282.927 253.735C282.877 253.528 281.792 252.643 281.539 252.405C280.808 251.724 282.296 252.361 281.349 251.638C280.396 250.913 278.717 250.198 278.233 249.511C279.897 250.496 281.613 251.493 283.29 252.477C283.604 251.822 283.433 250.889 283.893 250.28C283.948 250.211 284.797 250.818 284.88 250.757C285.227 250.495 284.769 249.812 285.241 249.593C285.608 249.427 286.748 249.659 287.161 249.503C285.356 248.207 286.258 248.153 286.271 247.729C286.277 247.582 285.762 247.291 285.642 247.114C285.203 246.453 286.809 247.579 287.123 247.651C288.465 247.956 284.667 245.684 284.996 245.336C285.013 245.316 287.207 246.235 287.356 246.271C288.32 246.518 286.668 245.82 286.602 245.586C286.483 245.158 286.104 244.688 286.886 244.715C287.117 244.725 288.52 245.237 287.641 244.485C287.526 244.387 286.843 244.01 286.815 243.968C286.352 243.247 288.478 244.465 289.309 244.685C290.14 244.905 288.85 243.757 288.463 243.451C287.464 242.66 287.925 243.306 287.813 243.253C286.478 242.619 286.825 242.526 286.814 242.295C284.747 241.071 285.008 240.906 286.812 242.06C287.009 242.186 286.739 242.206 286.814 242.295C288.942 243.323 289.354 243.212 287.612 241.824C286.795 241.175 285.681 240.696 286.295 240.513C286.572 240.43 287.965 241.325 288.449 241.388C289.554 241.531 288.494 240.278 288.926 240.013C289.083 239.916 289.79 240.504 289.925 240.453C290.284 240.321 289.825 239.756 290.27 239.679C290.311 239.672 291.102 240.199 291.157 240.127C291.593 239.587 291.365 238.764 291.711 238.126C291.88 237.816 292.637 237.544 292.725 237.178C292.881 236.55 292.069 235.193 292.622 234.899C292.98 234.705 293.766 235.241 294.4 235.433C295.629 235.805 293.934 234.251 293.667 234.019C293.658 234.012 293.316 234.161 292.972 233.781C292.138 233.197 293.661 234.02 293.667 234.019C293.494 233.869 293.604 233.243 293.82 233.23C293.938 233.223 294.7 233.7 294.747 233.688C295.841 233.393 296.434 232.815 296.472 231.904C296.463 231.882 295.58 231.402 295.571 231.358C295.416 230.73 296.631 231.08 297.456 231.107C298.281 231.134 298.22 230.748 296.837 229.693C297.17 229.548 296.716 228.808 296.433 228.37C296.151 227.931 297.865 228.875 297.909 228.875C299.311 228.918 298.529 228.031 298.718 227.352C298.805 227.027 299.369 226.614 299.731 226.413C300.019 226.258 299.706 225.884 300.087 225.808C300.138 225.798 300.876 226.262 300.91 226.27C301.955 226.542 300.042 225.599 299.742 225.358C298.65 224.484 298.078 224.001 298.824 224.01C298.995 224.012 301.772 225.33 302.004 225.288C302.3 225.23 301.31 224.747 301.646 224.697C301.674 224.693 302.259 225.035 302.298 224.907C302.486 224.321 302.471 223.559 302.839 223.06C302.887 222.99 303.763 223.623 303.848 223.531C304.242 223.105 304.531 222.529 304.375 221.796C304.334 221.613 303.64 221.309 303.462 221.171C302.385 220.332 304.214 221.097 304.267 221.08C305.59 220.685 304.464 219.088 305.712 218.635C305.782 218.614 307.819 219.306 306.363 218.219C306.266 218.147 304.773 217.041 305.948 217.536C306.021 217.567 306.779 218.154 306.802 217.924C306.826 217.695 307.543 217.73 306.788 216.954C306.55 216.709 305.073 215.585 306.472 216.107C306.567 216.148 309.641 217.479 307.747 216.179C307.436 215.965 305.339 214.744 306.574 215.102C306.812 215.173 307.22 215.546 307.593 215.58C308.168 215.633 307.778 215.018 308.859 215.317C309.051 215.37 310.576 216.029 309.595 215.234C309.442 215.109 308.719 214.739 308.692 214.609C308.559 213.986 309.27 213.857 309.027 213.177C308.943 212.937 307.781 212.328 307.568 212.002C307.357 211.675 307.239 211.219 307.849 211.369C308.454 211.526 310.132 212.783 310.415 212.641C311.631 212.043 311.194 210.427 311.628 209.409C311.692 209.258 312.25 209.772 312.397 209.569C312.939 208.818 314.336 207.963 313.421 206.494C312.714 205.277 311.484 205.36 311.323 204.681C311.25 204.352 313.369 205.556 313.458 205.563C313.672 205.576 313.795 205.541 313.865 205.477L315.022 203.287C315.216 202.942 314.797 202.438 315.171 202.152C315.273 202.075 316.159 202.513 316.235 202.444C316.503 202.21 316.205 201.75 316.383 201.497C316.466 201.385 317.162 201.667 317.15 201.532C317.13 201.21 316.924 200.856 316.363 200.343C316.312 200.296 315.374 200.139 315.417 199.922C315.489 199.572 314.988 198.92 315.802 198.787C316.046 198.748 317.658 199.337 316.636 198.684C316.422 198.548 314.464 197.9 316.24 198.233C316.535 198.287 318.964 198.642 317.597 197.873C317.238 197.67 315.713 196.93 316.012 196.886C316.058 196.882 316.896 197.274 317.022 197.193C317.451 196.899 317.512 196.449 317.933 196.14C318.048 196.059 318.883 196.551 319.025 196.419C319.416 196.055 319.393 195.413 319.274 194.873C319.228 194.673 318.446 194.511 318.369 194.47C317.126 193.798 318.939 194.339 319.065 194.315C319.827 194.153 319.104 193.55 319.457 193.273C319.552 193.196 320.371 193.577 320.453 193.585C321.265 193.652 319.691 193.245 319.572 193.054C319.232 192.517 319.448 192.138 319.691 191.812C319.782 191.692 320.706 192.204 320.776 192.093C321.208 191.44 321.388 190.662 321.105 189.766C321.05 189.596 320.265 189.401 320.103 189.31C318.967 188.677 320.713 189.007 320.893 189.001C321.715 188.975 321.089 188.617 321.308 188.407C322.388 187.387 322.514 185.683 322.675 184.404C322.889 182.739 322.611 181.283 323.336 179.888C323.382 179.799 324.35 180.262 324.402 180.19C325.026 179.243 325.009 178.079 325.682 177.148C325.735 177.071 326.641 177.544 326.759 177.433C327.007 177.205 327.086 176.831 326.887 176.436C326.791 176.244 325.906 176.128 325.827 175.941C325.64 175.504 325.701 175.132 325.976 174.855C326.095 174.738 326.989 175.31 327.068 175.13C327.627 173.912 328.248 172.742 327.455 171.01C327.401 170.891 325.451 170.087 325.899 170.041C326.453 170.23 327.098 170.468 327.687 170.678C328.675 168.969 328.656 166.909 329.224 165.039C329.248 164.96 330.247 165.48 330.299 165.329C330.602 164.459 331.202 163.725 330.487 162.457C330.417 162.332 328.557 161.698 328.931 161.542C328.999 161.515 329.389 161.216 329.826 161.262C329.891 161.271 330.725 161.659 330.797 161.543C331.196 160.861 331.281 160.024 331.024 159.102C330.981 158.953 330.019 158.74 329.98 158.631C329.712 157.858 330.647 157.468 330.024 156.594C329.604 156.008 327.968 155.565 326.484 154.789C326.274 154.679 326.326 154.431 325.424 154.085C323.154 153.213 320.615 152.407 318.201 151.465C317.681 151.262 318.361 151.155 317.027 150.875C316.938 150.857 316.433 150.931 315.983 150.829C315.672 150.759 314.776 150.348 314.366 150.288C313.957 150.228 314.698 150.601 314.203 150.569C313.703 150.535 312.675 150.09 312.453 150.309ZM295.178 226.402C294.474 225.741 297.474 227.424 296.64 227.223C296.597 227.212 295.212 226.435 295.178 226.402ZM281.205 249.558C280.053 248.527 282.076 249.489 282.975 250.27C283.872 251.051 281.554 249.871 281.205 249.558ZM278.686 251.597C277.838 250.69 282.035 253.175 281.003 252.974C280.944 252.963 278.735 251.65 278.686 251.597ZM325.695 155.562C325.653 155.543 325.674 155.358 325.718 155.37C326.776 155.658 326.734 156.026 325.695 155.562ZM276.056 253.548C275.555 253.106 276.364 253.25 276.986 253.802C277.485 254.248 276.677 254.1 276.056 253.548ZM297.818 214.514C297.775 214.485 297.8 214.351 298.049 214.5C298.849 214.98 298.532 215 297.818 214.514ZM272.913 257.863C273.421 257.03 270.395 254.308 270.356 255.088C270.342 255.233 271.507 255.714 271.687 256.066C271.981 256.747 269.978 255.182 270.881 256.181C270.954 256.28 271.36 256.806 271.86 257.201C272.352 257.604 272.902 257.893 272.918 257.866C272.916 257.865 272.915 257.864 272.913 257.863ZM291.658 224.235C291.62 224.209 291.672 224.032 291.713 224.051C292.709 224.51 292.605 224.866 291.658 224.235ZM299.859 206.943C299.779 206.887 299.922 206.48 300.006 206.513C301.643 207.258 301.363 208.078 299.859 206.943ZM283.491 233.445C282.44 233.07 282.212 233.209 283.331 234.03C283.364 233.825 283.452 233.649 283.491 233.445Z" fill="white"/>
<path d="M1703.78 326.919C1703.81 326.126 1703.47 325.289 1703.09 324.576C1702.97 324.365 1702.66 324.542 1702.56 324.403C1702.37 324.132 1702.49 323.823 1702.28 323.551C1702.21 323.462 1701.69 323.683 1701.63 323.587C1701.29 323.052 1701.33 322.483 1701.11 321.937C1700.03 319.193 1699.33 316.427 1698.59 313.58C1698.35 312.665 1697.65 311.569 1697.7 310.56C1697.71 310.441 1698.19 310.428 1698.23 310.4C1698.76 309.959 1697.83 310.235 1697.66 310.034C1697.01 309.235 1696.8 308.243 1696.84 307.368C1696.86 306.992 1697.86 307.198 1697.27 306.921C1697.23 306.902 1696.74 307.078 1696.67 306.987C1696.52 306.782 1696.53 306.336 1696.46 306.166C1696.33 305.839 1696.32 305.781 1696.27 305.466C1696.18 305.034 1695.85 304.558 1695.88 304.07C1695.89 303.965 1696.43 304.013 1696.49 303.839C1696.55 303.665 1696.44 303.248 1696.29 303.124C1696.15 303.001 1695.75 303.128 1695.66 303.118C1694.84 303.037 1695.84 302.376 1695.86 302.309C1696.13 301.095 1695.35 300.2 1695.19 299.131C1695.06 298.316 1695.12 297.402 1694.97 296.634C1694.79 295.716 1694.39 294.97 1694.3 294.064C1694.29 293.968 1694.92 293.986 1694.91 293.87C1694.79 292.629 1694.54 291.414 1693.95 290.248C1693.89 290.131 1693.38 290.368 1693.29 290.256C1692.74 289.568 1691.51 288.524 1693.77 287.742C1693.6 287.245 1693.42 286.639 1692.89 286.25C1692.55 285.998 1692.01 286.365 1692.2 285.969C1692.25 285.88 1692.77 285.915 1692.8 285.786C1692.91 285.243 1692.67 284.702 1692.86 284.157C1692.9 284.045 1693.36 284.011 1693.44 283.971C1694.07 283.633 1692.92 283.374 1692.82 283.296C1692.14 282.699 1692.3 282.16 1692.2 281.528C1692.18 281.381 1692.82 281.474 1692.82 281.33C1692.81 280.583 1692.66 279.834 1692.29 279.142C1692.21 278.99 1691.71 279.204 1691.64 279.134C1691.35 278.826 1692.33 278.626 1692.08 278.33C1692.03 278.267 1691.58 278.362 1691.53 278.355C1690.74 278.257 1691.81 277.951 1691.83 277.899C1692.08 277.23 1690.89 276.957 1690.97 276.321C1690.99 276.245 1691.57 276.343 1691.57 276.134C1691.56 274.749 1691.24 273.298 1690.64 272.001C1690.55 271.8 1690.14 271.995 1690.08 271.987C1689.24 271.859 1690.32 271.596 1690.36 271.523C1690.6 270.941 1689.62 270.526 1690.9 270.025C1690.21 267.759 1690.74 265.418 1689.4 263.212C1689.38 263.184 1688.84 263.275 1688.82 263.218C1688.46 262.538 1689.32 262.614 1690.32 262.093C1690.57 261.966 1689.3 261.69 1689.21 261.661C1688.86 261.565 1688.06 261.735 1687.99 261.7C1687.46 261.406 1690.14 261.298 1690.12 260.872C1690.11 260.859 1689.62 260.943 1689.57 260.91C1689.41 260.807 1689.6 260.686 1689.43 260.586C1689.02 260.361 1687.71 260.337 1688.45 259.923C1688.55 259.869 1690.07 259.873 1689.98 259.497C1689.94 259.342 1689.94 258.665 1689.84 258.484C1689.73 258.301 1689.25 258.447 1689.22 258.435C1688.56 257.955 1688.3 258.155 1687.33 257.933C1686.37 257.71 1688.65 257.711 1688.9 257.603C1689.15 257.499 1688.61 257.125 1688.42 257.038C1688.23 256.949 1687.92 257.072 1687.81 256.991C1687.12 256.455 1688.94 256.728 1689.3 256.543C1690.15 256.113 1688.45 255.829 1688.29 255.444C1688.24 255.336 1688.63 255.422 1688.66 255.327C1688.8 254.953 1688.27 254.727 1688.76 254.321C1688.84 254.252 1689.86 253.945 1689.12 253.726C1689.01 253.692 1688.59 253.775 1688.5 253.613C1688.36 253.367 1688.28 252.936 1688.43 252.696C1688.55 252.518 1689.23 252.754 1689.02 252.519C1688.93 252.415 1688.52 252.583 1688.38 252.387C1688.24 252.198 1688.29 251.703 1688.32 251.509C1688.34 251.32 1688.86 251.461 1688.9 251.448C1689.11 251.369 1689.39 251.043 1689.39 251.015C1689.41 250.849 1689.42 250.687 1689.42 250.529C1689.46 249.028 1688.88 247.651 1689.17 246.226C1689.2 246.101 1689.75 246.197 1689.76 246.178C1690 245.751 1688.52 246.061 1688.03 245.76C1689.15 245.82 1688.95 245.642 1689.08 245.332C1689.14 245.183 1689.58 245.266 1689.62 245.252C1690.28 245.03 1689.43 244.874 1689.25 244.837C1688.61 244.695 1689.37 244.532 1688.94 244.439C1688.51 244.347 1687.88 244.576 1687.88 244.291C1688.28 244.204 1689.34 244.404 1689.51 244.178C1690.15 243.339 1689.23 241.742 1689.09 241.103C1688.94 240.427 1688.99 240.204 1688.8 239.83C1688.46 239.161 1689.27 239.336 1689.56 238.833C1689.85 238.329 1687.98 238.821 1687.56 238.815C1687.14 238.813 1687.55 238.686 1687.32 238.644C1687.08 238.603 1686.83 238.804 1686.72 238.644C1686.61 238.486 1687.26 237.9 1687.67 237.764C1688.55 237.479 1689.54 237.536 1689.12 237.117C1689.1 237.093 1688.62 237.27 1688.55 237.176C1688.01 236.394 1687.81 235.578 1687.27 234.835C1687.2 234.735 1686.68 234.971 1686.63 234.916C1686.11 234.346 1687.09 234.348 1688 233.698C1686.67 234.149 1685.8 234.186 1685.65 233.698C1685.55 233.405 1686.15 233.28 1686.51 232.958C1686.61 232.861 1686.15 232.776 1686.41 232.651C1687.26 232.237 1688.34 232.117 1687.76 231.717C1687.74 231.7 1687.27 231.936 1687.21 231.867C1686.85 231.426 1687.76 231.031 1687.66 230.424C1687.59 229.949 1686.72 229.391 1686.42 228.948C1684.97 229.575 1685.12 229.003 1686.03 228.373C1685.85 228.082 1685.74 227.716 1685.46 227.487C1685.37 227.407 1684.99 227.674 1684.94 227.683C1684.15 227.832 1685.04 227.236 1685.04 227.15C1685.04 226.254 1684.03 226.076 1684.33 225.033C1684.34 224.996 1685.27 224.404 1684.47 224.63C1684.42 224.648 1684.11 225.116 1683.9 224.829C1683.68 224.536 1682.84 224.293 1683 223.603C1683.04 223.439 1683.61 222.689 1682.9 222.875C1682.8 222.901 1682.56 223.105 1682.39 223.165C1681.84 223.356 1682.71 222.664 1681.84 223.054C1680.96 223.442 1680.19 223.569 1680.44 222.807C1680.45 222.784 1681.09 222.174 1680.99 222.059C1680.82 221.879 1680.47 221.709 1680.32 221.507C1680.24 221.409 1680.72 221.136 1680.72 221.113C1680.45 220.274 1679.69 220.112 1678.96 219.592C1678.83 219.498 1679.08 218.652 1678.43 218.812C1677.72 218.991 1675.98 221.04 1675.94 220.062C1675.93 219.676 1678.11 217.041 1676.45 217.856C1675.99 216.761 1674.64 216.709 1674.26 215.51C1674.25 215.456 1674.77 214.653 1674.68 214.583C1674.54 214.48 1674.17 214.743 1674.06 214.682C1673.58 214.433 1673.48 213.83 1673.07 213.546C1672.91 213.436 1672.66 213.824 1672.47 213.693C1672.28 213.563 1672.56 213.008 1672.14 213.028C1671.82 213.046 1670.84 213.828 1670.52 213.738C1671.3 212.808 1671.12 212.689 1671.05 212.203C1671.03 212.11 1671.36 211.837 1671.37 211.776C1671.41 211.521 1671.08 211.705 1671.13 211.437C1671.15 211.373 1671.41 211.055 1671.44 210.985C1671.66 210.372 1670.78 210.848 1670.62 210.931C1670.04 211.248 1670.31 210.764 1670.01 210.828C1669.71 210.893 1669.72 211.305 1669.46 211.277C1668.92 211.219 1668.53 210.8 1668.16 210.514C1668.02 210.4 1668.48 210.059 1668.46 210.033C1668.27 209.685 1667.6 209.882 1668.16 208.91C1666.1 210.894 1668.17 208.553 1667.4 208.635C1667.34 208.641 1666.4 209.616 1666.4 209.875C1666.39 210.131 1666.85 209.976 1666.82 210.359C1666.81 210.449 1666.23 211.61 1666.21 211.697C1666.07 212.371 1667.42 210.867 1667.5 210.794C1668.43 210.013 1667.83 211.293 1667.85 211.43C1667.92 212.055 1668.39 212.08 1668.48 212.561C1668.54 212.874 1667.71 213.898 1667.88 213.99C1668.45 214.296 1669.82 213.045 1669.23 214.644C1669.11 214.986 1668.08 216.001 1669.16 215.435C1669.23 215.398 1670.17 214.836 1669.88 215.458C1669.85 215.537 1669.57 215.855 1669.57 215.902C1669.58 216.215 1669.91 216.055 1669.98 216.331C1670.05 216.606 1670.11 216.971 1670.4 217.037C1670.57 217.078 1671.25 216.629 1671.43 216.538C1671.96 216.271 1671.53 217.103 1672.08 216.696C1672.63 216.289 1673.12 215.352 1673.68 215.274C1672.95 216.091 1672.22 216.94 1671.49 217.765C1672.09 218.253 1672.87 218.508 1673.39 219.081C1673.45 219.151 1672.97 219.504 1673.02 219.59C1673.26 219.949 1673.81 219.916 1674 220.347C1674.14 220.68 1673.94 221.373 1674.06 221.732C1675.12 221.037 1675.16 221.707 1675.5 221.911C1675.61 221.984 1675.86 221.757 1676 221.756C1676.54 221.762 1675.6 222.36 1675.53 222.547C1675.23 223.336 1677.16 221.741 1677.43 222.172C1677.45 222.196 1676.62 223.289 1676.58 223.373C1676.33 223.925 1676.97 223.117 1677.16 223.19C1677.49 223.323 1677.89 223.305 1677.8 223.84C1677.78 223.999 1677.27 224.7 1677.9 224.483C1677.99 224.455 1678.33 224.182 1678.37 224.184C1678.96 224.259 1677.84 225.08 1677.59 225.532C1677.33 225.982 1678.31 225.719 1678.58 225.624C1679.27 225.378 1678.75 225.334 1678.8 225.287C1679.42 224.716 1679.45 225.011 1679.62 225.139C1680.76 224.404 1680.86 224.693 1679.79 225.274C1679.67 225.338 1679.69 225.138 1679.62 225.139C1678.61 226.031 1678.62 226.355 1679.86 225.97C1680.43 225.791 1680.93 225.301 1680.98 225.85C1681 226.1 1680.16 226.516 1680.04 226.811C1679.77 227.479 1680.8 227.529 1680.9 227.994C1680.93 228.161 1680.41 228.267 1680.42 228.388C1680.43 228.708 1680.89 228.762 1680.85 229.112C1680.85 229.144 1680.34 229.33 1680.37 229.412C1680.62 230.036 1681.18 230.435 1681.47 231.082C1681.61 231.397 1681.57 232.082 1681.75 232.386C1682.06 232.917 1683.05 233.4 1683.02 233.973C1683.01 234.345 1682.48 234.426 1682.17 234.671C1681.57 235.142 1682.92 235.264 1683.13 235.288C1683.13 235.288 1683.18 234.967 1683.48 235.049C1684.06 234.989 1683.13 235.285 1683.13 235.288C1683.26 235.296 1683.53 235.852 1683.46 235.995C1683.42 236.072 1682.92 236.156 1682.91 236.193C1682.65 237.065 1682.68 237.854 1683.04 238.596C1683.05 238.608 1683.61 238.494 1683.63 238.524C1683.96 238.947 1683.32 239.357 1682.96 239.793C1682.6 240.227 1682.77 240.49 1683.77 240.616C1683.68 240.919 1684.14 241.301 1684.43 241.533C1684.71 241.761 1683.61 241.875 1683.59 241.898C1682.94 242.599 1683.59 242.937 1683.71 243.642C1683.77 243.963 1683.62 244.619 1683.5 244.98C1683.4 245.263 1683.66 245.445 1683.49 245.701C1683.47 245.735 1682.98 245.693 1682.96 245.703C1682.37 245.975 1683.57 245.862 1683.78 245.925C1684.56 246.157 1684.97 246.31 1684.59 246.68C1684.51 246.768 1682.77 246.954 1682.66 247.103C1682.52 247.3 1683.14 247.253 1682.98 247.462C1682.97 247.48 1682.59 247.456 1682.6 247.589C1682.64 248.189 1682.81 248.863 1682.71 249.506C1682.7 249.594 1682.11 249.425 1682.08 249.55C1682.06 249.628 1682.05 249.708 1682.03 249.79C1681.93 250.425 1681.93 251.161 1682.14 251.79C1682.2 251.962 1682.63 251.878 1682.76 251.92C1683.51 252.178 1682.39 252.446 1682.36 252.501C1681.78 253.806 1682.78 254.726 1682.31 255.991C1682.29 256.055 1681.1 256.596 1682.13 256.814C1682.2 256.83 1683.25 257.038 1682.54 257.261C1682.49 257.275 1681.95 257.141 1682.01 257.396C1682.07 257.659 1681.73 258.056 1682.33 258.375C1682.52 258.477 1683.57 258.688 1682.75 259.042C1682.69 259.063 1680.84 259.647 1682.14 259.772C1682.36 259.789 1683.72 259.709 1683.04 260.112C1682.91 260.189 1682.6 260.075 1682.41 260.272C1682.13 260.576 1682.52 260.941 1681.93 261.338C1681.83 261.407 1680.91 261.732 1681.63 261.909C1681.74 261.937 1682.2 261.845 1682.26 261.957C1682.53 262.5 1682.26 263.049 1682.62 263.577C1682.74 263.762 1683.47 263.611 1683.69 263.797C1683.9 263.984 1684.12 264.375 1683.8 264.613C1683.48 264.849 1682.28 264.711 1682.21 265.027C1681.91 266.406 1682.72 267.716 1682.95 269.048C1682.98 269.248 1682.54 269.121 1682.56 269.419C1682.64 270.514 1682.44 272.438 1683.43 273.272C1684.23 273.94 1684.67 272.941 1685.02 273.479C1685.19 273.738 1683.86 274.19 1683.83 274.262C1683.47 274.965 1684.12 275.359 1684 275.959C1683.98 276.083 1683.41 276.03 1683.4 276.136C1683.35 276.498 1683.64 276.839 1683.63 277.181C1683.63 277.335 1683.2 277.358 1683.25 277.494C1683.37 277.818 1683.58 278.097 1684.01 278.369C1684.05 278.394 1684.55 278.132 1684.6 278.373C1684.68 278.763 1685.13 279.204 1684.79 279.711C1684.68 279.862 1683.72 279.99 1684.42 280.197C1684.57 280.241 1685.72 280.015 1684.76 280.482C1684.6 280.56 1683.33 281.308 1684.23 281.472C1684.47 281.516 1685.44 281.579 1685.31 281.761C1685.29 281.786 1684.76 281.765 1684.73 281.906C1684.63 282.402 1684.75 282.892 1684.65 283.403C1684.62 283.54 1684.06 283.417 1684.04 283.618C1683.98 284.176 1684.2 284.816 1684.44 285.316C1684.53 285.5 1684.96 285.306 1685.01 285.313C1685.82 285.43 1684.78 285.709 1684.73 285.792C1684.43 286.308 1684.97 286.594 1684.9 287.04C1684.88 287.162 1684.37 287.15 1684.32 287.179C1683.92 287.484 1684.8 287.176 1684.92 287.316C1685.26 287.707 1685.29 288.193 1685.29 288.639C1685.29 288.802 1684.68 288.706 1684.68 288.852C1684.71 289.72 1684.89 290.597 1685.33 291.379C1685.42 291.526 1685.85 291.362 1685.96 291.379C1686.71 291.497 1685.78 291.97 1685.7 292.06C1685.33 292.468 1685.74 292.542 1685.71 292.857C1685.57 294.397 1686.11 296.188 1686.49 297.56C1686.98 299.347 1687.63 300.686 1687.8 302.443C1687.82 302.555 1687.2 302.54 1687.2 302.637C1687.26 303.885 1687.69 305.058 1687.72 306.312C1687.72 306.414 1687.13 306.363 1687.12 306.531C1687.09 306.877 1687.19 307.284 1687.43 307.596C1687.54 307.746 1687.99 307.444 1688.1 307.597C1688.34 307.952 1688.45 308.357 1688.43 308.765C1688.41 308.939 1687.79 308.784 1687.82 309.002C1688.01 310.483 1688.16 311.963 1689.17 313.336C1689.24 313.43 1690.43 313.318 1690.24 313.575C1689.92 313.648 1689.54 313.713 1689.19 313.781C1689.37 315.946 1690.16 318.047 1690.6 320.166C1690.62 320.258 1689.97 320.208 1690 320.388C1690.2 321.432 1690.19 322.408 1691 323.367C1691.08 323.46 1692.17 323.211 1692.05 323.543C1692.03 323.603 1691.97 324.081 1691.75 324.239C1691.72 324.261 1691.2 324.272 1691.21 324.419C1691.29 325.316 1691.56 326.16 1692.03 326.979C1692.11 327.11 1692.63 326.861 1692.69 326.954C1693.1 327.616 1692.82 328.41 1693.44 329.015C1693.86 329.401 1694.76 329.063 1695.73 329.128C1695.87 329.138 1695.94 329.402 1696.48 329.317C1697.84 329.104 1699.29 328.704 1700.74 328.493C1701.05 328.448 1700.78 328.863 1701.5 328.516C1701.54 328.492 1701.74 328.188 1701.99 328.077C1702.15 328 1702.72 327.98 1702.92 327.848C1703.13 327.715 1702.66 327.698 1702.89 327.494C1703.13 327.29 1703.77 327.246 1703.78 326.919ZM1685.67 242.572C1686.21 242.782 1684.27 242.914 1684.72 242.64C1684.75 242.627 1685.64 242.562 1685.67 242.572ZM1673.88 217.45C1674.7 217.05 1673.98 218.109 1673.36 218.431C1672.75 218.757 1673.63 217.572 1673.88 217.45ZM1671.86 214.76C1672.59 214.501 1670.81 216.603 1670.88 215.925C1670.88 215.886 1671.82 214.775 1671.86 214.76ZM1695.79 327.971C1695.82 327.97 1695.88 328.171 1695.86 328.18C1695.27 328.4 1695.14 328 1695.79 327.971ZM1669.78 212.071C1670.11 211.862 1670.09 212.412 1669.68 212.671C1669.35 212.879 1669.36 212.33 1669.78 212.071ZM1687.34 255.437C1687.37 255.442 1687.39 255.59 1687.23 255.586C1686.7 255.584 1686.85 255.371 1687.34 255.437ZM1665.47 208.283C1666.18 208.804 1668.06 207.425 1667.23 207.021C1667.08 206.944 1667 207.796 1666.71 207.807C1666.17 207.816 1666.96 206.602 1666.16 206.897C1666.01 206.948 1665.42 208.254 1665.47 208.286C1665.47 208.285 1665.47 208.284 1665.47 208.283ZM1688.01 242.586C1688.03 242.59 1688.07 242.79 1688.04 242.796C1687.43 242.933 1687.36 242.536 1688.01 242.586ZM1688.91 263.785C1688.96 263.792 1689.05 264.257 1689 264.276C1688.01 264.599 1687.83 263.654 1688.91 263.785ZM1686.38 228.957C1686.86 228.504 1686.81 228.216 1686.03 228.374C1686.16 228.56 1686.25 228.764 1686.38 228.957Z" fill="white"/>
<path d="M1841.67 2.74005C1093.14 256.855 355.554 108.621 80.3282 2.74005C32.4843 51.2416 -70.7006 147.751 -100.689 145.778C-138.175 143.312 -189.205 176.586 -202.789 190.17C-222.025 209.406 -206.777 259.92 -215.613 265.142C-226.465 271.553 -260.436 290.79 -267.896 301.641C-273.322 309.533 -287.627 372.533 -267.897 384.011C396.985 713 1921.08 578.346 2182.01 384.011C2201.74 362.802 2193.84 325.809 2188.42 306.573C2184.08 291.184 2141.89 267.936 2121.34 258.236C2123.64 249.687 2126.86 225.584 2121.34 197.568C2091.34 157.738 2004.48 134.576 1959.97 122.705L1959.56 122.596C1915.16 110.759 1940.81 -20.4421 1841.67 2.74005Z" fill="white" fill-opacity="0.2"/>
<defs>
<linearGradient id="paint0_linear_129_1772" x1="977.653" y1="6.17685" x2="979.653" y2="359.177" gradientUnits="userSpaceOnUse">
<stop stop-color="#FF67D5"/>
<stop offset="1" stop-color="#2C0060"/>
</linearGradient>
</defs>
</svg>
