<svg width="1913" height="1075" viewBox="0 0 1913 1075" fill="none" xmlns="http://www.w3.org/2000/svg">
<mask id="mask0_129_1121" style="mask-type:alpha" maskUnits="userSpaceOnUse" x="-7" y="-5" width="1920" height="1080">
<rect x="-7" y="-5" width="1920" height="1080" fill="url(#paint0_linear_129_1121)"/>
</mask>
<g mask="url(#mask0_129_1121)">
<g opacity="0.2">
<path d="M1173.95 584.061L109.685 1628.1L116.933 1635.49L1181.19 591.452L1173.95 584.061Z" fill="url(#paint1_linear_129_1121)" fill-opacity="0.4"/>
<path d="M962.388 -375.117L940.437 1985.73L950.788 1985.82L972.74 -375.02L962.388 -375.117Z" fill="url(#paint2_linear_129_1121)" fill-opacity="0.4"/>
<path d="M1795.88 -26.433L1175.06 582.588L1182.31 589.979L1803.13 -19.0415L1795.88 -26.433Z" fill="url(#paint3_linear_129_1121)" fill-opacity="0.4"/>
<path d="M-224.529 788.115L-224.626 798.468L2135.77 820.66L2135.87 810.307L-224.529 788.115Z" fill="url(#paint4_linear_129_1121)" fill-opacity="0.4"/>
<path d="M132.862 -42.2649L125.474 -35.0132L1778.7 1649.93L1786.09 1642.68L132.862 -42.2649Z" fill="url(#paint5_linear_129_1121)" fill-opacity="0.4"/>
<path d="M956.817 1989.26C952.979 1989.26 949.182 1989.24 945.338 1989.21C628.959 1986.22 332.68 1860.19 111.078 1634.32C-110.521 1408.45 -230.919 1109.8 -227.937 793.363C-224.952 476.923 -98.9417 180.588 126.882 -41.0566C352.7 -262.692 651.433 -382.945 967.684 -380.125C1284.07 -377.142 1580.35 -251.111 1801.94 -25.2496C2023.54 200.608 2143.93 499.264 2140.95 815.713C2137.96 1132.15 2011.95 1428.48 1786.13 1650.12C1563.04 1869.08 1268.9 1989.26 956.817 1989.26ZM956.198 -369.821C646.802 -369.821 355.273 -250.711 134.133 -33.6638C-89.7141 186.041 -214.622 479.787 -217.582 793.459C-220.539 1107.13 -101.193 1403.18 118.47 1627.07C338.133 1850.96 631.822 1975.9 945.434 1978.86C1259.17 1981.63 1555.02 1862.44 1778.88 1642.73C2002.72 1423.02 2127.63 1129.28 2130.59 815.616C2133.55 501.934 2014.21 205.884 1794.55 -18.0005C1574.89 -241.884 1281.21 -366.813 967.587 -369.771C963.796 -369.805 959.983 -369.821 956.198 -369.821Z" fill="url(#paint6_linear_129_1121)" fill-opacity="0.4"/>
<path d="M956.832 1792.44C953.76 1792.44 950.709 1792.43 947.63 1792.4C683.653 1790.01 436.407 1684.95 251.437 1496.56C66.4676 1308.17 -34.0831 1059.02 -31.6942 794.99C-29.3022 530.962 75.742 283.669 264.091 98.6638C452.445 -86.3414 701.39 -186.918 965.526 -184.522C1229.5 -182.13 1476.75 -77.0652 1661.72 111.319C1846.69 299.71 1947.24 548.865 1944.85 812.889C1942.46 1076.92 1837.41 1324.21 1649.06 1509.21C1462.91 1692.07 1217.38 1792.44 956.832 1792.44ZM956.336 -174.206C698.498 -174.206 455.562 -74.8883 271.345 106.054C84.9696 289.122 -18.9755 533.826 -21.3425 795.09C-23.7064 1056.35 75.792 1302.89 258.823 1489.31C441.856 1675.72 686.513 1779.69 947.723 1782.05C1208.85 1784.3 1455.43 1684.9 1641.81 1501.83C1828.19 1318.77 1932.13 1074.07 1934.5 812.799C1936.87 551.542 1837.37 304.995 1654.33 118.578C1471.3 -67.8327 1226.64 -171.798 965.432 -174.165C962.403 -174.193 959.362 -174.206 956.336 -174.206Z" fill="url(#paint7_linear_129_1121)" fill-opacity="0.4"/>
<path d="M956.826 1595.62C954.519 1595.62 952.233 1595.61 949.925 1595.59C738.347 1593.79 540.134 1509.7 391.796 1358.79C243.456 1207.89 162.75 1008.24 164.548 796.624C166.344 585.005 250.423 386.754 401.299 238.385C552.178 90.0158 751.687 9.25061 963.362 11.0934C1174.94 12.8892 1373.15 96.9839 1521.49 247.889C1669.83 398.797 1750.54 598.448 1748.74 810.063C1746.95 1021.68 1662.87 1219.93 1511.99 1368.3C1362.76 1515.05 1165.83 1595.51 956.826 1595.62ZM956.452 21.419C750.169 21.419 555.844 100.932 408.559 245.768C259.653 392.198 176.671 587.86 174.903 796.711C173.13 1005.57 252.78 1202.6 399.182 1351.54C545.58 1500.47 741.204 1583.47 950.016 1585.24C952.286 1585.26 954.565 1585.27 956.829 1585.27C1163.12 1585.27 1357.45 1505.75 1504.74 1360.92C1653.64 1214.49 1736.63 1018.83 1738.39 809.979C1740.17 601.127 1660.52 404.085 1514.11 255.151C1367.71 106.216 1172.09 23.218 963.278 21.4502C961.004 21.4314 958.719 21.419 956.452 21.419Z" fill="url(#paint8_linear_129_1121)" fill-opacity="0.4"/>
<path d="M956.833 1398.8C955.291 1398.8 953.767 1398.8 952.224 1398.79C793.045 1397.59 643.864 1334.45 532.156 1221.03C420.448 1107.61 359.59 957.463 360.789 798.257C361.988 639.047 425.101 489.835 538.505 378.108C651.905 266.378 802.191 205.393 961.199 206.708C1120.38 207.907 1269.56 271.035 1381.27 384.461C1492.97 497.886 1553.83 648.029 1552.63 807.233C1551.44 966.443 1488.32 1115.65 1374.92 1227.38C1262.61 1338.03 1114.29 1398.8 956.833 1398.8ZM956.587 217.046C801.857 217.046 656.124 276.76 545.765 385.488C434.331 495.272 372.315 641.892 371.137 798.335C369.957 954.777 429.76 1102.31 539.526 1213.77C649.292 1325.23 795.883 1387.25 952.296 1388.43C953.804 1388.45 955.322 1388.45 956.83 1388.45C1111.56 1388.46 1257.29 1328.74 1367.65 1220.01C1479.09 1110.22 1541.1 963.604 1542.28 807.161C1543.46 650.718 1483.66 503.183 1373.89 391.729C1264.13 280.274 1117.53 218.245 961.121 217.065C959.613 217.052 958.095 217.046 956.587 217.046Z" fill="url(#paint9_linear_129_1121)" fill-opacity="0.4"/>
<path d="M956.849 1201.98C956.068 1201.98 955.303 1201.98 954.519 1201.98C847.742 1201.37 747.591 1159.22 672.518 1083.28C597.442 1007.34 556.425 906.698 557.028 799.9C557.631 693.102 599.778 592.931 675.706 517.841C751.634 442.745 852.263 401.508 959.031 402.329C1065.81 402.932 1165.96 445.087 1241.03 521.03C1316.11 596.97 1357.13 697.612 1356.52 804.41C1355.92 911.205 1313.77 1011.37 1237.84 1086.47C1162.47 1161.01 1062.75 1201.98 956.849 1201.98ZM956.717 412.674C853.544 412.674 756.415 452.583 682.985 525.203C609.024 598.35 567.967 695.928 567.38 799.962C566.793 903.993 606.744 1002.03 679.878 1076C753.008 1149.98 850.568 1191.04 954.582 1191.63C1058.37 1192.23 1156.61 1152.26 1230.57 1079.11C1304.53 1005.96 1345.59 908.384 1346.17 804.35C1346.76 700.32 1306.81 602.283 1233.68 528.311C1160.54 454.335 1062.99 413.27 958.972 412.683C958.223 412.674 957.464 412.674 956.717 412.674Z" fill="url(#paint10_linear_129_1121)" fill-opacity="0.4"/>
<path d="M956.841 1005.17C844.586 1005.17 753.263 913.828 753.263 801.555C753.263 689.282 844.586 597.941 956.841 597.941C1069.09 597.941 1160.42 689.282 1160.42 801.555C1160.42 913.828 1069.09 1005.17 956.841 1005.17ZM956.841 608.298C850.297 608.298 763.617 694.992 763.617 801.555C763.617 908.119 850.297 994.815 956.841 994.815C1063.38 994.815 1150.06 908.122 1150.06 801.555C1150.06 694.988 1063.38 608.298 956.841 608.298Z" fill="url(#paint11_linear_129_1121)" fill-opacity="0.4"/>
</g>
</g>
<defs>
<linearGradient id="paint0_linear_129_1121" x1="953" y1="-5" x2="953" y2="1075" gradientUnits="userSpaceOnUse">
<stop stop-color="#3C2A56"/>
<stop offset="1" stop-color="#F4A27E"/>
</linearGradient>
<linearGradient id="paint1_linear_129_1121" x1="641.815" y1="1106.08" x2="644.366" y2="1108.68" gradientUnits="userSpaceOnUse">
<stop stop-color="#3C2A56"/>
<stop offset="1" stop-color="#F4A27E"/>
</linearGradient>
<linearGradient id="paint2_linear_129_1121" x1="957.004" y1="29.5019" x2="699.202" y2="659.508" gradientUnits="userSpaceOnUse">
<stop stop-color="#3C2A56"/>
<stop offset="1" stop-color="#F4A27E"/>
</linearGradient>
<linearGradient id="paint3_linear_129_1121" x1="1745" y1="11.4995" x2="1138.14" y2="465.654" gradientUnits="userSpaceOnUse">
<stop stop-color="#3C2A56"/>
<stop offset="1" stop-color="#F4A27E"/>
</linearGradient>
<linearGradient id="paint4_linear_129_1121" x1="-224.577" y1="793.291" x2="489.68" y2="509.03" gradientUnits="userSpaceOnUse">
<stop stop-color="#3C2A56"/>
<stop offset="1" stop-color="#F4A27E"/>
</linearGradient>
<linearGradient id="paint5_linear_129_1121" x1="212.5" y1="46.0001" x2="1115.05" y2="434.701" gradientUnits="userSpaceOnUse">
<stop stop-color="#3C2A56"/>
<stop offset="1" stop-color="#F4A27E"/>
</linearGradient>
<linearGradient id="paint6_linear_129_1121" x1="956.504" y1="-380.173" x2="953.5" y2="356.5" gradientUnits="userSpaceOnUse">
<stop stop-color="#3C2A56"/>
<stop offset="1" stop-color="#F4A27E"/>
</linearGradient>
<linearGradient id="paint7_linear_129_1121" x1="956.576" y1="-184.564" x2="954.069" y2="430.1" gradientUnits="userSpaceOnUse">
<stop stop-color="#3C2A56"/>
<stop offset="1" stop-color="#F4A27E"/>
</linearGradient>
<linearGradient id="paint8_linear_129_1121" x1="956.645" y1="11.0625" x2="954.636" y2="503.712" gradientUnits="userSpaceOnUse">
<stop stop-color="#3C2A56"/>
<stop offset="1" stop-color="#F4A27E"/>
</linearGradient>
<linearGradient id="paint9_linear_129_1121" x1="957" y1="141" x2="957" y2="403.5" gradientUnits="userSpaceOnUse">
<stop stop-color="#3C2A56"/>
<stop offset="1" stop-color="#F4A27E"/>
</linearGradient>
<linearGradient id="paint10_linear_129_1121" x1="957" y1="246" x2="955.761" y2="650.939" gradientUnits="userSpaceOnUse">
<stop stop-color="#3C2A56"/>
<stop offset="1" stop-color="#F4A27E"/>
</linearGradient>
<linearGradient id="paint11_linear_129_1121" x1="957" y1="429" x2="956.323" y2="724.551" gradientUnits="userSpaceOnUse">
<stop stop-color="#3C2A56"/>
<stop offset="1" stop-color="#F4A27E"/>
</linearGradient>
</defs>
</svg>
