<svg width="425" height="415" viewBox="0 0 425 415" fill="none" xmlns="http://www.w3.org/2000/svg">
<g filter="url(#filter0_d_129_1646)">
<path d="M60.6118 53.8455L65.9641 48.3523M195.322 149.079L202.171 155.677L196.375 161.321M195.322 149.079L177.512 166.636L184.819 172.573L190.597 166.947M195.322 149.079L189.385 143.361M189.385 143.361L170.663 160.243L164.726 153.85L183.306 137.506M189.385 143.361L183.306 137.506M183.306 137.506L177.512 131.925M177.512 131.925L159.247 149.079L152.854 141.978L170.663 125.327M177.512 131.925L170.663 125.327M170.663 125.327L163.357 118.289M163.357 118.289L146.461 134.671L140.068 129.648L157.608 112.752M163.357 118.289L157.608 112.752M157.608 112.752L150.571 105.973M150.571 105.973L133.675 122.799L127.282 117.319L144.808 100.423M150.571 105.973L144.808 100.423M144.808 100.423L139.594 95.4M139.594 95.4L121.802 111.839L116.779 105.973L133.675 89.6987M139.594 95.4L133.675 89.6987M133.675 89.6987L128.216 84.4406M128.216 84.4406L111.299 101.336L105.363 95.4L122.527 78.9608M128.216 84.4406L122.527 78.9608M122.527 78.9608L115.416 72.1112M115.416 72.1112L98.0566 88.5503L92.5768 82.614L109.473 66.3864M115.416 72.1112L109.473 66.3864M109.473 66.3864L102.166 59.3487M102.166 59.3487L85.7272 77.1343L79.7908 70.7413L96.4531 53.8455M102.166 59.3487L96.4531 53.8455M96.4531 53.8455L90.7503 48.3523M90.7503 48.3523L73.8545 65.2615L67.9181 59.3487L84.3573 42.1943M90.7503 48.3523L84.3573 42.1943M84.3573 42.1943L77.9643 36.0364L73.07 41.0595M73.07 41.0595L196.375 161.321M73.07 41.0595L65.9641 48.3523M196.375 161.321L190.597 166.947M190.597 166.947L65.9641 48.3523" stroke="white" stroke-width="1.51616"/>
<path d="M58.7855 50.1924L193.039 180.336L188.929 186.272L182.992 180.336L180.253 183.989L50.5659 60.6952L58.7855 50.1924Z" fill="white"/>
</g>
<g filter="url(#filter1_d_129_1646)">
<path d="M370.623 52.7762L376.048 58.1974M273.696 186.273L267.012 193.039L261.442 187.172M273.696 186.273L256.365 168.244L250.337 175.475L255.89 181.323M273.696 186.273L279.489 180.409M279.489 180.409L262.844 161.475L269.311 155.62L285.42 174.405M279.489 180.409L285.42 174.405M285.42 174.405L291.074 168.682M291.074 168.682L274.151 150.201L281.333 143.898L297.758 161.916M291.074 168.682L297.758 161.916M297.758 161.916L304.887 154.699M304.887 154.699L288.719 137.598L293.823 131.269L310.496 149.021M304.887 154.699L310.496 149.021M310.496 149.021L317.363 142.07M317.363 142.07L300.753 124.963L306.313 118.64L322.986 136.378M317.363 142.07L322.986 136.378M322.986 136.378L328.074 131.227M328.074 131.227L311.861 113.229L317.79 108.281L333.85 125.381M328.074 131.227L333.85 125.381M333.85 125.381L339.176 119.989M339.176 119.989L322.496 102.86L328.506 96.9991L344.728 114.369M339.176 119.989L344.728 114.369M344.728 114.369L351.666 107.345M351.666 107.345L335.448 89.7798L341.453 84.3755L357.466 101.475M351.666 107.345L357.466 101.475M357.466 101.475L364.595 94.2579M364.595 94.2579L347.019 77.5956L353.486 71.7404L370.17 88.6146M364.595 94.2579L370.17 88.6146M370.17 88.6146L375.735 82.9816M375.735 82.9816L359.04 65.8737L365.027 60.0124L381.973 76.6668M375.735 82.9816L381.973 76.6668M381.973 76.6668L388.211 70.352L383.25 65.3947M383.25 65.3947L261.442 187.172M383.25 65.3947L376.048 58.1974M261.442 187.172L255.89 181.323M255.89 181.323L376.048 58.1974" stroke="white" stroke-width="1.51616"/>
<path d="M374.299 50.9958L242.471 183.595L236.587 179.411L242.598 173.55L238.979 170.764L363.9 42.6443L374.299 50.9958Z" fill="white"/>
</g>
<g filter="url(#filter2_d_129_1646)">
<path d="M364.745 361.188L359.232 366.521M232.913 262.009L226.262 255.212L232.222 249.742M232.913 262.009L251.234 244.987L244.107 238.837L238.165 244.289M232.913 262.009L238.678 267.901M238.678 267.901L257.891 251.58L263.636 258.146L244.58 273.933M238.678 267.901L244.58 273.933M244.58 273.933L250.207 279.683M250.207 279.683L268.972 263.077L275.152 270.365L256.858 286.481M250.207 279.683L256.858 286.481M256.858 286.481L263.953 293.732M263.953 293.732L281.326 277.857L287.568 283.067L269.534 299.436M263.953 293.732L269.534 299.436M269.534 299.436L276.369 306.421M276.369 306.421L293.755 290.103L299.983 295.769L281.964 312.139M276.369 306.421L281.964 312.139M281.964 312.139L287.028 317.314M287.028 317.314L305.298 301.409L310.145 307.421L292.775 323.188M287.028 317.314L292.775 323.188M292.775 323.188L298.076 328.606M298.076 328.606L315.485 312.218L321.243 318.328L303.6 334.251M298.076 328.606L303.6 334.251M303.6 334.251L310.505 341.309M310.505 341.309L328.344 325.39L333.645 331.486L316.277 347.207M310.505 341.309L316.277 347.207M316.277 347.207L323.371 354.458M323.371 354.458L340.33 337.166L346.074 343.732L328.919 360.128M323.371 354.458L328.919 360.128M328.919 360.128L334.457 365.787M334.457 365.787L351.846 349.385L357.605 355.471L340.665 372.132M334.457 365.787L340.665 372.132M340.665 372.132L346.873 378.476L351.914 373.6M351.914 373.6L232.222 249.742M351.914 373.6L359.232 366.521M232.222 249.742L238.165 244.289M238.165 244.289L359.232 366.521" stroke="white" stroke-width="1.51616"/>
<path d="M366.463 364.894L236.121 230.834L240.404 225.022L246.162 231.131L249.009 227.561L374.99 354.639L366.463 364.894Z" fill="white"/>
</g>
<g filter="url(#filter3_d_129_1646)">
<path d="M53.5004 363.773L48.1139 358.314M151.372 230.968L158.103 224.249L163.632 230.156M151.372 230.968L168.575 249.119L174.654 241.932L169.143 236.044M151.372 230.968L145.538 236.79M145.538 236.79L162.048 255.842L155.539 261.651L139.564 242.752M145.538 236.79L139.564 242.752M139.564 242.752L133.87 248.435M133.87 248.435L150.661 267.035L143.434 273.287L127.138 255.153M133.87 248.435L127.138 255.153M127.138 255.153L119.958 262.319M119.958 262.319L136.003 279.535L130.855 285.828L114.309 267.957M119.958 262.319L114.309 267.957M114.309 267.957L107.392 274.86M107.392 274.86L123.881 292.084L118.276 298.368L101.729 280.511M107.392 274.86L101.729 280.511M101.729 280.511L96.6043 285.626M96.6043 285.626L112.689 303.739L106.726 308.645L90.7874 291.432M96.6043 285.626L90.7874 291.432M90.7874 291.432L85.4227 296.786M85.4227 296.786L101.982 314.032L95.9293 319.85L79.8318 302.365M85.4227 296.786L79.8318 302.365M79.8318 302.365L72.8433 309.34M72.8433 309.34L88.937 327.02L82.8937 332.382L67.0024 315.169M72.8433 309.34L67.0024 315.169M67.0024 315.169L59.822 322.335M59.822 322.335L77.28 339.122L70.7711 344.931L54.2072 327.939M59.822 322.335L54.2072 327.939M54.2072 327.939L48.6027 333.532M48.6027 333.532L65.1754 350.758L59.1467 356.577L42.3198 339.803M48.6027 333.532L42.3198 339.803M42.3198 339.803L36.037 346.073L40.9626 351.065M40.9626 351.065L163.632 230.156M40.9626 351.065L48.1139 358.314M163.632 230.156L169.143 236.044M169.143 236.044L48.1139 358.314" stroke="white" stroke-width="1.51616"/>
<path d="M49.8115 365.528L182.577 233.867L188.431 238.093L182.379 243.911L185.977 246.722L60.1502 373.953L49.8115 365.528Z" fill="white"/>
</g>
<defs>
<filter id="filter0_d_129_1646" x="15.5984" y="-2.28882e-05" width="222.63" height="221.24" filterUnits="userSpaceOnUse" color-interpolation-filters="sRGB">
<feFlood flood-opacity="0" result="BackgroundImageFix"/>
<feColorMatrix in="SourceAlpha" type="matrix" values="0 0 0 0 0 0 0 0 0 0 0 0 0 0 0 0 0 0 127 0" result="hardAlpha"/>
<feOffset/>
<feGaussianBlur stdDeviation="17.4838"/>
<feComposite in2="hardAlpha" operator="out"/>
<feColorMatrix type="matrix" values="0 0 0 0 0.956863 0 0 0 0 0.635294 0 0 0 0 0.494118 0 0 0 1 0"/>
<feBlend mode="normal" in2="BackgroundImageFix" result="effect1_dropShadow_129_1646"/>
<feBlend mode="normal" in="SourceGraphic" in2="effect1_dropShadow_129_1646" result="shape"/>
</filter>
<filter id="filter1_d_129_1646" x="201.619" y="7.67673" width="222.628" height="221.419" filterUnits="userSpaceOnUse" color-interpolation-filters="sRGB">
<feFlood flood-opacity="0" result="BackgroundImageFix"/>
<feColorMatrix in="SourceAlpha" type="matrix" values="0 0 0 0 0 0 0 0 0 0 0 0 0 0 0 0 0 0 127 0" result="hardAlpha"/>
<feOffset/>
<feGaussianBlur stdDeviation="17.4838"/>
<feComposite in2="hardAlpha" operator="out"/>
<feColorMatrix type="matrix" values="0 0 0 0 0.956863 0 0 0 0 0.635294 0 0 0 0 0.494118 0 0 0 1 0"/>
<feBlend mode="normal" in2="BackgroundImageFix" result="effect1_dropShadow_129_1646"/>
<feBlend mode="normal" in="SourceGraphic" in2="effect1_dropShadow_129_1646" result="shape"/>
</filter>
<filter id="filter2_d_129_1646" x="190.205" y="190.054" width="219.752" height="224.458" filterUnits="userSpaceOnUse" color-interpolation-filters="sRGB">
<feFlood flood-opacity="0" result="BackgroundImageFix"/>
<feColorMatrix in="SourceAlpha" type="matrix" values="0 0 0 0 0 0 0 0 0 0 0 0 0 0 0 0 0 0 127 0" result="hardAlpha"/>
<feOffset/>
<feGaussianBlur stdDeviation="17.4838"/>
<feComposite in2="hardAlpha" operator="out"/>
<feColorMatrix type="matrix" values="0 0 0 0 0.956863 0 0 0 0 0.635294 0 0 0 0 0.494118 0 0 0 1 0"/>
<feBlend mode="normal" in2="BackgroundImageFix" result="effect1_dropShadow_129_1646"/>
<feBlend mode="normal" in="SourceGraphic" in2="effect1_dropShadow_129_1646" result="shape"/>
</filter>
<filter id="filter3_d_129_1646" x="0.000221252" y="188.192" width="223.398" height="220.728" filterUnits="userSpaceOnUse" color-interpolation-filters="sRGB">
<feFlood flood-opacity="0" result="BackgroundImageFix"/>
<feColorMatrix in="SourceAlpha" type="matrix" values="0 0 0 0 0 0 0 0 0 0 0 0 0 0 0 0 0 0 127 0" result="hardAlpha"/>
<feOffset/>
<feGaussianBlur stdDeviation="17.4838"/>
<feComposite in2="hardAlpha" operator="out"/>
<feColorMatrix type="matrix" values="0 0 0 0 0.956863 0 0 0 0 0.635294 0 0 0 0 0.494118 0 0 0 1 0"/>
<feBlend mode="normal" in2="BackgroundImageFix" result="effect1_dropShadow_129_1646"/>
<feBlend mode="normal" in="SourceGraphic" in2="effect1_dropShadow_129_1646" result="shape"/>
</filter>
</defs>
</svg>
