<svg width="1816" height="599" viewBox="0 0 1816 599" fill="none" xmlns="http://www.w3.org/2000/svg">
<path d="M1694.69 564.411C1718.21 598.801 1766.35 608.402 1802.22 585.831L1802.32 585.771L1802.43 585.758C1847.89 580.626 1880.36 541.131 1875.02 497.58C1870.48 460.612 1840.14 432.568 1803.28 428.065L1803.22 427.083C1816.58 423.783 1827.75 413.889 1831.58 400.22C1836.46 382.817 1827.85 364.995 1811.88 356.906L1812.26 355.986C1853.98 369.564 1900.41 351.118 1919.5 312.19L1919.94 311.266C1921.65 307.661 1923.04 304.864 1924.12 302.75C1923.05 304.055 1921.76 305.537 1920.27 307.092C1910.92 316.818 1893.34 329.591 1870.92 319.79L1869.65 319.235L1870.98 318.852C1875.47 317.564 1879.66 314.019 1883.51 308.633C1887.37 303.252 1890.86 296.082 1893.99 287.634C1900.25 270.741 1905.01 248.82 1908.26 226.098C1911.52 203.379 1913.26 179.881 1913.5 159.84C1913.75 139.778 1912.47 123.244 1909.72 114.418C1898.7 79.057 1859.86 58.9337 1822.96 69.5178L1822.71 69.5881L1822.51 69.4299C1809.02 58.77 1789.1 60.575 1777.91 73.4084L1777.37 74.0334L1777.07 73.259C1766.48 45.7806 1741.32 24.3143 1709.03 19.0383C1660.91 11.1778 1615.3 42.2195 1607.11 88.3254L1606.84 89.8684L1606.17 88.4514C1600.37 76.1956 1585.29 70.7493 1572.48 76.3254C1562.9 80.4986 1557.33 89.6547 1557.57 99.1272L1556.61 99.3303C1551.26 86.3615 1537.58 77.6403 1522.3 78.7639C1510.03 79.6664 1499.82 86.7081 1494.59 96.4807L1493.65 96.2063C1496.11 64.513 1476.09 34.01 1443.21 23.3918C1404.28 10.8173 1362.11 30.9069 1349.01 68.219L1348.45 69.8235L1348.05 68.1692C1340.57 36.7937 1307.97 17.1493 1275.21 24.3401C1242.46 31.5291 1222.02 62.8065 1229.51 94.1741L1228.59 94.55C1217.46 76.2717 1192.97 70.0983 1173.89 80.7913C1164.59 86.0046 1158.33 94.2685 1155.62 103.476L1155.19 104.948L1154.67 103.503C1144.92 76.2373 1119.05 55.7168 1087.15 53.3372C1044.33 50.1419 1006.95 80.8473 1003.63 121.872L1002.63 121.842C1002.24 101.225 984.49 84.7785 962.943 85.1536C941.398 85.5287 924.285 102.58 924.675 123.198L923.677 123.24C921.583 92.0931 893.552 68.4371 861.03 70.4485C842.121 71.618 825.922 81.2403 816.051 95.1887L815.531 95.9221L815.182 95.094C814.154 92.6541 812.806 90.299 811.064 88.1106C800.578 74.9355 780.929 72.4006 767.183 82.4661L766.285 83.1243L766.39 82.0159C770.282 40.9216 738.706 4.54939 695.813 0.811768C652.918 -2.92604 615.02 27.3965 611.127 68.4934L610.156 68.6096C605.343 54.6612 589.635 47.0699 575.055 51.6985C560.483 56.3252 552.609 71.3892 557.419 85.3274L556.484 85.6809C542.395 51.5776 502.132 34.8639 466.545 48.3918C439.805 58.5567 423.349 82.8942 422.798 108.827L421.844 109.025C413.272 90.2903 394.345 76.6993 371.571 75.4377C339.235 73.6474 311.544 97.3375 309.68 128.305L308.683 128.324C305.61 97.4136 276.985 74.7101 244.71 77.6614C221.536 79.7805 202.874 94.5785 195.301 114.184L194.339 114.066C192.118 96.4206 180.216 80.4321 161.793 73.3206C134.856 62.9235 104.252 75.449 93.4258 101.255L93.3232 101.498L93.0654 101.551L92.748 101.622C89.4728 102.427 86.3734 105.219 83.4746 109.713C80.4915 114.338 77.7756 120.68 75.3311 128.247C70.4432 143.378 66.6703 163.306 63.9844 183.933C63.9453 184.233 63.9087 184.533 63.8701 184.833C65.4207 194.633 67.0635 204.976 68.7891 215.404C73.1663 241.855 78.0623 268.864 83.248 289.004C83.573 290.266 83.8986 291.501 84.2256 292.706C86.371 296.744 88.5673 300.267 90.8037 303.165C94.1834 307.545 97.6099 310.448 101.028 311.604C101.409 311.714 101.79 311.82 102.17 311.925L101.927 312.895C101.919 312.893 101.912 312.892 101.904 312.89C101.899 312.889 101.895 312.887 101.89 312.886C101.496 312.796 101.103 312.685 100.712 312.553C96.9159 311.457 93.0987 310.113 89.2861 308.611C89.9203 310.242 90.556 311.737 91.1943 313.082C92.5423 315.923 93.8822 318.066 95.2021 319.429C95.5297 319.767 95.8519 320.053 96.168 320.288C97.1384 320.586 98.119 320.859 99.1094 321.104L99.0781 322.081C97.9136 322.292 96.7915 321.952 95.7217 321.198C83.1275 317.289 72.2744 309.004 65.5791 297.79C56.9699 293.55 48.7135 289.401 41.1182 286.401C32.1154 282.845 24.1581 280.954 17.7373 282.376C11.3872 283.783 6.41869 288.463 3.44824 298.392C0.469625 308.349 -0.18557 322.558 1.18262 338.485C2.54989 354.4 5.93372 371.987 10.999 388.682C16.0652 405.379 22.8077 421.163 30.8828 433.482C38.9661 445.813 48.3383 454.602 58.6377 457.437L59.6875 457.725L58.7842 458.333C39.164 471.547 34.4363 497.497 48.2002 516.303C61.9745 535.122 89.0608 539.677 108.693 526.455L109.389 527.147C101.948 538.319 105.182 553.11 116.589 560.495L117.138 560.841C129.001 568.11 144.755 564.77 152.321 553.407L152.914 552.518L153.217 553.543C162.09 583.562 194.67 601.026 226.007 592.504C257.335 583.984 275.501 552.732 266.631 522.723L266.374 521.855L267.245 522.1C301.147 531.629 336.659 512.986 346.581 480.506C355.245 452.144 341.541 422.579 315.352 409.198L314.146 408.581L315.463 408.266C316.495 408.019 317.493 407.676 318.423 407.135V407.136C322.455 404.791 324.227 400.302 323.226 396.136L324.173 395.824C335.098 421.789 365.309 435.503 393.414 426.523C422.634 417.186 438.4 386.915 428.681 358.927L429.619 358.582C436.054 375.194 455.329 383.682 472.683 377.497C490.027 371.316 498.836 352.835 492.406 336.235L493.273 335.755C509.486 357.547 541.061 362.616 563.793 347.056C581.552 334.9 588.585 313.769 583.101 294.719L583.986 294.288C596.543 311.661 619.599 320.397 642.027 314.365C652.312 311.598 661.006 306.094 667.564 298.935L668.122 298.326L668.403 299.102C670.612 305.188 674.15 310.929 679.12 315.852L679.605 316.325C698.191 334.203 728.374 334.243 747.012 316.416L747.459 315.989L747.783 316.515C756.673 330.959 776.105 335.771 791.185 327.232C793.016 326.195 794.692 325.004 796.22 323.694L796.945 323.072L797.042 324.023C799.867 351.637 817.894 376.972 846.395 388.645C870.875 398.671 897.61 396.368 919.092 384.652L919.532 384.411L919.771 384.853C931.71 406.922 954.97 422.709 982.737 424.62C1022.92 427.385 1058.07 400.104 1064.36 362.705L1065.35 362.76C1065.78 370.298 1071 377.142 1078.99 379.483C1089.23 382.481 1100.04 376.944 1103.16 367.161L1104.13 367.298C1104.92 393.09 1127.37 413.417 1154.31 412.655C1170.08 412.209 1183.83 404.606 1192.4 393.228L1193.39 391.909L1193.3 393.557C1192.03 415.806 1203.26 437.985 1224.55 450.322C1255.27 468.129 1295.22 458.667 1313.77 429.216L1314.03 428.811L1314.44 429.049C1335.98 441.379 1363.22 436.361 1378.69 418.353L1379.13 417.84L1379.49 418.41C1393.97 441.277 1417.91 458.559 1447.38 464.424C1501.95 475.282 1555.37 443.069 1569.32 391.99L1570.3 392.187C1568.88 403.035 1575.43 413.772 1586.64 417.597C1597.36 421.252 1608.93 417.424 1615.22 408.975L1616.07 409.489C1604.3 434.195 1613.28 464.01 1638.05 478.592C1656.28 489.325 1678.33 489.005 1695.75 479.617L1696.38 480.356C1678.35 504.632 1676.62 537.992 1694.69 564.411ZM59.6504 216.377C60.4402 206.073 61.5088 195.382 62.8604 184.848C60.4894 169.863 58.3399 156.168 56.4648 145.385C54.9114 136.452 53.5499 129.552 52.4092 125.59C52.1245 124.601 51.8564 123.808 51.6074 123.217C51.3665 122.645 51.1661 122.325 51.0264 122.183C50.9127 122.341 50.7597 122.691 50.6035 123.327C49.6874 127.061 49.3034 132.701 49.4092 139.759C49.5148 146.807 50.1082 155.235 51.1289 164.526C52.851 180.2 55.7886 198.316 59.6504 216.377ZM82.0762 288.459C76.9539 268.36 72.1229 241.674 67.8027 215.568C66.2743 206.332 64.8134 197.17 63.4229 188.397C62.1332 198.953 61.127 209.609 60.3984 219.818C60.8835 222.018 61.3812 224.215 61.8926 226.405C66.8655 247.694 73.056 268.239 79.9727 283.899C80.6668 285.47 81.3686 286.992 82.0762 288.459ZM87.5537 306.837C86.1137 302.865 84.6904 298.232 83.291 293.081C81.852 290.367 80.4397 287.429 79.0586 284.302C72.1067 268.563 65.8989 247.951 60.9189 226.632C60.6617 225.531 60.4079 224.427 60.1572 223.323C59.6891 230.437 59.357 237.298 59.1631 243.716C58.6228 261.599 59.1446 275.98 60.6699 282.799C61.8157 287.922 63.7349 292.692 66.2861 297.024C67.7806 297.759 69.284 298.497 70.7939 299.23C76.3131 301.91 81.9283 304.535 87.5537 306.837ZM93.9775 319.567C92.7229 318.103 91.4953 316.049 90.291 313.511C89.5306 311.908 88.7765 310.101 88.0254 308.111C82.0803 305.713 76.1561 302.946 70.3574 300.13C69.3231 299.628 68.2931 299.123 67.2676 298.619C73.4975 308.337 82.9799 315.673 93.9775 319.567Z" fill="url(#paint0_linear_129_1754)" stroke="#F4A27E"/>
<defs>
<linearGradient id="paint0_linear_129_1754" x1="1126.39" y1="84.8697" x2="1128.52" y2="410.671" gradientUnits="userSpaceOnUse">
<stop stop-color="white"/>
<stop offset="1" stop-color="white"/>
</linearGradient>
</defs>
</svg>
