<svg width="1657" height="507" viewBox="0 0 1657 507" fill="none" xmlns="http://www.w3.org/2000/svg">
<path d="M17.3524 264.379L59.3636 330.592L64.3867 305.933L34.2482 260.269L258.46 261.639L230.605 305.933L238.824 315.523L275.812 261.639L286.772 260.269V253.876M2.73986 241.546V247.483M2.73986 247.483H286.772M2.73986 247.483V252.962M286.772 247.483V241.546H263.94V260.269H243.847V241.546H224.212L189.964 258.442H47.0342V241.546H26.0287L27.3986 258.442H2.73986V252.962M286.772 247.483V253.876M286.772 253.876L2.73986 252.962M0 241.546H289.968" stroke="#F6C6B1" stroke-width="1.51616"/>
<path d="M46.1203 45.6463L91.7847 130.125L89.9581 140.171L40.6406 44.2764L46.1203 45.6463Z" fill="white" stroke="white" stroke-width="1.51616"/>
<path d="M245.217 43.3633L199.553 133.779V145.651L250.697 43.3633H245.217Z" fill="white" stroke="white" stroke-width="1.51616"/>
<path d="M252.98 58.4323V52.0393H39.7275V58.4323H252.98Z" fill="white" stroke="white" stroke-width="1.51616"/>
<path d="M0.913086 263.922V257.529H290.425V263.922H0.913086Z" fill="#F6C6B1"/>
<path fill-rule="evenodd" clip-rule="evenodd" d="M144.13 0.0998871C144.533 -0.101248 144.918 0.0277717 145.209 0.253207C145.488 0.469208 145.732 0.804522 145.939 1.16043C146.355 1.87232 146.703 2.80388 146.933 3.49149C146.934 3.49289 146.935 3.49447 146.937 3.49637C146.948 3.51271 146.968 3.53878 147 3.5745C147.064 3.64635 147.159 3.74267 147.287 3.86258C147.542 4.10162 147.91 4.41889 148.378 4.80594C149.314 5.57926 150.635 6.61754 152.229 7.84403C155.415 10.2966 159.68 13.4919 164.104 16.803C172.939 23.4143 182.438 30.509 185.196 33.0374C186.608 34.3313 188.201 36.5394 189.845 39.2415C191.494 41.9515 193.212 45.1875 194.87 48.5608C198.186 55.3077 201.273 62.6254 203.104 67.43L203.104 67.4319C204.201 70.3556 204.773 71.6777 204.915 71.9622L205.126 72.385L204.668 72.4993C203.431 72.8085 201.42 73.1783 199.391 73.2864C197.666 73.3782 195.862 73.2835 194.512 72.7552C195.212 80.212 199.638 118.54 204.49 141.921C207.002 154.023 209.513 165.888 211.965 175.64C213.191 180.516 214.401 184.858 215.588 188.435C216.777 192.018 217.937 194.807 219.054 196.594C222.71 202.444 232.454 218.826 236.867 226.283L237.148 226.76L236.604 226.851C235.232 227.079 233.082 227.422 231.092 227.708C229.445 227.945 227.879 228.145 226.961 228.205C228.219 233.915 235.291 270.186 241.768 311.925C248.445 354.956 254.502 403.858 252.901 431.075C252.575 436.625 250.106 440.967 245.919 444.254C241.745 447.531 235.875 449.752 228.74 451.114C214.471 453.836 195.01 453.142 173.545 450.414C130.604 444.957 79.5029 431.341 45.5479 420.454L45.2764 420.367L45.2852 420.082C46.0464 394.505 47.9874 354.199 51.3369 316.403C53.0117 297.505 55.0386 279.229 57.4473 263.735C59.8027 248.583 62.5279 236.059 65.6562 228.212C62.9564 228.102 58.5265 227.273 56.5439 226.848L56.0303 226.738L56.2969 226.284C63.9045 213.351 80.1916 181.678 84.5625 158.367C87.3006 143.764 90.3824 122.881 92.8369 105.471C94.064 96.7671 95.1337 88.9329 95.9258 83.1888C96.3217 80.3173 96.6487 77.9666 96.8906 76.2913C97.0115 75.454 97.1115 74.7832 97.1885 74.3001C97.2146 74.1362 97.2387 73.9928 97.2598 73.8714C93.2768 73.7851 88.5687 72.6276 86.6504 72.0374L86.2451 71.9124L86.4141 71.5237L98.7441 43.2112L98.7471 43.2044C100.611 39.1655 108.611 28.1923 125.806 16.1175C131.291 12.0033 135.293 9.25918 137.974 7.37723C139.317 6.43429 140.319 5.71438 141.013 5.14676C141.359 4.86324 141.62 4.62467 141.805 4.42215C141.993 4.21565 142.081 4.06942 142.113 3.97196C142.334 3.31032 142.572 2.47833 142.864 1.77664C143.012 1.42177 143.181 1.08071 143.381 0.793246C143.579 0.507315 143.824 0.252759 144.13 0.0998871ZM146.726 204.423C145.082 203.998 143.306 204.09 141.506 205.015C139.714 205.936 137.925 207.669 136.213 210.475L136.157 210.566V238.73H154.268V210.561L154.207 210.467C152.7 208.127 149.983 205.265 146.726 204.423ZM145.898 119.215C144.913 118.965 143.846 119.021 142.768 119.564C141.696 120.104 140.64 121.112 139.639 122.721L139.582 122.813V139.009H150.386V122.808L150.324 122.713C149.442 121.37 147.839 119.707 145.898 119.215Z" fill="url(#paint0_linear_220_3)"/>
<path d="M156.094 144.951H133.81V121.375L134.733 119.889C136.099 117.695 137.861 115.793 140.153 114.638C142.564 113.424 145.061 113.291 147.276 113.852C151.235 114.856 153.866 117.9 155.09 119.763L156.094 121.293V144.951Z" stroke="url(#paint1_radial_220_3)" stroke-width="12.2386"/>
<path d="M167.844 252.538H122.517V206.944L124.563 203.589C127.111 199.412 130.553 195.528 135.254 193.113C140.249 190.546 145.479 190.255 150.1 191.449C158.197 193.543 163.338 199.763 165.616 203.301L167.844 206.76V252.538Z" stroke="url(#paint2_radial_220_3)" stroke-width="27.974"/>
<mask id="path-9-inside-1_220_3" fill="white">
<path d="M1379.96 188.074C1462.41 188.074 1529.25 259.269 1529.25 347.092C1529.25 434.914 1462.41 506.109 1379.96 506.109C1297.51 506.109 1230.67 434.914 1230.67 347.092C1230.67 259.269 1297.51 188.074 1379.96 188.074ZM1384.61 239.671C1332.76 239.671 1290.73 287.764 1290.73 347.092C1290.73 406.419 1332.76 454.513 1384.61 454.513C1436.47 454.513 1478.5 406.419 1478.5 347.092C1478.5 287.765 1436.47 239.671 1384.61 239.671Z"/>
</mask>
<path d="M1379.96 188.074C1462.41 188.074 1529.25 259.269 1529.25 347.092C1529.25 434.914 1462.41 506.109 1379.96 506.109C1297.51 506.109 1230.67 434.914 1230.67 347.092C1230.67 259.269 1297.51 188.074 1379.96 188.074ZM1384.61 239.671C1332.76 239.671 1290.73 287.764 1290.73 347.092C1290.73 406.419 1332.76 454.513 1384.61 454.513C1436.47 454.513 1478.5 406.419 1478.5 347.092C1478.5 287.765 1436.47 239.671 1384.61 239.671Z" fill="white"/>
<path d="M1379.96 188.074V185.536V185.536V188.074ZM1529.25 347.092H1531.79V347.092H1529.25ZM1379.96 506.109V508.647V508.647V506.109ZM1230.67 347.092H1228.13V347.092H1230.67ZM1384.61 239.671L1384.61 237.133H1384.61V239.671ZM1290.73 347.092H1288.19V347.092H1290.73ZM1384.61 454.513V457.051H1384.61L1384.61 454.513ZM1478.5 347.092H1481.04V347.092H1478.5ZM1379.96 188.074V190.611C1460.86 190.611 1526.71 260.517 1526.71 347.092H1529.25H1531.79C1531.79 258.021 1463.96 185.536 1379.96 185.536V188.074ZM1529.25 347.092H1526.71C1526.71 433.666 1460.86 503.572 1379.96 503.572V506.109V508.647C1463.96 508.647 1531.79 436.163 1531.79 347.092H1529.25ZM1379.96 506.109V503.572C1299.06 503.572 1233.21 433.666 1233.21 347.092H1230.67H1228.13C1228.13 436.163 1295.96 508.647 1379.96 508.647V506.109ZM1230.67 347.092H1233.21C1233.21 260.517 1299.06 190.612 1379.96 190.611V188.074V185.536C1295.96 185.537 1228.13 258.021 1228.13 347.092H1230.67ZM1384.61 239.671V237.133C1331.05 237.133 1288.19 286.695 1288.19 347.092H1290.73H1293.26C1293.26 288.834 1334.47 242.208 1384.61 242.208V239.671ZM1290.73 347.092H1288.19C1288.19 407.488 1331.05 457.051 1384.61 457.051V454.513V451.976C1334.47 451.976 1293.26 405.349 1293.26 347.092H1290.73ZM1384.61 454.513L1384.61 457.051C1438.18 457.051 1481.04 407.488 1481.04 347.092H1478.5H1475.96C1475.96 405.349 1434.76 451.976 1384.61 451.976L1384.61 454.513ZM1478.5 347.092H1481.04C1481.04 286.695 1438.18 237.133 1384.61 237.133L1384.61 239.671L1384.61 242.208C1434.76 242.208 1475.96 288.834 1475.96 347.092H1478.5Z" fill="#F4A27E" mask="url(#path-9-inside-1_220_3)"/>
<path d="M1377.85 336.519L1358.39 449.861L1457.36 447.746C1451.58 417.296 1439.42 352.928 1437.06 339.056C1434.69 325.184 1428.18 324.536 1425.21 325.946C1417.6 325.523 1399.67 324.931 1388.84 325.946C1378.02 326.961 1377 333.417 1377.85 336.519Z" fill="white" stroke="#F4A27E" stroke-width="2.53751"/>
<path d="M1389.25 336.221L1373.62 449.438L1453.13 447.325C1448.48 416.909 1438.72 352.612 1436.82 338.755C1434.91 324.899 1429.68 324.251 1427.3 325.659C1421.19 325.237 1406.78 324.646 1398.08 325.659C1389.38 326.673 1388.57 333.123 1389.25 336.221Z" fill="white" stroke="#F4A27E" stroke-width="2.53751"/>
<path d="M1413.37 333.981C1417.99 333.981 1421.41 337.179 1421.41 340.748C1421.41 344.316 1417.99 347.514 1413.37 347.514C1408.75 347.514 1405.34 344.316 1405.34 340.748C1405.34 337.179 1408.75 333.981 1413.37 333.981Z" stroke="#F4A27E" stroke-width="2.53751"/>
<circle cx="1300.45" cy="416.827" r="2.5" transform="rotate(-42.1945 1300.45 416.827)" fill="#D9D9D9"/>
<circle cx="1283.62" cy="428.037" r="2.5" transform="rotate(-42.1945 1283.62 428.037)" fill="#D9D9D9"/>
<rect x="1320.84" y="43.3184" width="335" height="47" fill="white" stroke="#F4A27E" stroke-width="2"/>
<path d="M1301.34 89.8184V44.3184H1298.84V93.3184L1320.34 91.3184V88.3184L1301.34 89.8184Z" fill="white" stroke="#F4A27E" stroke-width="2"/>
<rect x="1485.34" y="34.3184" width="8" height="63" fill="white" stroke="#F4A27E" stroke-width="2"/>
<path
  d="M1545.34 106.818V92.3184H1600.34V106.818H1584.84V290.318H1558.34V106.818H1545.34Z"
  fill="white"
  stroke="#F4A27E"
  stroke-width="2"
  transform="scale(1, 2.5)"
  transform-origin="center"
/>

<circle cx="1284.34" cy="319.818" r="2" stroke="#F4A27E"/>
<circle cx="1264.34" cy="316.818" r="2" stroke="#F4A27E"/>
<circle cx="1335.58" cy="239.364" r="2" transform="rotate(57.2753 1335.58 239.364)" stroke="#F4A27E"/>
<circle cx="1327.29" cy="220.916" r="2" transform="rotate(57.2753 1327.29 220.916)" stroke="#F4A27E"/>
<circle cx="1433.92" cy="239.429" r="2" transform="rotate(99.4697 1433.92 239.429)" stroke="#F4A27E"/>
<circle cx="1440.17" cy="220.195" r="2" transform="rotate(99.4697 1440.17 220.195)" stroke="#F4A27E"/>
<defs>
<linearGradient id="paint0_linear_220_3" x1="18.1234" y1="53.8894" x2="1.60731" y2="452.779" gradientUnits="userSpaceOnUse">
<stop stop-color="white"/>
<stop offset="1" stop-color="#F4A27E"/>
</linearGradient>
<radialGradient id="paint1_radial_220_3" cx="0" cy="0" r="1" gradientUnits="userSpaceOnUse" gradientTransform="translate(144.952 129.243) rotate(83.8213) scale(24.2527 21.4759)">
<stop stop-color="white"/>
<stop offset="1" stop-color="white" stop-opacity="0"/>
</radialGradient>
<radialGradient id="paint2_radial_220_3" cx="0" cy="0" r="1" gradientUnits="userSpaceOnUse" gradientTransform="translate(145.18 221.656) rotate(90.3725) scale(38.5958 32.8921)">
<stop stop-color="white"/>
<stop offset="1" stop-color="white" stop-opacity="0"/>
</radialGradient>
</defs>
</svg>