<svg width="1920" height="1202" viewBox="0 0 1920 1202" fill="none" xmlns="http://www.w3.org/2000/svg">
<mask id="path-1-inside-1_129_3" fill="white">
<path d="M-413.243 486.788C-423.696 432.622 -386.432 718.328 -330.012 708.294C-349.681 698.865 -357.663 675.916 -347.843 657.033C-338.023 638.151 -314.118 630.486 -294.449 639.915C-334.12 622.839 -351.861 578.121 -334.073 540.035C-317.535 504.621 -276.107 487.452 -238.481 498.94C-277.38 482.651 -298.015 440.482 -284.979 400.748C-275.844 372.902 -252.419 353.255 -224.916 346.707C-261.556 337.516 -291.383 308.998 -299.196 270.937C-310.078 217.928 -274.14 166.488 -218.925 156.04C-190.821 109.618 -128.84 93.8581 -80.486 120.84C-36.6953 145.275 -19.1004 196.386 -37.0468 240.296C-4.67062 184.22 67.0354 159.092 130.287 184.093C198.399 211.016 230.882 285.851 202.839 351.244C228.672 326.983 270.1 327.421 295.37 352.222C320.641 377.024 320.183 416.795 294.35 441.056C321.445 435.564 348.047 452.199 353.768 478.211C359.489 504.223 342.16 529.763 315.067 535.255C338.952 532.62 360.678 547.764 365.946 569.74C393.581 550.017 430.277 542.73 465.722 553.169C513.732 567.31 544.67 609.603 544.925 655.399C550.414 651.888 556.665 649.289 563.522 647.935C588.856 642.933 613.644 656.293 623.012 678.514C614.57 645.282 632.774 610.371 666.879 597.609C701.006 584.839 739.04 598.738 756.237 628.725C733.295 577.566 754.632 517.206 806.741 490.502C861.692 462.341 930.016 482.278 959.349 535.034C953.913 506.854 973.3 479.779 1002.65 474.559C1032.01 469.339 1060.21 487.953 1065.64 516.133C1065.44 497.16 1081.29 481.617 1101.05 481.417C1107.69 481.35 1113.91 483.056 1119.27 486.029C1112.93 463.993 1118.62 439.411 1136.54 421.964C1163.24 395.982 1206.82 395.695 1233.88 421.322C1238.69 390.104 1268.94 368.54 1301.46 373.156C1333.98 377.772 1356.44 406.82 1351.63 438.037C1353.08 423.972 1364.21 413.099 1378.05 410.83C1378.03 410.385 1377.97 409.95 1377.96 409.5C1377.6 390.066 1393.73 374.034 1413.97 373.693C1380.8 320.22 1399.07 251.059 1454.77 219.218C1510.47 187.377 1582.51 204.914 1615.67 258.388C1625.52 222.94 1663.44 201.869 1700.36 211.326C1713.18 214.608 1724.12 221.183 1732.63 229.788C1735.65 228.568 1738.91 227.74 1742.34 227.398C1708.98 201.6 1703.73 154.726 1730.6 122.703C1757.47 90.6783 1806.29 85.6318 1839.65 111.43C1822.42 95.3198 1822.05 68.8463 1838.83 52.301C1855.61 35.7558 1883.18 35.4025 1900.42 51.5133C1905.64 18.4314 1937.81 -4.3222 1972.27 0.692668C2006.73 5.70682 2030.43 36.5903 2025.21 69.6729C2059.28 49.3688 2104.05 59.4266 2125.2 92.1387C2146.34 124.851 2135.87 167.829 2101.79 188.134C2132.24 179.589 2164.14 196.36 2173.04 225.594C2177.17 239.14 2175.57 252.956 2169.71 264.764C2190.97 256.394 2215.91 257.399 2237.07 269.704C2272.51 290.315 2283.84 334.607 2262.38 368.633C2309.26 381.586 2336.32 428.572 2322.83 473.58C2318.93 486.61 2311.98 497.978 2303.04 507.337C2328.79 511.123 2353.3 523.468 2371.47 544.032C2411.52 589.335 2405.74 657.23 2358.55 695.678C2370.41 696.216 2379.57 705.88 2379.01 717.265C2378.45 728.65 2368.38 737.444 2356.52 736.907C2411.61 758.98 2437.62 481.997 2414.63 534.882C2393.71 583.003 2339.42 608.005 2288.31 595.492C2321.79 609.937 2341.2 645.437 2332.82 681.145C2323.24 721.919 2281.05 747.517 2238.58 738.324C2267.04 761.974 2270.15 803.302 2245.51 830.632C2231.84 845.802 2212.49 853.439 2193.11 853.213C2211.43 867.301 2222.76 889.269 2221.57 913.501C2219.58 953.688 2184.04 984.722 2142.18 982.818C2137.9 1029.03 2095.4 1063.16 2047.26 1059.04C2007.96 1055.68 1977.08 1027.86 1969.38 992.616C1966 1023.39 1942.84 1050.14 1909.67 1057.52C1867.83 1066.84 1826.04 1041.83 1816.33 1001.66C1814.81 1020.53 1797.64 1034.64 1777.98 1033.18C1758.32 1031.71 1743.62 1015.23 1745.15 996.356C1733.65 1016.04 1707.71 1023.04 1687.21 1012C1686.37 1011.55 1685.59 1011.04 1684.8 1010.54C1681.97 1030.54 1670.96 1049.43 1652.5 1062.07C1617.01 1086.38 1567.73 1078.46 1542.41 1044.4C1522.39 1097.42 1461.39 1124.82 1406.16 1105.6C1353.68 1087.34 1325.33 1033.56 1339.8 982.757C1326.58 1016.89 1288.53 1036.82 1250.82 1027.88C1226.5 1022.11 1207.94 1005.61 1199.07 984.955C1196.41 989.51 1192.79 993.649 1188.23 997.067C1169.79 1010.9 1143.15 1007.76 1128.74 990.058C1136.7 1047.1 1094.99 1099.53 1035.57 1107.18C976.159 1114.82 921.542 1074.77 913.582 1017.73C920.399 1050.96 897.864 1083.21 863.25 1089.75C828.636 1096.3 795.049 1074.66 788.232 1041.43C768.759 1064.38 733.593 1067.83 709.685 1049.14C694.835 1037.53 687.837 1020.1 689.322 1003.06C670.625 1030.85 635.656 1046.44 599.764 1039.75C583.443 1036.71 569.154 1029.4 557.733 1019.35C545.041 1035.83 522.539 1043.75 500.934 1037.48C504.979 1068.07 482.426 1096.02 450.56 1099.9C418.696 1103.79 389.586 1082.13 385.542 1051.54C386.69 1111.43 337.048 1160.88 274.665 1161.98C212.282 1163.08 160.779 1115.43 159.63 1055.53C140.844 1068.39 114.761 1064.19 101.373 1046.15C100.683 1045.22 100.069 1044.26 99.473 1043.3C84.9308 1068.01 58.517 1085.77 26.8618 1088.75C-19.9749 1093.17 -62.1425 1063.74 -73.3352 1021.23C-68.7388 1063.67 -96.789 1104.17 -141.106 1115.37C-190.079 1127.74 -240.225 1099.65 -253.112 1052.64C-326.948 1057.23 -390.676 1003.48 -395.454 932.595C-400.231 861.71 -344.25 800.527 -270.414 795.94C-308.478 793.994 -337.692 762.792 -335.666 726.249C-333.997 696.175 -311.676 671.899 -282.615 665.316C-303.447 663.396 -321.944 649.589 -328.089 629.11C-336.12 602.349 -320.034 574.403 -292.158 566.692C-348.58 576.728 -402.791 540.954 -413.243 486.788Z"/>
</mask>
<path d="M-413.243 486.788C-423.696 432.622 -386.432 718.328 -330.012 708.294C-349.681 698.865 -357.663 675.916 -347.843 657.033C-338.023 638.151 -314.118 630.486 -294.449 639.915C-334.12 622.839 -351.861 578.121 -334.073 540.035C-317.535 504.621 -276.107 487.452 -238.481 498.94C-277.38 482.651 -298.015 440.482 -284.979 400.748C-275.844 372.902 -252.419 353.255 -224.916 346.707C-261.556 337.516 -291.383 308.998 -299.196 270.937C-310.078 217.928 -274.14 166.488 -218.925 156.04C-190.821 109.618 -128.84 93.8581 -80.486 120.84C-36.6953 145.275 -19.1004 196.386 -37.0468 240.296C-4.67062 184.22 67.0354 159.092 130.287 184.093C198.399 211.016 230.882 285.851 202.839 351.244C228.672 326.983 270.1 327.421 295.37 352.222C320.641 377.024 320.183 416.795 294.35 441.056C321.445 435.564 348.047 452.199 353.768 478.211C359.489 504.223 342.16 529.763 315.067 535.255C338.952 532.62 360.678 547.764 365.946 569.74C393.581 550.017 430.277 542.73 465.722 553.169C513.732 567.31 544.67 609.603 544.925 655.399C550.414 651.888 556.665 649.289 563.522 647.935C588.856 642.933 613.644 656.293 623.012 678.514C614.57 645.282 632.774 610.371 666.879 597.609C701.006 584.839 739.04 598.738 756.237 628.725C733.295 577.566 754.632 517.206 806.741 490.502C861.692 462.341 930.016 482.278 959.349 535.034C953.913 506.854 973.3 479.779 1002.65 474.559C1032.01 469.339 1060.21 487.953 1065.64 516.133C1065.44 497.16 1081.29 481.617 1101.05 481.417C1107.69 481.35 1113.91 483.056 1119.27 486.029C1112.93 463.993 1118.62 439.411 1136.54 421.964C1163.24 395.982 1206.82 395.695 1233.88 421.322C1238.69 390.104 1268.94 368.54 1301.46 373.156C1333.98 377.772 1356.44 406.82 1351.63 438.037C1353.08 423.972 1364.21 413.099 1378.05 410.83C1378.03 410.385 1377.97 409.95 1377.96 409.5C1377.6 390.066 1393.73 374.034 1413.97 373.693C1380.8 320.22 1399.07 251.059 1454.77 219.218C1510.47 187.377 1582.51 204.914 1615.67 258.388C1625.52 222.94 1663.44 201.869 1700.36 211.326C1713.18 214.608 1724.12 221.183 1732.63 229.788C1735.65 228.568 1738.91 227.74 1742.34 227.398C1708.98 201.6 1703.73 154.726 1730.6 122.703C1757.47 90.6783 1806.29 85.6318 1839.65 111.43C1822.42 95.3198 1822.05 68.8463 1838.83 52.301C1855.61 35.7558 1883.18 35.4025 1900.42 51.5133C1905.64 18.4314 1937.81 -4.3222 1972.27 0.692668C2006.73 5.70682 2030.43 36.5903 2025.21 69.6729C2059.28 49.3688 2104.05 59.4266 2125.2 92.1387C2146.34 124.851 2135.87 167.829 2101.79 188.134C2132.24 179.589 2164.14 196.36 2173.04 225.594C2177.17 239.14 2175.57 252.956 2169.71 264.764C2190.97 256.394 2215.91 257.399 2237.07 269.704C2272.51 290.315 2283.84 334.607 2262.38 368.633C2309.26 381.586 2336.32 428.572 2322.83 473.58C2318.93 486.61 2311.98 497.978 2303.04 507.337C2328.79 511.123 2353.3 523.468 2371.47 544.032C2411.52 589.335 2405.74 657.23 2358.55 695.678C2370.41 696.216 2379.57 705.88 2379.01 717.265C2378.45 728.65 2368.38 737.444 2356.52 736.907C2411.61 758.98 2437.62 481.997 2414.63 534.882C2393.71 583.003 2339.42 608.005 2288.31 595.492C2321.79 609.937 2341.2 645.437 2332.82 681.145C2323.24 721.919 2281.05 747.517 2238.58 738.324C2267.04 761.974 2270.15 803.302 2245.51 830.632C2231.84 845.802 2212.49 853.439 2193.11 853.213C2211.43 867.301 2222.76 889.269 2221.57 913.501C2219.58 953.688 2184.04 984.722 2142.18 982.818C2137.9 1029.03 2095.4 1063.16 2047.26 1059.04C2007.96 1055.68 1977.08 1027.86 1969.38 992.616C1966 1023.39 1942.84 1050.14 1909.67 1057.52C1867.83 1066.84 1826.04 1041.83 1816.33 1001.66C1814.81 1020.53 1797.64 1034.64 1777.98 1033.18C1758.32 1031.71 1743.62 1015.23 1745.15 996.356C1733.65 1016.04 1707.71 1023.04 1687.21 1012C1686.37 1011.55 1685.59 1011.04 1684.8 1010.54C1681.97 1030.54 1670.96 1049.43 1652.5 1062.07C1617.01 1086.38 1567.73 1078.46 1542.41 1044.4C1522.39 1097.42 1461.39 1124.82 1406.16 1105.6C1353.68 1087.34 1325.33 1033.56 1339.8 982.757C1326.58 1016.89 1288.53 1036.82 1250.82 1027.88C1226.5 1022.11 1207.94 1005.61 1199.07 984.955C1196.41 989.51 1192.79 993.649 1188.23 997.067C1169.79 1010.9 1143.15 1007.76 1128.74 990.058C1136.7 1047.1 1094.99 1099.53 1035.57 1107.18C976.159 1114.82 921.542 1074.77 913.582 1017.73C920.399 1050.96 897.864 1083.21 863.25 1089.75C828.636 1096.3 795.049 1074.66 788.232 1041.43C768.759 1064.38 733.593 1067.83 709.685 1049.14C694.835 1037.53 687.837 1020.1 689.322 1003.06C670.625 1030.85 635.656 1046.44 599.764 1039.75C583.443 1036.71 569.154 1029.4 557.733 1019.35C545.041 1035.83 522.539 1043.75 500.934 1037.48C504.979 1068.07 482.426 1096.02 450.56 1099.9C418.696 1103.79 389.586 1082.13 385.542 1051.54C386.69 1111.43 337.048 1160.88 274.665 1161.98C212.282 1163.08 160.779 1115.43 159.63 1055.53C140.844 1068.39 114.761 1064.19 101.373 1046.15C100.683 1045.22 100.069 1044.26 99.473 1043.3C84.9308 1068.01 58.517 1085.77 26.8618 1088.75C-19.9749 1093.17 -62.1425 1063.74 -73.3352 1021.23C-68.7388 1063.67 -96.789 1104.17 -141.106 1115.37C-190.079 1127.74 -240.225 1099.65 -253.112 1052.64C-326.948 1057.23 -390.676 1003.48 -395.454 932.595C-400.231 861.71 -344.25 800.527 -270.414 795.94C-308.478 793.994 -337.692 762.792 -335.666 726.249C-333.997 696.175 -311.676 671.899 -282.615 665.316C-303.447 663.396 -321.944 649.589 -328.089 629.11C-336.12 602.349 -320.034 574.403 -292.158 566.692C-348.58 576.728 -402.791 540.954 -413.243 486.788Z" fill="url(#paint0_linear_129_3)" stroke="#700074" stroke-width="2" mask="url(#path-1-inside-1_129_3)"/>
<mask id="path-2-inside-2_129_3" fill="white">
<path d="M-283.989 882.296C-283.159 825.967 -234.942 780.95 -176.294 781.747C-215.505 756.237 -225.76 705.029 -199.2 667.368C-192.923 658.467 -185.116 651.179 -176.389 645.486C-180.932 642.028 -185.178 813.381 -188.945 808.84C-215.599 776.709 -210.087 729.909 -176.632 704.31C-201.586 698.59 -216.987 674.524 -211.032 650.557C-205.076 626.59 -180.019 611.798 -155.066 617.518C-199.52 611.392 -230.386 571.815 -224.008 529.121C-217.63 486.425 -176.423 456.781 -131.969 462.906C-128.943 432.82 -101.097 410.788 -69.7712 413.694C-38.4462 416.6 -15.5067 443.346 -18.5325 473.432C37.0335 471.13 84.0214 512.529 86.4177 565.896C87.1183 581.53 83.8925 596.445 77.6148 609.795C90.1433 617.609 99.5172 630.061 102.655 645.244C107.192 601.768 147.565 570.056 192.831 574.413C238.097 578.771 271.115 617.547 266.579 661.022C267.363 661.863 268.039 662.758 268.77 663.626C269.988 663.698 271.205 663.766 272.429 663.882C327.307 669.074 367.414 716.012 362.007 768.721C369.935 755.028 385.576 748.096 400.822 750.075C410.495 732.39 425.584 717.195 445.29 707.035C497.815 679.953 563.255 698.895 591.453 749.344C601.302 720.577 633.566 704.926 663.518 714.386C670.59 716.62 676.866 720.086 682.25 724.407C690.198 717.48 701.266 714.024 712.643 716.001C703.752 666.836 738.042 620.058 789.232 611.518C840.42 602.979 889.125 635.912 898.015 685.077C908.751 644.223 951.934 619.462 994.472 629.771C1017.07 635.248 1034.86 649.562 1045.03 667.862C1057.08 655.505 1076.94 652.748 1092.3 662.221C1092.2 637.676 1112.84 617.702 1138.39 617.609C1152.84 617.556 1165.76 623.876 1174.29 633.81C1187.02 617.466 1209.85 610.342 1230.79 617.787C1244.8 622.764 1255 633.223 1259.83 645.686C1263.37 638.859 1269.1 633.011 1276.74 629.306C1295.55 620.172 1318.51 627.414 1328.02 645.485C1312.79 608.904 1331.31 567.388 1369.4 552.755C1407.49 538.122 1450.71 555.914 1465.95 592.494C1469.75 590.02 1473.91 588.422 1478.15 587.637C1474.96 554.396 1488.32 520.262 1517.08 497.33C1562.07 461.465 1628.16 466.19 1667.19 507.194C1652.78 489.58 1654.11 464.01 1671.11 447.9C1688.72 431.203 1716.68 430.828 1734.82 446.547C1734.77 446.33 1734.72 446.111 1734.75 445.88C1734.87 444.655 1736.01 443.761 1737.28 443.882C1709.72 407.376 1718.19 356.322 1756.2 329.852C1792.1 304.856 1841.47 310.751 1870.07 342.221C1857.15 324.209 1859.27 299.373 1876.21 283.711C1895.06 266.292 1925.04 266.845 1943.17 284.945C1980.52 301.411 1996.89 343.836 1979.75 379.703C1976.09 387.358 1971.14 394.031 1965.35 399.733C1982.8 404.844 1998.86 414.9 2011 429.709C2042.59 468.272 2035.66 524.134 1995.51 554.481C2013.39 554.442 2027.92 568.336 2027.97 585.514C2028.01 602.692 2013.54 616.65 1995.65 616.688C2023.69 642.037 2025.02 684.416 1998.63 711.344C1989.16 721.004 1977.4 727.304 1964.93 730.318C1985.93 744.664 2000.74 767.197 2003.84 793.733C2007.74 827.097 1992.14 682.934 1965.78 701.393C1989.83 700.058 2014.17 709.342 2030.59 728.611C2057.82 760.57 2052.92 807.679 2019.65 833.832C2052.61 846.637 2068.53 882.685 2055.19 914.347C2049.68 927.438 2040 937.671 2028.24 944.335C2041.09 949.248 2052.42 958.075 2059.99 970.391C2078.17 999.945 2067.96 1038.06 2037.19 1055.52C2047.65 1091.39 2025.86 1128.61 1988.51 1138.66C1951.16 1148.71 1912.4 1127.78 1901.94 1091.91C1893.74 1160.12 1829.52 1209.04 1758.5 1201.17C1687.48 1193.3 1636.54 1131.62 1644.74 1063.4C1640 1097.03 1607.77 1120.6 1572.76 1116.05C1543.22 1112.21 1521.22 1089.56 1517.88 1062.39C1514.22 1092.26 1489.72 1116.94 1457.27 1120.57C1419.34 1124.82 1385 1098.73 1380.58 1062.3C1371.27 1094.3 1336.71 1112.99 1303.38 1104.05C1281.69 1098.23 1265.94 1082.11 1260.11 1062.75C1256.39 1070.37 1250.04 1076.88 1241.53 1080.84C1221.81 1090.03 1198.07 1082.12 1188.5 1063.19C1170.75 1122.66 1106.15 1157.05 1044.23 1140C994.854 1126.41 962.117 1084.21 959.862 1037.51C953.687 1048.16 943.281 1056.54 930.108 1060.12C903.808 1067.27 876.455 1052.59 869.011 1027.33C863.284 1051.03 838.634 1065.79 813.954 1060.29C795.631 1056.21 782.464 1042.1 779.231 1025.4C773.785 1073.47 733.16 1112.35 681.187 1115.73C638.003 1118.55 599.137 1096.06 580.245 1061.47C579.011 1064.57 577.316 1067.55 575.107 1070.31C562.833 1085.66 539.929 1088.54 523.951 1076.75C511.623 1118.57 466.331 1142.88 422.788 1131.04C395.389 1123.59 375.234 1103.59 367.109 1079.38C359.237 1111.65 333.645 1138.85 297.999 1148.11C246.304 1161.55 193.051 1132.2 179.058 1082.55C159.195 1098.77 129.4 1096.46 112.509 1077.38C110.31 1074.89 108.456 1072.24 106.905 1069.48C90.4626 1101.27 57.6951 1124.33 18.1839 1127.66C-42.183 1132.75 -95.4172 1089.88 -100.719 1031.9C-106.4 1040.31 -118.102 1042.7 -126.857 1037.25C-135.612 1031.79 -138.103 1020.55 -132.423 1012.14C-140.016 1024.57 -156.666 1028.74 -169.61 1021.45C-182.555 1014.15 -186.893 998.162 -179.299 985.73C-237.948 984.934 -284.819 938.625 -283.989 882.296Z"/>
</mask>
<path d="M-283.989 882.296C-283.159 825.967 -234.942 780.95 -176.294 781.747C-215.505 756.237 -225.76 705.029 -199.2 667.368C-192.923 658.467 -185.116 651.179 -176.389 645.486C-180.932 642.028 -185.178 813.381 -188.945 808.84C-215.599 776.709 -210.087 729.909 -176.632 704.31C-201.586 698.59 -216.987 674.524 -211.032 650.557C-205.076 626.59 -180.019 611.798 -155.066 617.518C-199.52 611.392 -230.386 571.815 -224.008 529.121C-217.63 486.425 -176.423 456.781 -131.969 462.906C-128.943 432.82 -101.097 410.788 -69.7712 413.694C-38.4462 416.6 -15.5067 443.346 -18.5325 473.432C37.0335 471.13 84.0214 512.529 86.4177 565.896C87.1183 581.53 83.8925 596.445 77.6148 609.795C90.1433 617.609 99.5172 630.061 102.655 645.244C107.192 601.768 147.565 570.056 192.831 574.413C238.097 578.771 271.115 617.547 266.579 661.022C267.363 661.863 268.039 662.758 268.77 663.626C269.988 663.698 271.205 663.766 272.429 663.882C327.307 669.074 367.414 716.012 362.007 768.721C369.935 755.028 385.576 748.096 400.822 750.075C410.495 732.39 425.584 717.195 445.29 707.035C497.815 679.953 563.255 698.895 591.453 749.344C601.302 720.577 633.566 704.926 663.518 714.386C670.59 716.62 676.866 720.086 682.25 724.407C690.198 717.48 701.266 714.024 712.643 716.001C703.752 666.836 738.042 620.058 789.232 611.518C840.42 602.979 889.125 635.912 898.015 685.077C908.751 644.223 951.934 619.462 994.472 629.771C1017.07 635.248 1034.86 649.562 1045.03 667.862C1057.08 655.505 1076.94 652.748 1092.3 662.221C1092.2 637.676 1112.84 617.702 1138.39 617.609C1152.84 617.556 1165.76 623.876 1174.29 633.81C1187.02 617.466 1209.85 610.342 1230.79 617.787C1244.8 622.764 1255 633.223 1259.83 645.686C1263.37 638.859 1269.1 633.011 1276.74 629.306C1295.55 620.172 1318.51 627.414 1328.02 645.485C1312.79 608.904 1331.31 567.388 1369.4 552.755C1407.49 538.122 1450.71 555.914 1465.95 592.494C1469.75 590.02 1473.91 588.422 1478.15 587.637C1474.96 554.396 1488.32 520.262 1517.08 497.33C1562.07 461.465 1628.16 466.19 1667.19 507.194C1652.78 489.58 1654.11 464.01 1671.11 447.9C1688.72 431.203 1716.68 430.828 1734.82 446.547C1734.77 446.33 1734.72 446.111 1734.75 445.88C1734.87 444.655 1736.01 443.761 1737.28 443.882C1709.72 407.376 1718.19 356.322 1756.2 329.852C1792.1 304.856 1841.47 310.751 1870.07 342.221C1857.15 324.209 1859.27 299.373 1876.21 283.711C1895.06 266.292 1925.04 266.845 1943.17 284.945C1980.52 301.411 1996.89 343.836 1979.75 379.703C1976.09 387.358 1971.14 394.031 1965.35 399.733C1982.8 404.844 1998.86 414.9 2011 429.709C2042.59 468.272 2035.66 524.134 1995.51 554.481C2013.39 554.442 2027.92 568.336 2027.97 585.514C2028.01 602.692 2013.54 616.65 1995.65 616.688C2023.69 642.037 2025.02 684.416 1998.63 711.344C1989.16 721.004 1977.4 727.304 1964.93 730.318C1985.93 744.664 2000.74 767.197 2003.84 793.733C2007.74 827.097 1992.14 682.934 1965.78 701.393C1989.83 700.058 2014.17 709.342 2030.59 728.611C2057.82 760.57 2052.92 807.679 2019.65 833.832C2052.61 846.637 2068.53 882.685 2055.19 914.347C2049.68 927.438 2040 937.671 2028.24 944.335C2041.09 949.248 2052.42 958.075 2059.99 970.391C2078.17 999.945 2067.96 1038.06 2037.19 1055.52C2047.65 1091.39 2025.86 1128.61 1988.51 1138.66C1951.16 1148.71 1912.4 1127.78 1901.94 1091.91C1893.74 1160.12 1829.52 1209.04 1758.5 1201.17C1687.48 1193.3 1636.54 1131.62 1644.74 1063.4C1640 1097.03 1607.77 1120.6 1572.76 1116.05C1543.22 1112.21 1521.22 1089.56 1517.88 1062.39C1514.22 1092.26 1489.72 1116.94 1457.27 1120.57C1419.34 1124.82 1385 1098.73 1380.58 1062.3C1371.27 1094.3 1336.71 1112.99 1303.38 1104.05C1281.69 1098.23 1265.94 1082.11 1260.11 1062.75C1256.39 1070.37 1250.04 1076.88 1241.53 1080.84C1221.81 1090.03 1198.07 1082.12 1188.5 1063.19C1170.75 1122.66 1106.15 1157.05 1044.23 1140C994.854 1126.41 962.117 1084.21 959.862 1037.51C953.687 1048.16 943.281 1056.54 930.108 1060.12C903.808 1067.27 876.455 1052.59 869.011 1027.33C863.284 1051.03 838.634 1065.79 813.954 1060.29C795.631 1056.21 782.464 1042.1 779.231 1025.4C773.785 1073.47 733.16 1112.35 681.187 1115.73C638.003 1118.55 599.137 1096.06 580.245 1061.47C579.011 1064.57 577.316 1067.55 575.107 1070.31C562.833 1085.66 539.929 1088.54 523.951 1076.75C511.623 1118.57 466.331 1142.88 422.788 1131.04C395.389 1123.59 375.234 1103.59 367.109 1079.38C359.237 1111.65 333.645 1138.85 297.999 1148.11C246.304 1161.55 193.051 1132.2 179.058 1082.55C159.195 1098.77 129.4 1096.46 112.509 1077.38C110.31 1074.89 108.456 1072.24 106.905 1069.48C90.4626 1101.27 57.6951 1124.33 18.1839 1127.66C-42.183 1132.75 -95.4172 1089.88 -100.719 1031.9C-106.4 1040.31 -118.102 1042.7 -126.857 1037.25C-135.612 1031.79 -138.103 1020.55 -132.423 1012.14C-140.016 1024.57 -156.666 1028.74 -169.61 1021.45C-182.555 1014.15 -186.893 998.162 -179.299 985.73C-237.948 984.934 -284.819 938.625 -283.989 882.296Z" fill="url(#paint1_linear_129_3)" stroke="#700074" stroke-width="2" mask="url(#path-2-inside-2_129_3)"/>
<path d="M1838.77 528.348C1864.45 490.809 1917.04 480.329 1956.22 504.966L1956.31 505.027L1956.43 505.039C2006.07 510.641 2041.54 553.751 2035.7 601.29C2030.74 641.644 1997.61 672.254 1957.35 677.169L1957.29 678.151C1971.89 681.755 1984.1 692.559 1988.28 707.49C1993.61 726.498 1984.21 745.963 1966.76 754.796L1967.14 755.718C2013.06 740.781 2064.21 761.349 2084.74 804.53C2086.71 808.68 2088.28 811.85 2089.48 814.197C2088.27 812.697 2086.77 810.962 2085.02 809.134C2074.81 798.527 2055.65 784.61 2031.2 795.29L2029.93 795.846L2031.26 796.229C2036.18 797.638 2040.75 801.514 2044.97 807.395C2049.18 813.27 2053 821.097 2056.41 830.315C2063.24 848.749 2068.44 872.667 2071.99 897.458C2075.54 922.246 2077.45 947.885 2077.71 969.75C2077.98 991.637 2076.59 1009.68 2073.58 1019.32C2061.55 1057.92 2019.12 1079.89 1978.82 1068.33L1978.57 1068.26L1978.37 1068.42C1963.62 1080.07 1941.85 1078.1 1929.62 1064.08L1929.08 1063.45L1928.78 1064.22C1917.21 1094.22 1889.73 1117.65 1854.47 1123.41C1801.92 1131.99 1752.1 1098.11 1743.16 1047.78L1742.89 1046.24L1742.22 1047.65C1735.88 1061.05 1719.39 1067 1705.39 1060.91C1694.91 1056.35 1688.82 1046.34 1689.08 1035.99L1688.12 1035.78C1682.28 1049.95 1667.32 1059.48 1650.62 1058.25C1637.21 1057.26 1626.05 1049.57 1620.34 1038.9L1619.4 1039.17C1622.09 1073.77 1600.22 1107.07 1564.31 1118.66C1521.78 1132.38 1475.72 1110.45 1461.42 1069.72L1460.86 1068.12L1460.46 1069.77C1452.28 1104.03 1416.67 1125.47 1380.89 1117.62C1345.12 1109.77 1322.79 1075.63 1330.97 1041.38L1330.05 1041C1317.88 1060.97 1291.12 1067.71 1270.28 1056.03C1260.11 1050.34 1253.27 1041.31 1250.31 1031.26L1249.88 1029.78L1249.36 1031.23C1238.71 1060.99 1210.45 1083.39 1175.62 1085.99C1128.85 1089.48 1088.03 1055.96 1084.39 1011.18L1083.39 1011.21C1082.97 1033.73 1063.57 1051.69 1040.03 1051.28C1016.49 1050.87 997.784 1032.25 998.21 1009.73L997.211 1009.68C994.923 1043.69 964.302 1069.52 928.777 1067.32C908.122 1066.04 890.427 1055.54 879.644 1040.31L879.124 1039.58L878.774 1040.4C877.721 1042.9 876.361 1045.32 874.626 1047.58L874.273 1048.03C862.811 1062.43 841.334 1065.2 826.309 1054.2L825.411 1053.54L825.516 1054.65C829.767 1099.51 795.278 1139.21 748.433 1143.29C701.584 1147.37 660.19 1114.27 655.938 1069.41L654.968 1069.3C649.706 1084.54 632.533 1092.83 616.594 1087.77C600.664 1082.72 592.054 1066.26 597.313 1051.03L596.378 1050.67C580.987 1087.9 537.01 1106.15 498.141 1091.38C468.934 1080.28 450.959 1053.72 450.357 1025.41L449.403 1025.21C440.039 1045.66 419.362 1060.5 394.485 1061.88C359.164 1063.83 328.913 1037.97 326.876 1004.16L325.88 1004.14C322.524 1037.89 291.252 1062.67 255.997 1059.45C230.683 1057.14 210.297 1040.98 202.023 1019.58L201.061 1019.69C198.634 1038.96 185.632 1056.42 165.505 1064.18C136.078 1075.54 102.643 1061.86 90.8154 1033.68L90.7139 1033.44L90.4551 1033.39L90.1064 1033.31C86.5144 1032.43 83.1233 1029.37 79.957 1024.46C76.6976 1019.41 73.7316 1012.49 71.0625 1004.23C65.7257 987.72 61.6069 965.976 58.6748 943.472C58.6319 943.143 58.5912 942.813 58.5488 942.483C60.2417 931.79 62.0359 920.503 63.9199 909.124C68.6981 880.267 74.0428 850.799 79.7041 828.825C80.0591 827.446 80.4142 826.098 80.7715 824.782C83.1154 820.372 85.5158 816.525 87.96 813.359C91.6493 808.58 95.3944 805.406 99.1367 804.139C99.555 804.018 99.9729 803.9 100.391 803.786L100.148 802.816C99.7112 802.914 99.2752 803.037 98.8408 803.183C94.6608 804.388 90.4573 805.87 86.2588 807.527C86.964 805.708 87.6709 804.043 88.3809 802.547C89.853 799.446 91.3188 797.104 92.7646 795.612C93.1254 795.239 93.4799 794.924 93.8291 794.664C94.8922 794.338 95.9667 794.04 97.0518 793.772L97.0205 792.794C95.7627 792.567 94.5481 792.935 93.3857 793.755C79.6405 798.016 67.7966 807.053 60.4932 819.286C51.0916 823.913 42.0727 828.443 33.7764 831.718C23.9477 835.598 15.2492 837.666 8.22559 836.112C1.27292 834.573 -4.1606 829.449 -7.40625 818.607C-10.66 807.735 -11.3746 792.227 -9.88086 774.85C-8.38804 757.483 -4.69333 738.293 0.836914 720.077C6.36799 701.858 13.7299 684.634 22.5479 671.19C31.374 657.734 41.6123 648.134 52.8711 645.036L53.9219 644.748L53.0176 644.14C31.7463 629.823 26.4934 601.811 41.1035 581.314L41.4531 580.831C56.5041 560.281 86.0988 555.308 107.55 569.745L108.245 569.053C99.9798 556.649 103.761 540.165 116.719 532.23C129.689 524.288 146.913 527.936 155.187 540.353L155.779 541.243L156.082 540.217C165.776 507.443 201.365 488.378 235.596 497.681C269.818 506.983 289.664 541.103 279.974 573.868L279.717 574.735L280.589 574.491C317.62 564.089 356.409 584.439 367.248 619.899C376.713 650.863 361.742 683.14 333.135 697.748L331.929 698.365L333.246 698.68C334.234 698.917 335.195 699.234 336.104 699.706L336.489 699.918C340.908 702.487 342.852 707.404 341.754 711.969L342.7 712.28C354.636 683.93 387.64 668.958 418.342 678.763C450.261 688.957 467.486 722.007 456.867 752.567L457.806 752.911C464.839 734.764 485.906 725.493 504.872 732.248C523.829 739.001 533.46 759.189 526.431 777.326L527.298 777.804C545.01 754.009 579.507 748.477 604.341 765.466C623.743 778.739 631.426 801.813 625.435 822.614L626.32 823.045C640.038 804.077 665.226 794.539 689.728 801.125C700.963 804.146 710.461 810.154 717.626 817.971L718.183 818.579L718.465 817.804C720.955 810.944 724.994 804.485 730.704 798.996C751.01 779.476 783.987 779.432 804.35 798.898L804.796 799.325L805.12 798.798C814.837 783.018 836.077 777.764 852.559 787.091C854.56 788.224 856.393 789.525 858.062 790.956L858.788 791.578L858.885 790.627C861.97 760.484 881.66 732.829 912.786 720.088C939.523 709.145 968.721 711.659 992.183 724.448L992.623 724.688L992.861 724.246C1005.9 700.155 1031.31 682.922 1061.63 680.836C1105.52 677.819 1143.91 707.597 1150.78 748.422L1151.77 748.368C1152.24 740.125 1157.96 732.641 1166.7 730.082C1177.9 726.805 1189.72 732.858 1193.13 743.555L1194.11 743.418C1194.97 715.253 1219.5 693.058 1248.93 693.891C1266.16 694.378 1281.18 702.68 1290.54 715.104L1291.53 716.421L1291.44 714.775C1290.05 690.485 1302.32 666.27 1325.57 652.803C1359.13 633.364 1402.77 643.692 1423.03 675.844L1423.29 676.249L1423.7 676.011C1447.23 662.548 1477 668.028 1493.89 687.691L1494.33 688.203L1494.7 687.632C1510.51 662.675 1536.65 643.814 1568.84 637.412C1628.42 625.563 1686.76 660.718 1702 716.468L1702.98 716.272C1701.43 704.415 1708.58 692.681 1720.85 688.501C1732.56 684.507 1745.22 688.69 1752.09 697.923L1752.95 697.41C1740.09 670.434 1749.9 637.882 1776.96 621.961C1796.87 610.244 1820.96 610.593 1839.98 620.841L1840.62 620.103C1820.93 593.603 1819.03 557.187 1838.77 528.348ZM54.0107 907.751C54.8753 919.092 56.0497 930.867 57.5391 942.467C54.9504 958.819 52.6028 973.763 50.5557 985.529C48.8599 995.274 47.3739 1002.8 46.1279 1007.13C45.8168 1008.21 45.5247 1009.08 45.252 1009.72C44.9699 1010.39 44.7369 1010.76 44.5752 1010.9C44.5736 1010.9 44.5709 1010.9 44.5693 1010.9C44.4351 1010.74 44.2542 1010.35 44.0693 1009.6C43.0678 1005.52 42.6482 999.36 42.7637 991.659C42.879 983.967 43.5263 974.77 44.6406 964.633C46.5305 947.441 49.7622 927.56 54.0107 907.751ZM78.625 829.008C72.9928 850.983 67.6797 880.292 62.9326 908.961C61.2455 919.151 59.6339 929.258 58.1006 938.927C56.6733 927.301 55.5616 915.558 54.7588 904.313C55.2887 901.91 55.8328 899.511 56.3916 897.12C61.8204 873.893 68.579 851.476 76.1309 834.388C76.9527 832.529 77.7859 830.734 78.625 829.008ZM84.5264 809.3C82.9426 813.655 81.3771 818.744 79.8379 824.407C78.2672 827.368 76.7246 830.572 75.2168 833.984C67.6296 851.151 60.8538 873.635 55.418 896.893C55.1131 898.197 54.813 899.504 54.5166 900.813C53.9944 892.938 53.6257 885.343 53.4111 878.245C52.8214 858.736 53.3903 843.042 55.0566 835.596C56.3095 829.998 58.4086 824.785 61.1992 820.052C62.8347 819.247 64.4801 818.441 66.1328 817.639C72.1889 814.7 78.3522 811.822 84.5264 809.3ZM91.6074 795.394C90.203 796.993 88.8272 799.275 87.4775 802.119C86.6458 803.871 85.8217 805.848 85 808.025C78.5052 810.642 72.0326 813.665 65.6963 816.74C64.5182 817.311 63.3454 817.885 62.1777 818.458C69.013 807.732 79.4726 799.649 91.6074 795.394Z" fill="#700074" stroke="#700074"/>
<defs>
<linearGradient id="paint0_linear_129_3" x1="952" y1="1041.5" x2="903.628" y2="493.989" gradientUnits="userSpaceOnUse">
<stop stop-color="white"/>
<stop offset="0.186704" stop-color="#700074"/>
<stop offset="1" stop-color="white"/>
</linearGradient>
<linearGradient id="paint1_linear_129_3" x1="936" y1="1165" x2="904.004" y2="585.5" gradientUnits="userSpaceOnUse">
<stop stop-color="white"/>
<stop offset="0.183973" stop-color="#700074"/>
<stop offset="0.620203" stop-color="#700074"/>
<stop offset="1" stop-color="white"/>
</linearGradient>
</defs>
</svg>
