<svg width="1920" height="659" viewBox="0 0 1920 659" fill="none" xmlns="http://www.w3.org/2000/svg">
<path opacity="0.72" d="M1826.37 14.7991C1827.26 14.7991 1827.98 15.5221 1827.98 16.4141C1827.98 17.3051 1827.26 18.0281 1826.37 18.0281C1825.48 18.0281 1824.76 17.3051 1824.76 16.4141C1824.76 15.5221 1825.48 14.7991 1826.37 14.7991Z" fill="#E3E3E3"/>
<path opacity="0.7" d="M1910.15 77.366C1911.03 77.366 1911.74 78.081 1911.74 78.963C1911.74 79.845 1911.03 80.56 1910.15 80.56C1909.27 80.56 1908.55 79.845 1908.55 78.963C1908.55 78.081 1909.27 77.366 1910.15 77.366Z" fill="#E3E3E3"/>
<path opacity="0.67" d="M1871.43 496.287C1872.3 496.287 1873 496.986 1873 497.85C1873 498.713 1872.3 499.413 1871.43 499.413C1870.57 499.413 1869.87 498.713 1869.87 497.85C1869.87 496.986 1870.57 496.287 1871.43 496.287Z" fill="#E3E3E3"/>
<path opacity="0.71" d="M1817.97 191.525C1818.86 191.525 1819.59 192.248 1819.59 193.139C1819.59 194.031 1818.86 194.754 1817.97 194.754C1817.08 194.754 1816.36 194.031 1816.36 193.139C1816.36 192.248 1817.08 191.525 1817.97 191.525Z" fill="#E3E3E3"/>
<path opacity="0.76" d="M1870.61 257.2C1871.53 257.2 1872.28 257.946 1872.28 258.866C1872.28 259.786 1871.53 260.532 1870.61 260.532C1869.69 260.532 1868.95 259.786 1868.95 258.866C1868.95 257.946 1869.69 257.2 1870.61 257.2Z" fill="#E3E3E3"/>
<path opacity="0.83" d="M1834.32 3.23999C1835.29 3.23999 1836.07 4.02499 1836.07 4.99199C1836.07 5.95899 1835.29 6.74399 1834.32 6.74399C1833.35 6.74399 1832.57 5.95899 1832.57 4.99199C1832.57 4.02499 1833.35 3.23999 1834.32 3.23999Z" fill="#E3E3E3"/>
<path opacity="0.79" d="M1854.28 141.633C1855.23 141.633 1856 142.402 1856 143.351C1856 144.299 1855.23 145.068 1854.28 145.068C1853.33 145.068 1852.56 144.299 1852.56 143.351C1852.56 142.402 1853.33 141.633 1854.28 141.633Z" fill="#E3E3E3"/>
<path opacity="0.41" d="M1634.82 481.379C1635.48 481.379 1636.01 481.91 1636.01 482.564C1636.01 483.219 1635.48 483.749 1634.82 483.749C1634.17 483.749 1633.64 483.218 1633.64 482.564C1633.64 481.91 1634.17 481.379 1634.82 481.379Z" fill="#E3E3E3"/>
<path opacity="0.43" d="M1537.84 281.141C1538.51 281.141 1539.06 281.687 1539.06 282.36C1539.06 283.034 1538.51 283.579 1537.84 283.579C1537.16 283.579 1536.62 283.033 1536.62 282.36C1536.62 281.688 1537.16 281.141 1537.84 281.141Z" fill="#E3E3E3"/>
<path opacity="0.41" d="M1556.83 478.683C1557.49 478.683 1558.02 479.214 1558.02 479.868C1558.02 480.522 1557.49 481.053 1556.83 481.053C1556.18 481.053 1555.65 480.522 1555.65 479.868C1555.65 479.213 1556.18 478.683 1556.83 478.683Z" fill="#E3E3E3"/>
<path opacity="0.35" d="M1377.45 343.554C1378.04 343.554 1378.53 344.038 1378.53 344.636C1378.53 345.233 1378.04 345.718 1377.45 345.718C1376.85 345.718 1376.36 345.233 1376.36 344.636C1376.36 344.038 1376.85 343.554 1377.45 343.554Z" fill="#E3E3E3"/>
<path opacity="0.37" d="M1266.05 176.669C1266.67 176.669 1267.17 177.169 1267.17 177.785C1267.17 178.401 1266.67 178.901 1266.05 178.901C1265.44 178.901 1264.94 178.401 1264.94 177.785C1264.94 177.169 1265.44 176.669 1266.05 176.669Z" fill="#E3E3E3"/>
<path opacity="0.36" d="M1336.29 490.567C1336.9 490.567 1337.39 490.075 1337.39 489.468C1337.39 488.861 1336.9 488.369 1336.29 488.369C1335.69 488.369 1335.2 488.861 1335.2 489.468C1335.2 490.075 1335.69 490.567 1336.29 490.567Z" fill="#E3E3E3"/>
<path opacity="0.38" d="M1379.45 540.923C1380.08 540.923 1380.59 541.43 1380.59 542.056C1380.59 542.682 1380.08 543.19 1379.45 543.19C1378.83 543.19 1378.32 542.683 1378.32 542.056C1378.32 541.431 1378.83 540.923 1379.45 540.923Z" fill="#E3E3E3"/>
<path opacity="0.45" d="M1329.7 119.701C1330.39 119.701 1330.95 119.14 1330.95 118.447C1330.95 117.755 1330.39 117.193 1329.7 117.193C1329.01 117.193 1328.45 117.755 1328.45 118.447C1328.45 119.14 1329.01 119.701 1329.7 119.701Z" fill="#E3E3E3"/>
<path opacity="0.4" d="M1396.56 498.21C1397.21 498.21 1397.73 498.733 1397.73 499.378C1397.73 500.023 1397.21 500.546 1396.56 500.546C1395.92 500.546 1395.39 500.023 1395.39 499.378C1395.39 498.733 1395.92 498.21 1396.56 498.21Z" fill="#E3E3E3"/>
<path opacity="0.38" d="M1381.19 639.041C1381.82 639.041 1382.32 639.549 1382.32 640.175C1382.32 640.801 1381.82 641.309 1381.19 641.309C1380.56 641.309 1380.06 640.801 1380.06 640.175C1380.06 639.549 1380.56 639.041 1381.19 639.041Z" fill="#E3E3E3"/>
<path opacity="0.34" d="M1323.6 642.201C1324.19 642.201 1324.67 642.678 1324.67 643.266C1324.67 643.854 1324.19 644.331 1323.6 644.331C1323.02 644.331 1322.54 643.854 1322.54 643.266C1322.54 642.678 1323.02 642.201 1323.6 642.201Z" fill="#E3E3E3"/>
<path opacity="0.36" d="M1287 223.075C1287.6 223.075 1288.09 223.559 1288.09 224.157C1288.09 224.755 1287.6 225.239 1287 225.239C1286.41 225.239 1285.92 224.755 1285.92 224.157C1285.92 223.559 1286.41 223.075 1287 223.075Z" fill="#E3E3E3"/>
<path opacity="0.37" d="M1185.18 206.81C1185.79 206.81 1186.29 207.31 1186.29 207.926C1186.29 208.543 1185.79 209.042 1185.18 209.042C1184.56 209.042 1184.06 208.543 1184.06 207.926C1184.06 207.31 1184.56 206.81 1185.18 206.81Z" fill="#E3E3E3"/>
<path opacity="0.37" d="M1270.16 456.665C1270.77 456.665 1271.27 457.165 1271.27 457.781C1271.27 458.398 1270.77 458.897 1270.16 458.897C1269.54 458.897 1269.04 458.398 1269.04 457.781C1269.04 457.165 1269.54 456.665 1270.16 456.665Z" fill="#E3E3E3"/>
<path opacity="0.39" d="M1322.74 498.811C1323.38 498.811 1323.89 499.326 1323.89 499.962C1323.89 500.597 1323.38 501.112 1322.74 501.112C1322.11 501.112 1321.59 500.597 1321.59 499.962C1321.59 499.326 1322.11 498.811 1322.74 498.811Z" fill="#E3E3E3"/>
<path opacity="0.39" d="M1355.84 529.742C1356.48 529.742 1356.99 530.258 1356.99 530.893C1356.99 531.528 1356.48 532.044 1355.84 532.044C1355.2 532.044 1354.69 531.528 1354.69 530.893C1354.69 530.258 1355.2 529.742 1355.84 529.742Z" fill="#E3E3E3"/>
<path opacity="0.36" d="M1267.82 648.624C1268.43 648.624 1268.92 649.116 1268.92 649.723C1268.92 650.33 1268.43 650.822 1267.82 650.822C1267.21 650.822 1266.72 650.33 1266.72 649.723C1266.72 649.117 1267.21 648.624 1267.82 648.624Z" fill="#E3E3E3"/>
<path opacity="0.34" d="M1265.97 655.597C1266.55 655.597 1267.03 656.074 1267.03 656.662C1267.03 657.251 1266.55 657.727 1265.97 657.727C1265.38 657.727 1264.9 657.25 1264.9 656.662C1264.9 656.074 1265.38 655.597 1265.97 655.597Z" fill="#E3E3E3"/>
<path opacity="0.34" d="M1292.79 455.136C1293.38 455.136 1293.86 455.613 1293.86 456.201C1293.86 456.789 1293.38 457.265 1292.79 457.265C1292.2 457.265 1291.73 456.788 1291.73 456.201C1291.73 455.613 1292.2 455.136 1292.79 455.136Z" fill="#E3E3E3"/>
<path opacity="0.35" d="M1240.75 188.279C1241.35 188.279 1241.84 188.763 1241.84 189.361C1241.84 189.959 1241.35 190.443 1240.75 190.443C1240.16 190.443 1239.67 189.959 1239.67 189.361C1239.67 188.763 1240.16 188.279 1240.75 188.279Z" fill="#E3E3E3"/>
<path opacity="0.37" d="M1110.33 97.5632C1110.94 97.5632 1111.43 98.0552 1111.43 98.6622C1111.43 99.2692 1110.94 99.7612 1110.33 99.7612C1109.72 99.7612 1109.23 99.2692 1109.23 98.6622C1109.23 98.0552 1109.72 97.5632 1110.33 97.5632Z" fill="#E3E3E3"/>
<path opacity="0.36" d="M1175.03 245.023C1175.63 245.023 1176.13 245.515 1176.13 246.122C1176.13 246.73 1175.63 247.221 1175.03 247.221C1174.42 247.221 1173.93 246.729 1173.93 246.122C1173.93 245.515 1174.42 245.023 1175.03 245.023Z" fill="#E3E3E3"/>
<path opacity="0.36" d="M1219.46 415.206C1220.06 415.206 1220.56 415.698 1220.56 416.305C1220.56 416.912 1220.06 417.404 1219.46 417.404C1218.85 417.404 1218.36 416.912 1218.36 416.305C1218.36 415.698 1218.85 415.206 1219.46 415.206Z" fill="#E3E3E3"/>
<path opacity="0.36" d="M1239.12 541.026C1239.73 541.026 1240.22 541.518 1240.22 542.125C1240.22 542.732 1239.73 543.224 1239.12 543.224C1238.51 543.224 1238.02 542.732 1238.02 542.125C1238.02 541.519 1238.51 541.026 1239.12 541.026Z" fill="#E3E3E3"/>
<path opacity="0.36" d="M1252.95 597.771C1253.55 597.771 1254.05 598.263 1254.05 598.87C1254.05 599.477 1253.55 599.969 1252.95 599.969C1252.34 599.969 1251.85 599.477 1251.85 598.87C1251.85 598.263 1252.34 597.771 1252.95 597.771Z" fill="#E3E3E3"/>
<path opacity="0.41" d="M1376.45 615.77C1377.1 615.77 1377.63 616.301 1377.63 616.955C1377.63 617.609 1377.1 618.14 1376.45 618.14C1375.79 618.14 1375.26 617.609 1375.26 616.955C1375.26 616.3 1375.79 615.77 1376.45 615.77Z" fill="#E3E3E3"/>
<path opacity="0.48" d="M1359.57 109.07C1360.28 109.07 1360.85 109.647 1360.85 110.359C1360.85 111.07 1360.28 111.647 1359.57 111.647C1358.85 111.647 1358.28 111.071 1358.28 110.359C1358.28 109.647 1358.85 109.07 1359.57 109.07Z" fill="#E3E3E3"/>
<path opacity="0.47" d="M1448.22 239.768C1448.92 239.768 1449.49 240.337 1449.49 241.039C1449.49 241.741 1448.92 242.31 1448.22 242.31C1447.52 242.31 1446.95 241.741 1446.95 241.039C1446.95 240.337 1447.52 239.768 1448.22 239.768Z" fill="#E3E3E3"/>
<path opacity="0.43" d="M1512.83 497.678C1513.51 497.678 1514.05 498.224 1514.05 498.897C1514.05 499.571 1513.51 500.116 1512.83 500.116C1512.16 500.116 1511.61 499.57 1511.61 498.897C1511.61 498.224 1512.16 497.678 1512.83 497.678Z" fill="#E3E3E3"/>
<path opacity="0.42" d="M1452.46 605.825C1453.13 605.825 1453.67 606.364 1453.67 607.027C1453.67 607.691 1453.13 608.23 1452.46 608.23C1451.8 608.23 1451.26 607.692 1451.26 607.027C1451.26 606.364 1451.8 605.825 1452.46 605.825Z" fill="#E3E3E3"/>
<path opacity="0.45" d="M1447.41 420.787C1448.1 420.787 1448.65 421.341 1448.65 422.024C1448.65 422.707 1448.1 423.261 1447.41 423.261C1446.73 423.261 1446.18 422.707 1446.18 422.024C1446.18 421.341 1446.73 420.787 1447.41 420.787Z" fill="#E3E3E3"/>
<path opacity="0.46" d="M1419.95 267.591C1420.65 267.591 1421.22 268.16 1421.22 268.862C1421.22 269.564 1420.65 270.133 1419.95 270.133C1419.25 270.133 1418.68 269.564 1418.68 268.862C1418.68 268.16 1419.25 267.591 1419.95 267.591Z" fill="#E3E3E3"/>
<path opacity="0.49" d="M1559.07 27.405C1559.79 27.405 1560.37 27.9891 1560.37 28.7101C1560.37 29.4311 1559.79 30.015 1559.07 30.015C1558.34 30.015 1557.76 29.4311 1557.76 28.7101C1557.76 27.9891 1558.34 27.405 1559.07 27.405Z" fill="#E3E3E3"/>
<path opacity="0.48" d="M1657.01 137.202C1657.72 137.202 1658.3 137.779 1658.3 138.49C1658.3 139.201 1657.72 139.778 1657.01 139.778C1656.3 139.778 1655.72 139.201 1655.72 138.49C1655.72 137.779 1656.3 137.202 1657.01 137.202Z" fill="#E3E3E3"/>
<path opacity="0.51" d="M1580.16 196.368C1580.89 196.368 1581.48 196.96 1581.48 197.69C1581.48 198.42 1580.89 199.013 1580.16 199.013C1579.43 199.013 1578.83 198.421 1578.83 197.69C1578.83 196.96 1579.42 196.368 1580.16 196.368Z" fill="#E3E3E3"/>
<path opacity="0.53" d="M1492.12 42.158C1492.87 42.158 1493.48 42.766 1493.48 43.515C1493.48 44.265 1492.87 44.8719 1492.12 44.8719C1491.37 44.8719 1490.76 44.265 1490.76 43.515C1490.76 42.766 1491.37 42.158 1492.12 42.158Z" fill="#E3E3E3"/>
<path opacity="0.49" d="M1726.09 378.538C1726.81 378.538 1727.39 379.122 1727.39 379.843C1727.39 380.564 1726.81 381.148 1726.09 381.148C1725.37 381.148 1724.78 380.564 1724.78 379.843C1724.78 379.122 1725.37 378.538 1726.09 378.538Z" fill="#E3E3E3"/>
<path opacity="0.51" d="M1761.04 75.2712C1761.78 75.2712 1762.38 75.8712 1762.38 76.6112C1762.38 77.3512 1761.78 77.9512 1761.04 77.9512C1760.3 77.9512 1759.7 77.3512 1759.7 76.6112C1759.7 75.8702 1760.3 75.2712 1761.04 75.2712Z" fill="#E3E3E3"/>
<path opacity="0.42" d="M270.823 173.852C271.487 173.852 272.025 174.39 272.025 175.054C272.025 175.718 271.487 176.257 270.823 176.257C270.159 176.257 269.621 175.719 269.621 175.054C269.62 174.391 270.159 173.852 270.823 173.852Z" fill="#E3E3E3"/>
<path opacity="0.39" d="M625.151 94.678C625.777 94.678 626.285 95.186 626.285 95.812C626.285 96.438 625.778 96.946 625.151 96.946C624.525 96.946 624.018 96.438 624.018 95.812C624.018 95.186 624.525 94.678 625.151 94.678Z" fill="#E3E3E3"/>
<path opacity="0.35" d="M926.357 225.084C926.954 225.084 927.439 225.568 927.439 226.166C927.439 226.763 926.955 227.248 926.357 227.248C925.759 227.248 925.275 226.764 925.275 226.166C925.275 225.568 925.759 225.084 926.357 225.084Z" fill="#E3E3E3"/>
<path opacity="0.32" d="M1048.78 428.739C1049.35 428.739 1049.81 429.2 1049.81 429.77C1049.81 430.339 1049.35 430.8 1048.78 430.8C1048.21 430.8 1047.75 430.339 1047.75 429.77C1047.75 429.2 1048.21 428.739 1048.78 428.739Z" fill="#E3E3E3"/>
<path opacity="0.32" d="M1078.63 476.673C1079.19 476.673 1079.64 477.127 1079.64 477.686C1079.64 478.246 1079.19 478.699 1078.63 478.699C1078.07 478.699 1077.61 478.245 1077.61 477.686C1077.61 477.127 1078.07 476.673 1078.63 476.673Z" fill="#E3E3E3"/>
<path opacity="0.3" d="M1081.29 576.938C1081.84 576.938 1082.28 576.492 1082.28 575.942C1082.28 575.392 1081.84 574.946 1081.29 574.946C1080.74 574.946 1080.29 575.392 1080.29 575.942C1080.29 576.492 1080.74 576.938 1081.29 576.938Z" fill="#E3E3E3"/>
<path opacity="0.31" d="M1121.8 521.585C1122.35 521.585 1122.8 521.139 1122.8 520.589C1122.8 520.039 1122.35 519.593 1121.8 519.593C1121.25 519.593 1120.81 520.039 1120.81 520.589C1120.81 521.139 1121.25 521.585 1121.8 521.585Z" fill="#E3E3E3"/>
<path opacity="0.31" d="M1156.22 438.512C1156.78 438.512 1157.23 438.966 1157.23 439.525C1157.23 440.085 1156.78 440.538 1156.22 440.538C1155.66 440.538 1155.21 440.084 1155.21 439.525C1155.21 438.965 1155.66 438.512 1156.22 438.512Z" fill="#E3E3E3"/>
<path opacity="0.35" d="M975.629 83.875C976.218 83.875 976.694 84.352 976.694 84.94C976.694 85.528 976.217 86.005 975.629 86.005C975.041 86.005 974.564 85.528 974.564 84.94C974.564 84.352 975.041 83.875 975.629 83.875Z" fill="#E3E3E3"/>
<path opacity="0.46" d="M1.59521 425.716C2.29721 425.716 2.86621 426.285 2.86621 426.987C2.86621 427.689 2.29721 428.258 1.59521 428.258C0.893215 428.258 0.324219 427.689 0.324219 426.987C0.324219 426.286 0.893215 425.716 1.59521 425.716Z" fill="#E3E3E3"/>
<path opacity="0.86" d="M1850.23 489.949C1851.21 489.949 1852.01 489.15 1852.01 488.163C1852.01 487.177 1851.21 486.377 1850.23 486.377C1849.24 486.377 1848.44 487.177 1848.44 488.163C1848.44 489.15 1849.24 489.949 1850.23 489.949Z" fill="#E3E3E3"/>
<path opacity="0.38" d="M297.821 556.878C298.437 556.878 298.937 557.378 298.937 557.994C298.937 558.61 298.437 559.11 297.821 559.11C297.205 559.11 296.705 558.61 296.705 557.994C296.705 557.378 297.205 556.878 297.821 556.878Z" fill="#E3E3E3"/>
<path opacity="0.36" d="M358.173 499.326C358.78 499.326 359.273 499.818 359.273 500.425C359.273 501.033 358.781 501.524 358.173 501.524C357.566 501.524 357.074 501.032 357.074 500.425C357.074 499.819 357.566 499.326 358.173 499.326Z" fill="#E3E3E3"/>
<path opacity="0.36" d="M390.1 491.323C390.697 491.323 391.182 491.807 391.182 492.405C391.182 493.002 390.698 493.487 390.1 493.487C389.502 493.487 389.018 493.003 389.018 492.405C389.018 491.807 389.502 491.323 390.1 491.323Z" fill="#E3E3E3"/>
<path opacity="0.36" d="M391.732 523.302C392.339 523.302 392.831 523.794 392.831 524.401C392.831 525.008 392.339 525.501 391.732 525.501C391.125 525.501 390.633 525.009 390.633 524.401C390.633 523.794 391.125 523.302 391.732 523.302Z" fill="#E3E3E3"/>
<path opacity="0.36" d="M382.525 580.012C383.132 580.012 383.624 579.52 383.624 578.913C383.624 578.306 383.132 577.814 382.525 577.814C381.918 577.814 381.426 578.306 381.426 578.913C381.426 579.52 381.918 580.012 382.525 580.012Z" fill="#E3E3E3"/>
<path opacity="0.41" d="M113.384 623.704C114.038 623.704 114.569 624.235 114.569 624.889C114.569 625.543 114.038 626.074 113.384 626.074C112.729 626.074 112.199 625.543 112.199 624.889C112.198 624.235 112.729 623.704 113.384 623.704Z" fill="#E3E3E3"/>
<path opacity="0.4" d="M146.771 539.532C147.416 539.532 147.94 540.055 147.94 540.7C147.94 541.345 147.416 541.868 146.771 541.868C146.126 541.868 145.604 541.345 145.604 540.7C145.604 540.055 146.126 539.532 146.771 539.532Z" fill="#E3E3E3"/>
<path opacity="0.4" d="M187.525 505.475C188.161 505.475 188.676 505.99 188.676 506.626C188.676 507.261 188.161 507.776 187.525 507.776C186.89 507.776 186.375 507.261 186.375 506.626C186.375 505.99 186.89 505.475 187.525 505.475Z" fill="#E3E3E3"/>
<path opacity="0.4" d="M211.828 561.962C212.473 561.962 212.996 562.485 212.996 563.13C212.996 563.775 212.473 564.298 211.828 564.298C211.183 564.298 210.66 563.775 210.66 563.13C210.66 562.485 211.183 561.962 211.828 561.962Z" fill="#E3E3E3"/>
<path opacity="0.4" d="M258.612 581.249C259.247 581.249 259.763 581.764 259.763 582.399C259.763 583.035 259.247 583.55 258.612 583.55C257.977 583.55 257.461 583.035 257.461 582.399C257.461 581.764 257.976 581.249 258.612 581.249Z" fill="#E3E3E3"/>
<path opacity="0.93" d="M1815.74 598.32C1816.77 598.32 1817.61 599.158 1817.61 600.192C1817.61 601.226 1816.77 602.064 1815.74 602.064C1814.7 602.064 1813.87 601.226 1813.87 600.192C1813.87 599.158 1814.7 598.32 1815.74 598.32Z" fill="#E3E3E3"/>
<path opacity="0.95" d="M1777.56 593.477C1778.6 593.477 1779.45 592.631 1779.45 591.588C1779.45 590.545 1778.6 589.699 1777.56 589.699C1776.52 589.699 1775.67 590.545 1775.67 591.588C1775.67 592.631 1776.52 593.477 1777.56 593.477Z" fill="#E3E3E3"/>
<path d="M1900.22 530.464C1901.3 530.464 1902.18 531.34 1902.18 532.422C1902.18 533.504 1901.3 534.38 1900.22 534.38C1899.14 534.38 1898.26 533.503 1898.26 532.422C1898.26 531.341 1899.14 530.464 1900.22 530.464Z" fill="#E3E3E3"/>
<path opacity="0.44" d="M217.959 627.414C218.633 627.414 219.178 627.96 219.178 628.633C219.178 629.306 218.632 629.852 217.959 629.852C217.286 629.852 216.74 629.306 216.74 628.633C216.74 627.96 217.286 627.414 217.959 627.414Z" fill="#E3E3E3"/>
<path opacity="0.4" d="M451.859 542.4C452.504 542.4 453.027 542.923 453.027 543.568C453.027 544.213 452.504 544.736 451.859 544.736C451.214 544.736 450.691 544.213 450.691 543.568C450.691 542.923 451.214 542.4 451.859 542.4Z" fill="#E3E3E3"/>
<path opacity="0.4" d="M506.801 582.52C507.446 582.52 507.969 583.043 507.969 583.688C507.969 584.333 507.446 584.856 506.801 584.856C506.156 584.856 505.633 584.333 505.633 583.688C505.634 583.043 506.156 582.52 506.801 582.52Z" fill="#E3E3E3"/>
<path opacity="0.39" d="M564.763 625.147C565.399 625.147 565.914 625.663 565.914 626.298C565.914 626.933 565.399 627.449 564.763 627.449C564.128 627.449 563.613 626.933 563.613 626.298C563.613 625.662 564.128 625.147 564.763 625.147Z" fill="#E3E3E3"/>
<path opacity="0.38" d="M588.431 635.348C589.057 635.348 589.565 635.856 589.565 636.482C589.565 637.108 589.057 637.616 588.431 637.616C587.805 637.616 587.297 637.109 587.297 636.482C587.297 635.856 587.805 635.348 588.431 635.348Z" fill="#E3E3E3"/>
<path opacity="0.55" d="M1233.18 645.877C1233.95 645.877 1234.57 646.499 1234.57 647.268C1234.57 648.036 1233.95 648.659 1233.18 648.659C1232.41 648.659 1231.79 648.036 1231.79 647.268C1231.79 646.499 1232.41 645.877 1233.18 645.877Z" fill="#E3E3E3"/>
<path opacity="0.53" d="M1412.57 603.249C1413.32 603.249 1413.92 603.856 1413.92 604.606C1413.92 605.355 1413.32 605.963 1412.57 605.963C1411.82 605.963 1411.21 605.356 1411.21 604.606C1411.21 603.857 1411.82 603.249 1412.57 603.249Z" fill="#E3E3E3"/>
<path opacity="0.56" d="M1403.86 446.704C1404.64 446.704 1405.27 447.335 1405.27 448.112C1405.27 448.89 1404.64 449.521 1403.86 449.521C1403.08 449.521 1402.45 448.89 1402.45 448.112C1402.45 447.335 1403.08 446.704 1403.86 446.704Z" fill="#E3E3E3"/>
<path opacity="0.58" d="M1367.19 434.269C1367.98 434.269 1368.62 434.907 1368.62 435.694C1368.62 436.481 1367.98 437.119 1367.19 437.119C1366.41 437.119 1365.77 436.481 1365.77 435.694C1365.77 434.907 1366.4 434.269 1367.19 434.269Z" fill="#E3E3E3"/>
<path opacity="0.59" d="M1332.79 434.905C1333.59 434.905 1334.23 435.551 1334.23 436.348C1334.23 437.145 1333.59 437.791 1332.79 437.791C1331.99 437.791 1331.35 437.145 1331.35 436.348C1331.35 435.551 1331.99 434.905 1332.79 434.905Z" fill="#E3E3E3"/>
<path opacity="0.58" d="M1301.28 491.495C1302.07 491.495 1302.72 492.141 1302.72 492.938C1302.72 493.735 1302.07 494.381 1301.28 494.381C1300.48 494.381 1299.83 493.735 1299.83 492.938C1299.83 492.141 1300.48 491.495 1301.28 491.495Z" fill="#E3E3E3"/>
<path opacity="0.57" d="M1273.21 569.33C1273.99 569.33 1274.62 569.96 1274.62 570.738C1274.62 571.516 1273.99 572.147 1273.21 572.147C1272.44 572.147 1271.8 571.516 1271.8 570.738C1271.8 569.96 1272.44 569.33 1273.21 569.33Z" fill="#E3E3E3"/>
<path opacity="0.65" d="M1212.31 228.226C1213.16 228.226 1213.84 227.542 1213.84 226.698C1213.84 225.854 1213.16 225.17 1212.31 225.17C1211.47 225.17 1210.78 225.854 1210.78 226.698C1210.78 227.542 1211.47 228.226 1212.31 228.226Z" fill="#E3E3E3"/>
<path opacity="0.63" d="M1244.43 250.622C1245.25 250.622 1245.92 251.291 1245.92 252.116C1245.92 252.941 1245.25 253.61 1244.43 253.61C1243.6 253.61 1242.94 252.941 1242.94 252.116C1242.93 251.291 1243.6 250.622 1244.43 250.622Z" fill="#E3E3E3"/>
<path opacity="0.61" d="M1284.56 280.712C1285.38 280.712 1286.04 281.373 1286.04 282.189C1286.04 283.005 1285.38 283.666 1284.56 283.666C1283.75 283.666 1283.09 283.005 1283.09 282.189C1283.09 281.374 1283.75 280.712 1284.56 280.712Z" fill="#E3E3E3"/>
<path opacity="0.59" d="M1326.52 293.026C1327.33 293.026 1327.98 292.373 1327.98 291.566C1327.98 290.76 1327.33 290.106 1326.52 290.106C1325.72 290.106 1325.06 290.76 1325.06 291.566C1325.06 292.373 1325.72 293.026 1326.52 293.026Z" fill="#E3E3E3"/>
<path opacity="0.58" d="M1363.09 272.623C1363.88 272.623 1364.53 273.269 1364.53 274.066C1364.53 274.863 1363.88 275.509 1363.09 275.509C1362.29 275.509 1361.64 274.863 1361.64 274.066C1361.64 273.269 1362.29 272.623 1363.09 272.623Z" fill="#E3E3E3"/>
<path opacity="0.6" d="M1354.02 167.446C1354.82 167.446 1355.48 166.792 1355.48 165.986C1355.48 165.18 1354.82 164.526 1354.02 164.526C1353.21 164.526 1352.56 165.18 1352.56 165.986C1352.56 166.792 1353.21 167.446 1354.02 167.446Z" fill="#E3E3E3"/>
<path opacity="0.62" d="M1302.65 29.6721C1303.47 29.6721 1304.14 30.3411 1304.14 31.1661C1304.14 31.9911 1303.47 32.6611 1302.65 32.6611C1301.82 32.6611 1301.15 31.9921 1301.15 31.1661C1301.16 30.3411 1301.82 29.6721 1302.65 29.6721Z" fill="#E3E3E3"/>
<path opacity="0.69" d="M1165.49 37.384C1166.37 37.384 1167.07 38.0921 1167.07 38.9641C1167.07 39.8361 1166.37 40.544 1165.49 40.544C1164.62 40.544 1163.91 39.8361 1163.91 38.9641C1163.91 38.0921 1164.62 37.384 1165.49 37.384Z" fill="#E3E3E3"/>
<path opacity="0.68" d="M1185.43 122.741C1186.31 122.741 1187.01 123.449 1187.01 124.321C1187.01 125.193 1186.31 125.901 1185.43 125.901C1184.56 125.901 1183.85 125.193 1183.85 124.321C1183.85 123.449 1184.56 122.741 1185.43 122.741Z" fill="#E3E3E3"/>
<path opacity="0.67" d="M1197.25 168.254C1198.1 168.254 1198.8 168.946 1198.8 169.8C1198.8 170.654 1198.1 171.346 1197.25 171.346C1196.4 171.346 1195.7 170.654 1195.7 169.8C1195.7 168.945 1196.4 168.254 1197.25 168.254Z" fill="#E3E3E3"/>
<path opacity="0.76" d="M1706.9 185.445C1707.82 185.445 1708.57 184.699 1708.57 183.779C1708.57 182.859 1707.82 182.113 1706.9 182.113C1705.98 182.113 1705.24 182.859 1705.24 183.779C1705.24 184.699 1705.98 185.445 1706.9 185.445Z" fill="#E3E3E3"/>
<path opacity="0.79" d="M1643.7 89.4392C1644.64 89.4392 1645.4 90.2002 1645.4 91.1402C1645.4 92.0792 1644.64 92.8402 1643.7 92.8402C1642.76 92.8402 1642 92.0782 1642 91.1402C1642 90.2002 1642.76 89.4392 1643.7 89.4392Z" fill="#E3E3E3"/>
<path d="M217.374 225.599C218.636 225.599 219.658 226.622 219.658 227.884C219.658 229.145 218.635 230.168 217.374 230.168C216.113 230.168 215.09 229.145 215.09 227.884C215.09 226.622 216.113 225.599 217.374 225.599Z" fill="#E3E3E3"/>
<path d="M176.896 128.786C178.148 128.786 179.163 129.801 179.163 131.053C179.163 132.305 178.148 133.32 176.896 133.32C175.644 133.32 174.629 132.305 174.629 131.053C174.629 129.801 175.644 128.786 176.896 128.786Z" fill="#E3E3E3"/>
<path d="M149.879 2.64014C151.122 2.64014 152.129 3.64714 152.129 4.89014C152.129 6.13214 151.122 7.13913 149.879 7.13913C148.637 7.13913 147.629 6.13214 147.629 4.89014C147.629 3.64714 148.636 2.64014 149.879 2.64014Z" fill="#E3E3E3"/>
<path d="M35.2727 538.708C36.7527 538.708 37.9518 539.907 37.9518 541.387C37.9518 542.866 36.7527 544.066 35.2727 544.066C33.7937 544.066 32.5938 542.867 32.5938 541.387C32.5938 539.907 33.7937 538.708 35.2727 538.708Z" fill="#E3E3E3"/>
<path d="M148.541 406.893C149.916 406.893 151.032 408.008 151.032 409.383C151.032 410.758 149.917 411.874 148.541 411.874C147.166 411.874 146.051 410.759 146.051 409.383C146.051 408.007 147.166 406.893 148.541 406.893Z" fill="#E3E3E3"/>
<path d="M203.035 307.814C204.334 307.814 205.387 308.867 205.387 310.167C205.387 311.466 204.334 312.519 203.035 312.519C201.735 312.519 200.682 311.466 200.682 310.167C200.682 308.867 201.735 307.814 203.035 307.814Z" fill="#E3E3E3"/>
<path d="M178.132 526.153C179.479 526.153 180.571 527.245 180.571 528.592C180.571 529.939 179.479 531.031 178.132 531.031C176.785 531.031 175.693 529.939 175.693 528.592C175.693 527.245 176.785 526.153 178.132 526.153Z" fill="#E3E3E3"/>
<path d="M84.3257 465.012C85.6727 465.012 86.7647 466.104 86.7647 467.451C86.7647 468.798 85.6727 469.89 84.3257 469.89C82.9787 469.89 81.8867 468.798 81.8867 467.451C81.8867 466.104 82.9787 465.012 84.3257 465.012Z" fill="#E3E3E3"/>
<path d="M236.37 621.952C237.755 621.952 238.878 623.074 238.878 624.459C238.878 625.844 237.756 626.967 236.37 626.967C234.985 626.967 233.863 625.845 233.863 624.459C233.863 623.075 234.986 621.952 236.37 621.952Z" fill="#E3E3E3"/>
<path opacity="0.73" d="M9.58121 275.062C10.4822 275.062 11.2122 275.792 11.2122 276.693C11.2122 277.594 10.4822 278.324 9.58121 278.324C8.68021 278.324 7.94922 277.594 7.94922 276.693C7.94922 275.792 8.68021 275.062 9.58121 275.062Z" fill="#E3E3E3"/>
<path opacity="0.76" d="M47.5019 412.235C48.422 412.235 49.1679 411.489 49.1679 410.569C49.1679 409.649 48.422 408.903 47.5019 408.903C46.5818 408.903 45.8359 409.649 45.8359 410.569C45.8359 411.489 46.5818 412.235 47.5019 412.235Z" fill="#E3E3E3"/>
<path opacity="0.73" d="M93.6515 232.366C94.5525 232.366 95.2825 233.096 95.2825 233.998C95.2825 234.899 94.5525 235.629 93.6515 235.629C92.7505 235.629 92.0195 234.899 92.0195 233.998C92.0195 233.096 92.7495 232.366 93.6515 232.366Z" fill="#E3E3E3"/>
<path opacity="0.73" d="M127.776 256.994C128.677 256.994 129.408 257.724 129.408 258.626C129.408 259.527 128.677 260.257 127.776 260.257C126.875 260.257 126.145 259.527 126.145 258.626C126.145 257.724 126.875 256.994 127.776 256.994Z" fill="#E3E3E3"/>
<path opacity="0.73" d="M139.85 310.252C140.751 310.252 141.482 310.982 141.482 311.883C141.482 312.784 140.751 313.514 139.85 313.514C138.949 313.514 138.219 312.784 138.219 311.883C138.219 310.983 138.95 310.252 139.85 310.252Z" fill="#E3E3E3"/>
<path opacity="0.8" d="M57.5149 530.876C58.4629 530.876 59.2319 531.645 59.2319 532.594C59.2319 533.542 58.4629 534.311 57.5149 534.311C56.5659 534.311 55.7969 533.542 55.7969 532.594C55.7969 531.645 56.5659 530.876 57.5149 530.876Z" fill="#E3E3E3"/>
<path opacity="0.71" d="M168.514 132.153C169.406 132.153 170.129 132.876 170.129 133.767C170.129 134.658 169.406 135.382 168.514 135.382C167.623 135.382 166.9 134.659 166.9 133.767C166.9 132.876 167.622 132.153 168.514 132.153Z" fill="#E3E3E3"/>
<path opacity="0.68" d="M283.961 116.627C284.833 116.627 285.541 117.335 285.541 118.207C285.541 119.079 284.833 119.787 283.961 119.787C283.089 119.787 282.381 119.079 282.381 118.207C282.381 117.335 283.089 116.627 283.961 116.627Z" fill="#E3E3E3"/>
<path opacity="0.69" d="M264.554 193.929C265.437 193.929 266.151 194.645 266.151 195.526C266.151 196.408 265.436 197.124 264.554 197.124C263.672 197.124 262.957 196.408 262.957 195.526C262.957 194.645 263.672 193.929 264.554 193.929Z" fill="#E3E3E3"/>
<path opacity="0.73" d="M189.657 330.381C190.567 330.381 191.306 331.119 191.306 332.03C191.306 332.94 190.568 333.679 189.657 333.679C188.747 333.679 188.008 332.941 188.008 332.03C188.008 331.119 188.746 330.381 189.657 330.381Z" fill="#E3E3E3"/>
<path opacity="0.8" d="M118.759 520.898C119.717 520.898 120.494 521.675 120.494 522.632C120.494 523.59 119.717 524.367 118.759 524.367C117.801 524.367 117.025 523.59 117.025 522.632C117.025 521.674 117.802 520.898 118.759 520.898Z" fill="#E3E3E3"/>
<path opacity="0.72" d="M142.273 86.3142C143.174 86.3142 143.904 87.0452 143.904 87.9462C143.904 88.8472 143.173 89.5772 142.273 89.5772C141.371 89.5772 140.641 88.8472 140.641 87.9462C140.641 87.0442 141.371 86.3142 142.273 86.3142Z" fill="#E3E3E3"/>
<path opacity="0.69" d="M275.976 85.1462C276.858 85.1462 277.573 85.8612 277.573 86.7432C277.573 87.6252 276.858 88.3402 275.976 88.3402C275.093 88.3402 274.379 87.6252 274.379 86.7432C274.379 85.8612 275.094 85.1462 275.976 85.1462Z" fill="#E3E3E3"/>
<path opacity="0.66" d="M420.257 92.033C421.111 92.033 421.803 92.7249 421.803 93.5789C421.803 94.4329 421.111 95.1249 420.257 95.1249C419.403 95.1249 418.711 94.4329 418.711 93.5789C418.711 92.7249 419.403 92.033 420.257 92.033Z" fill="#E3E3E3"/>
<path opacity="0.7" d="M285.128 217.372C286.01 217.372 286.725 218.087 286.725 218.969C286.725 219.851 286.01 220.566 285.128 220.566C284.246 220.566 283.531 219.851 283.531 218.969C283.531 218.088 284.246 217.372 285.128 217.372Z" fill="#E3E3E3"/>
<path opacity="0.74" d="M222.665 348.173C223.575 348.173 224.314 348.911 224.314 349.822C224.314 350.732 223.576 351.471 222.665 351.471C221.754 351.471 221.016 350.733 221.016 349.822C221.017 348.912 221.754 348.173 222.665 348.173Z" fill="#E3E3E3"/>
<path opacity="0.82" d="M147.32 511.503C148.278 511.503 149.055 512.279 149.055 513.237C149.055 514.195 148.278 514.971 147.32 514.971C146.362 514.971 145.586 514.195 145.586 513.237C145.585 512.28 146.362 511.503 147.32 511.503Z" fill="#E3E3E3"/>
<path opacity="0.65" d="M497.046 42.931C497.889 42.931 498.574 42.2469 498.574 41.403C498.574 40.5591 497.889 39.875 497.046 39.875C496.202 39.875 495.518 40.5591 495.518 41.403C495.518 42.2469 496.202 42.931 497.046 42.931Z" fill="#E3E3E3"/>
<path opacity="0.66" d="M463.468 124.218C464.322 124.218 465.014 124.91 465.014 125.764C465.014 126.618 464.322 127.31 463.468 127.31C462.614 127.31 461.922 126.618 461.922 125.764C461.922 124.91 462.614 124.218 463.468 124.218Z" fill="#E3E3E3"/>
<path opacity="0.69" d="M368.701 234.049C369.573 234.049 370.281 234.757 370.281 235.629C370.281 236.501 369.574 237.209 368.701 237.209C367.828 237.209 367.121 236.501 367.121 235.629C367.121 234.757 367.828 234.049 368.701 234.049Z" fill="#E3E3E3"/>
<path opacity="0.76" d="M256.225 368.731C257.145 368.731 257.891 369.477 257.891 370.397C257.891 371.317 257.145 372.063 256.225 372.063C255.305 372.063 254.559 371.317 254.559 370.397C254.56 369.477 255.305 368.731 256.225 368.731Z" fill="#E3E3E3"/>
<path opacity="0.84" d="M137.996 501.044C138.973 501.044 139.765 501.836 139.765 502.813C139.765 503.79 138.973 504.582 137.996 504.582C137.019 504.582 136.227 503.79 136.227 502.813C136.227 501.836 137.019 501.044 137.996 501.044Z" fill="#E3E3E3"/>
<path opacity="0.87" d="M119.531 501.765C120.527 501.765 121.335 502.572 121.335 503.569C121.335 504.566 120.527 505.372 119.531 505.372C118.535 505.372 117.729 504.565 117.729 503.569C117.729 502.573 118.536 501.765 119.531 501.765Z" fill="#E3E3E3"/>
<path opacity="0.71" d="M259.625 2.96606C260.516 2.96606 261.239 3.68906 261.239 4.58006C261.239 5.47206 260.516 6.19505 259.625 6.19505C258.734 6.19505 258.01 5.47206 258.01 4.58006C258.01 3.68906 258.733 2.96606 259.625 2.96606Z" fill="#E3E3E3"/>
<path opacity="0.63" d="M616.185 14.3181C617.01 14.3181 617.679 14.9871 617.679 15.8121C617.679 16.6371 617.01 17.3061 616.185 17.3061C615.36 17.3061 614.691 16.6371 614.691 15.8121C614.691 14.9871 615.36 14.3181 616.185 14.3181Z" fill="#E3E3E3"/>
<path opacity="0.63" d="M591.23 100.809C592.055 100.809 592.724 101.478 592.724 102.303C592.724 103.129 592.055 103.798 591.23 103.798C590.405 103.798 589.736 103.129 589.736 102.303C589.736 101.478 590.405 100.809 591.23 100.809Z" fill="#E3E3E3"/>
<path opacity="0.65" d="M501.391 187.18C502.235 187.18 502.919 187.864 502.919 188.708C502.919 189.553 502.235 190.237 501.391 190.237C500.547 190.237 499.863 189.553 499.863 188.708C499.862 187.864 500.546 187.18 501.391 187.18Z" fill="#E3E3E3"/>
<path opacity="0.71" d="M384.381 283.031C385.272 283.031 385.995 283.754 385.995 284.645C385.995 285.537 385.272 286.26 384.381 286.26C383.489 286.26 382.766 285.537 382.766 284.645C382.766 283.753 383.489 283.031 384.381 283.031Z" fill="#E3E3E3"/>
<path opacity="0.78" d="M237.263 356.417C238.202 356.417 238.964 357.178 238.964 358.118C238.964 359.057 238.203 359.818 237.263 359.818C236.324 359.818 235.562 359.056 235.562 358.118C235.563 357.178 236.325 356.417 237.263 356.417Z" fill="#E3E3E3"/>
<path opacity="0.79" d="M264.175 320.866C265.123 320.866 265.893 321.635 265.893 322.584C265.893 323.532 265.123 324.301 264.175 324.301C263.226 324.301 262.457 323.532 262.457 322.584C262.457 321.635 263.226 320.866 264.175 320.866Z" fill="#E3E3E3"/>
<path opacity="0.92" d="M33.1089 526.307C34.1329 526.307 34.9639 527.138 34.9639 528.162C34.9639 529.186 34.1329 530.017 33.1089 530.017C32.0839 530.017 31.2539 529.186 31.2539 528.162C31.2539 527.138 32.0849 526.307 33.1089 526.307Z" fill="#E3E3E3"/>
<path opacity="0.6" d="M768.659 54.3871C769.466 54.3871 770.119 53.7334 770.119 52.927C770.119 52.1207 769.466 51.467 768.659 51.467C767.853 51.467 767.199 52.1207 767.199 52.927C767.199 53.7334 767.853 54.3871 768.659 54.3871Z" fill="#E3E3E3"/>
<path opacity="0.59" d="M750.094 159.752C750.891 159.752 751.536 160.398 751.536 161.195C751.536 161.992 750.891 162.638 750.094 162.638C749.297 162.638 748.65 161.992 748.65 161.195C748.651 160.398 749.298 159.752 750.094 159.752Z" fill="#E3E3E3"/>
<path opacity="0.62" d="M625.631 213.337C626.456 213.337 627.125 214.006 627.125 214.831C627.125 215.656 626.456 216.325 625.631 216.325C624.806 216.325 624.137 215.656 624.137 214.831C624.137 214.005 624.806 213.337 625.631 213.337Z" fill="#E3E3E3"/>
<path opacity="0.66" d="M513.653 270.201C514.507 270.201 515.199 270.893 515.199 271.747C515.199 272.601 514.508 273.293 513.653 273.293C512.799 273.293 512.107 272.601 512.107 271.747C512.107 270.893 512.799 270.201 513.653 270.201Z" fill="#E3E3E3"/>
<path opacity="0.72" d="M404.596 267.076C405.497 267.076 406.228 267.806 406.228 268.707C406.228 269.608 405.497 270.338 404.596 270.338C403.695 270.338 402.965 269.608 402.965 268.707C402.964 267.806 403.695 267.076 404.596 267.076Z" fill="#E3E3E3"/>
<path opacity="0.71" d="M483.718 233.328C484.609 233.328 485.331 234.051 485.331 234.942C485.331 235.833 484.609 236.557 483.718 236.557C482.827 236.557 482.104 235.834 482.104 234.942C482.104 234.05 482.826 233.328 483.718 233.328Z" fill="#E3E3E3"/>
<path opacity="0.79" d="M258.198 244.079C259.146 244.079 259.915 244.848 259.915 245.796C259.915 246.745 259.146 247.514 258.198 247.514C257.249 247.514 256.48 246.745 256.48 245.796C256.481 244.848 257.25 244.079 258.198 244.079Z" fill="#E3E3E3"/>
<path opacity="0.55" d="M916.223 176.703C916.991 176.703 917.614 177.326 917.614 178.094C917.614 178.862 916.991 179.485 916.223 179.485C915.455 179.485 914.832 178.863 914.832 178.094C914.832 177.325 915.455 176.703 916.223 176.703Z" fill="#E3E3E3"/>
<path opacity="0.56" d="M813.124 235.835C813.902 235.835 814.532 236.465 814.532 237.243C814.532 238.021 813.902 238.652 813.124 238.652C812.346 238.652 811.715 238.021 811.715 237.243C811.715 236.465 812.346 235.835 813.124 235.835Z" fill="#E3E3E3"/>
<path opacity="0.59" d="M684.437 287.238C685.234 287.238 685.88 287.884 685.88 288.681C685.88 289.478 685.234 290.124 684.437 290.124C683.64 290.124 682.994 289.478 682.994 288.681C682.994 287.884 683.64 287.238 684.437 287.238Z" fill="#E3E3E3"/>
<path opacity="0.63" d="M604.369 305.736C605.204 305.736 605.88 306.413 605.88 307.247C605.88 308.082 605.203 308.758 604.369 308.758C603.534 308.758 602.857 308.081 602.857 307.247C602.857 306.412 603.534 305.736 604.369 305.736Z" fill="#E3E3E3"/>
<path opacity="0.67" d="M565.263 271.369C566.117 271.369 566.809 272.061 566.809 272.915C566.809 273.769 566.117 274.461 565.263 274.461C564.409 274.461 563.717 273.769 563.717 272.915C563.717 272.061 564.408 271.369 565.263 271.369Z" fill="#E3E3E3"/>
<path opacity="0.64" d="M664.892 257.784C665.736 257.784 666.42 258.468 666.42 259.313C666.42 260.157 665.736 260.841 664.892 260.841C664.047 260.841 663.363 260.157 663.363 259.313C663.363 258.468 664.047 257.784 664.892 257.784Z" fill="#E3E3E3"/>
<path opacity="0.68" d="M581.422 139.383C582.285 139.383 582.985 140.083 582.985 140.946C582.985 141.809 582.285 142.509 581.422 142.509C580.559 142.509 579.859 141.81 579.859 140.946C579.86 140.083 580.559 139.383 581.422 139.383Z" fill="#E3E3E3"/>
<path opacity="0.77" d="M277.744 135.278C278.673 135.278 279.427 136.032 279.427 136.961C279.427 137.891 278.673 138.644 277.744 138.644C276.814 138.644 276.061 137.891 276.061 136.961C276.061 136.032 276.814 135.278 277.744 135.278Z" fill="#E3E3E3"/>
<path opacity="0.55" d="M1001.44 153.226C1002.21 153.226 1002.83 153.849 1002.83 154.617C1002.83 155.385 1002.21 156.009 1001.44 156.009C1000.68 156.009 1000.05 155.386 1000.05 154.617C1000.05 153.848 1000.67 153.226 1001.44 153.226Z" fill="#E3E3E3"/>
<path opacity="0.52" d="M957.632 312.262C958.372 312.262 958.972 312.862 958.972 313.602C958.972 314.342 958.372 314.942 957.632 314.942C956.892 314.942 956.293 314.342 956.293 313.602C956.293 312.861 956.893 312.262 957.632 312.262Z" fill="#E3E3E3"/>
<path opacity="0.54" d="M830.077 323.734C830.836 323.734 831.451 324.349 831.451 325.108C831.451 325.867 830.836 326.482 830.077 326.482C829.318 326.482 828.703 325.867 828.703 325.108C828.703 324.349 829.318 323.734 830.077 323.734Z" fill="#E3E3E3"/>
<path opacity="0.57" d="M703.5 349.994C704.278 349.994 704.908 350.624 704.908 351.402C704.908 352.18 704.278 352.811 703.5 352.811C702.722 352.811 702.092 352.18 702.092 351.402C702.092 350.624 702.722 349.994 703.5 349.994Z" fill="#E3E3E3"/>
<path opacity="0.6" d="M652.2 363.768C653.007 363.768 653.66 363.114 653.66 362.308C653.66 361.502 653.007 360.848 652.2 360.848C651.394 360.848 650.74 361.502 650.74 362.308C650.74 363.114 651.394 363.768 652.2 363.768Z" fill="#E3E3E3"/>
<path opacity="0.62" d="M660.736 328.372C661.561 328.372 662.231 329.041 662.231 329.866C662.231 330.691 661.562 331.36 660.736 331.36C659.91 331.36 659.242 330.691 659.242 329.866C659.242 329.041 659.91 328.372 660.736 328.372Z" fill="#E3E3E3"/>
<path opacity="0.58" d="M790.849 322.309C791.646 322.309 792.292 322.955 792.292 323.752C792.292 324.549 791.646 325.195 790.849 325.195C790.052 325.195 789.406 324.549 789.406 323.752C789.407 322.955 790.053 322.309 790.849 322.309Z" fill="#E3E3E3"/>
<path opacity="0.6" d="M831.054 229.292C831.86 229.292 832.514 228.638 832.514 227.832C832.514 227.026 831.86 226.372 831.054 226.372C830.247 226.372 829.594 227.026 829.594 227.832C829.594 228.638 830.247 229.292 831.054 229.292Z" fill="#E3E3E3"/>
<path opacity="0.64" d="M754.216 85.1462C755.051 85.1462 755.728 85.8222 755.728 86.6572C755.728 87.4922 755.051 88.1692 754.216 88.1692C753.381 88.1692 752.705 87.4922 752.705 86.6572C752.705 85.8222 753.382 85.1462 754.216 85.1462Z" fill="#E3E3E3"/>
<path opacity="0.55" d="M1077.18 162.225C1077.95 162.225 1078.57 162.847 1078.57 163.616C1078.57 164.385 1077.95 165.007 1077.18 165.007C1076.42 165.007 1075.79 164.384 1075.79 163.616C1075.79 162.848 1076.42 162.225 1077.18 162.225Z" fill="#E3E3E3"/>
<path opacity="0.5" d="M1067.96 380.118C1068.69 380.118 1069.28 379.526 1069.28 378.796C1069.28 378.066 1068.69 377.474 1067.96 377.474C1067.23 377.474 1066.64 378.066 1066.64 378.796C1066.64 379.526 1067.23 380.118 1067.96 380.118Z" fill="#E3E3E3"/>
<path opacity="0.49" d="M928.608 412.148C929.329 412.148 929.913 412.733 929.913 413.454C929.913 414.174 929.329 414.759 928.608 414.759C927.887 414.759 927.303 414.174 927.303 413.454C927.302 412.733 927.886 412.148 928.608 412.148Z" fill="#E3E3E3"/>
<path opacity="0.51" d="M809.656 394.562C810.396 394.562 810.996 395.162 810.996 395.902C810.996 396.642 810.396 397.242 809.656 397.242C808.916 397.242 808.316 396.642 808.316 395.902C808.316 395.162 808.916 394.562 809.656 394.562Z" fill="#E3E3E3"/>
<path opacity="0.54" d="M704.995 404.317C705.763 404.317 706.385 404.939 706.385 405.708C706.385 406.476 705.763 407.099 704.995 407.099C704.227 407.099 703.604 406.476 703.604 405.708C703.604 404.94 704.227 404.317 704.995 404.317Z" fill="#E3E3E3"/>
<path opacity="0.57" d="M681.106 409.641C681.893 409.641 682.531 410.279 682.531 411.066C682.531 411.853 681.892 412.491 681.106 412.491C680.319 412.491 679.68 411.853 679.68 411.066C679.68 410.279 680.318 409.641 681.106 409.641Z" fill="#E3E3E3"/>
<path opacity="0.58" d="M734.861 375.945C735.648 375.945 736.286 376.584 736.286 377.37C736.286 378.157 735.648 378.796 734.861 378.796C734.074 378.796 733.436 378.157 733.436 377.37C733.436 376.583 734.075 375.945 734.861 375.945Z" fill="#E3E3E3"/>
<path opacity="0.54" d="M811.974 422.9C812.733 422.9 813.348 423.515 813.348 424.274C813.348 425.033 812.733 425.648 811.974 425.648C811.215 425.648 810.6 425.033 810.6 424.274C810.6 423.515 811.215 422.9 811.974 422.9Z" fill="#E3E3E3"/>
<path opacity="0.53" d="M922.923 386.988C923.682 386.988 924.297 387.603 924.297 388.362C924.297 389.12 923.682 389.736 922.923 389.736C922.164 389.736 921.549 389.121 921.549 388.362C921.548 387.603 922.164 386.988 922.923 386.988Z" fill="#E3E3E3"/>
<path opacity="0.54" d="M1013.38 319.613C1014.14 319.613 1014.75 320.228 1014.75 320.987C1014.75 321.746 1014.14 322.361 1013.38 322.361C1012.62 322.361 1012 321.746 1012 320.987C1012 320.228 1012.62 319.613 1013.38 319.613Z" fill="#E3E3E3"/>
<path opacity="0.56" d="M1044.74 196.591C1045.52 196.591 1046.15 195.961 1046.15 195.183C1046.15 194.406 1045.52 193.775 1044.74 193.775C1043.96 193.775 1043.33 194.406 1043.33 195.183C1043.33 195.961 1043.96 196.591 1044.74 196.591Z" fill="#E3E3E3"/>
<path opacity="0.57" d="M1044.43 108.761C1045.22 108.761 1045.86 109.399 1045.86 110.186C1045.86 110.973 1045.22 111.612 1044.43 111.612C1043.64 111.612 1043.01 110.973 1043.01 110.186C1043.01 109.399 1043.64 108.761 1044.43 108.761Z" fill="#E3E3E3"/>
<path opacity="0.57" d="M1049.81 56.6191C1050.59 56.6191 1051.23 57.2571 1051.23 58.0441C1051.23 58.8311 1050.59 59.4691 1049.81 59.4691C1049.02 59.4691 1048.38 58.8311 1048.38 58.0441C1048.38 57.2571 1049.02 56.6191 1049.81 56.6191Z" fill="#E3E3E3"/>
<path opacity="0.55" d="M1139.92 141.615C1140.69 141.615 1141.31 142.238 1141.31 143.006C1141.31 143.774 1140.69 144.397 1139.92 144.397C1139.15 144.397 1138.53 143.774 1138.53 143.006C1138.53 142.239 1139.15 141.615 1139.92 141.615Z" fill="#E3E3E3"/>
<path opacity="0.51" d="M1209.96 345.22C1210.69 345.22 1211.28 345.812 1211.28 346.542C1211.28 347.273 1210.69 347.864 1209.96 347.864C1209.23 347.864 1208.64 347.272 1208.64 346.542C1208.64 345.811 1209.23 345.22 1209.96 345.22Z" fill="#E3E3E3"/>
<path opacity="0.47" d="M1123.67 513.736C1124.38 513.736 1124.94 514.304 1124.94 515.007C1124.94 515.709 1124.38 516.278 1123.67 516.278C1122.97 516.278 1122.4 515.709 1122.4 515.007C1122.4 514.305 1122.97 513.736 1123.67 513.736Z" fill="#E3E3E3"/>
<path opacity="0.45" d="M988.545 520.451C989.238 520.451 989.799 521.012 989.799 521.705C989.799 522.397 989.238 522.958 988.545 522.958C987.852 522.958 987.291 522.397 987.291 521.705C987.291 521.012 987.853 520.451 988.545 520.451Z" fill="#E3E3E3"/>
<path opacity="0.47" d="M842.304 457.988C843.006 457.988 843.575 458.557 843.575 459.259C843.575 459.961 843.006 460.53 842.304 460.53C841.602 460.53 841.033 459.961 841.033 459.259C841.032 458.556 841.601 457.988 842.304 457.988Z" fill="#E3E3E3"/>
<path opacity="0.49" d="M765.465 440.865C766.186 440.865 766.77 441.449 766.77 442.17C766.77 442.891 766.186 443.475 765.465 443.475C764.744 443.475 764.16 442.891 764.16 442.17C764.16 441.449 764.744 440.865 765.465 440.865Z" fill="#E3E3E3"/>
<path opacity="0.52" d="M664.927 451.169C665.676 451.169 666.284 451.776 666.284 452.526C666.284 453.275 665.676 453.883 664.927 453.883C664.177 453.883 663.57 453.276 663.57 452.526C663.57 451.777 664.177 451.169 664.927 451.169Z" fill="#E3E3E3"/>
<path opacity="0.54" d="M685.776 453.316C686.535 453.316 687.15 453.931 687.15 454.69C687.15 455.449 686.535 456.064 685.776 456.064C685.018 456.064 684.402 455.449 684.402 454.69C684.402 453.931 685.017 453.316 685.776 453.316Z" fill="#E3E3E3"/>
<path opacity="0.54" d="M736.423 443.08C737.182 443.08 737.797 443.695 737.797 444.454C737.797 445.213 737.182 445.828 736.423 445.828C735.665 445.828 735.049 445.213 735.049 444.454C735.05 443.695 735.665 443.08 736.423 443.08Z" fill="#E3E3E3"/>
<path opacity="0.5" d="M738.296 487.253C739.026 487.253 739.618 487.845 739.618 488.575C739.618 489.306 739.026 489.897 738.296 489.897C737.565 489.897 736.973 489.305 736.973 488.575C736.973 487.845 737.565 487.253 738.296 487.253Z" fill="#E3E3E3"/>
<path opacity="0.48" d="M846.409 497.523C847.12 497.523 847.697 498.099 847.697 498.811C847.697 499.523 847.121 500.099 846.409 500.099C845.697 500.099 845.121 499.523 845.121 498.811C845.121 498.1 845.698 497.523 846.409 497.523Z" fill="#E3E3E3"/>
<path opacity="0.47" d="M959.4 526.634C960.102 526.634 960.671 527.203 960.671 527.905C960.671 528.607 960.102 529.176 959.4 529.176C958.698 529.176 958.129 528.607 958.129 527.905C958.129 527.203 958.698 526.634 959.4 526.634Z" fill="#E3E3E3"/>
<path opacity="0.46" d="M1050.96 559.506C1051.66 559.506 1052.23 560.075 1052.23 560.777C1052.23 561.479 1051.66 562.048 1050.96 562.048C1050.25 562.048 1049.69 561.479 1049.69 560.777C1049.69 560.075 1050.25 559.506 1050.96 559.506Z" fill="#E3E3E3"/>
<path opacity="0.46" d="M1108.32 588.84C1109.01 588.84 1109.57 589.401 1109.57 590.094C1109.57 590.787 1109.01 591.348 1108.32 591.348C1107.63 591.348 1107.07 590.787 1107.07 590.094C1107.07 589.401 1107.63 588.84 1108.32 588.84Z" fill="#E3E3E3"/>
<path opacity="0.45" d="M1164.22 617.985C1164.92 617.985 1165.48 618.546 1165.48 619.238C1165.48 619.931 1164.92 620.492 1164.22 620.492C1163.53 620.492 1162.97 619.931 1162.97 619.238C1162.97 618.546 1163.53 617.985 1164.22 617.985Z" fill="#E3E3E3"/>
<path opacity="0.44" d="M1095.25 656.336C1095.92 656.336 1096.47 656.882 1096.47 657.555C1096.47 658.229 1095.92 658.774 1095.25 658.774C1094.58 658.774 1094.03 658.228 1094.03 657.555C1094.03 656.882 1094.58 656.336 1095.25 656.336Z" fill="#E3E3E3"/>
<path opacity="0.42" d="M1023.07 650.582C1023.73 650.582 1024.27 651.12 1024.27 651.784C1024.27 652.448 1023.73 652.987 1023.07 652.987C1022.4 652.987 1021.86 652.449 1021.86 651.784C1021.86 651.121 1022.4 650.582 1023.07 650.582Z" fill="#E3E3E3"/>
<path opacity="0.42" d="M920.757 563.628C921.421 563.628 921.96 564.166 921.96 564.83C921.96 565.494 921.422 566.033 920.757 566.033C920.093 566.033 919.555 565.494 919.555 564.83C919.555 564.166 920.094 563.628 920.757 563.628Z" fill="#E3E3E3"/>
<path opacity="0.44" d="M811.922 480.04C812.595 480.04 813.141 480.586 813.141 481.259C813.141 481.932 812.595 482.478 811.922 482.478C811.248 482.478 810.703 481.932 810.703 481.259C810.703 480.585 811.248 480.04 811.922 480.04Z" fill="#E3E3E3"/>
<path opacity="0.46" d="M670.061 437.086C670.754 437.086 671.315 437.647 671.315 438.339C671.315 439.032 670.754 439.593 670.061 439.593C669.368 439.593 668.807 439.032 668.807 438.339C668.807 437.647 669.369 437.086 670.061 437.086Z" fill="#E3E3E3"/>
<path opacity="0.49" d="M591.574 459.705C592.295 459.705 592.879 460.29 592.879 461.01C592.879 461.731 592.294 462.316 591.574 462.316C590.853 462.316 590.268 461.731 590.268 461.01C590.268 460.289 590.853 459.705 591.574 459.705Z" fill="#E3E3E3"/>
<path opacity="0.51" d="M576.099 485.329C576.83 485.329 577.421 485.921 577.421 486.651C577.421 487.382 576.829 487.973 576.099 487.973C575.369 487.973 574.777 487.381 574.777 486.651C574.777 485.921 575.369 485.329 576.099 485.329Z" fill="#E3E3E3"/>
<path opacity="0.52" d="M588.482 501.13C589.231 501.13 589.838 501.737 589.838 502.487C589.838 503.237 589.231 503.844 588.482 503.844C587.733 503.844 587.125 503.237 587.125 502.487C587.125 501.737 587.732 501.13 588.482 501.13Z" fill="#E3E3E3"/>
<path opacity="0.51" d="M661.988 489.829C662.728 489.829 663.328 490.429 663.328 491.169C663.328 491.908 662.728 492.509 661.988 492.509C661.248 492.509 660.648 491.909 660.648 491.169C660.649 490.429 661.248 489.829 661.988 489.829Z" fill="#E3E3E3"/>
<path opacity="0.51" d="M526.688 538.33C527.428 538.33 528.028 538.93 528.028 539.67C528.028 540.41 527.428 541.01 526.688 541.01C525.948 541.01 525.348 540.41 525.348 539.67C525.349 538.929 525.948 538.33 526.688 538.33Z" fill="#E3E3E3"/>
<path opacity="0.48" d="M603.081 493.814C603.793 493.814 604.369 494.391 604.369 495.102C604.369 495.814 603.792 496.39 603.081 496.39C602.369 496.39 601.793 495.813 601.793 495.102C601.793 494.39 602.369 493.814 603.081 493.814Z" fill="#E3E3E3"/>
<path opacity="0.46" d="M690.945 485.192C691.638 485.192 692.199 485.753 692.199 486.445C692.199 487.138 691.638 487.699 690.945 487.699C690.252 487.699 689.691 487.138 689.691 486.445C689.692 485.753 690.253 485.192 690.945 485.192Z" fill="#E3E3E3"/>
<path opacity="0.43" d="M768.524 500.116C769.198 500.116 769.743 500.662 769.743 501.335C769.743 502.009 769.197 502.554 768.524 502.554C767.851 502.554 767.305 502.008 767.305 501.335C767.304 500.663 767.85 500.116 768.524 500.116Z" fill="#E3E3E3"/>
<path opacity="0.42" d="M783.431 496.802C784.095 496.802 784.633 497.34 784.633 498.004C784.633 498.668 784.095 499.206 783.431 499.206C782.767 499.206 782.229 498.668 782.229 498.004C782.229 497.34 782.768 496.802 783.431 496.802Z" fill="#E3E3E3"/>
<path opacity="0.41" d="M809.706 504.822C810.361 504.822 810.892 505.353 810.892 506.007C810.892 506.662 810.361 507.192 809.706 507.192C809.052 507.192 808.521 506.662 808.521 506.007C808.521 505.353 809.052 504.822 809.706 504.822Z" fill="#E3E3E3"/>
<path opacity="0.41" d="M783.31 469.906C783.965 469.906 784.495 470.437 784.495 471.091C784.495 471.745 783.964 472.276 783.31 472.276C782.656 472.276 782.125 471.745 782.125 471.091C782.125 470.437 782.656 469.906 783.31 469.906Z" fill="#E3E3E3"/>
<path opacity="0.42" d="M697.181 415.223C697.845 415.223 698.383 415.761 698.383 416.425C698.383 417.089 697.844 417.627 697.181 417.627C696.517 417.627 695.979 417.089 695.979 416.425C695.979 415.761 696.517 415.223 697.181 415.223Z" fill="#E3E3E3"/>
<path opacity="0.44" d="M583.365 392.071C584.039 392.071 584.584 391.525 584.584 390.852C584.584 390.179 584.039 389.633 583.365 389.633C582.692 389.633 582.146 390.179 582.146 390.852C582.146 391.525 582.692 392.071 583.365 392.071Z" fill="#E3E3E3"/>
<path opacity="0.47" d="M456.771 438.426C457.473 438.426 458.042 438.995 458.042 439.697C458.042 440.399 457.473 440.968 456.771 440.968C456.069 440.968 455.5 440.399 455.5 439.697C455.5 438.995 456.069 438.426 456.771 438.426Z" fill="#E3E3E3"/>
<path opacity="0.5" d="M340.894 541.095C341.625 541.095 342.216 541.687 342.216 542.417C342.216 543.148 341.624 543.739 340.894 543.739C340.164 543.739 339.572 543.147 339.572 542.417C339.572 541.687 340.164 541.095 340.894 541.095Z" fill="#E3E3E3"/>
<path opacity="0.52" d="M340.156 600.553C340.906 600.553 341.513 601.16 341.513 601.91C341.513 602.659 340.906 603.266 340.156 603.266C339.407 603.266 338.799 602.659 338.799 601.91C338.799 601.161 339.407 600.553 340.156 600.553Z" fill="#E3E3E3"/>
<path opacity="0.53" d="M376.584 602.099C377.333 602.099 377.94 602.707 377.94 603.456C377.94 604.205 377.333 604.812 376.584 604.812C375.834 604.812 375.227 604.205 375.227 603.456C375.228 602.706 375.835 602.099 376.584 602.099Z" fill="#E3E3E3"/>
<path opacity="0.54" d="M405.024 616.096C405.782 616.096 406.398 616.711 406.398 617.47C406.398 618.229 405.783 618.844 405.024 618.844C404.265 618.844 403.65 618.229 403.65 617.47C403.65 616.711 404.266 616.096 405.024 616.096Z" fill="#E3E3E3"/>
<path opacity="0.52" d="M466.285 558.664C467.025 558.664 467.625 559.264 467.625 560.004C467.625 560.744 467.025 561.344 466.285 561.344C465.545 561.344 464.945 560.744 464.945 560.004C464.945 559.264 465.545 558.664 466.285 558.664Z" fill="#E3E3E3"/>
<path opacity="0.5" d="M297.752 597.342C298.482 597.342 299.074 597.934 299.074 598.664C299.074 599.394 298.482 599.986 297.752 599.986C297.021 599.986 296.43 599.394 296.43 598.664C296.429 597.933 297.021 597.342 297.752 597.342Z" fill="#E3E3E3"/>
<path opacity="0.5" d="M261.463 597.599C262.194 597.599 262.785 598.191 262.785 598.921C262.785 599.652 262.193 600.244 261.463 600.244C260.733 600.244 260.141 599.652 260.141 598.921C260.141 598.191 260.733 597.599 261.463 597.599Z" fill="#E3E3E3"/>
<path opacity="0.49" d="M245.68 549.527C246.401 549.527 246.986 550.112 246.986 550.832C246.986 551.553 246.401 552.138 245.68 552.138C244.959 552.138 244.375 551.553 244.375 550.832C244.375 550.112 244.959 549.527 245.68 549.527Z" fill="#E3E3E3"/>
<path d="M1520.68 286.792C1522.38 286.792 1523.75 288.168 1523.75 289.866C1523.75 291.564 1522.38 292.941 1520.68 292.941C1518.98 292.941 1517.61 291.565 1517.61 289.866C1517.61 288.168 1518.98 286.792 1520.68 286.792Z" fill="#E3E3E3"/>
<path d="M1661.07 603.576C1662.6 603.576 1663.85 602.33 1663.85 600.794C1663.85 599.257 1662.6 598.012 1661.07 598.012C1659.53 598.012 1658.28 599.257 1658.28 600.794C1658.28 602.33 1659.53 603.576 1661.07 603.576Z" fill="#E3E3E3"/>
<path d="M1635.61 394.167C1637.2 394.167 1638.48 395.451 1638.48 397.035C1638.48 398.619 1637.2 399.904 1635.61 399.904C1634.03 399.904 1632.74 398.62 1632.74 397.035C1632.74 395.45 1634.03 394.167 1635.61 394.167Z" fill="#E3E3E3"/>
<path d="M1776.19 318.84C1777.83 318.84 1779.16 320.17 1779.16 321.811C1779.16 323.452 1777.83 324.782 1776.19 324.782C1774.55 324.782 1773.21 323.452 1773.21 321.811C1773.21 320.17 1774.55 318.84 1776.19 318.84Z" fill="#E3E3E3"/>
<path d="M1842.53 80.199C1844.29 80.199 1845.71 81.622 1845.71 83.377C1845.71 85.131 1844.29 86.554 1842.53 86.554C1840.78 86.554 1839.35 85.131 1839.35 83.377C1839.35 81.622 1840.78 80.199 1842.53 80.199Z" fill="#E3E3E3"/>
<path d="M215.692 391.213C217.769 391.213 219.453 392.897 219.453 394.974C219.453 397.051 217.769 398.735 215.692 398.735C213.615 398.735 211.93 397.051 211.93 394.974C211.93 392.897 213.614 391.213 215.692 391.213Z" fill="#E3E3E3"/>
<path d="M691.839 156.128C693.745 156.128 695.291 157.673 695.291 159.58C695.291 161.486 693.745 163.032 691.839 163.032C689.933 163.032 688.387 161.486 688.387 159.58C688.387 157.673 689.932 156.128 691.839 156.128Z" fill="#E3E3E3"/>
<path d="M1102.82 118.31C1104.61 118.31 1106.05 119.756 1106.05 121.539C1106.05 123.322 1104.61 124.768 1102.82 124.768C1101.04 124.768 1099.6 123.323 1099.6 121.539C1099.6 119.756 1101.04 118.31 1102.82 118.31Z" fill="#E3E3E3"/>
<path d="M1414.35 241.795C1416 241.795 1417.34 243.133 1417.34 244.783C1417.34 246.434 1416 247.772 1414.35 247.772C1412.7 247.772 1411.37 246.434 1411.37 244.783C1411.37 243.132 1412.7 241.795 1414.35 241.795Z" fill="#E3E3E3"/>
<path d="M1086.06 48.8902C1087.83 48.8902 1089.26 47.4602 1089.26 45.6962C1089.26 43.9322 1087.83 42.5022 1086.06 42.5022C1084.3 42.5022 1082.87 43.9322 1082.87 45.6962C1082.87 47.4602 1084.3 48.8902 1086.06 48.8902Z" fill="#E3E3E3"/>
<path d="M218.233 133.887C220.661 133.887 222.629 135.855 222.629 138.283C222.629 140.711 220.661 142.68 218.233 142.68C215.805 142.68 213.836 140.711 213.836 138.283C213.836 135.855 215.805 133.887 218.233 133.887Z" fill="#E3E3E3"/>
<path d="M151.665 213.096C153.467 213.096 154.928 214.557 154.928 216.359C154.928 218.161 153.467 219.622 151.665 219.622C149.863 219.622 148.402 218.161 148.402 216.359C148.401 214.557 149.862 213.096 151.665 213.096Z" fill="#E3E3E3"/>
<path d="M527.254 145.274C529.047 145.274 530.5 146.728 530.5 148.52C530.5 150.313 529.047 151.766 527.254 151.766C525.461 151.766 524.008 150.313 524.008 148.52C524.008 146.727 525.461 145.274 527.254 145.274Z" fill="#E3E3E3"/>
<path d="M809.604 84.2532C811.387 84.2532 812.833 85.6982 812.833 87.4822C812.833 89.2652 811.388 90.7112 809.604 90.7112C807.821 90.7112 806.375 89.2662 806.375 87.4822C806.375 85.6982 807.821 84.2532 809.604 84.2532Z" fill="#E3E3E3"/>
<path d="M465.238 72.677C467.059 72.677 468.536 74.154 468.536 75.975C468.536 77.796 467.059 79.272 465.238 79.272C463.417 79.272 461.941 77.795 461.941 75.975C461.94 74.154 463.417 72.677 465.238 72.677Z" fill="#E3E3E3"/>
<path d="M245.868 150.272C247.822 150.272 249.406 151.855 249.406 153.81C249.406 155.764 247.822 157.348 245.868 157.348C243.914 157.348 242.33 155.764 242.33 153.81C242.33 151.855 243.914 150.272 245.868 150.272Z" fill="#E3E3E3"/>
<path opacity="0.98" d="M1814.04 12.1711C1815.1 12.1711 1815.96 13.0321 1815.96 14.0951C1815.96 15.1571 1815.1 16.0181 1814.04 16.0181C1812.98 16.0181 1812.12 15.1571 1812.12 14.0951C1812.12 13.0331 1812.98 12.1711 1814.04 12.1711Z" fill="#E3E3E3"/>
<path d="M198.691 20.0032C200.351 20.0032 201.697 21.3482 201.697 23.0082C201.697 24.6682 200.351 26.0142 198.691 26.0142C197.031 26.0142 195.686 24.6692 195.686 23.0082C195.685 21.3482 197.03 20.0032 198.691 20.0032Z" fill="#E3E3E3"/>
<path d="M363.805 80.1482C365.55 80.1482 366.965 81.5632 366.965 83.3082C366.965 85.0542 365.55 86.4682 363.805 86.4682C362.06 86.4682 360.645 85.0532 360.645 83.3082C360.645 81.5632 362.06 80.1482 363.805 80.1482Z" fill="#E3E3E3"/>
<path opacity="0.84" d="M1807.41 618.621C1808.39 618.621 1809.18 619.413 1809.18 620.39C1809.18 621.367 1808.39 622.159 1807.41 622.159C1806.43 622.159 1805.64 621.367 1805.64 620.39C1805.64 619.412 1806.43 618.621 1807.41 618.621Z" fill="#E3E3E3"/>
<path opacity="0.98" d="M1701.37 171.396C1702.43 171.396 1703.3 172.257 1703.3 173.32C1703.3 174.383 1702.44 175.244 1701.37 175.244C1700.31 175.244 1699.45 174.383 1699.45 173.32C1699.45 172.257 1700.31 171.396 1701.37 171.396Z" fill="#E3E3E3"/>
<path opacity="0.95" d="M1782.56 317.671C1783.6 317.671 1784.45 316.825 1784.45 315.782C1784.45 314.739 1783.6 313.893 1782.56 313.893C1781.51 313.893 1780.67 314.739 1780.67 315.782C1780.67 316.825 1781.51 317.671 1782.56 317.671Z" fill="#E3E3E3"/>
<path opacity="0.98" d="M1833.19 215.019C1834.25 215.019 1835.11 215.88 1835.11 216.943C1835.11 218.005 1834.25 218.867 1833.19 218.867C1832.13 218.867 1831.27 218.006 1831.27 216.943C1831.27 215.881 1832.13 215.019 1833.19 215.019Z" fill="#E3E3E3"/>
<path opacity="0.96" d="M1860.08 330.415C1861.14 330.415 1861.99 331.269 1861.99 332.321C1861.99 333.373 1861.14 334.227 1860.08 334.227C1859.03 334.227 1858.18 333.373 1858.18 332.321C1858.18 331.269 1859.03 330.415 1860.08 330.415Z" fill="#E3E3E3"/>
<path opacity="0.95" d="M1869.82 437.361C1870.87 437.361 1871.73 438.215 1871.73 439.267C1871.73 440.32 1870.87 441.173 1869.82 441.173C1868.77 441.173 1867.91 440.319 1867.91 439.267C1867.91 438.214 1868.77 437.361 1869.82 437.361Z" fill="#E3E3E3"/>
<path opacity="0.38" d="M594.492 527.218C595.118 527.218 595.626 527.726 595.626 528.352C595.626 528.978 595.119 529.486 594.492 529.486C593.866 529.486 593.359 528.978 593.359 528.352C593.359 527.726 593.866 527.218 594.492 527.218Z" fill="#E3E3E3"/>
<path opacity="0.38" d="M519.56 402.702C520.186 402.702 520.694 403.21 520.694 403.836C520.694 404.462 520.187 404.97 519.56 404.97C518.934 404.97 518.426 404.462 518.426 403.836C518.426 403.21 518.934 402.702 519.56 402.702Z" fill="#E3E3E3"/>
<path opacity="0.4" d="M343.316 360.007C343.961 360.007 344.484 360.53 344.484 361.175C344.484 361.82 343.961 362.343 343.316 362.343C342.671 362.343 342.148 361.82 342.148 361.175C342.148 360.53 342.671 360.007 343.316 360.007Z" fill="#E3E3E3"/>
<path opacity="0.42" d="M181.601 403.802C182.265 403.802 182.803 404.341 182.803 405.005C182.803 405.669 182.265 406.207 181.601 406.207C180.937 406.207 180.398 405.669 180.398 405.005C180.399 404.34 180.937 403.802 181.601 403.802Z" fill="#E3E3E3"/>
<path opacity="0.44" d="M26.9612 467.605C27.6344 467.605 28.1802 467.059 28.1802 466.386C28.1802 465.713 27.6344 465.167 26.9612 465.167C26.2879 465.167 25.7422 465.713 25.7422 466.386C25.7422 467.059 26.2879 467.605 26.9612 467.605Z" fill="#E3E3E3"/>
<path opacity="0.42" d="M133.976 319.526C134.631 319.526 135.161 320.057 135.161 320.711C135.161 321.365 134.63 321.896 133.976 321.896C133.322 321.896 132.791 321.365 132.791 320.711C132.791 320.057 133.322 319.526 133.976 319.526Z" fill="#E3E3E3"/>
<path opacity="0.37" d="M514.598 208.236C515.214 208.236 515.714 208.736 515.714 209.352C515.714 209.969 515.214 210.468 514.598 210.468C513.982 210.468 513.482 209.969 513.482 209.352C513.481 208.735 513.981 208.236 514.598 208.236Z" fill="#E3E3E3"/>
<path opacity="0.35" d="M682.066 337.817C682.663 337.817 683.148 338.301 683.148 338.899C683.148 339.496 682.664 339.981 682.066 339.981C681.468 339.981 680.984 339.497 680.984 338.899C680.985 338.302 681.469 337.817 682.066 337.817Z" fill="#E3E3E3"/>
<path opacity="0.35" d="M676.503 485.072C677.091 485.072 677.568 485.549 677.568 486.137C677.568 486.725 677.091 487.202 676.503 487.202C675.915 487.202 675.438 486.725 675.438 486.137C675.438 485.548 675.915 485.072 676.503 485.072Z" fill="#E3E3E3"/>
<path opacity="0.35" d="M643.905 620.184C644.502 620.184 644.987 620.668 644.987 621.266C644.987 621.864 644.503 622.348 643.905 622.348C643.307 622.348 642.822 621.864 642.822 621.266C642.822 620.668 643.307 620.184 643.905 620.184Z" fill="#E3E3E3"/>
<path opacity="0.37" d="M634.268 641.153C634.885 641.153 635.384 641.653 635.384 642.269C635.384 642.885 634.885 643.385 634.268 643.385C633.652 643.385 633.152 642.885 633.152 642.269C633.152 641.653 633.652 641.153 634.268 641.153Z" fill="#E3E3E3"/>
<path opacity="0.37" d="M621.887 582.554C622.503 582.554 623.003 583.053 623.003 583.67C623.003 584.286 622.503 584.786 621.887 584.786C621.27 584.786 620.771 584.286 620.771 583.67C620.77 583.054 621.27 582.554 621.887 582.554Z" fill="#E3E3E3"/>
</svg>
