<svg width="1273" height="261" viewBox="0 0 1273 261" fill="none" xmlns="http://www.w3.org/2000/svg">
<path d="M63.5902 41.3145L47.0642 99.5686L76.811 85.1084C79.2899 83.7312 85.4872 81.39 90.445 83.0426C95.4028 84.6952 112.342 90.8925 120.192 93.7845L191.667 139.644C181.751 164.02 135.478 159.062 120.192 159.062C109.037 160.715 66.8954 196.659 53.6746 211.119C43.0979 222.687 20.898 241.83 11.1201 249.955H76.811C74.7453 248.578 72.1837 240.37 78.4636 218.556C84.7435 196.742 94.301 190.186 98.2948 189.635C121.018 189.911 168.2 190.296 175.141 189.635C183.817 188.809 205.301 183.025 219.348 171.044C233.395 159.062 259.837 132.208 248.268 87.1741C239.014 51.1474 205.576 41.5899 190.014 41.3145H63.5902Z" fill="url(#paint0_linear_129_1579)" stroke="#F4A27E" stroke-width="2.4789"/>
<path d="M35.0825 158.239C39.7649 154.796 65.3716 131.509 73.9186 135.516C74.3517 135.719 80.6553 129.789 78.8764 129.731" stroke="#F4A27E" stroke-width="0.41315"/>
<path d="M87.625 99.8513L87.8955 100.272L88.3936 100.227C90.0374 100.08 91.6727 100.157 93.2598 100.441L93.7529 100.529L94.0586 100.135L96.5449 96.9236L102.427 99.6667L101.567 103.635L101.461 104.124L101.846 104.445C103.084 105.479 104.195 106.682 105.138 108.036L105.424 108.446L105.92 108.383L109.945 107.872L112.164 113.969L108.753 116.166L108.332 116.436L108.377 116.934C108.525 118.578 108.447 120.215 108.163 121.802L108.074 122.295L108.47 122.601L111.68 125.088L108.937 130.969L104.969 130.109L104.479 130.004L104.159 130.387C103.125 131.626 101.923 132.736 100.568 133.679L100.158 133.966L100.221 134.462L100.731 138.488L94.6338 140.707L92.4385 137.296L92.167 136.875L91.6689 136.92C90.0252 137.067 88.3892 136.99 86.8018 136.706L86.3096 136.617L86.0029 137.012L83.5156 140.222L77.6338 137.479L78.4951 133.511L78.6016 133.022L78.2168 132.702C76.9787 131.668 75.8679 130.465 74.9248 129.111L74.6396 128.701L74.1436 128.763L70.1152 129.274L67.8965 123.176L71.3096 120.98L71.7305 120.71L71.6855 120.212C71.5379 118.568 71.6146 116.932 71.8994 115.344L71.9883 114.851L71.5928 114.545L68.3818 112.057L71.125 106.177L75.0938 107.037L75.583 107.143L75.9033 106.76C76.9369 105.521 78.14 104.411 79.4941 103.468L79.9043 103.181L79.8418 102.685L79.3301 98.658L85.4277 96.4392L87.625 99.8513ZM99.0137 115.303C97.275 110.527 91.9938 108.064 87.2168 109.802C82.4398 111.541 79.9762 116.823 81.7148 121.599C83.4535 126.376 88.7362 128.839 93.5127 127.1C98.2894 125.362 100.752 120.08 99.0137 115.303Z" fill="url(#paint1_linear_129_1579)" stroke="#F4A27E" stroke-width="1.6526"/>
<path d="M74.7454 124.771C76.398 123.118 83.9724 118.849 87.5531 116.921C87.6907 117.334 88.3792 118.739 90.0318 121.053C88.7097 120.722 80.3917 128.076 76.398 131.795C75.1585 130.142 73.0928 126.424 74.7454 124.771Z" fill="url(#paint2_linear_129_1579)" stroke="#F4A27E" stroke-width="0.41315"/>
<path d="M83.8352 105.766C84.1657 104.774 87.5535 106.73 89.2062 107.832L91.272 115.268L78.0512 120.226L75.5723 116.508C77.5003 114.993 81.2737 111.715 80.9431 110.724C80.53 109.484 83.422 107.005 83.8352 105.766Z" fill="url(#paint3_linear_129_1579)" stroke="#F4A27E" stroke-width="0.41315"/>
<path d="M105.317 78.9114C86.1471 77.9198 58.4936 92.8208 47.0631 100.395C45.8238 103.7 46.0953 102.874 45.8238 103.7C45.0689 105.998 44.5329 107.103 43.7581 109.484C46.65 109.898 99.1202 50.8171 116.886 110.724C115.765 114.287 25.4258 159.062 20.6216 180.546C8.05987 221.279 2.79897 245.318 6.16125 250.782C47.0631 207.814 59.8708 199.551 97.8806 169.804C135.89 140.058 159.44 134.273 171.421 132.621C183.403 130.968 194.971 137.992 194.558 149.147C215.215 126.01 191.666 107.006 179.271 100.395C175.966 85.9349 157.787 77.672 137.956 73.1273C118.125 68.5827 88.3782 73.9536 86.3124 74.7799C84.2467 75.6062 85.4861 75.6062 85.8993 75.6062C86.3124 75.6062 99.5332 76.4325 105.317 78.9114Z" fill="url(#paint4_linear_129_1579)" stroke="#F4A27E" stroke-width="2.4789"/>
<path d="M24.341 173.523C39.5449 156.005 81.3557 130.968 100.361 120.64C101.876 118.574 106.806 114.194 114.408 113.203C122.01 112.211 118.952 116.646 116.473 118.987C100.774 132.345 22.2752 173.523 34.6697 175.588C36.7355 177.654 22.8261 194.318 14.0122 202.443C15.6648 194.869 20.0442 178.481 24.341 173.523Z" fill="url(#paint5_linear_129_1579)"/>
<path d="M189.6 122.705C179.684 122.292 175.553 120.226 171.834 113.616" stroke="#F4A27E" stroke-width="1.6526"/>
<path d="M155.722 124.358C138.783 128.489 115.895 143.032 85.4867 179.72C36.3219 218.556 21.4486 237.561 0.37793 260.284C4.92258 249.955 3.68302 242.105 5.33573 237.148" stroke="#F4A27E" stroke-width="0.826301"/>
<g filter="url(#filter0_d_129_1579)">
<path d="M55.3272 159.889C66.8955 146.668 99.5349 125.597 116.06 114.029C123.635 109.898 138.949 110.724 129.694 123.945C80.5293 157.41 56.5668 186.744 42.1065 211.533C41.2802 199.551 49.4416 166.615 55.3272 159.889Z" fill="url(#paint6_linear_129_1579)"/>
<path d="M55.3272 159.889C66.8955 146.668 99.5349 125.597 116.06 114.029C123.635 109.898 138.949 110.724 129.694 123.945C80.5293 157.41 56.5668 186.744 42.1065 211.533C41.2802 199.551 49.4416 166.615 55.3272 159.889Z" stroke="#F4A27E" stroke-width="2.4789"/>
</g>
<path d="M43.7583 109.897C58.9945 96.2635 74.2459 87.1565 81.7689 85.5217L88.2205 90.4878C73.9184 96.2633 74.7447 97.0896 72.6789 94.6107C66.8948 97.0896 51.6076 102.874 43.7583 109.897Z" fill="url(#paint7_linear_129_1579)" stroke="#F4A27E" stroke-width="0.41315"/>
<path d="M190.84 124.358C167.29 128.076 148.285 124.771 142.501 113.616" stroke="#F4A27E" stroke-width="1.6526"/>
<g filter="url(#filter1_d_129_1579)">
<path d="M89.6191 104.113C85.3499 99.2933 73.5062 86.5132 58.6328 68.9956C67.5569 76.9281 97.8821 80.2884 111.929 80.977C127.216 79.3244 126.803 80.977 135.479 83.869" stroke="#F4A27E" stroke-width="2.4789"/>
</g>
<path d="M91.2706 116.095L87.5522 116.959L91.2706 121.466L95.8153 119.4" stroke="#F4A27E" stroke-width="0.41315"/>
<g filter="url(#filter2_d_129_1579)">
<path d="M111.929 80.977C97.8821 80.2884 67.5569 76.9281 58.6328 68.9956C73.5062 86.5132 83.835 86.7611 90.0322 99.1556C93.7506 95.8504 104.492 91.3057 113.169 100.808" stroke="#F4A27E" stroke-width="0.826301"/>
</g>
<g filter="url(#filter3_d_129_1579)">
<path d="M124.735 87.1743C129.28 86.7612 131.346 86.7612 133.412 86.348C139.196 82.2165 127.958 80.0681 142.501 81.3902C157.044 82.7122 170.32 103.149 175.14 113.203C168.254 114.718 152.582 117.169 144.98 114.855C137.378 112.542 128.454 106.179 125.149 102.874C126.113 102.599 128.041 99.734 124.735 87.1743Z" fill="url(#paint8_linear_129_1579)"/>
<path d="M124.735 87.1743C129.28 86.7612 131.346 86.7612 133.412 86.348C139.196 82.2165 127.958 80.0681 142.501 81.3902C157.044 82.7122 170.32 103.149 175.14 113.203C168.254 114.718 152.582 117.169 144.98 114.855C137.378 112.542 128.454 106.179 125.149 102.874C126.113 102.599 128.041 99.734 124.735 87.1743Z" stroke="#F4A27E" stroke-width="2.4789"/>
</g>
<path d="M132.999 84.2823C133.55 94.0601 141.758 113.285 170.183 111.963C173.488 93.7847 142.915 76.8456 132.999 84.2823Z" fill="url(#paint9_linear_129_1579)" stroke="#F4A27E" stroke-width="0.826301" stroke-linejoin="round"/>
<path d="M153.657 94.6441C148.403 91.1414 143.328 88.8268 137.544 89.24C140.849 100.395 144.981 95.8173 151.591 102.461C155.142 106.029 161.782 104.56 163.159 104.147C161.644 102.769 158.615 97.9493 153.657 94.6441Z" fill="url(#paint10_linear_129_1579)" stroke="#F4A27E" stroke-width="2.4789" stroke-linejoin="round"/>
<g filter="url(#filter4_d_129_1579)">
<ellipse cx="101.186" cy="108.658" rx="12.8077" ry="12.3945" fill="url(#paint11_linear_129_1579)"/>
<path d="M101.186 97.5027C107.614 97.5027 112.754 102.535 112.754 108.658C112.754 114.781 107.614 119.813 101.186 119.813C94.7585 119.813 89.6177 114.781 89.6177 108.658C89.6177 102.535 94.7585 97.5027 101.186 97.5027Z" stroke="#F4A27E" stroke-width="2.4789"/>
</g>
<path d="M101.186 99.7759C106.328 99.7761 110.481 103.761 110.481 108.658C110.481 113.555 106.329 117.54 101.186 117.541C96.0433 117.541 91.8901 113.555 91.8901 108.658C91.8904 103.761 96.0435 99.7759 101.186 99.7759Z" fill="url(#paint12_linear_129_1579)" stroke="#F4A27E" stroke-width="0.41315"/>
<g filter="url(#filter5_d_129_1579)">
<ellipse cx="101.187" cy="108.658" rx="7.02355" ry="6.6104" fill="url(#paint13_linear_129_1579)"/>
<path d="M101.187 102.255C104.964 102.255 108.004 105.133 108.004 108.658C108.004 112.183 104.964 115.062 101.187 115.062C97.4102 115.062 94.3706 112.183 94.3706 108.658C94.3706 105.133 97.4102 102.255 101.187 102.255Z" stroke="#F4A27E" stroke-width="0.41315"/>
</g>
<path d="M108.21 114.855C106.97 116.095 104.904 117.747 101.186 117.747C99.5335 117.747 96.6414 117.334 94.5757 115.268C96.6414 112.789 100.773 111.963 101.186 111.963C102.264 111.963 103.665 111.55 108.21 114.855Z" fill="url(#paint14_linear_129_1579)"/>
<circle cx="183.816" cy="109.071" r="1.23945" fill="url(#paint15_linear_129_1579)"/>
<path d="M142.089 109.071C142.089 109.756 141.534 110.31 140.85 110.31C140.165 110.31 139.61 109.756 139.61 109.071C139.61 108.386 140.165 107.832 140.85 107.832C141.534 107.832 142.089 108.386 142.089 109.071Z" fill="url(#paint16_linear_129_1579)"/>
<circle cx="111.928" cy="109.071" r="0.41315" fill="url(#paint17_linear_129_1579)"/>
<circle cx="90.4439" cy="108.245" r="0.41315" fill="url(#paint18_linear_129_1579)"/>
<path d="M110.268 80.4471C109.723 80.525 109.178 80.6029 108.632 80.6808C108.707 81.0834 108.826 81.4064 108.95 81.7219C110.122 84.5406 111.981 86.9662 112.36 89.6533L112.347 89.9593L112.678 90.041C115.29 90.4703 117.922 90.9527 120.526 91.5021C120.827 91.5683 121.14 91.6378 121.432 91.719C121.148 91.6115 120.841 91.5152 120.547 91.4222C117.994 90.6423 115.427 89.9322 112.833 89.2655L113.151 89.6533C112.969 86.4408 111.241 83.8698 110.431 81.2015C110.35 80.9302 110.284 80.6547 110.268 80.4471Z" fill="#F4A27E"/>
<path d="M73.4178 75.5623C72.925 75.316 72.4323 75.0697 71.9396 74.8234C71.7587 75.2182 71.7521 75.598 71.7709 75.886C71.9042 76.9877 72.0925 77.5536 71.7465 78.152L71.2089 78.8678L72.1433 79.1099C74.1544 79.4729 76.2351 80.5179 78.3912 81.1919L78.6706 81.3032L78.6894 80.977C78.5675 79.9317 78.3886 78.8529 79.155 78.0895C79.3139 77.9264 79.5014 77.7875 79.7023 77.6718C79.4891 77.7629 79.2835 77.8798 79.0994 78.0284C78.1989 78.7037 78.2323 80.0196 78.2364 80.977L78.5345 80.7621C76.5294 79.8703 74.7089 78.611 72.388 77.8862L72.7848 78.8442C73.5444 77.9071 73.3239 76.5132 73.3406 75.8532C73.3494 75.6808 73.3891 75.5842 73.4178 75.5623Z" fill="#F4A27E"/>
<circle cx="90.4439" cy="83.4559" r="0.41315" fill="url(#paint19_linear_129_1579)"/>
<circle cx="77.2237" cy="79.3243" r="0.41315" fill="url(#paint20_linear_129_1579)"/>
<path d="M113.409 111.792C113.799 112.182 114.188 112.572 114.578 112.961C114.486 113.017 114.609 112.911 114.715 112.862C117.25 111.886 120.449 111.368 123.415 111.471C123.581 111.487 123.752 111.512 123.909 111.55C123.76 111.486 123.593 111.434 123.429 111.39C120.396 110.813 117.419 110.726 114.141 111.401C113.931 111.48 113.75 111.503 113.409 111.792Z" fill="#F4A27E"/>
<path d="M105.731 121.879L116.886 133.447L113.581 136.339L101.6 124.358L96.2289 128.076L107.384 140.884L102.839 144.189L91.2711 130.968L85.9001 135.099L97.8815 148.32L92.9237 152.865L79.7029 139.644L75.1582 143.362" stroke="#F4A27E" stroke-width="0.826301"/>
<path d="M92.0977 152.865L89.2056 149.973L82.5952 154.931L85.9004 158.236C86.2309 157.906 90.1696 154.518 92.0977 152.865Z" fill="url(#paint21_linear_129_1579)"/>
<path d="M40.4536 126.837L43.7588 115.269C47.844 106.281 61.6235 101.333 72.3166 96.8299C72.439 96.7678 72.56 96.7165 72.6793 96.6768C72.5588 96.7277 72.4379 96.7788 72.3166 96.8299C68.6235 98.7027 63.6431 110.43 65.2426 114.029C61.1111 112.79 49.1298 118.161 40.4536 126.837Z" fill="url(#paint22_linear_129_1579)" stroke="#F4A27E" stroke-width="1.6526"/>
<g filter="url(#filter6_d_129_1579)">
<path d="M29.7114 164.433L38.8007 133.447L58.6319 118.574L75.158 116.508L78.05 120.226L62.3503 133.447C60.9731 134.136 56.6488 135.43 53.6741 141.71C48.0553 143.032 35.6332 157.961 29.7114 164.433Z" fill="url(#paint23_linear_129_1579)"/>
<path d="M29.7114 164.433L38.8007 133.447L58.6319 118.574L75.158 116.508L78.05 120.226L62.3503 133.447C60.9731 134.136 56.6488 135.43 53.6741 141.71C48.0553 143.032 35.6332 157.961 29.7114 164.433Z" stroke="#F4A27E" stroke-width="1.6526"/>
</g>
<path d="M58.6328 118.574L62.3512 133.447" stroke="#F4A27E" stroke-width="0.41315"/>
<circle cx="63.177" cy="120.639" r="1.23945" fill="url(#paint24_linear_129_1579)"/>
<path d="M174.727 113.203C184.643 116.508 195.798 125.515 199.103 143.363" stroke="#F4A27E" stroke-width="1.6526"/>
<mask id="path-41-outside-1_129_1579" maskUnits="userSpaceOnUse" x="256.269" y="50" width="1008" height="138" fill="black">
<rect fill="white" x="256.269" y="50" width="1008" height="138"/>
<path d="M310.147 144.846V119.564H342.808V79.5249H310.147V53.4553H359.827L385.995 79.5249V118.678L365.729 138.944L390.422 184H343.988L325.494 144.846H310.147ZM259.779 184V53.4553H303.261V184H259.779ZM497.553 184L492.044 169.736H449.349L458.399 143.863H482.009L447.086 53.4553H489.486L541.527 184H497.553ZM395.734 184L442.364 59.3579L461.646 111.202L437.74 184H395.734ZM603.307 165.505V102.053L633.803 53.4553H679.056L603.307 165.505ZM553.135 184V53.4553H596.617V184H553.135ZM634.098 184L619.342 153.602L645.116 114.94L681.122 184H634.098ZM788.155 184L782.646 169.736H739.951L749.001 143.863H772.611L737.688 53.4553H780.088L832.129 184H788.155ZM686.336 184L732.966 59.3579L752.248 111.202L728.342 184H686.336ZM894.106 144.846V119.564H926.766V79.5249H894.106V53.4553H943.785L969.953 79.5249V118.678L949.688 138.944L974.38 184H927.947L909.452 144.846H894.106ZM843.737 184V53.4553H887.219V184H843.737ZM1070.59 184V135.107H1014.12L987.956 108.939V79.5249L1014.12 53.4553H1028.88V99.7903H1088.89L1114.17 125.958V157.93L1088.1 184H1070.59ZM1070.59 90.0511V76.9671H1035.77V53.4553H1088L1110.63 76.1801V90.0511H1070.59ZM1009.89 184L987.956 157.93V144.846H1031.44V160.39H1063.71V184H1009.89ZM1216.58 184V130.975H1184.31V104.807H1216.29V53.4553H1260.16V184H1216.58ZM1133.95 184V53.4553H1177.43V184H1133.95Z"/>
</mask>
<path d="M310.147 144.846V119.564H342.808V79.5249H310.147V53.4553H359.827L385.995 79.5249V118.678L365.729 138.944L390.422 184H343.988L325.494 144.846H310.147ZM259.779 184V53.4553H303.261V184H259.779ZM497.553 184L492.044 169.736H449.349L458.399 143.863H482.009L447.086 53.4553H489.486L541.527 184H497.553ZM395.734 184L442.364 59.3579L461.646 111.202L437.74 184H395.734ZM603.307 165.505V102.053L633.803 53.4553H679.056L603.307 165.505ZM553.135 184V53.4553H596.617V184H553.135ZM634.098 184L619.342 153.602L645.116 114.94L681.122 184H634.098ZM788.155 184L782.646 169.736H739.951L749.001 143.863H772.611L737.688 53.4553H780.088L832.129 184H788.155ZM686.336 184L732.966 59.3579L752.248 111.202L728.342 184H686.336ZM894.106 144.846V119.564H926.766V79.5249H894.106V53.4553H943.785L969.953 79.5249V118.678L949.688 138.944L974.38 184H927.947L909.452 144.846H894.106ZM843.737 184V53.4553H887.219V184H843.737ZM1070.59 184V135.107H1014.12L987.956 108.939V79.5249L1014.12 53.4553H1028.88V99.7903H1088.89L1114.17 125.958V157.93L1088.1 184H1070.59ZM1070.59 90.0511V76.9671H1035.77V53.4553H1088L1110.63 76.1801V90.0511H1070.59ZM1009.89 184L987.956 157.93V144.846H1031.44V160.39H1063.71V184H1009.89ZM1216.58 184V130.975H1184.31V104.807H1216.29V53.4553H1260.16V184H1216.58ZM1133.95 184V53.4553H1177.43V184H1133.95Z" fill="url(#paint25_linear_129_1579)"/>
<path d="M310.147 144.846H306.955V148.038H310.147V144.846ZM310.147 119.564V116.372H306.955V119.564H310.147ZM342.808 119.564V122.756H346V119.564H342.808ZM342.808 79.5249H346V76.3331H342.808V79.5249ZM310.147 79.5249H306.955V82.7168H310.147V79.5249ZM310.147 53.4553V50.2635H306.955V53.4553H310.147ZM359.827 53.4553L362.079 51.1941L361.145 50.2635H359.827V53.4553ZM385.995 79.5249H389.186V78.1993L388.247 77.2637L385.995 79.5249ZM385.995 118.678L388.252 120.935L389.186 120.001V118.678H385.995ZM365.729 138.944L363.472 136.687L361.78 138.379L362.93 140.478L365.729 138.944ZM390.422 184V187.192H395.811L393.221 182.466L390.422 184ZM343.988 184L341.102 185.363L341.966 187.192H343.988V184ZM325.494 144.846L328.38 143.483L327.516 141.655H325.494V144.846ZM259.779 184H256.587V187.192H259.779V184ZM259.779 53.4553V50.2635H256.587V53.4553H259.779ZM303.261 53.4553H306.452V50.2635H303.261V53.4553ZM303.261 184V187.192H306.452V184H303.261ZM310.147 144.846H313.339V119.564H310.147H306.955V144.846H310.147ZM310.147 119.564V122.756H342.808V119.564V116.372H310.147V119.564ZM342.808 119.564H346V79.5249H342.808H339.616V119.564H342.808ZM342.808 79.5249V76.3331H310.147V79.5249V82.7168H342.808V79.5249ZM310.147 79.5249H313.339V53.4553H310.147H306.955V79.5249H310.147ZM310.147 53.4553V56.6472H359.827V53.4553V50.2635H310.147V53.4553ZM359.827 53.4553L357.574 55.7166L383.742 81.7861L385.995 79.5249L388.247 77.2637L362.079 51.1941L359.827 53.4553ZM385.995 79.5249H382.803V118.678H385.995H389.186V79.5249H385.995ZM385.995 118.678L383.738 116.422L363.472 136.687L365.729 138.944L367.986 141.201L388.252 120.935L385.995 118.678ZM365.729 138.944L362.93 140.478L387.622 185.534L390.422 184L393.221 182.466L368.528 137.41L365.729 138.944ZM390.422 184V180.808H343.988V184V187.192H390.422V184ZM343.988 184L346.874 182.637L328.38 143.483L325.494 144.846L322.607 146.21L341.102 185.363L343.988 184ZM325.494 144.846V141.655H310.147V144.846V148.038H325.494V144.846ZM259.779 184H262.97V53.4553H259.779H256.587V184H259.779ZM259.779 53.4553V56.6472H303.261V53.4553V50.2635H259.779V53.4553ZM303.261 53.4553H300.069V184H303.261H306.452V53.4553H303.261ZM303.261 184V180.808H259.779V184V187.192H303.261V184ZM497.553 184L494.575 185.15L495.364 187.192H497.553V184ZM492.044 169.736L495.021 168.586L494.233 166.544H492.044V169.736ZM449.349 169.736L446.336 168.682L444.851 172.927H449.349V169.736ZM458.399 143.863V140.671H456.134L455.386 142.809L458.399 143.863ZM482.009 143.863V147.055H486.664L484.987 142.713L482.009 143.863ZM447.086 53.4553V50.2635H442.431L444.109 54.6055L447.086 53.4553ZM489.486 53.4553L492.451 52.2734L491.65 50.2635H489.486V53.4553ZM541.527 184V187.192H546.235L544.492 182.818L541.527 184ZM395.734 184L392.744 182.882L391.132 187.192H395.734V184ZM442.364 59.3579L445.356 58.2452L442.373 50.2251L439.374 58.2395L442.364 59.3579ZM461.646 111.202L464.678 112.198L465.027 111.136L464.637 110.089L461.646 111.202ZM437.74 184V187.192H440.052L440.773 184.996L437.74 184ZM497.553 184L500.53 182.85L495.021 168.586L492.044 169.736L489.066 170.885L494.575 185.15L497.553 184ZM492.044 169.736V166.544H449.349V169.736V172.927H492.044V169.736ZM449.349 169.736L452.361 170.789L461.412 144.917L458.399 143.863L455.386 142.809L446.336 168.682L449.349 169.736ZM458.399 143.863V147.055H482.009V143.863V140.671H458.399V143.863ZM482.009 143.863L484.987 142.713L450.063 52.3052L447.086 53.4553L444.109 54.6055L479.032 145.013L482.009 143.863ZM447.086 53.4553V56.6472H489.486V53.4553V50.2635H447.086V53.4553ZM489.486 53.4553L486.521 54.6373L538.562 185.182L541.527 184L544.492 182.818L492.451 52.2734L489.486 53.4553ZM541.527 184V180.808H497.553V184V187.192H541.527V184ZM395.734 184L398.723 185.118L445.353 60.4763L442.364 59.3579L439.374 58.2395L392.744 182.882L395.734 184ZM442.364 59.3579L439.372 60.4705L458.654 112.315L461.646 111.202L464.637 110.089L445.356 58.2452L442.364 59.3579ZM461.646 111.202L458.613 110.206L434.708 183.004L437.74 184L440.773 184.996L464.678 112.198L461.646 111.202ZM437.74 184V180.808H395.734V184V187.192H437.74V184ZM603.307 165.505H600.115V175.926L605.951 167.293L603.307 165.505ZM603.307 102.053L600.603 100.356L600.115 101.134V102.053H603.307ZM633.803 53.4553V50.2635H632.038L631.1 51.7587L633.803 53.4553ZM679.056 53.4553L681.7 55.243L685.067 50.2635H679.056V53.4553ZM553.135 184H549.943V187.192H553.135V184ZM553.135 53.4553V50.2635H549.943V53.4553H553.135ZM596.617 53.4553H599.809V50.2635H596.617V53.4553ZM596.617 184V187.192H599.809V184H596.617ZM634.098 184L631.227 185.394L632.1 187.192H634.098V184ZM619.342 153.602L616.686 151.831L615.673 153.352L616.471 154.996L619.342 153.602ZM645.116 114.94L647.947 113.465L645.453 108.681L642.461 113.17L645.116 114.94ZM681.122 184V187.192H686.386L683.952 182.524L681.122 184ZM603.307 165.505H606.499V102.053H603.307H600.115V165.505H603.307ZM603.307 102.053L606.01 103.75L636.507 55.1519L633.803 53.4553L631.1 51.7587L600.603 100.356L603.307 102.053ZM633.803 53.4553V56.6472H679.056V53.4553V50.2635H633.803V53.4553ZM679.056 53.4553L676.412 51.6677L600.662 163.718L603.307 165.505L605.951 167.293L681.7 55.243L679.056 53.4553ZM553.135 184H556.327V53.4553H553.135H549.943V184H553.135ZM553.135 53.4553V56.6472H596.617V53.4553V50.2635H553.135V53.4553ZM596.617 53.4553H593.425V184H596.617H599.809V53.4553H596.617ZM596.617 184V180.808H553.135V184V187.192H596.617V184ZM634.098 184L636.97 182.606L622.213 152.208L619.342 153.602L616.471 154.996L631.227 185.394L634.098 184ZM619.342 153.602L621.998 155.372L647.772 116.711L645.116 114.94L642.461 113.17L616.686 151.831L619.342 153.602ZM645.116 114.94L642.286 116.416L678.292 185.476L681.122 184L683.952 182.524L647.947 113.465L645.116 114.94ZM681.122 184V180.808H634.098V184V187.192H681.122V184ZM788.155 184L785.177 185.15L785.966 187.192H788.155V184ZM782.646 169.736L785.623 168.586L784.835 166.544H782.646V169.736ZM739.951 169.736L736.938 168.682L735.453 172.927H739.951V169.736ZM749.001 143.863V140.671H746.736L745.988 142.809L749.001 143.863ZM772.611 143.863V147.055H777.266L775.589 142.713L772.611 143.863ZM737.688 53.4553V50.2635H733.033L734.711 54.6055L737.688 53.4553ZM780.088 53.4553L783.053 52.2734L782.252 50.2635H780.088V53.4553ZM832.129 184V187.192H836.837L835.094 182.818L832.129 184ZM686.336 184L683.346 182.882L681.734 187.192H686.336V184ZM732.966 59.3579L735.958 58.2452L732.975 50.2251L729.977 58.2395L732.966 59.3579ZM752.248 111.202L755.28 112.198L755.629 111.136L755.239 110.089L752.248 111.202ZM728.342 184V187.192H730.654L731.375 184.996L728.342 184ZM788.155 184L791.132 182.85L785.623 168.586L782.646 169.736L779.668 170.885L785.177 185.15L788.155 184ZM782.646 169.736V166.544H739.951V169.736V172.927H782.646V169.736ZM739.951 169.736L742.964 170.789L752.014 144.917L749.001 143.863L745.988 142.809L736.938 168.682L739.951 169.736ZM749.001 143.863V147.055H772.611V143.863V140.671H749.001V143.863ZM772.611 143.863L775.589 142.713L740.665 52.3052L737.688 53.4553L734.711 54.6055L769.634 145.013L772.611 143.863ZM737.688 53.4553V56.6472H780.088V53.4553V50.2635H737.688V53.4553ZM780.088 53.4553L777.123 54.6373L829.164 185.182L832.129 184L835.094 182.818L783.053 52.2734L780.088 53.4553ZM832.129 184V180.808H788.155V184V187.192H832.129V184ZM686.336 184L689.325 185.118L735.956 60.4763L732.966 59.3579L729.977 58.2395L683.346 182.882L686.336 184ZM732.966 59.3579L729.974 60.4705L749.256 112.315L752.248 111.202L755.239 110.089L735.958 58.2452L732.966 59.3579ZM752.248 111.202L749.215 110.206L725.31 183.004L728.342 184L731.375 184.996L755.28 112.198L752.248 111.202ZM728.342 184V180.808H686.336V184V187.192H728.342V184ZM894.106 144.846H890.914V148.038H894.106V144.846ZM894.106 119.564V116.372H890.914V119.564H894.106ZM926.766 119.564V122.756H929.958V119.564H926.766ZM926.766 79.5249H929.958V76.3331H926.766V79.5249ZM894.106 79.5249H890.914V82.7168H894.106V79.5249ZM894.106 53.4553V50.2635H890.914V53.4553H894.106ZM943.785 53.4553L946.038 51.1941L945.104 50.2635H943.785V53.4553ZM969.953 79.5249H973.145V78.1993L972.206 77.2637L969.953 79.5249ZM969.953 118.678L972.21 120.935L973.145 120.001V118.678H969.953ZM949.688 138.944L947.431 136.687L945.739 138.379L946.889 140.478L949.688 138.944ZM974.38 184V187.192H979.769L977.179 182.466L974.38 184ZM927.947 184L925.061 185.363L925.924 187.192H927.947V184ZM909.452 144.846L912.338 143.483L911.474 141.655H909.452V144.846ZM843.737 184H840.545V187.192H843.737V184ZM843.737 53.4553V50.2635H840.545V53.4553H843.737ZM887.219 53.4553H890.411V50.2635H887.219V53.4553ZM887.219 184V187.192H890.411V184H887.219ZM894.106 144.846H897.297V119.564H894.106H890.914V144.846H894.106ZM894.106 119.564V122.756H926.766V119.564V116.372H894.106V119.564ZM926.766 119.564H929.958V79.5249H926.766H923.574V119.564H926.766ZM926.766 79.5249V76.3331H894.106V79.5249V82.7168H926.766V79.5249ZM894.106 79.5249H897.297V53.4553H894.106H890.914V79.5249H894.106ZM894.106 53.4553V56.6472H943.785V53.4553V50.2635H894.106V53.4553ZM943.785 53.4553L941.533 55.7166L967.701 81.7861L969.953 79.5249L972.206 77.2637L946.038 51.1941L943.785 53.4553ZM969.953 79.5249H966.761V118.678H969.953H973.145V79.5249H969.953ZM969.953 118.678L967.696 116.422L947.431 136.687L949.688 138.944L951.945 141.201L972.21 120.935L969.953 118.678ZM949.688 138.944L946.889 140.478L971.581 185.534L974.38 184L977.179 182.466L952.487 137.41L949.688 138.944ZM974.38 184V180.808H927.947V184V187.192H974.38V184ZM927.947 184L930.833 182.637L912.338 143.483L909.452 144.846L906.566 146.21L925.061 185.363L927.947 184ZM909.452 144.846V141.655H894.106V144.846V148.038H909.452V144.846ZM843.737 184H846.929V53.4553H843.737H840.545V184H843.737ZM843.737 53.4553V56.6472H887.219V53.4553V50.2635H843.737V53.4553ZM887.219 53.4553H884.027V184H887.219H890.411V53.4553H887.219ZM887.219 184V180.808H843.737V184V187.192H887.219V184ZM1070.59 184H1067.4V187.192H1070.59V184ZM1070.59 135.107H1073.78V131.915H1070.59V135.107ZM1014.12 135.107L1011.87 137.364L1012.8 138.299H1014.12V135.107ZM987.956 108.939H984.764V110.261L985.699 111.196L987.956 108.939ZM987.956 79.5249L985.703 77.2637L984.764 78.1993V79.5249H987.956ZM1014.12 53.4553V50.2635H1012.81L1011.87 51.1941L1014.12 53.4553ZM1028.88 53.4553H1032.07V50.2635H1028.88V53.4553ZM1028.88 99.7903H1025.69V102.982H1028.88V99.7903ZM1088.89 99.7903L1091.19 97.5725L1090.24 96.5985H1088.89V99.7903ZM1114.17 125.958H1117.36V124.668L1116.47 123.74L1114.17 125.958ZM1114.17 157.93L1116.43 160.187L1117.36 159.253V157.93H1114.17ZM1088.1 184V187.192H1089.42L1090.36 186.257L1088.1 184ZM1070.59 90.0511H1067.4V93.243H1070.59V90.0511ZM1070.59 76.9671H1073.78V73.7753H1070.59V76.9671ZM1035.77 76.9671H1032.57V80.159H1035.77V76.9671ZM1035.77 53.4553V50.2635H1032.57V53.4553H1035.77ZM1088 53.4553L1090.27 51.2033L1089.33 50.2635H1088V53.4553ZM1110.63 76.1801H1113.82V74.8621L1112.89 73.9281L1110.63 76.1801ZM1110.63 90.0511V93.243H1113.82V90.0511H1110.63ZM1009.89 184L1007.45 186.055L1008.41 187.192H1009.89V184ZM987.956 157.93H984.764V159.095L985.514 159.986L987.956 157.93ZM987.956 144.846V141.655H984.764V144.846H987.956ZM1031.44 144.846H1034.63V141.655H1031.44V144.846ZM1031.44 160.39H1028.25V163.582H1031.44V160.39ZM1063.71 160.39H1066.9V157.198H1063.71V160.39ZM1063.71 184V187.192H1066.9V184H1063.71ZM1070.59 184H1073.78V135.107H1070.59H1067.4V184H1070.59ZM1070.59 135.107V131.915H1014.12V135.107V138.299H1070.59V135.107ZM1014.12 135.107L1016.38 132.85L990.213 106.682L987.956 108.939L985.699 111.196L1011.87 137.364L1014.12 135.107ZM987.956 108.939H991.148V79.5249H987.956H984.764V108.939H987.956ZM987.956 79.5249L990.209 81.7861L1016.38 55.7166L1014.12 53.4553L1011.87 51.1941L985.703 77.2637L987.956 79.5249ZM1014.12 53.4553V56.6472H1028.88V53.4553V50.2635H1014.12V53.4553ZM1028.88 53.4553H1025.69V99.7903H1028.88H1032.07V53.4553H1028.88ZM1028.88 99.7903V102.982H1088.89V99.7903V96.5985H1028.88V99.7903ZM1088.89 99.7903L1086.59 102.008L1111.88 128.176L1114.17 125.958L1116.47 123.74L1091.19 97.5725L1088.89 99.7903ZM1114.17 125.958H1110.98V157.93H1114.17H1117.36V125.958H1114.17ZM1114.17 157.93L1111.92 155.673L1085.85 181.743L1088.1 184L1090.36 186.257L1116.43 160.187L1114.17 157.93ZM1088.1 184V180.808H1070.59V184V187.192H1088.1V184ZM1070.59 90.0511H1073.78V76.9671H1070.59H1067.4V90.0511H1070.59ZM1070.59 76.9671V73.7753H1035.77V76.9671V80.159H1070.59V76.9671ZM1035.77 76.9671H1038.96V53.4553H1035.77H1032.57V76.9671H1035.77ZM1035.77 53.4553V56.6472H1088V53.4553V50.2635H1035.77V53.4553ZM1088 53.4553L1085.74 55.7074L1108.37 78.4322L1110.63 76.1801L1112.89 73.9281L1090.27 51.2033L1088 53.4553ZM1110.63 76.1801H1107.44V90.0511H1110.63H1113.82V76.1801H1110.63ZM1110.63 90.0511V86.8593H1070.59V90.0511V93.243H1110.63V90.0511ZM1009.89 184L1012.34 181.945L990.398 155.875L987.956 157.93L985.514 159.986L1007.45 186.055L1009.89 184ZM987.956 157.93H991.148V144.846H987.956H984.764V157.93H987.956ZM987.956 144.846V148.038H1031.44V144.846V141.655H987.956V144.846ZM1031.44 144.846H1028.25V160.39H1031.44H1034.63V144.846H1031.44ZM1031.44 160.39V163.582H1063.71V160.39V157.198H1031.44V160.39ZM1063.71 160.39H1060.51V184H1063.71H1066.9V160.39H1063.71ZM1063.71 184V180.808H1009.89V184V187.192H1063.71V184ZM1216.58 184H1213.39V187.192H1216.58V184ZM1216.58 130.975H1219.77V127.784H1216.58V130.975ZM1184.31 130.975H1181.12V134.167H1184.31V130.975ZM1184.31 104.807V101.616H1181.12V104.807H1184.31ZM1216.29 104.807V107.999H1219.48V104.807H1216.29ZM1216.29 53.4553V50.2635H1213.09V53.4553H1216.29ZM1260.16 53.4553H1263.35V50.2635H1260.16V53.4553ZM1260.16 184V187.192H1263.35V184H1260.16ZM1133.95 184H1130.75V187.192H1133.95V184ZM1133.95 53.4553V50.2635H1130.75V53.4553H1133.95ZM1177.43 53.4553H1180.62V50.2635H1177.43V53.4553ZM1177.43 184V187.192H1180.62V184H1177.43ZM1216.58 184H1219.77V130.975H1216.58H1213.39V184H1216.58ZM1216.58 130.975V127.784H1184.31V130.975V134.167H1216.58V130.975ZM1184.31 130.975H1187.51V104.807H1184.31H1181.12V130.975H1184.31ZM1184.31 104.807V107.999H1216.29V104.807V101.616H1184.31V104.807ZM1216.29 104.807H1219.48V53.4553H1216.29H1213.09V104.807H1216.29ZM1216.29 53.4553V56.6472H1260.16V53.4553V50.2635H1216.29V53.4553ZM1260.16 53.4553H1256.97V184H1260.16H1263.35V53.4553H1260.16ZM1260.16 184V180.808H1216.58V184V187.192H1260.16V184ZM1133.95 184H1137.14V53.4553H1133.95H1130.75V184H1133.95ZM1133.95 53.4553V56.6472H1177.43V53.4553V50.2635H1133.95V53.4553ZM1177.43 53.4553H1174.24V184H1177.43H1180.62V53.4553H1177.43ZM1177.43 184V180.808H1133.95V184V187.192H1177.43V184Z" fill="#F4A27E" mask="url(#path-41-outside-1_129_1579)"/>
<defs>
<filter id="filter0_d_129_1579" x="39.1565" y="110.586" width="96.3145" height="108.356" filterUnits="userSpaceOnUse" color-interpolation-filters="sRGB">
<feFlood flood-opacity="0" result="BackgroundImageFix"/>
<feColorMatrix in="SourceAlpha" type="matrix" values="0 0 0 0 0 0 0 0 0 0 0 0 0 0 0 0 0 0 127 0" result="hardAlpha"/>
<feOffset dy="1.6526"/>
<feGaussianBlur stdDeviation="0.826301"/>
<feComposite in2="hardAlpha" operator="out"/>
<feColorMatrix type="matrix" values="0 0 0 0 0 0 0 0 0 0 0 0 0 0 0 0 0 0 0.25 0"/>
<feBlend mode="normal" in2="BackgroundImageFix" result="effect1_dropShadow_129_1579"/>
<feBlend mode="normal" in="SourceGraphic" in2="effect1_dropShadow_129_1579" result="shape"/>
</filter>
<filter id="filter1_d_129_1579" x="56.0354" y="68.0693" width="81.4878" height="40.1709" filterUnits="userSpaceOnUse" color-interpolation-filters="sRGB">
<feFlood flood-opacity="0" result="BackgroundImageFix"/>
<feColorMatrix in="SourceAlpha" type="matrix" values="0 0 0 0 0 0 0 0 0 0 0 0 0 0 0 0 0 0 127 0" result="hardAlpha"/>
<feOffset dy="1.6526"/>
<feGaussianBlur stdDeviation="0.826301"/>
<feComposite in2="hardAlpha" operator="out"/>
<feColorMatrix type="matrix" values="0 0 0 0 0 0 0 0 0 0 0 0 0 0 0 0 0 0 0.25 0"/>
<feBlend mode="normal" in2="BackgroundImageFix" result="effect1_dropShadow_129_1579"/>
<feBlend mode="normal" in="SourceGraphic" in2="effect1_dropShadow_129_1579" result="shape"/>
</filter>
<filter id="filter2_d_129_1579" x="56.6653" y="68.6868" width="58.461" height="35.7051" filterUnits="userSpaceOnUse" color-interpolation-filters="sRGB">
<feFlood flood-opacity="0" result="BackgroundImageFix"/>
<feColorMatrix in="SourceAlpha" type="matrix" values="0 0 0 0 0 0 0 0 0 0 0 0 0 0 0 0 0 0 127 0" result="hardAlpha"/>
<feOffset dy="1.6526"/>
<feGaussianBlur stdDeviation="0.826301"/>
<feComposite in2="hardAlpha" operator="out"/>
<feColorMatrix type="matrix" values="0 0 0 0 0 0 0 0 0 0 0 0 0 0 0 0 0 0 0.25 0"/>
<feBlend mode="normal" in2="BackgroundImageFix" result="effect1_dropShadow_129_1579"/>
<feBlend mode="normal" in="SourceGraphic" in2="effect1_dropShadow_129_1579" result="shape"/>
</filter>
<filter id="filter3_d_129_1579" x="121.956" y="79.7622" width="55.8035" height="39.7616" filterUnits="userSpaceOnUse" color-interpolation-filters="sRGB">
<feFlood flood-opacity="0" result="BackgroundImageFix"/>
<feColorMatrix in="SourceAlpha" type="matrix" values="0 0 0 0 0 0 0 0 0 0 0 0 0 0 0 0 0 0 127 0" result="hardAlpha"/>
<feOffset dy="1.6526"/>
<feGaussianBlur stdDeviation="0.41315"/>
<feComposite in2="hardAlpha" operator="out"/>
<feColorMatrix type="matrix" values="0 0 0 0 0 0 0 0 0 0 0 0 0 0 0 0 0 0 0.25 0"/>
<feBlend mode="normal" in2="BackgroundImageFix" result="effect1_dropShadow_129_1579"/>
<feBlend mode="normal" in="SourceGraphic" in2="effect1_dropShadow_129_1579" result="shape"/>
</filter>
<filter id="filter4_d_129_1579" x="86.7258" y="96.2634" width="28.9204" height="28.0943" filterUnits="userSpaceOnUse" color-interpolation-filters="sRGB">
<feFlood flood-opacity="0" result="BackgroundImageFix"/>
<feColorMatrix in="SourceAlpha" type="matrix" values="0 0 0 0 0 0 0 0 0 0 0 0 0 0 0 0 0 0 127 0" result="hardAlpha"/>
<feOffset dy="1.6526"/>
<feGaussianBlur stdDeviation="0.826301"/>
<feComposite in2="hardAlpha" operator="out"/>
<feColorMatrix type="matrix" values="0 0 0 0 0 0 0 0 0 0 0 0 0 0 0 0 0 0 0.25 0"/>
<feBlend mode="normal" in2="BackgroundImageFix" result="effect1_dropShadow_129_1579"/>
<feBlend mode="normal" in="SourceGraphic" in2="effect1_dropShadow_129_1579" result="shape"/>
</filter>
<filter id="filter5_d_129_1579" x="91.6847" y="100.395" width="19.0047" height="18.1785" filterUnits="userSpaceOnUse" color-interpolation-filters="sRGB">
<feFlood flood-opacity="0" result="BackgroundImageFix"/>
<feColorMatrix in="SourceAlpha" type="matrix" values="0 0 0 0 0 0 0 0 0 0 0 0 0 0 0 0 0 0 127 0" result="hardAlpha"/>
<feMorphology radius="0.826301" operator="dilate" in="SourceAlpha" result="effect1_dropShadow_129_1579"/>
<feOffset dy="0.826301"/>
<feGaussianBlur stdDeviation="0.826301"/>
<feComposite in2="hardAlpha" operator="out"/>
<feColorMatrix type="matrix" values="0 0 0 0 0 0 0 0 0 0 0 0 0 0 0 0 0 0 0.3 0"/>
<feBlend mode="normal" in2="BackgroundImageFix" result="effect1_dropShadow_129_1579"/>
<feBlend mode="normal" in="SourceGraphic" in2="effect1_dropShadow_129_1579" result="shape"/>
</filter>
<filter id="filter6_d_129_1579" x="28.0922" y="115.63" width="51.9246" height="51.0139" filterUnits="userSpaceOnUse" color-interpolation-filters="sRGB">
<feFlood flood-opacity="0" result="BackgroundImageFix"/>
<feColorMatrix in="SourceAlpha" type="matrix" values="0 0 0 0 0 0 0 0 0 0 0 0 0 0 0 0 0 0 127 0" result="hardAlpha"/>
<feOffset dy="0.826301"/>
<feGaussianBlur stdDeviation="0.41315"/>
<feComposite in2="hardAlpha" operator="out"/>
<feColorMatrix type="matrix" values="0 0 0 0 0 0 0 0 0 0 0 0 0 0 0 0 0 0 0.25 0"/>
<feBlend mode="normal" in2="BackgroundImageFix" result="effect1_dropShadow_129_1579"/>
<feBlend mode="normal" in="SourceGraphic" in2="effect1_dropShadow_129_1579" result="shape"/>
</filter>
<linearGradient id="paint0_linear_129_1579" x1="140.828" y1="-60.644" x2="131.208" y2="249.958" gradientUnits="userSpaceOnUse">
<stop stop-color="#3C2A56"/>
<stop offset="0.5" stop-color="white"/>
<stop offset="1" stop-color="#F4A27E"/>
</linearGradient>
<linearGradient id="paint1_linear_129_1579" x1="91.9026" y1="72.8247" x2="89.4491" y2="141.689" gradientUnits="userSpaceOnUse">
<stop stop-color="#3C2A56"/>
<stop offset="0.5" stop-color="white"/>
<stop offset="1" stop-color="#F4A27E"/>
</linearGradient>
<linearGradient id="paint2_linear_129_1579" x1="82.7243" y1="109.653" x2="81.9865" y2="131.791" gradientUnits="userSpaceOnUse">
<stop stop-color="#3C2A56"/>
<stop offset="0.5" stop-color="white"/>
<stop offset="1" stop-color="#F4A27E"/>
</linearGradient>
<linearGradient id="paint3_linear_129_1579" x1="84.0571" y1="98.2942" x2="83.324" y2="120.223" gradientUnits="userSpaceOnUse">
<stop stop-color="#3C2A56"/>
<stop offset="0.5" stop-color="white"/>
<stop offset="1" stop-color="#F4A27E"/>
</linearGradient>
<linearGradient id="paint4_linear_129_1579" x1="111.94" y1="-16.3755" x2="103.294" y2="250.761" gradientUnits="userSpaceOnUse">
<stop stop-color="#3C2A56"/>
<stop offset="0.5" stop-color="white"/>
<stop offset="1" stop-color="#F4A27E"/>
</linearGradient>
<linearGradient id="paint5_linear_129_1579" x1="70.8769" y1="69.3811" x2="66.8495" y2="202.45" gradientUnits="userSpaceOnUse">
<stop stop-color="#3C2A56"/>
<stop offset="0.5" stop-color="white"/>
<stop offset="1" stop-color="#F4A27E"/>
</linearGradient>
<linearGradient id="paint6_linear_129_1579" x1="90.9754" y1="63.1009" x2="85.1544" y2="211.448" gradientUnits="userSpaceOnUse">
<stop stop-color="#3C2A56"/>
<stop offset="0.5" stop-color="white"/>
<stop offset="1" stop-color="#F4A27E"/>
</linearGradient>
<linearGradient id="paint7_linear_129_1579" x1="46.5125" y1="84.3074" x2="77.006" y2="106.588" gradientUnits="userSpaceOnUse">
<stop stop-color="#3C2A56"/>
<stop offset="0.5" stop-color="white"/>
<stop offset="1" stop-color="#F4A27E"/>
</linearGradient>
<linearGradient id="paint8_linear_129_1579" x1="151.976" y1="63.9936" x2="150.701" y2="115.824" gradientUnits="userSpaceOnUse">
<stop stop-color="#3C2A56"/>
<stop offset="0.5" stop-color="white"/>
<stop offset="1" stop-color="#F4A27E"/>
</linearGradient>
<linearGradient id="paint9_linear_129_1579" x1="153.229" y1="68.0524" x2="151.992" y2="112.036" gradientUnits="userSpaceOnUse">
<stop stop-color="#3C2A56"/>
<stop offset="0.5" stop-color="white"/>
<stop offset="1" stop-color="#F4A27E"/>
</linearGradient>
<linearGradient id="paint10_linear_129_1579" x1="151.388" y1="81.5663" x2="150.883" y2="104.81" gradientUnits="userSpaceOnUse">
<stop stop-color="#3C2A56"/>
<stop offset="0.5" stop-color="white"/>
<stop offset="1" stop-color="#F4A27E"/>
</linearGradient>
<linearGradient id="paint11_linear_129_1579" x1="102.222" y1="84.1496" x2="100.95" y2="121.044" gradientUnits="userSpaceOnUse">
<stop stop-color="#3C2A56"/>
<stop offset="0.5" stop-color="white"/>
<stop offset="1" stop-color="#F4A27E"/>
</linearGradient>
<linearGradient id="paint12_linear_129_1579" x1="101.954" y1="90.6853" x2="101.032" y2="117.742" gradientUnits="userSpaceOnUse">
<stop stop-color="#3C2A56"/>
<stop offset="0.5" stop-color="white"/>
<stop offset="1" stop-color="#F4A27E"/>
</linearGradient>
<linearGradient id="paint13_linear_129_1579" x1="101.755" y1="95.5869" x2="101.095" y2="115.265" gradientUnits="userSpaceOnUse">
<stop stop-color="#3C2A56"/>
<stop offset="0.5" stop-color="white"/>
<stop offset="1" stop-color="#F4A27E"/>
</linearGradient>
<linearGradient id="paint14_linear_129_1579" x1="101.944" y1="109.112" x2="101.813" y2="117.754" gradientUnits="userSpaceOnUse">
<stop stop-color="#3C2A56"/>
<stop offset="0.5" stop-color="white"/>
<stop offset="1" stop-color="#F4A27E"/>
</linearGradient>
<linearGradient id="paint15_linear_129_1579" x1="183.916" y1="106.62" x2="183.785" y2="110.309" gradientUnits="userSpaceOnUse">
<stop stop-color="#3C2A56"/>
<stop offset="0.5" stop-color="white"/>
<stop offset="1" stop-color="#F4A27E"/>
</linearGradient>
<linearGradient id="paint16_linear_129_1579" x1="140.95" y1="106.62" x2="140.819" y2="110.309" gradientUnits="userSpaceOnUse">
<stop stop-color="#3C2A56"/>
<stop offset="0.5" stop-color="white"/>
<stop offset="1" stop-color="#F4A27E"/>
</linearGradient>
<linearGradient id="paint17_linear_129_1579" x1="111.962" y1="108.254" x2="111.918" y2="109.484" gradientUnits="userSpaceOnUse">
<stop stop-color="#3C2A56"/>
<stop offset="0.5" stop-color="white"/>
<stop offset="1" stop-color="#F4A27E"/>
</linearGradient>
<linearGradient id="paint18_linear_129_1579" x1="90.4773" y1="107.428" x2="90.4335" y2="108.657" gradientUnits="userSpaceOnUse">
<stop stop-color="#3C2A56"/>
<stop offset="0.5" stop-color="white"/>
<stop offset="1" stop-color="#F4A27E"/>
</linearGradient>
<linearGradient id="paint19_linear_129_1579" x1="90.4773" y1="82.6389" x2="90.4335" y2="83.8687" gradientUnits="userSpaceOnUse">
<stop stop-color="#3C2A56"/>
<stop offset="0.5" stop-color="white"/>
<stop offset="1" stop-color="#F4A27E"/>
</linearGradient>
<linearGradient id="paint20_linear_129_1579" x1="77.2571" y1="78.5073" x2="77.2133" y2="79.7371" gradientUnits="userSpaceOnUse">
<stop stop-color="#3C2A56"/>
<stop offset="0.5" stop-color="white"/>
<stop offset="1" stop-color="#F4A27E"/>
</linearGradient>
<linearGradient id="paint21_linear_129_1579" x1="87.7308" y1="145.935" x2="87.3497" y2="158.236" gradientUnits="userSpaceOnUse">
<stop stop-color="#3C2A56"/>
<stop offset="0.5" stop-color="white"/>
<stop offset="1" stop-color="#F4A27E"/>
</linearGradient>
<linearGradient id="paint22_linear_129_1579" x1="57.8699" y1="81.9382" x2="56.3731" y2="126.83" gradientUnits="userSpaceOnUse">
<stop stop-color="#3C2A56"/>
<stop offset="0.5" stop-color="white"/>
<stop offset="1" stop-color="#F4A27E"/>
</linearGradient>
<linearGradient id="paint23_linear_129_1579" x1="55.8359" y1="93.0879" x2="53.3165" y2="164.414" gradientUnits="userSpaceOnUse">
<stop stop-color="#3C2A56"/>
<stop offset="0.5" stop-color="white"/>
<stop offset="1" stop-color="#F4A27E"/>
</linearGradient>
<linearGradient id="paint24_linear_129_1579" x1="63.2772" y1="118.189" x2="63.1458" y2="121.878" gradientUnits="userSpaceOnUse">
<stop stop-color="#3C2A56"/>
<stop offset="0.5" stop-color="white"/>
<stop offset="1" stop-color="#F4A27E"/>
</linearGradient>
<linearGradient id="paint25_linear_129_1579" x1="741.079" y1="-16.8696" x2="741.286" y2="368.012" gradientUnits="userSpaceOnUse">
<stop stop-color="#3C2A56"/>
<stop offset="0.271495" stop-color="white"/>
<stop offset="1" stop-color="#F4A27E"/>
</linearGradient>
</defs>
</svg>
