<svg width="153" height="74" viewBox="0 0 153 74" fill="none" xmlns="http://www.w3.org/2000/svg">
<path d="M38.8277 45.9482C41.0921 36.3584 35.1538 26.7487 25.564 24.4843C15.9742 22.2198 6.3645 28.1582 4.10009 37.748C1.83567 47.3378 7.77405 56.9475 17.3638 59.2119C26.9536 61.4763 36.5633 55.5379 38.8277 45.9482Z" fill="url(#paint0_linear_129_1629)"/>
<path d="M62.5605 74C82.9951 74 99.5605 57.4345 99.5605 37C99.5605 16.5655 82.9951 0 62.5605 0C42.126 0 25.5605 16.5655 25.5605 37C25.5605 57.4345 42.126 74 62.5605 74Z" fill="url(#paint1_linear_129_1629)"/>
<path d="M108.19 27.236C108.19 32.3005 104.086 36.4049 99.0214 36.4049C93.9585 36.4049 89.8525 32.3005 89.8525 27.236C89.8525 22.1731 93.957 18.0671 99.0214 18.0671C104.084 18.0686 108.19 22.1731 108.19 27.236Z" fill="url(#paint2_linear_129_1629)"/>
<path d="M136.958 39.4198C138.713 28.6054 131.369 18.4158 120.555 16.6607C109.74 14.9056 99.5507 22.2496 97.7956 33.064C96.0405 43.8784 103.384 54.0681 114.199 55.8232C125.013 57.5783 135.203 50.2343 136.958 39.4198Z" fill="url(#paint3_linear_129_1629)"/>
<path d="M139.029 52.868C146.671 52.868 152.866 46.6731 152.866 39.0313C152.866 31.3895 146.671 25.1946 139.029 25.1946C131.387 25.1946 125.192 31.3895 125.192 39.0313C125.192 46.6731 131.387 52.868 139.029 52.868Z" fill="url(#paint4_linear_129_1629)"/>
<path d="M100.763 67.2258C112.588 67.2258 122.174 57.6395 122.174 45.8142C122.174 33.9889 112.588 24.4026 100.763 24.4026C88.9374 24.4026 79.3511 33.9889 79.3511 45.8142C79.3511 57.6395 88.9374 67.2258 100.763 67.2258Z" fill="url(#paint5_linear_129_1629)"/>
<path d="M65.7215 67.1794C45.0521 67.1794 28.0515 51.4798 25.9887 31.3557C25.7063 33.1961 25.5605 35.0815 25.5605 37C25.5605 57.4351 42.1255 74 62.559 74C76.9201 74 89.3611 65.8122 95.4937 53.855C88.1802 62.0293 77.5541 67.1794 65.7215 67.1794Z" fill="url(#paint6_linear_129_1629)"/>
<path d="M118.858 51.5847C108.662 51.5847 100.105 44.6604 97.5701 35.2646C97.5536 35.5892 97.5205 35.9092 97.5205 36.2382C97.5205 47.1934 106.402 56.0753 117.358 56.0753C125.655 56.0753 132.755 50.9763 135.715 43.744C131.668 48.535 125.622 51.5847 118.858 51.5847Z" fill="url(#paint7_linear_129_1629)"/>
<defs>
<linearGradient id="paint0_linear_129_1629" x1="10.4152" y1="39.3744" x2="38.9185" y2="45.5279" gradientUnits="userSpaceOnUse">
<stop stop-color="#EAF8F9"/>
<stop offset="1" stop-color="#F4A27E"/>
</linearGradient>
<linearGradient id="paint1_linear_129_1629" x1="62.2876" y1="13.5212" x2="63.452" y2="73.9828" gradientUnits="userSpaceOnUse">
<stop stop-color="#EAF8F9"/>
<stop offset="1" stop-color="#F4A27E"/>
</linearGradient>
<linearGradient id="paint2_linear_129_1629" x1="98.9538" y1="21.4178" x2="99.2423" y2="36.4006" gradientUnits="userSpaceOnUse">
<stop stop-color="#EAF8F9"/>
<stop offset="1" stop-color="#F4A27E"/>
</linearGradient>
<linearGradient id="paint3_linear_129_1629" x1="104.928" y1="34.3698" x2="137.025" y2="38.9466" gradientUnits="userSpaceOnUse">
<stop stop-color="#EAF8F9"/>
<stop offset="1" stop-color="#F4A27E"/>
</linearGradient>
<linearGradient id="paint4_linear_129_1629" x1="138.927" y1="30.251" x2="139.362" y2="52.8616" gradientUnits="userSpaceOnUse">
<stop stop-color="#EAF8F9"/>
<stop offset="1" stop-color="#F4A27E"/>
</linearGradient>
<linearGradient id="paint5_linear_129_1629" x1="100.605" y1="32.2272" x2="101.279" y2="67.2158" gradientUnits="userSpaceOnUse">
<stop stop-color="#EAF8F9"/>
<stop offset="1" stop-color="#F4A27E"/>
</linearGradient>
<linearGradient id="paint6_linear_129_1629" x1="60.2692" y1="39.1476" x2="60.6784" y2="73.9983" gradientUnits="userSpaceOnUse">
<stop stop-color="#EAF8F9"/>
<stop offset="1" stop-color="#F4A27E"/>
</linearGradient>
<linearGradient id="paint7_linear_129_1629" x1="116.477" y1="39.0671" x2="116.655" y2="56.0749" gradientUnits="userSpaceOnUse">
<stop stop-color="#EAF8F9"/>
<stop offset="1" stop-color="#F4A27E"/>
</linearGradient>
</defs>
</svg>
