<svg width="366" height="131" viewBox="0 0 366 131" fill="none" xmlns="http://www.w3.org/2000/svg">
<path d="M17.6307 70.5811C27.3678 70.5811 35.2613 62.6876 35.2613 52.9505C35.2613 43.2133 27.3678 35.3198 17.6307 35.3198C7.89352 35.3198 0 43.2133 0 52.9505C0 62.6876 7.89352 70.5811 17.6307 70.5811Z" fill="url(#paint0_linear_129_1755)"/>
<path d="M48.6411 86.1193C65.4922 86.1193 79.1528 72.4588 79.1528 55.6076C79.1528 38.7565 65.4922 25.0959 48.6411 25.0959C31.7899 25.0959 18.1294 38.7565 18.1294 55.6076C18.1294 72.4588 31.7899 86.1193 48.6411 86.1193Z" fill="url(#paint1_linear_129_1755)"/>
<path d="M349.515 58.5068C358.082 58.5068 365.027 51.5619 365.027 42.9951C365.027 34.4282 358.082 27.4834 349.515 27.4834C340.948 27.4834 334.003 34.4282 334.003 42.9951C334.003 51.5619 340.948 58.5068 349.515 58.5068Z" fill="url(#paint2_linear_129_1755)"/>
<path d="M155.561 98.25C173.648 80.1627 173.648 50.8373 155.561 32.75C137.474 14.6627 108.148 14.6627 90.061 32.75C71.9737 50.8373 71.9737 80.1627 90.061 98.25C108.148 116.337 137.474 116.337 155.561 98.25Z" fill="url(#paint3_linear_129_1755)"/>
<path d="M171.996 91.4971C195.943 91.4971 215.356 72.0843 215.356 48.1373C215.356 24.1904 195.943 4.77759 171.996 4.77759C148.05 4.77759 128.637 24.1904 128.637 48.1373C128.637 72.0843 148.05 91.4971 171.996 91.4971Z" fill="url(#paint4_linear_129_1755)"/>
<path d="M217.837 65.5008C227.574 65.5008 235.468 57.6073 235.468 47.8702C235.468 38.133 227.574 30.2395 217.837 30.2395C208.1 30.2395 200.207 38.133 200.207 47.8702C200.207 57.6073 208.1 65.5008 217.837 65.5008Z" fill="url(#paint5_linear_129_1755)"/>
<path d="M274.524 79.8512C288.06 66.3149 288.06 44.3682 274.524 30.8319C260.988 17.2956 239.041 17.2956 225.505 30.8319C211.968 44.3682 211.968 66.3149 225.505 79.8512C239.041 93.3875 260.988 93.3875 274.524 79.8512Z" fill="url(#paint6_linear_129_1755)"/>
<path d="M215.356 112.705C234.5 112.705 250.018 97.186 250.018 78.0426C250.018 58.8992 234.5 43.3804 215.356 43.3804C196.213 43.3804 180.694 58.8992 180.694 78.0426C180.694 97.186 196.213 112.705 215.356 112.705Z" fill="url(#paint7_linear_129_1755)"/>
<path d="M273.287 111.577C295.929 111.577 314.284 93.2227 314.284 70.5811C314.284 47.9394 295.929 29.5847 273.287 29.5847C250.646 29.5847 232.291 47.9394 232.291 70.5811C232.291 93.2227 250.646 111.577 273.287 111.577Z" fill="url(#paint8_linear_129_1755)"/>
<path d="M322.812 82.4924C341.442 78.0932 352.979 59.4241 348.579 40.7937C344.18 22.1634 325.511 10.6267 306.881 15.0258C288.25 19.425 276.714 38.0941 281.113 56.7245C285.512 75.3549 304.181 86.8915 322.812 82.4924Z" fill="url(#paint9_linear_129_1755)"/>
<path d="M280.189 74.8305C294.572 74.8305 306.231 63.1711 306.231 48.7885C306.231 34.406 294.572 22.7466 280.189 22.7466C265.807 22.7466 254.147 34.406 254.147 48.7885C254.147 63.1711 265.807 74.8305 280.189 74.8305Z" fill="url(#paint10_linear_129_1755)"/>
<path d="M79.1516 119.517C102.057 119.517 120.625 100.948 120.625 78.0427C120.625 55.1373 102.057 36.5688 79.1516 36.5688C56.2462 36.5688 37.6777 55.1373 37.6777 78.0427C37.6777 100.948 56.2462 119.517 79.1516 119.517Z" fill="url(#paint11_linear_129_1755)"/>
<path d="M53.2185 78.4683C35.9969 78.4683 21.6834 66.0584 18.707 49.6943C18.3308 51.6081 18.1294 53.584 18.1294 55.608C18.1294 72.4584 31.7894 86.1196 48.6398 86.1196C59.9553 86.1196 69.8245 79.9552 75.0934 70.8055C69.0937 75.597 61.493 78.4683 53.2185 78.4683Z" fill="url(#paint12_linear_129_1755)"/>
<path d="M120.144 102.682C104.186 102.682 89.9199 95.4691 80.4092 84.1307C87.5805 100.43 103.864 111.817 122.814 111.817C147.54 111.817 167.738 92.4394 169.058 68.0415C161.959 88.2167 142.746 102.682 120.144 102.682Z" fill="url(#paint13_linear_129_1755)"/>
<path d="M270.366 102.426C255.543 102.426 242.447 95.0753 234.493 83.8294C240.002 99.9668 255.285 111.577 273.288 111.577C295.929 111.577 314.284 93.2235 314.284 70.5811C314.284 68.5609 314.132 66.5762 313.85 64.6345C310.867 85.9876 292.541 102.426 270.366 102.426Z" fill="url(#paint14_linear_129_1755)"/>
<path d="M349.926 54.559C342.933 54.559 336.913 50.4667 334.081 44.5557C334.864 52.3907 341.474 58.5082 349.514 58.5082C356.796 58.5082 362.888 53.4837 364.559 46.7177C361.407 51.4433 356.032 54.559 349.926 54.559Z" fill="url(#paint15_linear_129_1755)"/>
<defs>
<linearGradient id="paint0_linear_129_1755" x1="18.2913" y1="48.7863" x2="14.0478" y2="94.8113" gradientUnits="userSpaceOnUse">
<stop stop-color="#EAF8F9"/>
<stop offset="1" stop-color="#F4A27E"/>
</linearGradient>
<linearGradient id="paint1_linear_129_1755" x1="49.7844" y1="48.4011" x2="42.4406" y2="128.052" gradientUnits="userSpaceOnUse">
<stop stop-color="#EAF8F9"/>
<stop offset="1" stop-color="#F4A27E"/>
</linearGradient>
<linearGradient id="paint2_linear_129_1755" x1="350.096" y1="39.3314" x2="346.363" y2="79.8248" gradientUnits="userSpaceOnUse">
<stop stop-color="#EAF8F9"/>
<stop offset="1" stop-color="#F4A27E"/>
</linearGradient>
<linearGradient id="paint3_linear_129_1755" x1="116.303" y1="56.5376" x2="193.915" y2="149.914" gradientUnits="userSpaceOnUse">
<stop stop-color="#EAF8F9"/>
<stop offset="1" stop-color="#F4A27E"/>
</linearGradient>
<linearGradient id="paint4_linear_129_1755" x1="173.621" y1="37.8962" x2="163.185" y2="151.087" gradientUnits="userSpaceOnUse">
<stop stop-color="#EAF8F9"/>
<stop offset="1" stop-color="#F4A27E"/>
</linearGradient>
<linearGradient id="paint5_linear_129_1755" x1="218.498" y1="43.706" x2="214.254" y2="89.731" gradientUnits="userSpaceOnUse">
<stop stop-color="#EAF8F9"/>
<stop offset="1" stop-color="#F4A27E"/>
</linearGradient>
<linearGradient id="paint6_linear_129_1755" x1="245.144" y1="48.6342" x2="303.227" y2="118.516" gradientUnits="userSpaceOnUse">
<stop stop-color="#EAF8F9"/>
<stop offset="1" stop-color="#F4A27E"/>
</linearGradient>
<linearGradient id="paint7_linear_129_1755" x1="216.655" y1="69.8557" x2="208.312" y2="160.342" gradientUnits="userSpaceOnUse">
<stop stop-color="#EAF8F9"/>
<stop offset="1" stop-color="#F4A27E"/>
</linearGradient>
<linearGradient id="paint8_linear_129_1755" x1="274.823" y1="60.8981" x2="264.956" y2="167.92" gradientUnits="userSpaceOnUse">
<stop stop-color="#EAF8F9"/>
<stop offset="1" stop-color="#F4A27E"/>
</linearGradient>
<linearGradient id="paint9_linear_129_1755" x1="314.229" y1="40.4932" x2="326.903" y2="130.471" gradientUnits="userSpaceOnUse">
<stop stop-color="#EAF8F9"/>
<stop offset="1" stop-color="#F4A27E"/>
</linearGradient>
<linearGradient id="paint10_linear_129_1755" x1="281.165" y1="42.6377" x2="274.897" y2="110.621" gradientUnits="userSpaceOnUse">
<stop stop-color="#EAF8F9"/>
<stop offset="1" stop-color="#F4A27E"/>
</linearGradient>
<linearGradient id="paint11_linear_129_1755" x1="80.7056" y1="68.247" x2="70.7234" y2="176.515" gradientUnits="userSpaceOnUse">
<stop stop-color="#EAF8F9"/>
<stop offset="1" stop-color="#F4A27E"/>
</linearGradient>
<linearGradient id="paint12_linear_129_1755" x1="47.6786" y1="63.6053" x2="44.8615" y2="111.388" gradientUnits="userSpaceOnUse">
<stop stop-color="#EAF8F9"/>
<stop offset="1" stop-color="#F4A27E"/>
</linearGradient>
<linearGradient id="paint13_linear_129_1755" x1="126.394" y1="84.7595" x2="123.776" y2="142.264" gradientUnits="userSpaceOnUse">
<stop stop-color="#EAF8F9"/>
<stop offset="1" stop-color="#F4A27E"/>
</linearGradient>
<linearGradient id="paint14_linear_129_1755" x1="275.883" y1="82.5622" x2="272.541" y2="144.174" gradientUnits="userSpaceOnUse">
<stop stop-color="#EAF8F9"/>
<stop offset="1" stop-color="#F4A27E"/>
</linearGradient>
<linearGradient id="paint15_linear_129_1755" x1="349.891" y1="49.8842" x2="349.117" y2="68.218" gradientUnits="userSpaceOnUse">
<stop stop-color="#EAF8F9"/>
<stop offset="1" stop-color="#F4A27E"/>
</linearGradient>
</defs>
</svg>
