<svg width="240" height="237" viewBox="0 0 240 237" fill="none" xmlns="http://www.w3.org/2000/svg">
<path d="M158.089 3.72168L135.217 89.0771C137.532 90.3509 139.682 91.8868 141.626 93.6465L213.234 41.6221L221.687 53.2549L150.002 105.335C151.53 108.872 152.471 112.72 152.704 116.76L239.898 132.135L237.401 146.296L150.482 130.969C148.906 135.034 146.566 138.717 143.64 141.846L191.171 215.789L179.075 223.564L131.807 150.031C127.837 151.666 123.489 152.571 118.93 152.571C118.688 152.571 118.447 152.567 118.206 152.562L95.6973 236.571L81.8076 232.85L104.218 149.213C101.442 147.87 98.8779 146.159 96.5879 144.144L26.6621 194.949L18.21 183.316L88.0469 132.574C86.242 128.552 85.1998 124.113 85.1045 119.441L0 104.436L2.49707 90.2744L87.8613 105.325C89.7194 101.027 92.4427 97.1911 95.8125 94.0361L48.7256 20.7822L60.8213 13.0068L108.162 86.6543C111.544 85.5196 115.165 84.9044 118.93 84.9043C119.768 84.9043 120.6 84.9351 121.424 84.9951L144.2 0L158.089 3.72168Z" fill="white"/>
</svg>
