<svg width="1920" height="1065" viewBox="0 0 1920 1065" fill="none" xmlns="http://www.w3.org/2000/svg">
<mask id="path-1-inside-1_129_1751" fill="white">
<path d="M-448.39 618.676C-457.969 668.306 -423.82 406.523 -372.117 415.717C-390.141 424.356 -397.456 445.384 -388.457 462.685C-379.459 479.987 -357.551 487.009 -339.527 478.371C-375.882 494.017 -392.14 534.991 -375.838 569.888C-360.683 602.336 -322.718 618.068 -288.238 607.541C-323.885 622.466 -342.795 661.105 -330.848 697.512C-322.477 723.026 -301.011 741.028 -275.807 747.028C-309.384 755.449 -336.717 781.579 -343.877 816.454C-353.849 865.024 -320.915 912.157 -270.316 921.73C-244.562 964.265 -187.763 978.705 -143.451 953.983C-103.321 931.594 -87.1973 884.763 -103.643 844.529C-73.9738 895.91 -8.26233 918.934 49.7013 896.026C112.119 871.357 141.887 802.788 116.188 742.871C139.861 765.1 177.826 764.699 200.984 741.974C224.142 719.249 223.723 682.808 200.049 660.579C224.879 665.611 249.257 650.368 254.5 626.535C259.743 602.7 243.862 579.3 219.034 574.267C240.923 576.681 260.832 562.806 265.66 542.669C290.985 560.741 324.612 567.418 357.094 557.853C401.091 544.896 429.443 506.144 429.676 464.183C434.706 467.4 440.434 469.782 446.718 471.022C469.934 475.605 492.65 463.364 501.235 443.003C493.499 473.453 510.181 505.441 541.435 517.134C572.709 528.835 607.563 516.1 623.322 488.624C602.299 535.499 621.852 590.805 669.605 615.273C719.961 641.076 782.574 622.808 809.455 574.469C804.473 600.29 822.239 625.098 849.138 629.881C876.037 634.663 901.881 617.608 906.864 591.788C906.673 609.173 921.2 623.414 939.312 623.597C945.398 623.658 951.095 622.095 956.009 619.372C950.194 639.562 955.411 662.086 971.836 678.072C996.298 701.879 1036.23 702.142 1061.03 678.661C1065.44 707.264 1093.17 727.023 1122.97 722.793C1152.76 718.564 1173.35 691.948 1168.94 663.345C1170.27 676.232 1180.47 686.195 1193.16 688.274C1193.13 688.682 1193.08 689.081 1193.07 689.493C1192.74 707.3 1207.52 721.989 1226.07 722.301C1195.67 771.297 1212.41 834.667 1263.46 863.842C1314.5 893.017 1380.52 876.948 1410.91 827.951C1419.94 860.432 1454.69 879.738 1488.52 871.073C1500.26 868.066 1510.3 862.042 1518.09 854.157C1520.86 855.275 1523.84 856.033 1526.99 856.346C1496.42 879.984 1491.6 922.934 1516.23 952.276C1540.85 981.619 1585.59 986.243 1616.16 962.605C1600.37 977.366 1600.03 1001.62 1615.41 1016.78C1630.79 1031.94 1656.06 1032.27 1671.85 1017.5C1676.64 1047.82 1706.12 1068.66 1737.7 1064.07C1769.27 1059.48 1790.99 1031.18 1786.21 1000.87C1817.43 1019.47 1858.46 1010.25 1877.84 980.281C1897.22 950.308 1887.62 910.928 1856.39 892.323C1884.3 900.153 1913.53 884.786 1921.69 858C1925.47 845.588 1924 832.929 1918.63 822.11C1938.11 829.779 1960.97 828.858 1980.36 817.583C2012.84 798.698 2023.22 758.115 2003.55 726.937C2046.51 715.069 2071.32 672.017 2058.95 630.778C2055.37 618.839 2049.01 608.422 2040.82 599.847C2064.41 596.378 2086.87 585.067 2103.53 566.225C2140.23 524.715 2134.92 462.505 2091.68 427.276C2102.55 426.784 2110.94 417.929 2110.43 407.497C2109.92 397.065 2100.69 389.008 2089.82 389.5C2140.31 369.274 2164.15 623.066 2143.08 574.609C2123.91 530.517 2074.16 507.609 2027.32 519.074C2058 505.838 2075.79 473.31 2068.1 440.593C2059.32 403.233 2020.66 379.778 1981.74 388.202C2007.83 366.531 2010.67 328.664 1988.1 303.623C1975.56 289.722 1957.83 282.725 1940.07 282.932C1956.86 270.024 1967.25 249.895 1966.15 227.692C1964.33 190.87 1931.77 162.434 1893.41 164.179C1889.48 121.834 1850.53 90.5641 1806.42 94.3364C1770.4 97.4153 1742.1 122.905 1735.05 155.201C1731.95 127.007 1710.72 102.498 1680.33 95.7311C1641.99 87.1924 1603.69 110.109 1594.8 146.918C1593.4 129.626 1577.66 116.694 1559.65 118.036C1541.63 119.376 1528.16 134.482 1529.56 151.774C1519.02 133.743 1495.25 127.323 1476.47 137.437C1475.7 137.851 1474.98 138.319 1474.25 138.775C1471.67 120.45 1461.58 103.145 1444.66 91.5586C1412.14 69.2903 1366.97 76.5425 1343.77 107.757C1325.43 59.1725 1269.53 34.0625 1218.91 51.6731C1170.82 68.4064 1144.84 117.687 1158.1 164.235C1145.99 132.961 1111.12 114.696 1076.56 122.891C1054.27 128.177 1037.26 143.294 1029.14 162.221C1026.69 158.047 1023.38 154.255 1019.2 151.123C1002.3 138.446 977.892 141.322 964.686 157.545C971.981 105.28 933.756 57.2352 879.307 50.233C824.86 43.2315 774.808 79.9246 767.513 132.19C773.761 101.741 753.109 72.1953 721.39 66.199C689.669 60.2026 658.89 80.0254 652.643 110.474C634.798 89.4434 602.571 86.2816 580.663 103.41C567.053 114.051 560.64 130.018 562.001 145.629C544.868 120.171 512.823 105.887 479.93 112.017C464.974 114.804 451.88 121.501 441.414 130.707C429.783 115.61 409.161 108.35 389.362 114.091C393.07 86.0613 372.402 60.4544 343.2 56.897C314 53.3395 287.323 73.1788 283.617 101.209C284.669 46.3328 239.178 1.02698 182.01 0.0172119C124.842 -0.993286 77.6445 42.6744 76.5918 97.551C59.376 85.7733 35.4739 89.622 23.2049 106.148C22.5724 106.999 22.0101 107.878 21.4635 108.762C8.13699 86.12 -16.0686 69.8474 -45.0775 67.1145C-87.9987 63.0706 -126.641 90.0295 -136.898 128.98C-132.686 90.0942 -158.391 52.9876 -199.004 42.7285C-243.882 31.3923 -289.836 57.1251 -301.646 100.204C-369.309 96.0015 -427.709 145.246 -432.088 210.197C-436.466 275.147 -385.164 331.206 -317.501 335.409C-352.383 337.192 -379.155 365.782 -377.298 399.265C-375.768 426.821 -355.313 449.064 -328.682 455.097C-347.773 456.856 -364.723 469.506 -370.355 488.271C-377.714 512.791 -362.973 538.397 -337.427 545.462C-389.133 536.266 -438.811 569.045 -448.39 618.676Z"/>
</mask>
<path d="M-448.39 618.676C-457.969 668.306 -423.82 406.523 -372.117 415.717C-390.141 424.356 -397.456 445.384 -388.457 462.685C-379.459 479.987 -357.551 487.009 -339.527 478.371C-375.882 494.017 -392.14 534.991 -375.838 569.888C-360.683 602.336 -322.718 618.068 -288.238 607.541C-323.885 622.466 -342.795 661.105 -330.848 697.512C-322.477 723.026 -301.011 741.028 -275.807 747.028C-309.384 755.449 -336.717 781.579 -343.877 816.454C-353.849 865.024 -320.915 912.157 -270.316 921.73C-244.562 964.265 -187.763 978.705 -143.451 953.983C-103.321 931.594 -87.1973 884.763 -103.643 844.529C-73.9738 895.91 -8.26233 918.934 49.7013 896.026C112.119 871.357 141.887 802.788 116.188 742.871C139.861 765.1 177.826 764.699 200.984 741.974C224.142 719.249 223.723 682.808 200.049 660.579C224.879 665.611 249.257 650.368 254.5 626.535C259.743 602.7 243.862 579.3 219.034 574.267C240.923 576.681 260.832 562.806 265.66 542.669C290.985 560.741 324.612 567.418 357.094 557.853C401.091 544.896 429.443 506.144 429.676 464.183C434.706 467.4 440.434 469.782 446.718 471.022C469.934 475.605 492.65 463.364 501.235 443.003C493.499 473.453 510.181 505.441 541.435 517.134C572.709 528.835 607.563 516.1 623.322 488.624C602.299 535.499 621.852 590.805 669.605 615.273C719.961 641.076 782.574 622.808 809.455 574.469C804.473 600.29 822.239 625.098 849.138 629.881C876.037 634.663 901.881 617.608 906.864 591.788C906.673 609.173 921.2 623.414 939.312 623.597C945.398 623.658 951.095 622.095 956.009 619.372C950.194 639.562 955.411 662.086 971.836 678.072C996.298 701.879 1036.23 702.142 1061.03 678.661C1065.44 707.264 1093.17 727.023 1122.97 722.793C1152.76 718.564 1173.35 691.948 1168.94 663.345C1170.27 676.232 1180.47 686.195 1193.16 688.274C1193.13 688.682 1193.08 689.081 1193.07 689.493C1192.74 707.3 1207.52 721.989 1226.07 722.301C1195.67 771.297 1212.41 834.667 1263.46 863.842C1314.5 893.017 1380.52 876.948 1410.91 827.951C1419.94 860.432 1454.69 879.738 1488.52 871.073C1500.26 868.066 1510.3 862.042 1518.09 854.157C1520.86 855.275 1523.84 856.033 1526.99 856.346C1496.42 879.984 1491.6 922.934 1516.23 952.276C1540.85 981.619 1585.59 986.243 1616.16 962.605C1600.37 977.366 1600.03 1001.62 1615.41 1016.78C1630.79 1031.94 1656.06 1032.27 1671.85 1017.5C1676.64 1047.82 1706.12 1068.66 1737.7 1064.07C1769.27 1059.48 1790.99 1031.18 1786.21 1000.87C1817.43 1019.47 1858.46 1010.25 1877.84 980.281C1897.22 950.308 1887.62 910.928 1856.39 892.323C1884.3 900.153 1913.53 884.786 1921.69 858C1925.47 845.588 1924 832.929 1918.63 822.11C1938.11 829.779 1960.97 828.858 1980.36 817.583C2012.84 798.698 2023.22 758.115 2003.55 726.937C2046.51 715.069 2071.32 672.017 2058.95 630.778C2055.37 618.839 2049.01 608.422 2040.82 599.847C2064.41 596.378 2086.87 585.067 2103.53 566.225C2140.23 524.715 2134.92 462.505 2091.68 427.276C2102.55 426.784 2110.94 417.929 2110.43 407.497C2109.92 397.065 2100.69 389.008 2089.82 389.5C2140.31 369.274 2164.15 623.066 2143.08 574.609C2123.91 530.517 2074.16 507.609 2027.32 519.074C2058 505.838 2075.79 473.31 2068.1 440.593C2059.32 403.233 2020.66 379.778 1981.74 388.202C2007.83 366.531 2010.67 328.664 1988.1 303.623C1975.56 289.722 1957.83 282.725 1940.07 282.932C1956.86 270.024 1967.25 249.895 1966.15 227.692C1964.33 190.87 1931.77 162.434 1893.41 164.179C1889.48 121.834 1850.53 90.5641 1806.42 94.3364C1770.4 97.4153 1742.1 122.905 1735.05 155.201C1731.95 127.007 1710.72 102.498 1680.33 95.7311C1641.99 87.1924 1603.69 110.109 1594.8 146.918C1593.4 129.626 1577.66 116.694 1559.65 118.036C1541.63 119.376 1528.16 134.482 1529.56 151.774C1519.02 133.743 1495.25 127.323 1476.47 137.437C1475.7 137.851 1474.98 138.319 1474.25 138.775C1471.67 120.45 1461.58 103.145 1444.66 91.5586C1412.14 69.2903 1366.97 76.5425 1343.77 107.757C1325.43 59.1725 1269.53 34.0625 1218.91 51.6731C1170.82 68.4064 1144.84 117.687 1158.1 164.235C1145.99 132.961 1111.12 114.696 1076.56 122.891C1054.27 128.177 1037.26 143.294 1029.14 162.221C1026.69 158.047 1023.38 154.255 1019.2 151.123C1002.3 138.446 977.892 141.322 964.686 157.545C971.981 105.28 933.756 57.2352 879.307 50.233C824.86 43.2315 774.808 79.9246 767.513 132.19C773.761 101.741 753.109 72.1953 721.39 66.199C689.669 60.2026 658.89 80.0254 652.643 110.474C634.798 89.4434 602.571 86.2816 580.663 103.41C567.053 114.051 560.64 130.018 562.001 145.629C544.868 120.171 512.823 105.887 479.93 112.017C464.974 114.804 451.88 121.501 441.414 130.707C429.783 115.61 409.161 108.35 389.362 114.091C393.07 86.0613 372.402 60.4544 343.2 56.897C314 53.3395 287.323 73.1788 283.617 101.209C284.669 46.3328 239.178 1.02698 182.01 0.0172119C124.842 -0.993286 77.6445 42.6744 76.5918 97.551C59.376 85.7733 35.4739 89.622 23.2049 106.148C22.5724 106.999 22.0101 107.878 21.4635 108.762C8.13699 86.12 -16.0686 69.8474 -45.0775 67.1145C-87.9987 63.0706 -126.641 90.0295 -136.898 128.98C-132.686 90.0942 -158.391 52.9876 -199.004 42.7285C-243.882 31.3923 -289.836 57.1251 -301.646 100.204C-369.309 96.0015 -427.709 145.246 -432.088 210.197C-436.466 275.147 -385.164 331.206 -317.501 335.409C-352.383 337.192 -379.155 365.782 -377.298 399.265C-375.768 426.821 -355.313 449.064 -328.682 455.097C-347.773 456.856 -364.723 469.506 -370.355 488.271C-377.714 512.791 -362.973 538.397 -337.427 545.462C-389.133 536.266 -438.811 569.045 -448.39 618.676Z" fill="url(#paint0_linear_129_1751)" stroke="#F4A27E" stroke-width="2" mask="url(#path-1-inside-1_129_1751)"/>
<defs>
<linearGradient id="paint0_linear_129_1751" x1="819" y1="105" x2="787.147" y2="743.507" gradientUnits="userSpaceOnUse">
<stop stop-color="white"/>
<stop offset="0.432692" stop-color="#F4A27E"/>
<stop offset="1" stop-color="white"/>
</linearGradient>
</defs>
</svg>
