<svg width="339" height="336" viewBox="0 0 339 336" fill="none" xmlns="http://www.w3.org/2000/svg">
<mask id="path-1-inside-1_163_529" fill="white">
<path d="M166.595 7.61328C256.52 7.61328 329.419 78.8079 329.419 166.631C329.419 254.454 256.52 325.648 166.595 325.648C76.6699 325.648 3.77152 254.454 3.77148 166.631C3.77148 78.8081 76.6698 7.6135 166.595 7.61328ZM295.943 120.323C269.322 50.9733 191.523 16.3352 122.173 42.956C52.8229 69.577 18.1838 147.377 44.8047 216.727C71.4256 286.076 149.225 320.714 218.575 294.094C287.925 267.473 322.564 189.673 295.943 120.323Z"/>
</mask>
<path d="M166.595 7.61328C256.52 7.61328 329.419 78.8079 329.419 166.631C329.419 254.454 256.52 325.648 166.595 325.648C76.6699 325.648 3.77152 254.454 3.77148 166.631C3.77148 78.8081 76.6698 7.6135 166.595 7.61328ZM295.943 120.323C269.322 50.9733 191.523 16.3352 122.173 42.956C52.8229 69.577 18.1838 147.377 44.8047 216.727C71.4256 286.076 149.225 320.714 218.575 294.094C287.925 267.473 322.564 189.673 295.943 120.323Z" fill="white"/>
<path d="M166.595 7.61328V5.92161V5.92161V7.61328ZM329.419 166.631H331.111V166.631H329.419ZM166.595 325.648V327.34V327.34V325.648ZM3.77148 166.631H2.07981V166.631H3.77148ZM295.943 120.323L297.523 119.717V119.717L295.943 120.323ZM122.173 42.956L121.567 41.3767V41.3767L122.173 42.956ZM44.8047 216.727L43.2254 217.333V217.333L44.8047 216.727ZM218.575 294.094L219.181 295.673H219.181L218.575 294.094ZM166.595 7.61328V9.30496C255.623 9.30496 327.727 79.7797 327.727 166.631H329.419H331.111C331.111 77.8361 257.416 5.92161 166.595 5.92161V7.61328ZM329.419 166.631H327.727C327.727 253.482 255.623 323.957 166.595 323.957V325.648V327.34C257.416 327.34 331.111 255.425 331.111 166.631H329.419ZM166.595 325.648V323.957C77.5662 323.956 5.4632 253.482 5.46316 166.631H3.77148H2.07981C2.07985 255.425 75.7735 327.34 166.595 327.34V325.648ZM3.77148 166.631H5.46316C5.46316 79.7798 77.5662 9.30517 166.595 9.30496V7.61328V5.92161C75.7735 5.92182 2.07981 77.8363 2.07981 166.631H3.77148ZM295.943 120.323L297.523 119.717C270.567 49.4949 191.789 14.421 121.567 41.3767L122.173 42.956L122.779 44.5354C191.257 18.2493 268.078 52.4518 294.364 120.929L295.943 120.323ZM122.173 42.956L121.567 41.3767C51.3445 68.3325 16.2696 147.111 43.2254 217.333L44.8047 216.727L46.384 216.12C20.0979 147.643 54.3014 70.8215 122.779 44.5354L122.173 42.956ZM44.8047 216.727L43.2254 217.333C70.1811 287.555 148.959 322.628 219.181 295.673L218.575 294.094L217.969 292.514C149.491 318.8 72.6701 284.598 46.384 216.12L44.8047 216.727ZM218.575 294.094L219.181 295.673C289.403 268.717 324.478 189.939 297.523 119.717L295.943 120.323L294.364 120.929C320.65 189.407 286.447 266.228 217.969 292.514L218.575 294.094Z" fill="#F4A27E" mask="url(#path-1-inside-1_163_529)"/>
<path d="M26.1862 190.736C17.0511 185.323 8.70554 171 5.46316 164.092L3.77148 156.057L34.2216 154.788L43.9488 160.286V173.396L46.9092 190.736C46.9092 190.736 38.7046 191.413 26.1862 190.736Z" fill="white"/>
<path d="M5.46316 164.092C8.70554 171 17.0511 185.323 26.1862 190.736C38.7046 191.413 46.9092 190.736 46.9092 190.736L43.9488 173.396M5.46316 164.092C14.7674 163.669 32.8683 163.077 34.2216 164.092M5.46316 164.092L3.77148 156.057L34.2216 154.788M43.9488 173.396C41.5522 170.718 35.575 165.107 34.2216 164.092M43.9488 173.396V160.286L34.2216 154.788M34.2216 164.092V154.788" stroke="#F4A27E" stroke-width="1.69167"/>
<path d="M36.887 224.847C26.7894 221.562 15.5143 209.41 10.8402 203.379L7.43266 195.907L36.8688 188.012L47.5626 191.25L50.4289 204.044L57.1087 220.317C57.1087 220.317 49.2505 222.771 36.887 224.847Z" fill="white"/>
<path d="M10.8402 203.379C15.5143 209.41 26.7894 221.562 36.887 224.847C49.2505 222.771 57.1087 220.317 57.1087 220.317L50.4289 204.044M10.8402 203.379C19.8268 200.932 37.3604 196.397 38.9029 197.091M10.8402 203.379L7.43266 195.907L36.8688 188.012M50.4289 204.044C47.5048 201.954 40.4454 197.786 38.9029 197.091M50.4289 204.044L47.5626 191.25L36.8688 188.012M38.9029 197.091L36.8688 188.012" stroke="#F4A27E" stroke-width="1.69168"/>
<path d="M55.1267 256.145C44.5702 254.998 31.0447 245.414 25.2339 240.468L20.3679 233.853L47.562 220.094L58.6924 221.073L64.1191 233.008L73.9911 247.567C73.9911 247.567 66.8024 251.579 55.1267 256.145Z" fill="white"/>
<path d="M25.2339 240.468C31.0447 245.414 44.5702 254.998 55.1267 256.145C66.8024 251.579 73.9911 247.567 73.9911 247.567L64.1191 233.008M25.2339 240.468C33.5286 236.232 49.7611 228.2 51.4132 228.564M25.2339 240.468L20.3679 233.853L47.562 220.094M64.1191 233.008C60.8288 231.561 53.0652 228.928 51.4132 228.564M64.1191 233.008L58.6924 221.073L47.562 220.094M51.4132 228.564L47.562 220.094" stroke="#F4A27E" stroke-width="1.69167"/>
<path d="M80.4863 279.685C70.1747 282.219 54.1862 277.842 47.0338 275.183L40.1982 270.632L61.0429 248.399L71.8364 245.51L81.0191 254.868L95.2771 265.17C95.2771 265.17 89.8951 271.4 80.4863 279.685Z" fill="white"/>
<path d="M47.0338 275.183C54.1862 277.842 70.1747 282.219 80.4863 279.685C89.8951 271.4 95.2771 265.17 95.2771 265.17L81.0191 254.868M47.0338 275.183C53.3783 268.364 65.8829 255.263 67.5597 255.04M47.0338 275.183L40.1982 270.632L61.0429 248.399M81.0191 254.868C77.4326 254.634 69.2366 254.816 67.5597 255.04M81.0191 254.868L71.8364 245.51L61.0429 248.399M67.5597 255.04L61.0429 248.399" stroke="#F4A27E" stroke-width="1.69168"/>
<path d="M109.651 298.164C99.7539 302.011 83.3336 299.739 75.8973 298.027L68.5305 294.399L86.3243 269.656L96.6534 265.396L106.969 273.487L122.44 281.858C122.44 281.858 117.909 288.732 109.651 298.164Z" fill="white"/>
<path d="M75.8973 298.027C83.3336 299.739 99.7539 302.011 109.651 298.164C117.909 288.732 122.44 281.858 122.44 281.858L106.969 273.487M75.8973 298.027C81.3065 290.445 92.0115 275.837 93.6453 275.398M75.8973 298.027L68.5305 294.399L86.3243 269.656M106.969 273.487C103.383 273.719 95.2792 274.96 93.6453 275.398M106.969 273.487L96.6534 265.396L86.3243 269.656M93.6453 275.398L86.3243 269.656" stroke="#F4A27E" stroke-width="1.69168"/>
<path d="M141.606 309.162C132.554 314.712 115.991 315.404 108.369 315.046L100.474 312.79L113.57 285.271L122.973 279.236L134.567 285.358L151.283 290.836C151.283 290.836 148.05 298.408 141.606 309.162Z" fill="white"/>
<path d="M108.369 315.046C115.991 315.404 132.554 314.712 141.606 309.162C148.05 298.408 151.283 290.836 151.283 290.836L134.567 285.358M108.369 315.046C112.34 306.621 120.268 290.338 121.797 289.615M108.369 315.046L100.474 312.79L113.57 285.271M134.567 285.358C131.079 286.226 123.327 288.892 121.797 289.615M134.567 285.358L122.973 279.236L113.57 285.271M121.797 289.615L113.57 285.271" stroke="#F4A27E" stroke-width="1.69167"/>
<path d="M174.667 314.388C166.428 321.087 150.102 323.963 142.5 324.616L134.375 323.423L143.717 294.414L152.241 287.189L164.542 291.724L181.835 294.944C181.835 294.944 179.632 302.876 174.667 314.388Z" fill="white"/>
<path d="M142.5 324.616C150.102 323.963 166.428 321.087 174.667 314.388C179.632 302.876 181.835 294.944 181.835 294.944L164.542 291.724M142.5 324.616C145.321 315.74 151.027 298.551 152.447 297.632M142.5 324.616L134.375 323.423L143.717 294.414M164.542 291.724C161.2 293.046 153.868 296.714 152.447 297.632M164.542 291.724L152.241 287.189L143.717 294.414M152.447 297.632L143.717 294.414" stroke="#F4A27E" stroke-width="1.69168"/>
<path d="M205.695 304.69C200.975 314.202 187.311 323.588 180.664 327.335L172.776 329.618L169.249 299.347L174.01 289.238L187.084 288.264L204.156 284.024C204.156 284.024 205.44 292.156 205.695 304.69Z" fill="white"/>
<path d="M180.664 327.335C187.311 323.588 200.975 314.202 205.695 304.69C205.44 292.156 204.156 284.024 204.156 284.024L187.084 288.264M180.664 327.335C179.551 318.088 177.616 300.081 178.528 298.656M180.664 327.335L172.776 329.618L169.249 299.347M187.084 288.264C184.591 290.853 179.439 297.231 178.528 298.656M187.084 288.264L174.01 289.238L169.249 299.347M178.528 298.656L169.249 299.347" stroke="#F4A27E" stroke-width="1.69168"/>
<path d="M237.924 290.227C235.397 300.54 224.117 312.687 218.449 317.796L211.251 321.749L201.191 292.981L203.627 282.076L216.172 278.267L231.904 270.397C231.904 270.397 234.935 278.052 237.924 290.227Z" fill="white"/>
<path d="M218.449 317.796C224.117 312.687 235.397 300.54 237.924 290.227C234.935 278.052 231.904 270.397 231.904 270.397L216.172 278.267M218.449 317.796C215.341 309.016 209.516 291.868 210.094 290.278M218.449 317.796L211.251 321.749L201.191 292.981M216.172 278.267C214.305 281.339 210.673 288.688 210.094 290.278M216.172 278.267L203.627 282.076L201.191 292.981M210.094 290.278L201.191 292.981" stroke="#F4A27E" stroke-width="1.69167"/>
<path d="M267.485 266.555C267.125 277.168 258.572 291.368 254.071 297.53L247.836 302.873L232.096 276.776L232.245 265.604L243.744 259.306L257.53 248.38C257.53 248.38 262.065 255.251 267.485 266.555Z" fill="white"/>
<path d="M254.071 297.53C258.572 291.368 267.125 277.168 267.485 266.555C262.065 255.251 257.53 248.38 257.53 248.38L243.744 259.306M254.071 297.53C249.231 289.572 240.016 273.981 240.256 272.307M254.071 297.53L247.836 302.873L232.096 276.776M243.744 259.306C242.546 262.695 240.496 270.632 240.256 272.307M243.744 259.306L232.245 265.604L232.096 276.776M240.256 272.307L232.096 276.776" stroke="#F4A27E" stroke-width="1.69168"/>
<path d="M289.075 239.517C292.369 249.612 289.191 265.881 287.07 273.211L283.04 280.366L259.32 261.23L255.638 250.681L264.287 240.829L273.502 225.845C273.502 225.845 280.114 230.749 289.075 239.517Z" fill="white"/>
<path d="M287.07 273.211C289.191 265.881 292.369 249.612 289.075 239.517C280.114 230.749 273.502 225.845 273.502 225.845L264.287 240.829M287.07 273.211C279.799 267.391 265.806 255.894 265.459 254.238M287.07 273.211L283.04 280.366L259.32 261.23M264.287 240.829C264.321 244.422 265.111 252.582 265.459 254.238M264.287 240.829L255.638 250.681L259.32 261.23M265.459 254.238L259.32 261.23" stroke="#F4A27E" stroke-width="1.69168"/>
<path d="M305.338 209.061C309.91 218.645 308.863 235.188 307.708 242.731L304.637 250.347L278.641 234.44L273.625 224.456L280.928 213.568L288.127 197.518C288.127 197.518 295.318 201.526 305.338 209.061Z" fill="white"/>
<path d="M307.708 242.731C308.863 235.188 309.91 218.645 305.338 209.061C295.318 201.526 288.127 197.518 288.127 197.518L280.928 213.568M307.708 242.731C299.745 237.9 284.382 228.31 283.824 226.713M307.708 242.731L304.637 250.347L278.641 234.44M280.928 213.568C281.426 217.127 283.265 225.116 283.824 226.713M280.928 213.568L273.625 224.456L278.641 234.44M283.824 226.713L278.641 234.44" stroke="#F4A27E" stroke-width="1.69167"/>
<path d="M313.932 176.376C320.139 184.992 322.06 201.457 322.269 209.085L320.605 217.126L292.189 206.11L285.473 197.18L290.717 185.164L294.939 168.088C294.939 168.088 302.729 170.749 313.932 176.376Z" fill="white"/>
<path d="M322.269 209.085C322.06 201.457 320.139 184.992 313.932 176.376C302.729 170.749 294.939 168.088 294.939 168.088L290.717 185.164M322.269 209.085C313.572 205.751 296.745 199.054 295.911 197.582M322.269 209.085L320.605 217.126L292.189 206.11M290.717 185.164C291.842 188.578 295.076 196.111 295.911 197.582M290.717 185.164L285.473 197.18L292.189 206.11M295.911 197.582L292.189 206.11" stroke="#F4A27E" stroke-width="1.69167"/>
<path d="M316.689 143.019C323.981 150.738 328.062 166.804 329.278 174.338L328.692 182.528L299.069 175.366L291.231 167.403L294.84 154.799L296.767 137.315C296.767 137.315 304.841 138.922 316.689 143.019Z" fill="white"/>
<path d="M329.278 174.338C328.062 166.804 323.981 150.738 316.689 143.019C304.841 138.922 296.767 137.315 296.767 137.315L294.84 154.799M329.278 174.338C320.216 172.183 302.652 167.77 301.63 166.422M329.278 174.338L328.692 182.528L299.069 175.366M294.84 154.799C296.406 158.034 300.608 165.073 301.63 166.422M294.84 154.799L291.231 167.403L299.069 175.366M301.63 166.422L299.069 175.366" stroke="#F4A27E" stroke-width="1.69167"/>
<path d="M299.97 111.804C310.073 115.072 321.369 127.204 326.054 133.228L329.474 140.693L300.052 148.639L289.353 145.42L286.464 132.631L279.756 116.37C279.756 116.37 287.61 113.902 299.97 111.804Z" fill="white"/>
<path d="M326.054 133.228C321.369 127.204 310.073 115.072 299.97 111.804C287.61 113.902 279.756 116.37 279.756 116.37L286.464 132.631M326.054 133.228C317.071 135.69 299.546 140.256 298.002 139.564M326.054 133.228L329.474 140.693L300.052 148.639M286.464 132.631C289.392 134.716 296.458 138.872 298.002 139.564M286.464 132.631L289.353 145.42L300.052 148.639M298.002 139.564L300.052 148.639" stroke="#F4A27E" stroke-width="1.69167"/>
<path d="M282.018 80.889C292.591 81.8688 306.267 91.2378 312.155 96.0915L317.125 102.628L290.151 116.815L279.007 116.012L273.392 104.165L263.291 89.7636C263.291 89.7636 270.416 85.6385 282.018 80.889Z" fill="white"/>
<path d="M312.155 96.0915C306.267 91.2378 292.591 81.8688 282.018 80.889C270.416 85.6385 263.291 89.7636 263.291 89.7636L273.392 104.165M312.155 96.0915C303.928 100.458 287.824 108.745 286.167 108.407M312.155 96.0915L317.125 102.628L290.151 116.815M273.392 104.165C276.705 105.559 284.509 108.07 286.167 108.407M273.392 104.165L279.007 116.012L290.151 116.815M286.167 108.407L290.151 116.815" stroke="#F4A27E" stroke-width="1.69167"/>
<path d="M257.33 54.3799C267.88 53.1727 283.185 59.5411 289.943 63.0855L296.146 68.4654L272.652 87.8775L261.579 89.3752L253.657 78.9294L240.819 66.903C240.819 66.903 246.948 61.4057 257.33 54.3799Z" fill="white"/>
<path d="M289.943 63.0855C283.185 59.5411 267.88 53.1727 257.33 54.3799C246.948 61.4057 240.819 66.903 240.819 66.903L253.657 78.9294M289.943 63.0855C282.785 69.045 268.721 80.4553 267.029 80.4644M289.943 63.0855L296.146 68.4654L272.652 87.8775M253.657 78.9294C257.185 79.6152 265.338 80.4735 267.029 80.4644M253.657 78.9294L261.579 89.3752L272.652 87.8775M267.029 80.4644L272.652 87.8775" stroke="#F4A27E" stroke-width="1.69167"/>
<path d="M227.407 37.0059C236.907 32.2617 253.467 33.0089 261.029 34.027L268.699 36.9595L253.265 63.2389L243.374 68.4349L232.355 61.3306L216.177 54.4227C216.177 54.4227 220.055 47.1604 227.407 37.0059Z" fill="white"/>
<path d="M261.029 34.027C253.467 33.0089 236.907 32.2617 227.407 37.0059C220.055 47.1604 216.177 54.4227 216.177 54.4227L232.355 61.3306M261.029 34.027C256.343 42.0759 247.032 57.6098 245.445 58.1972M261.029 34.027L268.699 36.9595L253.265 63.2389M232.355 61.3306C235.905 60.7678 243.859 58.7846 245.445 58.1972M232.355 61.3306L243.374 68.4349L253.265 63.2389M245.445 58.1972L253.265 63.2389" stroke="#F4A27E" stroke-width="1.69168"/>
<path d="M194.889 25.4054C203.695 19.4723 220.213 18.0712 227.843 18.1025L235.828 20.0182L223.923 48.0733L214.787 54.5051L202.941 48.8857L186.006 44.1283C186.006 44.1283 188.912 36.4255 194.889 25.4054Z" fill="white"/>
<path d="M227.843 18.1025C220.213 18.0712 203.695 19.4723 194.889 25.4054C188.912 36.4255 186.006 44.1283 186.006 44.1283L202.941 48.8857M227.843 18.1025C224.237 26.69 217.014 43.2977 215.517 44.0853M227.843 18.1025L235.828 20.0182L223.923 48.0733M202.941 48.8857C206.389 47.8685 214.02 44.873 215.517 44.0853M202.941 48.8857L214.787 54.5051L223.923 48.0733M215.517 44.0853L223.923 48.0733" stroke="#F4A27E" stroke-width="1.69168"/>
<path d="M161.295 21.7184C168.902 14.31 184.905 9.98575 192.419 8.65578L200.618 9.11684L193.907 38.8453L186.063 46.8033L173.406 43.3863L155.894 41.7252C155.894 41.7252 157.379 33.6278 161.295 21.7184Z" fill="white"/>
<path d="M192.419 8.65578C184.905 9.98576 168.902 14.31 161.295 21.7184C157.379 33.6278 155.894 41.7252 155.894 41.7252L173.406 43.3863M192.419 8.65578C190.403 17.7487 186.257 35.3783 184.924 36.4203M192.419 8.65578L200.618 9.11684L193.907 38.8453M173.406 43.3863C176.617 41.7707 183.591 37.4624 184.924 36.4203M173.406 43.3863L186.063 46.8033L193.907 38.8453M184.924 36.4203L193.907 38.8453" stroke="#F4A27E" stroke-width="1.69167"/>
<path d="M127.895 23.9046C134.456 15.5553 149.746 9.15304 157.018 6.84117L165.206 6.21408L162.485 36.5689L155.763 45.4941L142.765 43.7808L125.187 44.4499C125.187 44.4499 125.588 36.2272 127.895 23.9046Z" fill="white"/>
<path d="M157.018 6.84117C149.746 9.15304 134.456 15.5553 127.895 23.9046C125.588 36.2272 125.187 44.4499 125.187 44.4499L142.765 43.7808M157.018 6.84117C156.222 16.1209 154.443 34.1439 153.26 35.353M157.018 6.84117L165.206 6.21408L162.485 36.5689M142.765 43.7808C145.733 41.7549 152.077 36.5621 153.26 35.353M142.765 43.7808L155.763 45.4941L162.485 36.5689M153.26 35.353L162.485 36.5689" stroke="#F4A27E" stroke-width="1.69167"/>
<path d="M96.6142 42.0891C99.1225 31.7711 110.382 19.6051 116.041 14.486L123.232 10.5206L133.342 39.2715L130.925 50.1805L118.387 54.0108L102.669 61.908C102.669 61.908 99.6244 54.259 96.6142 42.0891Z" fill="white"/>
<path d="M116.041 14.486C110.382 19.6051 99.1225 31.7711 96.6142 42.0891C99.6244 54.259 102.669 61.908 102.669 61.908L118.387 54.0108M116.041 14.486C119.164 23.2608 125.019 40.399 124.443 41.9898M116.041 14.486L123.232 10.5206L133.342 39.2715M118.387 54.0108C120.248 50.9363 123.868 43.5806 124.443 41.9898M118.387 54.0108L130.925 50.1805L133.342 39.2715M124.443 41.9898L133.342 39.2715" stroke="#F4A27E" stroke-width="1.69167"/>
<path d="M67.118 62.2878C67.3098 51.671 75.6373 37.3376 80.0403 31.1052L86.19 25.6636L102.341 51.5088L102.368 62.6821L90.9703 69.161L77.3588 80.3036C77.3588 80.3036 72.716 73.5052 67.118 62.2878Z" fill="white"/>
<path d="M80.0403 31.1052C75.6373 37.3376 67.3098 51.671 67.118 62.2878C72.716 73.5052 77.3588 80.3036 77.3588 80.3036L90.9703 69.161M80.0403 31.1052C85.0059 38.9849 94.4657 54.4286 94.2521 56.1067M80.0403 31.1052L86.19 25.6636L102.341 51.5088M90.9703 69.161C92.1145 65.7539 94.0384 57.7848 94.2521 56.1067M90.9703 69.161L102.368 62.6821L102.341 51.5088M94.2521 56.1067L102.341 51.5088" stroke="#F4A27E" stroke-width="1.69167"/>
<path d="M42.5149 88.8755C40.5275 78.4446 45.7417 62.7091 48.7744 55.7068L53.6787 49.1207L74.7821 71.1086L77.098 82.0393L67.2694 90.716L56.2297 104.411C56.2297 104.411 50.2925 98.708 42.5149 88.8755Z" fill="white"/>
<path d="M48.7744 55.7068C45.7417 62.7091 40.5275 78.4446 42.5149 88.8755C50.2925 98.708 56.2297 104.411 56.2297 104.411L67.2694 90.716M48.7744 55.7068C55.249 62.402 67.6723 75.5799 67.807 77.2662M48.7744 55.7068L53.6787 49.1207L74.7821 71.1086M67.2694 90.716C67.6914 87.1467 67.9418 78.9525 67.807 77.2662M67.2694 90.716L77.098 82.0393L74.7821 71.1086M67.807 77.2662L74.7821 71.1086" stroke="#F4A27E" stroke-width="1.69167"/>
<path d="M30.3709 120.952C24.9343 111.831 24.4495 95.2611 24.9031 87.6438L27.2578 79.777L54.611 93.2167L60.5273 102.695L54.2609 114.211L48.5735 130.857C48.5735 130.857 41.0434 127.53 30.3709 120.952Z" fill="white"/>
<path d="M24.9031 87.6438C24.4495 95.2611 24.9343 111.831 30.3709 120.952C41.0434 127.53 48.5735 130.857 48.5735 130.857L54.2609 114.211M24.9031 87.6438C33.2779 91.7194 49.4603 99.8509 50.1639 101.389M24.9031 87.6438L27.2578 79.777L54.611 93.2167M54.2609 114.211C53.4361 110.713 50.8675 102.928 50.1639 101.389M54.2609 114.211L60.5273 102.695L54.611 93.2167M50.1639 101.389L54.611 93.2167" stroke="#F4A27E" stroke-width="1.69167"/>
<path d="M21.5348 154.789C14.964 146.447 12.2111 128.551 11.6756 120.939L12.993 112.834L41.8548 122.622L48.9474 131.256L44.2233 143.486L41.8548 159.018C41.8548 159.018 38.5022 157.326 34.2224 154.366C31.2619 154.366 27.281 154.478 21.5348 154.789Z" fill="white"/>
<path d="M11.6756 120.939C12.2111 128.551 14.964 146.447 21.5348 154.789C27.281 154.478 31.2619 154.366 34.2224 154.366C38.5022 157.326 41.8548 159.018 41.8548 159.018L44.2233 143.486M11.6756 120.939C20.5072 123.897 37.6055 129.867 38.5022 131.302M11.6756 120.939L12.993 112.834L41.8548 122.622M44.2233 143.486C42.9529 140.124 39.3989 132.736 38.5022 131.302M44.2233 143.486L48.9474 131.256L41.8548 122.622M38.5022 131.302L41.8548 122.622" stroke="#F4A27E" stroke-width="1.69168"/>
</svg>
