<svg width="190" height="445" viewBox="0 0 190 445" fill="none" xmlns="http://www.w3.org/2000/svg">
<path fill-rule="evenodd" clip-rule="evenodd" d="M126.5 150.863C130.1 89.2627 161.5 -6.63724 189.5 0.362732V13.8627C178.833 34.5297 154.8 104.463 158 150.863C88.5014 150.863 82.6015 378.851 79 384.862C76 389.862 58.4999 405.362 40 428.862C40.0001 417.861 42.5 359.861 41 333.862C33.0001 353.862 6.84293 438.587 0 444.362C16.8333 359.528 26.5004 226.363 126.5 150.863ZM75.0557 299.247C73.3402 304.928 69.9509 318.231 70.1143 325.987C70.3185 335.682 70.1142 351.862 72.5 341.863C74.1058 335.132 75.4884 314.152 77.1357 305.239L75.0557 299.247Z" fill="white" fill-opacity="0.6"/>
</svg>
